G04 EAGLE Gerber RS-274X export*
G75*
%MOMM*%
%FSLAX34Y34*%
%LPD*%
%IN*%
%IPPOS*%
%AMOC8*
5,1,8,0,0,1.08239X$1,22.5*%
G01*
%ADD10C,0.254000*%


D10*
X0Y0D02*
X800000Y0D01*
X800000Y800000D01*
X0Y800000D01*
X0Y0D01*
X785000Y19719D02*
X784937Y19161D01*
X784812Y18614D01*
X784627Y18084D01*
X784383Y17578D01*
X784084Y17102D01*
X783734Y16663D01*
X783337Y16266D01*
X782898Y15916D01*
X782422Y15617D01*
X781916Y15373D01*
X781386Y15188D01*
X780839Y15063D01*
X780281Y15000D01*
X779719Y15000D01*
X779161Y15063D01*
X778614Y15188D01*
X778084Y15373D01*
X777578Y15617D01*
X777102Y15916D01*
X776663Y16266D01*
X776266Y16663D01*
X775916Y17102D01*
X775617Y17578D01*
X775373Y18084D01*
X775188Y18614D01*
X775063Y19161D01*
X775000Y19719D01*
X775000Y20281D01*
X775063Y20839D01*
X775188Y21386D01*
X775373Y21916D01*
X775617Y22422D01*
X775916Y22898D01*
X776266Y23337D01*
X776663Y23734D01*
X777102Y24084D01*
X777578Y24383D01*
X778084Y24627D01*
X778614Y24812D01*
X779161Y24937D01*
X779719Y25000D01*
X780281Y25000D01*
X780839Y24937D01*
X781386Y24812D01*
X781916Y24627D01*
X782422Y24383D01*
X782898Y24084D01*
X783337Y23734D01*
X783734Y23337D01*
X784084Y22898D01*
X784383Y22422D01*
X784627Y21916D01*
X784812Y21386D01*
X784937Y20839D01*
X785000Y20281D01*
X785000Y19719D01*
X25000Y19819D02*
X24937Y19261D01*
X24812Y18714D01*
X24627Y18184D01*
X24383Y17678D01*
X24084Y17202D01*
X23734Y16763D01*
X23337Y16366D01*
X22898Y16016D01*
X22422Y15717D01*
X21916Y15473D01*
X21386Y15288D01*
X20839Y15163D01*
X20281Y15100D01*
X19719Y15100D01*
X19161Y15163D01*
X18614Y15288D01*
X18084Y15473D01*
X17578Y15717D01*
X17102Y16016D01*
X16663Y16366D01*
X16266Y16763D01*
X15916Y17202D01*
X15617Y17678D01*
X15373Y18184D01*
X15188Y18714D01*
X15063Y19261D01*
X15000Y19819D01*
X15000Y20381D01*
X15063Y20939D01*
X15188Y21486D01*
X15373Y22016D01*
X15617Y22522D01*
X15916Y22998D01*
X16266Y23437D01*
X16663Y23834D01*
X17102Y24184D01*
X17578Y24483D01*
X18084Y24727D01*
X18614Y24912D01*
X19161Y25037D01*
X19719Y25100D01*
X20281Y25100D01*
X20839Y25037D01*
X21386Y24912D01*
X21916Y24727D01*
X22422Y24483D01*
X22898Y24184D01*
X23337Y23834D01*
X23734Y23437D01*
X24084Y22998D01*
X24383Y22522D01*
X24627Y22016D01*
X24812Y21486D01*
X24937Y20939D01*
X25000Y20381D01*
X25000Y19819D01*
X25100Y779719D02*
X25037Y779161D01*
X24912Y778614D01*
X24727Y778084D01*
X24483Y777578D01*
X24184Y777102D01*
X23834Y776663D01*
X23437Y776266D01*
X22998Y775916D01*
X22522Y775617D01*
X22016Y775373D01*
X21486Y775188D01*
X20939Y775063D01*
X20381Y775000D01*
X19819Y775000D01*
X19261Y775063D01*
X18714Y775188D01*
X18184Y775373D01*
X17678Y775617D01*
X17202Y775916D01*
X16763Y776266D01*
X16366Y776663D01*
X16016Y777102D01*
X15717Y777578D01*
X15473Y778084D01*
X15288Y778614D01*
X15163Y779161D01*
X15100Y779719D01*
X15100Y780281D01*
X15163Y780839D01*
X15288Y781386D01*
X15473Y781916D01*
X15717Y782422D01*
X16016Y782898D01*
X16366Y783337D01*
X16763Y783734D01*
X17202Y784084D01*
X17678Y784383D01*
X18184Y784627D01*
X18714Y784812D01*
X19261Y784937D01*
X19819Y785000D01*
X20381Y785000D01*
X20939Y784937D01*
X21486Y784812D01*
X22016Y784627D01*
X22522Y784383D01*
X22998Y784084D01*
X23437Y783734D01*
X23834Y783337D01*
X24184Y782898D01*
X24483Y782422D01*
X24727Y781916D01*
X24912Y781386D01*
X25037Y780839D01*
X25100Y780281D01*
X25100Y779719D01*
X785000Y779719D02*
X784937Y779161D01*
X784812Y778614D01*
X784627Y778084D01*
X784383Y777578D01*
X784084Y777102D01*
X783734Y776663D01*
X783337Y776266D01*
X782898Y775916D01*
X782422Y775617D01*
X781916Y775373D01*
X781386Y775188D01*
X780839Y775063D01*
X780281Y775000D01*
X779719Y775000D01*
X779161Y775063D01*
X778614Y775188D01*
X778084Y775373D01*
X777578Y775617D01*
X777102Y775916D01*
X776663Y776266D01*
X776266Y776663D01*
X775916Y777102D01*
X775617Y777578D01*
X775373Y778084D01*
X775188Y778614D01*
X775063Y779161D01*
X775000Y779719D01*
X775000Y780281D01*
X775063Y780839D01*
X775188Y781386D01*
X775373Y781916D01*
X775617Y782422D01*
X775916Y782898D01*
X776266Y783337D01*
X776663Y783734D01*
X777102Y784084D01*
X777578Y784383D01*
X778084Y784627D01*
X778614Y784812D01*
X779161Y784937D01*
X779719Y785000D01*
X780281Y785000D01*
X780839Y784937D01*
X781386Y784812D01*
X781916Y784627D01*
X782422Y784383D01*
X782898Y784084D01*
X783337Y783734D01*
X783734Y783337D01*
X784084Y782898D01*
X784383Y782422D01*
X784627Y781916D01*
X784812Y781386D01*
X784937Y780839D01*
X785000Y780281D01*
X785000Y779719D01*
M02*
