G04 EAGLE Gerber RS-274X export*
G75*
%MOMM*%
%FSLAX34Y34*%
%LPD*%
%INSilkscreen Bottom*%
%IPPOS*%
%AMOC8*
5,1,8,0,0,1.08239X$1,22.5*%
G01*
%ADD10C,0.152400*%
%ADD11C,0.101600*%
%ADD12C,0.127000*%
%ADD13C,0.200000*%


D10*
X205413Y220452D02*
X209026Y220452D01*
X209144Y220454D01*
X209262Y220460D01*
X209380Y220469D01*
X209497Y220483D01*
X209614Y220500D01*
X209731Y220521D01*
X209846Y220546D01*
X209961Y220575D01*
X210075Y220608D01*
X210187Y220644D01*
X210298Y220684D01*
X210408Y220727D01*
X210517Y220774D01*
X210624Y220824D01*
X210729Y220879D01*
X210832Y220936D01*
X210933Y220997D01*
X211033Y221061D01*
X211130Y221128D01*
X211225Y221198D01*
X211317Y221272D01*
X211408Y221348D01*
X211495Y221428D01*
X211580Y221510D01*
X211662Y221595D01*
X211742Y221682D01*
X211818Y221773D01*
X211892Y221865D01*
X211962Y221960D01*
X212029Y222057D01*
X212093Y222157D01*
X212154Y222258D01*
X212211Y222361D01*
X212266Y222466D01*
X212316Y222573D01*
X212363Y222682D01*
X212406Y222792D01*
X212446Y222903D01*
X212482Y223015D01*
X212515Y223129D01*
X212544Y223244D01*
X212569Y223359D01*
X212590Y223476D01*
X212607Y223593D01*
X212621Y223710D01*
X212630Y223828D01*
X212636Y223946D01*
X212638Y224064D01*
X212638Y233096D01*
X212636Y233214D01*
X212630Y233332D01*
X212621Y233450D01*
X212607Y233567D01*
X212590Y233684D01*
X212569Y233801D01*
X212544Y233916D01*
X212515Y234031D01*
X212482Y234145D01*
X212446Y234257D01*
X212406Y234368D01*
X212363Y234478D01*
X212316Y234587D01*
X212266Y234694D01*
X212211Y234799D01*
X212154Y234902D01*
X212093Y235003D01*
X212029Y235103D01*
X211962Y235200D01*
X211892Y235295D01*
X211818Y235387D01*
X211742Y235478D01*
X211662Y235565D01*
X211580Y235650D01*
X211495Y235732D01*
X211408Y235812D01*
X211317Y235888D01*
X211225Y235962D01*
X211130Y236032D01*
X211033Y236099D01*
X210933Y236163D01*
X210832Y236224D01*
X210729Y236281D01*
X210624Y236336D01*
X210517Y236386D01*
X210408Y236433D01*
X210298Y236476D01*
X210187Y236516D01*
X210075Y236552D01*
X209961Y236585D01*
X209846Y236614D01*
X209731Y236639D01*
X209614Y236660D01*
X209497Y236677D01*
X209380Y236691D01*
X209262Y236700D01*
X209144Y236706D01*
X209026Y236708D01*
X205413Y236708D01*
X196624Y226774D02*
X192560Y226774D01*
X196624Y226774D02*
X196736Y226772D01*
X196847Y226766D01*
X196958Y226756D01*
X197069Y226743D01*
X197179Y226725D01*
X197288Y226703D01*
X197397Y226678D01*
X197505Y226649D01*
X197611Y226616D01*
X197717Y226579D01*
X197821Y226539D01*
X197923Y226495D01*
X198024Y226447D01*
X198123Y226396D01*
X198221Y226341D01*
X198316Y226283D01*
X198409Y226222D01*
X198500Y226157D01*
X198589Y226089D01*
X198675Y226018D01*
X198758Y225945D01*
X198839Y225868D01*
X198918Y225788D01*
X198993Y225706D01*
X199065Y225621D01*
X199135Y225534D01*
X199201Y225444D01*
X199264Y225352D01*
X199324Y225257D01*
X199380Y225161D01*
X199433Y225063D01*
X199482Y224963D01*
X199528Y224861D01*
X199570Y224758D01*
X199609Y224653D01*
X199644Y224547D01*
X199675Y224440D01*
X199702Y224332D01*
X199726Y224223D01*
X199745Y224113D01*
X199761Y224003D01*
X199773Y223892D01*
X199781Y223780D01*
X199785Y223669D01*
X199785Y223557D01*
X199781Y223446D01*
X199773Y223334D01*
X199761Y223223D01*
X199745Y223113D01*
X199726Y223003D01*
X199702Y222894D01*
X199675Y222786D01*
X199644Y222679D01*
X199609Y222573D01*
X199570Y222468D01*
X199528Y222365D01*
X199482Y222263D01*
X199433Y222163D01*
X199380Y222065D01*
X199324Y221969D01*
X199264Y221874D01*
X199201Y221782D01*
X199135Y221692D01*
X199065Y221605D01*
X198993Y221520D01*
X198918Y221438D01*
X198839Y221358D01*
X198758Y221281D01*
X198675Y221208D01*
X198589Y221137D01*
X198500Y221069D01*
X198409Y221004D01*
X198316Y220943D01*
X198221Y220885D01*
X198123Y220830D01*
X198024Y220779D01*
X197923Y220731D01*
X197821Y220687D01*
X197717Y220647D01*
X197611Y220610D01*
X197505Y220577D01*
X197397Y220548D01*
X197288Y220523D01*
X197179Y220501D01*
X197069Y220483D01*
X196958Y220470D01*
X196847Y220460D01*
X196736Y220454D01*
X196624Y220452D01*
X192560Y220452D01*
X192560Y228580D01*
X192562Y228681D01*
X192568Y228782D01*
X192577Y228883D01*
X192590Y228984D01*
X192607Y229084D01*
X192628Y229183D01*
X192652Y229281D01*
X192680Y229378D01*
X192712Y229475D01*
X192747Y229570D01*
X192786Y229663D01*
X192828Y229755D01*
X192874Y229846D01*
X192923Y229935D01*
X192975Y230021D01*
X193031Y230106D01*
X193089Y230189D01*
X193151Y230269D01*
X193216Y230347D01*
X193283Y230423D01*
X193353Y230496D01*
X193426Y230566D01*
X193502Y230633D01*
X193580Y230698D01*
X193660Y230760D01*
X193743Y230818D01*
X193828Y230874D01*
X193915Y230926D01*
X194003Y230975D01*
X194094Y231021D01*
X194186Y231063D01*
X194279Y231102D01*
X194374Y231137D01*
X194471Y231169D01*
X194568Y231197D01*
X194666Y231221D01*
X194765Y231242D01*
X194865Y231259D01*
X194966Y231272D01*
X195067Y231281D01*
X195168Y231287D01*
X195269Y231289D01*
X198882Y231289D01*
X186941Y231289D02*
X181522Y231289D01*
X185134Y236708D02*
X185134Y223161D01*
X185132Y223060D01*
X185126Y222959D01*
X185117Y222858D01*
X185104Y222757D01*
X185087Y222657D01*
X185066Y222558D01*
X185042Y222460D01*
X185014Y222363D01*
X184982Y222266D01*
X184947Y222171D01*
X184908Y222078D01*
X184866Y221986D01*
X184820Y221895D01*
X184771Y221806D01*
X184719Y221720D01*
X184663Y221635D01*
X184605Y221552D01*
X184543Y221472D01*
X184478Y221394D01*
X184411Y221318D01*
X184341Y221245D01*
X184268Y221175D01*
X184192Y221108D01*
X184114Y221043D01*
X184034Y220981D01*
X183951Y220923D01*
X183866Y220867D01*
X183780Y220815D01*
X183691Y220766D01*
X183600Y220720D01*
X183508Y220678D01*
X183415Y220639D01*
X183320Y220604D01*
X183223Y220572D01*
X183126Y220544D01*
X183028Y220520D01*
X182929Y220499D01*
X182829Y220482D01*
X182728Y220469D01*
X182627Y220460D01*
X182526Y220454D01*
X182425Y220452D01*
X181522Y220452D01*
X166717Y220452D02*
X166717Y236708D01*
X166717Y220452D02*
X159492Y220452D01*
X153895Y220452D02*
X153895Y231289D01*
X154346Y235805D02*
X154346Y236708D01*
X153443Y236708D01*
X153443Y235805D01*
X154346Y235805D01*
X148905Y231289D02*
X143486Y231289D01*
X147099Y236708D02*
X147099Y223161D01*
X147098Y223161D02*
X147096Y223060D01*
X147090Y222959D01*
X147081Y222858D01*
X147068Y222757D01*
X147051Y222657D01*
X147030Y222558D01*
X147006Y222460D01*
X146978Y222363D01*
X146946Y222266D01*
X146911Y222171D01*
X146872Y222078D01*
X146830Y221986D01*
X146784Y221895D01*
X146735Y221806D01*
X146683Y221720D01*
X146627Y221635D01*
X146569Y221552D01*
X146507Y221472D01*
X146442Y221394D01*
X146375Y221318D01*
X146305Y221245D01*
X146232Y221175D01*
X146156Y221108D01*
X146078Y221043D01*
X145998Y220981D01*
X145915Y220923D01*
X145830Y220867D01*
X145744Y220815D01*
X145655Y220766D01*
X145564Y220720D01*
X145472Y220678D01*
X145379Y220639D01*
X145284Y220604D01*
X145187Y220572D01*
X145090Y220544D01*
X144992Y220520D01*
X144893Y220499D01*
X144793Y220482D01*
X144692Y220469D01*
X144591Y220460D01*
X144490Y220454D01*
X144389Y220452D01*
X143486Y220452D01*
X139005Y231289D02*
X133586Y231289D01*
X137199Y236708D02*
X137199Y223161D01*
X137198Y223161D02*
X137196Y223060D01*
X137190Y222959D01*
X137181Y222858D01*
X137168Y222757D01*
X137151Y222657D01*
X137130Y222558D01*
X137106Y222460D01*
X137078Y222363D01*
X137046Y222266D01*
X137011Y222171D01*
X136972Y222078D01*
X136930Y221986D01*
X136884Y221895D01*
X136835Y221806D01*
X136783Y221720D01*
X136727Y221635D01*
X136669Y221552D01*
X136607Y221472D01*
X136542Y221394D01*
X136475Y221318D01*
X136405Y221245D01*
X136332Y221175D01*
X136256Y221108D01*
X136178Y221043D01*
X136098Y220981D01*
X136015Y220923D01*
X135930Y220867D01*
X135844Y220815D01*
X135755Y220766D01*
X135664Y220720D01*
X135572Y220678D01*
X135479Y220639D01*
X135384Y220604D01*
X135287Y220572D01*
X135190Y220544D01*
X135092Y220520D01*
X134993Y220499D01*
X134893Y220482D01*
X134792Y220469D01*
X134691Y220460D01*
X134590Y220454D01*
X134489Y220452D01*
X133586Y220452D01*
X125099Y220452D02*
X120583Y220452D01*
X125099Y220452D02*
X125200Y220454D01*
X125301Y220460D01*
X125402Y220469D01*
X125503Y220482D01*
X125603Y220499D01*
X125702Y220520D01*
X125800Y220544D01*
X125897Y220572D01*
X125994Y220604D01*
X126089Y220639D01*
X126182Y220678D01*
X126274Y220720D01*
X126365Y220766D01*
X126453Y220815D01*
X126540Y220867D01*
X126625Y220923D01*
X126708Y220981D01*
X126788Y221043D01*
X126866Y221108D01*
X126942Y221175D01*
X127015Y221245D01*
X127085Y221318D01*
X127152Y221394D01*
X127217Y221472D01*
X127279Y221552D01*
X127337Y221635D01*
X127393Y221720D01*
X127445Y221806D01*
X127494Y221895D01*
X127540Y221986D01*
X127582Y222078D01*
X127621Y222171D01*
X127656Y222266D01*
X127688Y222363D01*
X127716Y222460D01*
X127740Y222558D01*
X127761Y222657D01*
X127778Y222757D01*
X127791Y222858D01*
X127800Y222959D01*
X127806Y223060D01*
X127808Y223161D01*
X127808Y227677D01*
X127806Y227796D01*
X127800Y227916D01*
X127790Y228035D01*
X127776Y228153D01*
X127759Y228272D01*
X127737Y228389D01*
X127712Y228506D01*
X127682Y228621D01*
X127649Y228736D01*
X127612Y228850D01*
X127572Y228962D01*
X127527Y229073D01*
X127479Y229182D01*
X127428Y229290D01*
X127373Y229396D01*
X127314Y229500D01*
X127252Y229602D01*
X127187Y229702D01*
X127118Y229800D01*
X127046Y229896D01*
X126971Y229989D01*
X126894Y230079D01*
X126813Y230167D01*
X126729Y230252D01*
X126642Y230334D01*
X126553Y230414D01*
X126461Y230490D01*
X126367Y230564D01*
X126270Y230634D01*
X126172Y230701D01*
X126071Y230765D01*
X125967Y230825D01*
X125862Y230882D01*
X125755Y230935D01*
X125647Y230985D01*
X125537Y231031D01*
X125425Y231073D01*
X125312Y231112D01*
X125198Y231147D01*
X125083Y231178D01*
X124966Y231206D01*
X124849Y231229D01*
X124732Y231249D01*
X124613Y231265D01*
X124494Y231277D01*
X124375Y231285D01*
X124256Y231289D01*
X124136Y231289D01*
X124017Y231285D01*
X123898Y231277D01*
X123779Y231265D01*
X123660Y231249D01*
X123543Y231229D01*
X123426Y231206D01*
X123309Y231178D01*
X123194Y231147D01*
X123080Y231112D01*
X122967Y231073D01*
X122855Y231031D01*
X122745Y230985D01*
X122637Y230935D01*
X122530Y230882D01*
X122425Y230825D01*
X122321Y230765D01*
X122220Y230701D01*
X122122Y230634D01*
X122025Y230564D01*
X121931Y230490D01*
X121839Y230414D01*
X121750Y230334D01*
X121663Y230252D01*
X121579Y230167D01*
X121498Y230079D01*
X121421Y229989D01*
X121346Y229896D01*
X121274Y229800D01*
X121205Y229702D01*
X121140Y229602D01*
X121078Y229500D01*
X121019Y229396D01*
X120964Y229290D01*
X120913Y229182D01*
X120865Y229073D01*
X120820Y228962D01*
X120780Y228850D01*
X120743Y228736D01*
X120710Y228621D01*
X120680Y228506D01*
X120655Y228389D01*
X120633Y228272D01*
X120616Y228153D01*
X120602Y228035D01*
X120592Y227916D01*
X120586Y227796D01*
X120584Y227677D01*
X120583Y227677D02*
X120583Y225871D01*
X127808Y225871D01*
X113655Y220452D02*
X113655Y231289D01*
X108236Y231289D01*
X108236Y229483D01*
X102448Y229483D02*
X97933Y229483D01*
X97933Y229484D02*
X97800Y229482D01*
X97668Y229476D01*
X97536Y229466D01*
X97404Y229453D01*
X97272Y229435D01*
X97142Y229414D01*
X97011Y229389D01*
X96882Y229360D01*
X96754Y229327D01*
X96626Y229291D01*
X96500Y229251D01*
X96375Y229207D01*
X96251Y229159D01*
X96129Y229108D01*
X96008Y229053D01*
X95889Y228995D01*
X95771Y228933D01*
X95656Y228868D01*
X95542Y228799D01*
X95431Y228728D01*
X95322Y228652D01*
X95215Y228574D01*
X95110Y228493D01*
X95008Y228408D01*
X94908Y228321D01*
X94811Y228231D01*
X94716Y228138D01*
X94625Y228042D01*
X94536Y227944D01*
X94450Y227843D01*
X94367Y227739D01*
X94287Y227633D01*
X94211Y227525D01*
X94137Y227415D01*
X94067Y227302D01*
X94000Y227188D01*
X93937Y227071D01*
X93877Y226953D01*
X93820Y226833D01*
X93767Y226711D01*
X93718Y226588D01*
X93672Y226464D01*
X93630Y226338D01*
X93592Y226211D01*
X93557Y226083D01*
X93526Y225954D01*
X93499Y225825D01*
X93476Y225694D01*
X93456Y225563D01*
X93441Y225431D01*
X93429Y225299D01*
X93421Y225167D01*
X93417Y225034D01*
X93417Y224902D01*
X93421Y224769D01*
X93429Y224637D01*
X93441Y224505D01*
X93456Y224373D01*
X93476Y224242D01*
X93499Y224111D01*
X93526Y223982D01*
X93557Y223853D01*
X93592Y223725D01*
X93630Y223598D01*
X93672Y223472D01*
X93718Y223348D01*
X93767Y223225D01*
X93820Y223103D01*
X93877Y222983D01*
X93937Y222865D01*
X94000Y222748D01*
X94067Y222634D01*
X94137Y222521D01*
X94211Y222411D01*
X94287Y222303D01*
X94367Y222197D01*
X94450Y222093D01*
X94536Y221992D01*
X94625Y221894D01*
X94716Y221798D01*
X94811Y221705D01*
X94908Y221615D01*
X95008Y221528D01*
X95110Y221443D01*
X95215Y221362D01*
X95322Y221284D01*
X95431Y221208D01*
X95542Y221137D01*
X95656Y221068D01*
X95771Y221003D01*
X95889Y220941D01*
X96008Y220883D01*
X96129Y220828D01*
X96251Y220777D01*
X96375Y220729D01*
X96500Y220685D01*
X96626Y220645D01*
X96754Y220609D01*
X96882Y220576D01*
X97011Y220547D01*
X97142Y220522D01*
X97272Y220501D01*
X97404Y220483D01*
X97536Y220470D01*
X97668Y220460D01*
X97800Y220454D01*
X97933Y220452D01*
X102448Y220452D01*
X102448Y236708D01*
X97933Y236708D01*
X97814Y236706D01*
X97694Y236700D01*
X97575Y236690D01*
X97457Y236676D01*
X97338Y236659D01*
X97221Y236637D01*
X97104Y236612D01*
X96989Y236582D01*
X96874Y236549D01*
X96760Y236512D01*
X96648Y236472D01*
X96537Y236427D01*
X96428Y236379D01*
X96320Y236328D01*
X96214Y236273D01*
X96110Y236214D01*
X96008Y236152D01*
X95908Y236087D01*
X95810Y236018D01*
X95714Y235946D01*
X95621Y235871D01*
X95531Y235794D01*
X95443Y235713D01*
X95358Y235629D01*
X95276Y235542D01*
X95196Y235453D01*
X95120Y235361D01*
X95046Y235267D01*
X94976Y235170D01*
X94909Y235072D01*
X94845Y234971D01*
X94785Y234867D01*
X94728Y234762D01*
X94675Y234655D01*
X94625Y234547D01*
X94579Y234437D01*
X94537Y234325D01*
X94498Y234212D01*
X94463Y234098D01*
X94432Y233983D01*
X94404Y233866D01*
X94381Y233749D01*
X94361Y233632D01*
X94345Y233513D01*
X94333Y233394D01*
X94325Y233275D01*
X94321Y233156D01*
X94321Y233036D01*
X94325Y232917D01*
X94333Y232798D01*
X94345Y232679D01*
X94361Y232560D01*
X94381Y232443D01*
X94404Y232326D01*
X94432Y232209D01*
X94463Y232094D01*
X94498Y231980D01*
X94537Y231867D01*
X94579Y231755D01*
X94625Y231645D01*
X94675Y231537D01*
X94728Y231430D01*
X94785Y231325D01*
X94845Y231221D01*
X94909Y231120D01*
X94976Y231022D01*
X95046Y230925D01*
X95120Y230831D01*
X95196Y230739D01*
X95276Y230650D01*
X95358Y230563D01*
X95443Y230479D01*
X95531Y230398D01*
X95621Y230321D01*
X95714Y230246D01*
X95810Y230174D01*
X95908Y230105D01*
X96008Y230040D01*
X96110Y229978D01*
X96214Y229919D01*
X96320Y229864D01*
X96428Y229813D01*
X96537Y229765D01*
X96648Y229720D01*
X96760Y229680D01*
X96874Y229643D01*
X96989Y229610D01*
X97104Y229580D01*
X97221Y229555D01*
X97338Y229533D01*
X97457Y229516D01*
X97575Y229502D01*
X97694Y229492D01*
X97814Y229486D01*
X97933Y229484D01*
X87688Y227677D02*
X87688Y224064D01*
X87687Y227677D02*
X87685Y227796D01*
X87679Y227916D01*
X87669Y228035D01*
X87655Y228153D01*
X87638Y228272D01*
X87616Y228389D01*
X87591Y228506D01*
X87561Y228621D01*
X87528Y228736D01*
X87491Y228850D01*
X87451Y228962D01*
X87406Y229073D01*
X87358Y229182D01*
X87307Y229290D01*
X87252Y229396D01*
X87193Y229500D01*
X87131Y229602D01*
X87066Y229702D01*
X86997Y229800D01*
X86925Y229896D01*
X86850Y229989D01*
X86773Y230079D01*
X86692Y230167D01*
X86608Y230252D01*
X86521Y230334D01*
X86432Y230414D01*
X86340Y230490D01*
X86246Y230564D01*
X86149Y230634D01*
X86051Y230701D01*
X85950Y230765D01*
X85846Y230825D01*
X85741Y230882D01*
X85634Y230935D01*
X85526Y230985D01*
X85416Y231031D01*
X85304Y231073D01*
X85191Y231112D01*
X85077Y231147D01*
X84962Y231178D01*
X84845Y231206D01*
X84728Y231229D01*
X84611Y231249D01*
X84492Y231265D01*
X84373Y231277D01*
X84254Y231285D01*
X84135Y231289D01*
X84015Y231289D01*
X83896Y231285D01*
X83777Y231277D01*
X83658Y231265D01*
X83539Y231249D01*
X83422Y231229D01*
X83305Y231206D01*
X83188Y231178D01*
X83073Y231147D01*
X82959Y231112D01*
X82846Y231073D01*
X82734Y231031D01*
X82624Y230985D01*
X82516Y230935D01*
X82409Y230882D01*
X82304Y230825D01*
X82200Y230765D01*
X82099Y230701D01*
X82001Y230634D01*
X81904Y230564D01*
X81810Y230490D01*
X81718Y230414D01*
X81629Y230334D01*
X81542Y230252D01*
X81458Y230167D01*
X81377Y230079D01*
X81300Y229989D01*
X81225Y229896D01*
X81153Y229800D01*
X81084Y229702D01*
X81019Y229602D01*
X80957Y229500D01*
X80898Y229396D01*
X80843Y229290D01*
X80792Y229182D01*
X80744Y229073D01*
X80699Y228962D01*
X80659Y228850D01*
X80622Y228736D01*
X80589Y228621D01*
X80559Y228506D01*
X80534Y228389D01*
X80512Y228272D01*
X80495Y228153D01*
X80481Y228035D01*
X80471Y227916D01*
X80465Y227796D01*
X80463Y227677D01*
X80463Y224064D01*
X80465Y223945D01*
X80471Y223825D01*
X80481Y223706D01*
X80495Y223588D01*
X80512Y223469D01*
X80534Y223352D01*
X80559Y223235D01*
X80589Y223120D01*
X80622Y223005D01*
X80659Y222891D01*
X80699Y222779D01*
X80744Y222668D01*
X80792Y222559D01*
X80843Y222451D01*
X80898Y222345D01*
X80957Y222241D01*
X81019Y222139D01*
X81084Y222039D01*
X81153Y221941D01*
X81225Y221845D01*
X81300Y221752D01*
X81377Y221662D01*
X81458Y221574D01*
X81542Y221489D01*
X81629Y221407D01*
X81718Y221327D01*
X81810Y221251D01*
X81904Y221177D01*
X82001Y221107D01*
X82099Y221040D01*
X82200Y220976D01*
X82304Y220916D01*
X82409Y220859D01*
X82516Y220806D01*
X82624Y220756D01*
X82734Y220710D01*
X82846Y220668D01*
X82959Y220629D01*
X83073Y220594D01*
X83188Y220563D01*
X83305Y220535D01*
X83422Y220512D01*
X83539Y220492D01*
X83658Y220476D01*
X83777Y220464D01*
X83896Y220456D01*
X84015Y220452D01*
X84135Y220452D01*
X84254Y220456D01*
X84373Y220464D01*
X84492Y220476D01*
X84611Y220492D01*
X84728Y220512D01*
X84845Y220535D01*
X84962Y220563D01*
X85077Y220594D01*
X85191Y220629D01*
X85304Y220668D01*
X85416Y220710D01*
X85526Y220756D01*
X85634Y220806D01*
X85741Y220859D01*
X85846Y220916D01*
X85950Y220976D01*
X86051Y221040D01*
X86149Y221107D01*
X86246Y221177D01*
X86340Y221251D01*
X86432Y221327D01*
X86521Y221407D01*
X86608Y221489D01*
X86692Y221574D01*
X86773Y221662D01*
X86850Y221752D01*
X86925Y221845D01*
X86997Y221941D01*
X87066Y222039D01*
X87131Y222139D01*
X87193Y222241D01*
X87252Y222345D01*
X87307Y222451D01*
X87358Y222559D01*
X87406Y222668D01*
X87451Y222779D01*
X87491Y222891D01*
X87528Y223005D01*
X87561Y223120D01*
X87591Y223235D01*
X87616Y223352D01*
X87638Y223469D01*
X87655Y223588D01*
X87669Y223706D01*
X87679Y223825D01*
X87685Y223945D01*
X87687Y224064D01*
X74662Y220452D02*
X67437Y231289D01*
X74662Y231289D02*
X67437Y220452D01*
X61358Y226774D02*
X50521Y226774D01*
X55939Y221355D02*
X55939Y232192D01*
X208122Y183368D02*
X208122Y167112D01*
X212638Y183368D02*
X203607Y183368D01*
X195479Y167112D02*
X190963Y167112D01*
X195479Y167112D02*
X195580Y167114D01*
X195681Y167120D01*
X195782Y167129D01*
X195883Y167142D01*
X195983Y167159D01*
X196082Y167180D01*
X196180Y167204D01*
X196277Y167232D01*
X196374Y167264D01*
X196469Y167299D01*
X196562Y167338D01*
X196654Y167380D01*
X196745Y167426D01*
X196834Y167475D01*
X196920Y167527D01*
X197005Y167583D01*
X197088Y167641D01*
X197168Y167703D01*
X197246Y167768D01*
X197322Y167835D01*
X197395Y167905D01*
X197465Y167978D01*
X197532Y168054D01*
X197597Y168132D01*
X197659Y168212D01*
X197717Y168295D01*
X197773Y168380D01*
X197825Y168466D01*
X197874Y168555D01*
X197920Y168646D01*
X197962Y168738D01*
X198001Y168831D01*
X198036Y168926D01*
X198068Y169023D01*
X198096Y169120D01*
X198120Y169218D01*
X198141Y169317D01*
X198158Y169417D01*
X198171Y169518D01*
X198180Y169619D01*
X198186Y169720D01*
X198188Y169821D01*
X198188Y174337D01*
X198187Y174337D02*
X198185Y174456D01*
X198179Y174576D01*
X198169Y174695D01*
X198155Y174813D01*
X198138Y174932D01*
X198116Y175049D01*
X198091Y175166D01*
X198061Y175281D01*
X198028Y175396D01*
X197991Y175510D01*
X197951Y175622D01*
X197906Y175733D01*
X197858Y175842D01*
X197807Y175950D01*
X197752Y176056D01*
X197693Y176160D01*
X197631Y176262D01*
X197566Y176362D01*
X197497Y176460D01*
X197425Y176556D01*
X197350Y176649D01*
X197273Y176739D01*
X197192Y176827D01*
X197108Y176912D01*
X197021Y176994D01*
X196932Y177074D01*
X196840Y177150D01*
X196746Y177224D01*
X196649Y177294D01*
X196551Y177361D01*
X196450Y177425D01*
X196346Y177485D01*
X196241Y177542D01*
X196134Y177595D01*
X196026Y177645D01*
X195916Y177691D01*
X195804Y177733D01*
X195691Y177772D01*
X195577Y177807D01*
X195462Y177838D01*
X195345Y177866D01*
X195228Y177889D01*
X195111Y177909D01*
X194992Y177925D01*
X194873Y177937D01*
X194754Y177945D01*
X194635Y177949D01*
X194515Y177949D01*
X194396Y177945D01*
X194277Y177937D01*
X194158Y177925D01*
X194039Y177909D01*
X193922Y177889D01*
X193805Y177866D01*
X193688Y177838D01*
X193573Y177807D01*
X193459Y177772D01*
X193346Y177733D01*
X193234Y177691D01*
X193124Y177645D01*
X193016Y177595D01*
X192909Y177542D01*
X192804Y177485D01*
X192700Y177425D01*
X192599Y177361D01*
X192501Y177294D01*
X192404Y177224D01*
X192310Y177150D01*
X192218Y177074D01*
X192129Y176994D01*
X192042Y176912D01*
X191958Y176827D01*
X191877Y176739D01*
X191800Y176649D01*
X191725Y176556D01*
X191653Y176460D01*
X191584Y176362D01*
X191519Y176262D01*
X191457Y176160D01*
X191398Y176056D01*
X191343Y175950D01*
X191292Y175842D01*
X191244Y175733D01*
X191199Y175622D01*
X191159Y175510D01*
X191122Y175396D01*
X191089Y175281D01*
X191059Y175166D01*
X191034Y175049D01*
X191012Y174932D01*
X190995Y174813D01*
X190981Y174695D01*
X190971Y174576D01*
X190965Y174456D01*
X190963Y174337D01*
X190963Y172531D01*
X198188Y172531D01*
X181553Y173434D02*
X177489Y173434D01*
X181553Y173434D02*
X181665Y173432D01*
X181776Y173426D01*
X181887Y173416D01*
X181998Y173403D01*
X182108Y173385D01*
X182217Y173363D01*
X182326Y173338D01*
X182434Y173309D01*
X182540Y173276D01*
X182646Y173239D01*
X182750Y173199D01*
X182852Y173155D01*
X182953Y173107D01*
X183052Y173056D01*
X183150Y173001D01*
X183245Y172943D01*
X183338Y172882D01*
X183429Y172817D01*
X183518Y172749D01*
X183604Y172678D01*
X183687Y172605D01*
X183768Y172528D01*
X183847Y172448D01*
X183922Y172366D01*
X183994Y172281D01*
X184064Y172194D01*
X184130Y172104D01*
X184193Y172012D01*
X184253Y171917D01*
X184309Y171821D01*
X184362Y171723D01*
X184411Y171623D01*
X184457Y171521D01*
X184499Y171418D01*
X184538Y171313D01*
X184573Y171207D01*
X184604Y171100D01*
X184631Y170992D01*
X184655Y170883D01*
X184674Y170773D01*
X184690Y170663D01*
X184702Y170552D01*
X184710Y170440D01*
X184714Y170329D01*
X184714Y170217D01*
X184710Y170106D01*
X184702Y169994D01*
X184690Y169883D01*
X184674Y169773D01*
X184655Y169663D01*
X184631Y169554D01*
X184604Y169446D01*
X184573Y169339D01*
X184538Y169233D01*
X184499Y169128D01*
X184457Y169025D01*
X184411Y168923D01*
X184362Y168823D01*
X184309Y168725D01*
X184253Y168629D01*
X184193Y168534D01*
X184130Y168442D01*
X184064Y168352D01*
X183994Y168265D01*
X183922Y168180D01*
X183847Y168098D01*
X183768Y168018D01*
X183687Y167941D01*
X183604Y167868D01*
X183518Y167797D01*
X183429Y167729D01*
X183338Y167664D01*
X183245Y167603D01*
X183150Y167545D01*
X183052Y167490D01*
X182953Y167439D01*
X182852Y167391D01*
X182750Y167347D01*
X182646Y167307D01*
X182540Y167270D01*
X182434Y167237D01*
X182326Y167208D01*
X182217Y167183D01*
X182108Y167161D01*
X181998Y167143D01*
X181887Y167130D01*
X181776Y167120D01*
X181665Y167114D01*
X181553Y167112D01*
X177489Y167112D01*
X177489Y175240D01*
X177491Y175341D01*
X177497Y175442D01*
X177506Y175543D01*
X177519Y175644D01*
X177536Y175744D01*
X177557Y175843D01*
X177581Y175941D01*
X177609Y176038D01*
X177641Y176135D01*
X177676Y176230D01*
X177715Y176323D01*
X177757Y176415D01*
X177803Y176506D01*
X177852Y176595D01*
X177904Y176681D01*
X177960Y176766D01*
X178018Y176849D01*
X178080Y176929D01*
X178145Y177007D01*
X178212Y177083D01*
X178282Y177156D01*
X178355Y177226D01*
X178431Y177293D01*
X178509Y177358D01*
X178589Y177420D01*
X178672Y177478D01*
X178757Y177534D01*
X178844Y177586D01*
X178932Y177635D01*
X179023Y177681D01*
X179115Y177723D01*
X179208Y177762D01*
X179303Y177797D01*
X179400Y177829D01*
X179497Y177857D01*
X179595Y177881D01*
X179694Y177902D01*
X179794Y177919D01*
X179895Y177932D01*
X179996Y177941D01*
X180097Y177947D01*
X180198Y177949D01*
X180199Y177949D02*
X183811Y177949D01*
X169774Y177949D02*
X169774Y167112D01*
X169774Y177949D02*
X161646Y177949D01*
X161545Y177947D01*
X161444Y177941D01*
X161343Y177932D01*
X161242Y177919D01*
X161142Y177902D01*
X161043Y177881D01*
X160945Y177857D01*
X160848Y177829D01*
X160751Y177797D01*
X160656Y177762D01*
X160563Y177723D01*
X160471Y177681D01*
X160380Y177635D01*
X160292Y177586D01*
X160205Y177534D01*
X160120Y177478D01*
X160037Y177420D01*
X159957Y177358D01*
X159879Y177293D01*
X159803Y177226D01*
X159730Y177156D01*
X159660Y177083D01*
X159593Y177007D01*
X159528Y176929D01*
X159466Y176849D01*
X159408Y176766D01*
X159352Y176681D01*
X159300Y176595D01*
X159251Y176506D01*
X159205Y176415D01*
X159163Y176323D01*
X159124Y176230D01*
X159089Y176135D01*
X159057Y176038D01*
X159029Y175941D01*
X159005Y175843D01*
X158984Y175744D01*
X158967Y175644D01*
X158954Y175543D01*
X158945Y175442D01*
X158939Y175341D01*
X158937Y175240D01*
X158936Y175240D02*
X158936Y167112D01*
X164355Y167112D02*
X164355Y177949D01*
X142680Y183368D02*
X142680Y167112D01*
X137261Y174337D02*
X142680Y183368D01*
X137261Y174337D02*
X131842Y183368D01*
X131842Y167112D01*
X122012Y167112D02*
X117496Y167112D01*
X122012Y167112D02*
X122113Y167114D01*
X122214Y167120D01*
X122315Y167129D01*
X122416Y167142D01*
X122516Y167159D01*
X122615Y167180D01*
X122713Y167204D01*
X122810Y167232D01*
X122907Y167264D01*
X123002Y167299D01*
X123095Y167338D01*
X123187Y167380D01*
X123278Y167426D01*
X123366Y167475D01*
X123453Y167527D01*
X123538Y167583D01*
X123621Y167641D01*
X123701Y167703D01*
X123779Y167768D01*
X123855Y167835D01*
X123928Y167905D01*
X123998Y167978D01*
X124065Y168054D01*
X124130Y168132D01*
X124192Y168212D01*
X124250Y168295D01*
X124306Y168380D01*
X124358Y168466D01*
X124407Y168555D01*
X124453Y168646D01*
X124495Y168738D01*
X124534Y168831D01*
X124569Y168926D01*
X124601Y169023D01*
X124629Y169120D01*
X124653Y169218D01*
X124674Y169317D01*
X124691Y169417D01*
X124704Y169518D01*
X124713Y169619D01*
X124719Y169720D01*
X124721Y169821D01*
X124721Y174337D01*
X124719Y174456D01*
X124713Y174576D01*
X124703Y174695D01*
X124689Y174813D01*
X124672Y174932D01*
X124650Y175049D01*
X124625Y175166D01*
X124595Y175281D01*
X124562Y175396D01*
X124525Y175510D01*
X124485Y175622D01*
X124440Y175733D01*
X124392Y175842D01*
X124341Y175950D01*
X124286Y176056D01*
X124227Y176160D01*
X124165Y176262D01*
X124100Y176362D01*
X124031Y176460D01*
X123959Y176556D01*
X123884Y176649D01*
X123807Y176739D01*
X123726Y176827D01*
X123642Y176912D01*
X123555Y176994D01*
X123466Y177074D01*
X123374Y177150D01*
X123280Y177224D01*
X123183Y177294D01*
X123085Y177361D01*
X122984Y177425D01*
X122880Y177485D01*
X122775Y177542D01*
X122668Y177595D01*
X122560Y177645D01*
X122450Y177691D01*
X122338Y177733D01*
X122225Y177772D01*
X122111Y177807D01*
X121996Y177838D01*
X121879Y177866D01*
X121762Y177889D01*
X121645Y177909D01*
X121526Y177925D01*
X121407Y177937D01*
X121288Y177945D01*
X121169Y177949D01*
X121049Y177949D01*
X120930Y177945D01*
X120811Y177937D01*
X120692Y177925D01*
X120573Y177909D01*
X120456Y177889D01*
X120339Y177866D01*
X120222Y177838D01*
X120107Y177807D01*
X119993Y177772D01*
X119880Y177733D01*
X119768Y177691D01*
X119658Y177645D01*
X119550Y177595D01*
X119443Y177542D01*
X119338Y177485D01*
X119234Y177425D01*
X119133Y177361D01*
X119035Y177294D01*
X118938Y177224D01*
X118844Y177150D01*
X118752Y177074D01*
X118663Y176994D01*
X118576Y176912D01*
X118492Y176827D01*
X118411Y176739D01*
X118334Y176649D01*
X118259Y176556D01*
X118187Y176460D01*
X118118Y176362D01*
X118053Y176262D01*
X117991Y176160D01*
X117932Y176056D01*
X117877Y175950D01*
X117826Y175842D01*
X117778Y175733D01*
X117733Y175622D01*
X117693Y175510D01*
X117656Y175396D01*
X117623Y175281D01*
X117593Y175166D01*
X117568Y175049D01*
X117546Y174932D01*
X117529Y174813D01*
X117515Y174695D01*
X117505Y174576D01*
X117499Y174456D01*
X117497Y174337D01*
X117496Y174337D02*
X117496Y172531D01*
X124721Y172531D01*
X110375Y167112D02*
X110375Y177949D01*
X102247Y177949D01*
X102146Y177947D01*
X102045Y177941D01*
X101944Y177932D01*
X101843Y177919D01*
X101743Y177902D01*
X101644Y177881D01*
X101546Y177857D01*
X101449Y177829D01*
X101352Y177797D01*
X101257Y177762D01*
X101164Y177723D01*
X101072Y177681D01*
X100981Y177635D01*
X100893Y177586D01*
X100806Y177534D01*
X100721Y177478D01*
X100638Y177420D01*
X100558Y177358D01*
X100480Y177293D01*
X100404Y177226D01*
X100331Y177156D01*
X100261Y177083D01*
X100194Y177007D01*
X100129Y176929D01*
X100067Y176849D01*
X100009Y176766D01*
X99953Y176681D01*
X99901Y176595D01*
X99852Y176506D01*
X99806Y176415D01*
X99764Y176323D01*
X99725Y176230D01*
X99690Y176135D01*
X99658Y176038D01*
X99630Y175941D01*
X99606Y175843D01*
X99585Y175744D01*
X99568Y175644D01*
X99555Y175543D01*
X99546Y175442D01*
X99540Y175341D01*
X99538Y175240D01*
X99538Y167112D01*
X104956Y167112D02*
X104956Y177949D01*
X91822Y183368D02*
X91822Y167112D01*
X87307Y167112D01*
X87203Y167114D01*
X87100Y167120D01*
X86996Y167130D01*
X86893Y167144D01*
X86791Y167162D01*
X86690Y167183D01*
X86589Y167209D01*
X86490Y167238D01*
X86391Y167271D01*
X86294Y167308D01*
X86199Y167349D01*
X86105Y167393D01*
X86013Y167441D01*
X85923Y167492D01*
X85834Y167547D01*
X85748Y167605D01*
X85665Y167667D01*
X85583Y167731D01*
X85505Y167799D01*
X85429Y167869D01*
X85355Y167942D01*
X85285Y168019D01*
X85217Y168097D01*
X85153Y168179D01*
X85091Y168262D01*
X85033Y168348D01*
X84978Y168437D01*
X84927Y168527D01*
X84879Y168619D01*
X84835Y168713D01*
X84794Y168808D01*
X84757Y168905D01*
X84724Y169004D01*
X84695Y169103D01*
X84669Y169204D01*
X84648Y169305D01*
X84630Y169407D01*
X84616Y169510D01*
X84606Y169614D01*
X84600Y169717D01*
X84598Y169821D01*
X84597Y169821D02*
X84597Y175240D01*
X84598Y175240D02*
X84600Y175341D01*
X84606Y175442D01*
X84615Y175543D01*
X84628Y175644D01*
X84645Y175744D01*
X84666Y175843D01*
X84690Y175941D01*
X84718Y176038D01*
X84750Y176135D01*
X84785Y176230D01*
X84824Y176323D01*
X84866Y176415D01*
X84912Y176506D01*
X84961Y176595D01*
X85013Y176681D01*
X85069Y176766D01*
X85127Y176849D01*
X85189Y176929D01*
X85254Y177007D01*
X85321Y177083D01*
X85391Y177156D01*
X85464Y177226D01*
X85540Y177293D01*
X85618Y177358D01*
X85698Y177420D01*
X85781Y177478D01*
X85866Y177534D01*
X85953Y177586D01*
X86041Y177635D01*
X86132Y177681D01*
X86224Y177723D01*
X86317Y177762D01*
X86412Y177797D01*
X86509Y177829D01*
X86606Y177857D01*
X86704Y177881D01*
X86803Y177902D01*
X86903Y177919D01*
X87004Y177932D01*
X87105Y177941D01*
X87206Y177947D01*
X87307Y177949D01*
X91822Y177949D01*
X75639Y167112D02*
X71124Y167112D01*
X75639Y167112D02*
X75740Y167114D01*
X75841Y167120D01*
X75942Y167129D01*
X76043Y167142D01*
X76143Y167159D01*
X76242Y167180D01*
X76340Y167204D01*
X76437Y167232D01*
X76534Y167264D01*
X76629Y167299D01*
X76722Y167338D01*
X76814Y167380D01*
X76905Y167426D01*
X76993Y167475D01*
X77080Y167527D01*
X77165Y167583D01*
X77248Y167641D01*
X77328Y167703D01*
X77406Y167768D01*
X77482Y167835D01*
X77555Y167905D01*
X77625Y167978D01*
X77692Y168054D01*
X77757Y168132D01*
X77819Y168212D01*
X77877Y168295D01*
X77933Y168380D01*
X77985Y168466D01*
X78034Y168555D01*
X78080Y168646D01*
X78122Y168738D01*
X78161Y168831D01*
X78196Y168926D01*
X78228Y169023D01*
X78256Y169120D01*
X78280Y169218D01*
X78301Y169317D01*
X78318Y169417D01*
X78331Y169518D01*
X78340Y169619D01*
X78346Y169720D01*
X78348Y169821D01*
X78348Y174337D01*
X78346Y174456D01*
X78340Y174576D01*
X78330Y174695D01*
X78316Y174813D01*
X78299Y174932D01*
X78277Y175049D01*
X78252Y175166D01*
X78222Y175281D01*
X78189Y175396D01*
X78152Y175510D01*
X78112Y175622D01*
X78067Y175733D01*
X78019Y175842D01*
X77968Y175950D01*
X77913Y176056D01*
X77854Y176160D01*
X77792Y176262D01*
X77727Y176362D01*
X77658Y176460D01*
X77586Y176556D01*
X77511Y176649D01*
X77434Y176739D01*
X77353Y176827D01*
X77269Y176912D01*
X77182Y176994D01*
X77093Y177074D01*
X77001Y177150D01*
X76907Y177224D01*
X76810Y177294D01*
X76712Y177361D01*
X76611Y177425D01*
X76507Y177485D01*
X76402Y177542D01*
X76295Y177595D01*
X76187Y177645D01*
X76077Y177691D01*
X75965Y177733D01*
X75852Y177772D01*
X75738Y177807D01*
X75623Y177838D01*
X75506Y177866D01*
X75389Y177889D01*
X75272Y177909D01*
X75153Y177925D01*
X75034Y177937D01*
X74915Y177945D01*
X74796Y177949D01*
X74676Y177949D01*
X74557Y177945D01*
X74438Y177937D01*
X74319Y177925D01*
X74200Y177909D01*
X74083Y177889D01*
X73966Y177866D01*
X73849Y177838D01*
X73734Y177807D01*
X73620Y177772D01*
X73507Y177733D01*
X73395Y177691D01*
X73285Y177645D01*
X73177Y177595D01*
X73070Y177542D01*
X72965Y177485D01*
X72861Y177425D01*
X72760Y177361D01*
X72662Y177294D01*
X72565Y177224D01*
X72471Y177150D01*
X72379Y177074D01*
X72290Y176994D01*
X72203Y176912D01*
X72119Y176827D01*
X72038Y176739D01*
X71961Y176649D01*
X71886Y176556D01*
X71814Y176460D01*
X71745Y176362D01*
X71680Y176262D01*
X71618Y176160D01*
X71559Y176056D01*
X71504Y175950D01*
X71453Y175842D01*
X71405Y175733D01*
X71360Y175622D01*
X71320Y175510D01*
X71283Y175396D01*
X71250Y175281D01*
X71220Y175166D01*
X71195Y175049D01*
X71173Y174932D01*
X71156Y174813D01*
X71142Y174695D01*
X71132Y174576D01*
X71126Y174456D01*
X71124Y174337D01*
X71124Y172531D01*
X78348Y172531D01*
X64195Y167112D02*
X64195Y177949D01*
X58777Y177949D01*
X58777Y176143D01*
X52505Y173434D02*
X47989Y171628D01*
X52505Y173434D02*
X52593Y173471D01*
X52679Y173512D01*
X52764Y173556D01*
X52847Y173604D01*
X52927Y173655D01*
X53006Y173709D01*
X53082Y173767D01*
X53156Y173827D01*
X53228Y173891D01*
X53296Y173957D01*
X53362Y174027D01*
X53425Y174098D01*
X53486Y174173D01*
X53543Y174249D01*
X53596Y174328D01*
X53647Y174409D01*
X53694Y174492D01*
X53738Y174577D01*
X53778Y174664D01*
X53815Y174752D01*
X53848Y174842D01*
X53878Y174933D01*
X53903Y175025D01*
X53925Y175118D01*
X53943Y175212D01*
X53958Y175306D01*
X53968Y175401D01*
X53974Y175497D01*
X53977Y175592D01*
X53976Y175688D01*
X53970Y175783D01*
X53961Y175879D01*
X53948Y175973D01*
X53932Y176067D01*
X53911Y176161D01*
X53886Y176253D01*
X53858Y176344D01*
X53826Y176434D01*
X53791Y176523D01*
X53752Y176610D01*
X53709Y176696D01*
X53663Y176780D01*
X53613Y176861D01*
X53561Y176941D01*
X53505Y177019D01*
X53445Y177094D01*
X53383Y177166D01*
X53318Y177236D01*
X53250Y177304D01*
X53180Y177368D01*
X53107Y177430D01*
X53031Y177488D01*
X52953Y177544D01*
X52873Y177596D01*
X52791Y177645D01*
X52707Y177690D01*
X52621Y177732D01*
X52534Y177771D01*
X52445Y177806D01*
X52354Y177837D01*
X52263Y177864D01*
X52170Y177888D01*
X52077Y177908D01*
X51983Y177924D01*
X51888Y177936D01*
X51793Y177945D01*
X51697Y177949D01*
X51602Y177950D01*
X51355Y177943D01*
X51109Y177931D01*
X50863Y177913D01*
X50617Y177888D01*
X50373Y177858D01*
X50129Y177822D01*
X49886Y177781D01*
X49644Y177733D01*
X49403Y177679D01*
X49164Y177620D01*
X48926Y177555D01*
X48690Y177484D01*
X48455Y177408D01*
X48222Y177326D01*
X47992Y177238D01*
X47764Y177145D01*
X47537Y177047D01*
X47989Y171627D02*
X47901Y171590D01*
X47815Y171549D01*
X47730Y171505D01*
X47647Y171457D01*
X47567Y171406D01*
X47488Y171352D01*
X47412Y171294D01*
X47338Y171234D01*
X47266Y171170D01*
X47198Y171104D01*
X47132Y171034D01*
X47069Y170963D01*
X47008Y170888D01*
X46951Y170812D01*
X46898Y170733D01*
X46847Y170652D01*
X46800Y170569D01*
X46756Y170484D01*
X46716Y170397D01*
X46679Y170309D01*
X46646Y170219D01*
X46616Y170128D01*
X46591Y170036D01*
X46569Y169943D01*
X46551Y169849D01*
X46536Y169755D01*
X46526Y169660D01*
X46520Y169564D01*
X46517Y169469D01*
X46518Y169373D01*
X46524Y169278D01*
X46533Y169182D01*
X46546Y169088D01*
X46562Y168994D01*
X46583Y168900D01*
X46608Y168808D01*
X46636Y168717D01*
X46668Y168627D01*
X46703Y168538D01*
X46742Y168451D01*
X46785Y168365D01*
X46831Y168281D01*
X46881Y168200D01*
X46933Y168120D01*
X46989Y168042D01*
X47049Y167967D01*
X47111Y167895D01*
X47176Y167825D01*
X47244Y167757D01*
X47314Y167693D01*
X47387Y167631D01*
X47463Y167573D01*
X47541Y167517D01*
X47621Y167465D01*
X47703Y167416D01*
X47787Y167371D01*
X47873Y167329D01*
X47960Y167290D01*
X48049Y167255D01*
X48140Y167224D01*
X48231Y167197D01*
X48324Y167173D01*
X48417Y167153D01*
X48511Y167137D01*
X48606Y167125D01*
X48701Y167116D01*
X48797Y167112D01*
X48892Y167111D01*
X48893Y167112D02*
X49255Y167121D01*
X49617Y167139D01*
X49978Y167166D01*
X50338Y167201D01*
X50698Y167244D01*
X51057Y167296D01*
X51414Y167357D01*
X51769Y167426D01*
X52123Y167503D01*
X52475Y167589D01*
X52825Y167683D01*
X53173Y167786D01*
X53518Y167896D01*
X53860Y168015D01*
X40278Y168467D02*
X40278Y169370D01*
X39375Y169370D01*
X39375Y168467D01*
X40278Y168467D01*
X40278Y175692D02*
X40278Y176595D01*
X39375Y176595D01*
X39375Y175692D01*
X40278Y175692D01*
X212638Y156698D02*
X212638Y140442D01*
X212638Y149473D02*
X203607Y149473D01*
X203607Y156698D02*
X203607Y140442D01*
X193537Y146764D02*
X189473Y146764D01*
X193537Y146764D02*
X193649Y146762D01*
X193760Y146756D01*
X193871Y146746D01*
X193982Y146733D01*
X194092Y146715D01*
X194201Y146693D01*
X194310Y146668D01*
X194418Y146639D01*
X194524Y146606D01*
X194630Y146569D01*
X194734Y146529D01*
X194836Y146485D01*
X194937Y146437D01*
X195036Y146386D01*
X195134Y146331D01*
X195229Y146273D01*
X195322Y146212D01*
X195413Y146147D01*
X195502Y146079D01*
X195588Y146008D01*
X195671Y145935D01*
X195752Y145858D01*
X195831Y145778D01*
X195906Y145696D01*
X195978Y145611D01*
X196048Y145524D01*
X196114Y145434D01*
X196177Y145342D01*
X196237Y145247D01*
X196293Y145151D01*
X196346Y145053D01*
X196395Y144953D01*
X196441Y144851D01*
X196483Y144748D01*
X196522Y144643D01*
X196557Y144537D01*
X196588Y144430D01*
X196615Y144322D01*
X196639Y144213D01*
X196658Y144103D01*
X196674Y143993D01*
X196686Y143882D01*
X196694Y143770D01*
X196698Y143659D01*
X196698Y143547D01*
X196694Y143436D01*
X196686Y143324D01*
X196674Y143213D01*
X196658Y143103D01*
X196639Y142993D01*
X196615Y142884D01*
X196588Y142776D01*
X196557Y142669D01*
X196522Y142563D01*
X196483Y142458D01*
X196441Y142355D01*
X196395Y142253D01*
X196346Y142153D01*
X196293Y142055D01*
X196237Y141959D01*
X196177Y141864D01*
X196114Y141772D01*
X196048Y141682D01*
X195978Y141595D01*
X195906Y141510D01*
X195831Y141428D01*
X195752Y141348D01*
X195671Y141271D01*
X195588Y141198D01*
X195502Y141127D01*
X195413Y141059D01*
X195322Y140994D01*
X195229Y140933D01*
X195134Y140875D01*
X195036Y140820D01*
X194937Y140769D01*
X194836Y140721D01*
X194734Y140677D01*
X194630Y140637D01*
X194524Y140600D01*
X194418Y140567D01*
X194310Y140538D01*
X194201Y140513D01*
X194092Y140491D01*
X193982Y140473D01*
X193871Y140460D01*
X193760Y140450D01*
X193649Y140444D01*
X193537Y140442D01*
X189473Y140442D01*
X189473Y148570D01*
X189475Y148671D01*
X189481Y148772D01*
X189490Y148873D01*
X189503Y148974D01*
X189520Y149074D01*
X189541Y149173D01*
X189565Y149271D01*
X189593Y149368D01*
X189625Y149465D01*
X189660Y149560D01*
X189699Y149653D01*
X189741Y149745D01*
X189787Y149836D01*
X189836Y149925D01*
X189888Y150011D01*
X189944Y150096D01*
X190002Y150179D01*
X190064Y150259D01*
X190129Y150337D01*
X190196Y150413D01*
X190266Y150486D01*
X190339Y150556D01*
X190415Y150623D01*
X190493Y150688D01*
X190573Y150750D01*
X190656Y150808D01*
X190741Y150864D01*
X190828Y150916D01*
X190916Y150965D01*
X191007Y151011D01*
X191099Y151053D01*
X191192Y151092D01*
X191287Y151127D01*
X191384Y151159D01*
X191481Y151187D01*
X191579Y151211D01*
X191678Y151232D01*
X191778Y151249D01*
X191879Y151262D01*
X191980Y151271D01*
X192081Y151277D01*
X192182Y151279D01*
X195795Y151279D01*
X182557Y147667D02*
X182557Y144054D01*
X182556Y147667D02*
X182554Y147786D01*
X182548Y147906D01*
X182538Y148025D01*
X182524Y148143D01*
X182507Y148262D01*
X182485Y148379D01*
X182460Y148496D01*
X182430Y148611D01*
X182397Y148726D01*
X182360Y148840D01*
X182320Y148952D01*
X182275Y149063D01*
X182227Y149172D01*
X182176Y149280D01*
X182121Y149386D01*
X182062Y149490D01*
X182000Y149592D01*
X181935Y149692D01*
X181866Y149790D01*
X181794Y149886D01*
X181719Y149979D01*
X181642Y150069D01*
X181561Y150157D01*
X181477Y150242D01*
X181390Y150324D01*
X181301Y150404D01*
X181209Y150480D01*
X181115Y150554D01*
X181018Y150624D01*
X180920Y150691D01*
X180819Y150755D01*
X180715Y150815D01*
X180610Y150872D01*
X180503Y150925D01*
X180395Y150975D01*
X180285Y151021D01*
X180173Y151063D01*
X180060Y151102D01*
X179946Y151137D01*
X179831Y151168D01*
X179714Y151196D01*
X179597Y151219D01*
X179480Y151239D01*
X179361Y151255D01*
X179242Y151267D01*
X179123Y151275D01*
X179004Y151279D01*
X178884Y151279D01*
X178765Y151275D01*
X178646Y151267D01*
X178527Y151255D01*
X178408Y151239D01*
X178291Y151219D01*
X178174Y151196D01*
X178057Y151168D01*
X177942Y151137D01*
X177828Y151102D01*
X177715Y151063D01*
X177603Y151021D01*
X177493Y150975D01*
X177385Y150925D01*
X177278Y150872D01*
X177173Y150815D01*
X177069Y150755D01*
X176968Y150691D01*
X176870Y150624D01*
X176773Y150554D01*
X176679Y150480D01*
X176587Y150404D01*
X176498Y150324D01*
X176411Y150242D01*
X176327Y150157D01*
X176246Y150069D01*
X176169Y149979D01*
X176094Y149886D01*
X176022Y149790D01*
X175953Y149692D01*
X175888Y149592D01*
X175826Y149490D01*
X175767Y149386D01*
X175712Y149280D01*
X175661Y149172D01*
X175613Y149063D01*
X175568Y148952D01*
X175528Y148840D01*
X175491Y148726D01*
X175458Y148611D01*
X175428Y148496D01*
X175403Y148379D01*
X175381Y148262D01*
X175364Y148143D01*
X175350Y148025D01*
X175340Y147906D01*
X175334Y147786D01*
X175332Y147667D01*
X175332Y144054D01*
X175334Y143935D01*
X175340Y143815D01*
X175350Y143696D01*
X175364Y143578D01*
X175381Y143459D01*
X175403Y143342D01*
X175428Y143225D01*
X175458Y143110D01*
X175491Y142995D01*
X175528Y142881D01*
X175568Y142769D01*
X175613Y142658D01*
X175661Y142549D01*
X175712Y142441D01*
X175767Y142335D01*
X175826Y142231D01*
X175888Y142129D01*
X175953Y142029D01*
X176022Y141931D01*
X176094Y141835D01*
X176169Y141742D01*
X176246Y141652D01*
X176327Y141564D01*
X176411Y141479D01*
X176498Y141397D01*
X176587Y141317D01*
X176679Y141241D01*
X176773Y141167D01*
X176870Y141097D01*
X176968Y141030D01*
X177069Y140966D01*
X177173Y140906D01*
X177278Y140849D01*
X177385Y140796D01*
X177493Y140746D01*
X177603Y140700D01*
X177715Y140658D01*
X177828Y140619D01*
X177942Y140584D01*
X178057Y140553D01*
X178174Y140525D01*
X178291Y140502D01*
X178408Y140482D01*
X178527Y140466D01*
X178646Y140454D01*
X178765Y140446D01*
X178884Y140442D01*
X179004Y140442D01*
X179123Y140446D01*
X179242Y140454D01*
X179361Y140466D01*
X179480Y140482D01*
X179597Y140502D01*
X179714Y140525D01*
X179831Y140553D01*
X179946Y140584D01*
X180060Y140619D01*
X180173Y140658D01*
X180285Y140700D01*
X180395Y140746D01*
X180503Y140796D01*
X180610Y140849D01*
X180715Y140906D01*
X180819Y140966D01*
X180920Y141030D01*
X181018Y141097D01*
X181115Y141167D01*
X181209Y141241D01*
X181301Y141317D01*
X181390Y141397D01*
X181477Y141479D01*
X181561Y141564D01*
X181642Y141652D01*
X181719Y141742D01*
X181794Y141835D01*
X181866Y141931D01*
X181935Y142029D01*
X182000Y142129D01*
X182062Y142231D01*
X182121Y142335D01*
X182176Y142441D01*
X182227Y142549D01*
X182275Y142658D01*
X182320Y142769D01*
X182360Y142881D01*
X182397Y142995D01*
X182430Y143110D01*
X182460Y143225D01*
X182485Y143342D01*
X182507Y143459D01*
X182524Y143578D01*
X182538Y143696D01*
X182548Y143815D01*
X182554Y143935D01*
X182556Y144054D01*
X161858Y140442D02*
X161858Y156698D01*
X161858Y140442D02*
X166374Y140442D01*
X166475Y140444D01*
X166576Y140450D01*
X166677Y140459D01*
X166778Y140472D01*
X166878Y140489D01*
X166977Y140510D01*
X167075Y140534D01*
X167172Y140562D01*
X167269Y140594D01*
X167364Y140629D01*
X167457Y140668D01*
X167549Y140710D01*
X167640Y140756D01*
X167729Y140805D01*
X167815Y140857D01*
X167900Y140913D01*
X167983Y140971D01*
X168063Y141033D01*
X168141Y141098D01*
X168217Y141165D01*
X168290Y141235D01*
X168360Y141308D01*
X168427Y141384D01*
X168492Y141462D01*
X168554Y141542D01*
X168612Y141625D01*
X168668Y141710D01*
X168720Y141796D01*
X168769Y141885D01*
X168815Y141976D01*
X168857Y142068D01*
X168896Y142161D01*
X168931Y142256D01*
X168963Y142353D01*
X168991Y142450D01*
X169015Y142548D01*
X169036Y142647D01*
X169053Y142747D01*
X169066Y142848D01*
X169075Y142949D01*
X169081Y143050D01*
X169083Y143151D01*
X169083Y148570D01*
X169081Y148671D01*
X169075Y148772D01*
X169066Y148873D01*
X169053Y148974D01*
X169036Y149074D01*
X169015Y149173D01*
X168991Y149271D01*
X168963Y149368D01*
X168931Y149465D01*
X168896Y149560D01*
X168857Y149653D01*
X168815Y149745D01*
X168769Y149836D01*
X168720Y149925D01*
X168668Y150011D01*
X168612Y150096D01*
X168554Y150179D01*
X168492Y150259D01*
X168427Y150337D01*
X168360Y150413D01*
X168290Y150486D01*
X168217Y150556D01*
X168141Y150623D01*
X168063Y150688D01*
X167983Y150750D01*
X167900Y150808D01*
X167815Y150864D01*
X167729Y150916D01*
X167640Y150965D01*
X167549Y151011D01*
X167457Y151053D01*
X167364Y151092D01*
X167269Y151127D01*
X167172Y151159D01*
X167075Y151187D01*
X166977Y151211D01*
X166878Y151232D01*
X166778Y151249D01*
X166677Y151262D01*
X166576Y151271D01*
X166475Y151277D01*
X166374Y151279D01*
X161858Y151279D01*
X151854Y146764D02*
X147790Y146764D01*
X151854Y146764D02*
X151966Y146762D01*
X152077Y146756D01*
X152188Y146746D01*
X152299Y146733D01*
X152409Y146715D01*
X152518Y146693D01*
X152627Y146668D01*
X152735Y146639D01*
X152841Y146606D01*
X152947Y146569D01*
X153051Y146529D01*
X153153Y146485D01*
X153254Y146437D01*
X153353Y146386D01*
X153451Y146331D01*
X153546Y146273D01*
X153639Y146212D01*
X153730Y146147D01*
X153819Y146079D01*
X153905Y146008D01*
X153988Y145935D01*
X154069Y145858D01*
X154148Y145778D01*
X154223Y145696D01*
X154295Y145611D01*
X154365Y145524D01*
X154431Y145434D01*
X154494Y145342D01*
X154554Y145247D01*
X154610Y145151D01*
X154663Y145053D01*
X154712Y144953D01*
X154758Y144851D01*
X154800Y144748D01*
X154839Y144643D01*
X154874Y144537D01*
X154905Y144430D01*
X154932Y144322D01*
X154956Y144213D01*
X154975Y144103D01*
X154991Y143993D01*
X155003Y143882D01*
X155011Y143770D01*
X155015Y143659D01*
X155015Y143547D01*
X155011Y143436D01*
X155003Y143324D01*
X154991Y143213D01*
X154975Y143103D01*
X154956Y142993D01*
X154932Y142884D01*
X154905Y142776D01*
X154874Y142669D01*
X154839Y142563D01*
X154800Y142458D01*
X154758Y142355D01*
X154712Y142253D01*
X154663Y142153D01*
X154610Y142055D01*
X154554Y141959D01*
X154494Y141864D01*
X154431Y141772D01*
X154365Y141682D01*
X154295Y141595D01*
X154223Y141510D01*
X154148Y141428D01*
X154069Y141348D01*
X153988Y141271D01*
X153905Y141198D01*
X153819Y141127D01*
X153730Y141059D01*
X153639Y140994D01*
X153546Y140933D01*
X153451Y140875D01*
X153353Y140820D01*
X153254Y140769D01*
X153153Y140721D01*
X153051Y140677D01*
X152947Y140637D01*
X152841Y140600D01*
X152735Y140567D01*
X152627Y140538D01*
X152518Y140513D01*
X152409Y140491D01*
X152299Y140473D01*
X152188Y140460D01*
X152077Y140450D01*
X151966Y140444D01*
X151854Y140442D01*
X147790Y140442D01*
X147790Y148570D01*
X147792Y148671D01*
X147798Y148772D01*
X147807Y148873D01*
X147820Y148974D01*
X147837Y149074D01*
X147858Y149173D01*
X147882Y149271D01*
X147910Y149368D01*
X147942Y149465D01*
X147977Y149560D01*
X148016Y149653D01*
X148058Y149745D01*
X148104Y149836D01*
X148153Y149925D01*
X148205Y150011D01*
X148261Y150096D01*
X148319Y150179D01*
X148381Y150259D01*
X148446Y150337D01*
X148513Y150413D01*
X148583Y150486D01*
X148656Y150556D01*
X148732Y150623D01*
X148810Y150688D01*
X148890Y150750D01*
X148973Y150808D01*
X149058Y150864D01*
X149145Y150916D01*
X149233Y150965D01*
X149324Y151011D01*
X149416Y151053D01*
X149509Y151092D01*
X149604Y151127D01*
X149701Y151159D01*
X149798Y151187D01*
X149896Y151211D01*
X149995Y151232D01*
X150095Y151249D01*
X150196Y151262D01*
X150297Y151271D01*
X150398Y151277D01*
X150499Y151279D01*
X154112Y151279D01*
X125555Y149473D02*
X122846Y149473D01*
X122846Y140442D01*
X128264Y140442D01*
X128382Y140444D01*
X128500Y140450D01*
X128618Y140459D01*
X128735Y140473D01*
X128852Y140490D01*
X128969Y140511D01*
X129084Y140536D01*
X129199Y140565D01*
X129313Y140598D01*
X129425Y140634D01*
X129536Y140674D01*
X129646Y140717D01*
X129755Y140764D01*
X129862Y140814D01*
X129967Y140869D01*
X130070Y140926D01*
X130171Y140987D01*
X130271Y141051D01*
X130368Y141118D01*
X130463Y141188D01*
X130555Y141262D01*
X130646Y141338D01*
X130733Y141418D01*
X130818Y141500D01*
X130900Y141585D01*
X130980Y141672D01*
X131056Y141763D01*
X131130Y141855D01*
X131200Y141950D01*
X131267Y142047D01*
X131331Y142147D01*
X131392Y142248D01*
X131449Y142351D01*
X131504Y142456D01*
X131554Y142563D01*
X131601Y142672D01*
X131644Y142782D01*
X131684Y142893D01*
X131720Y143005D01*
X131753Y143119D01*
X131782Y143234D01*
X131807Y143349D01*
X131828Y143466D01*
X131845Y143583D01*
X131859Y143700D01*
X131868Y143818D01*
X131874Y143936D01*
X131876Y144054D01*
X131877Y144054D02*
X131877Y153086D01*
X131876Y153086D02*
X131874Y153204D01*
X131868Y153322D01*
X131859Y153440D01*
X131845Y153557D01*
X131828Y153674D01*
X131807Y153791D01*
X131782Y153906D01*
X131753Y154021D01*
X131720Y154135D01*
X131684Y154247D01*
X131644Y154358D01*
X131601Y154468D01*
X131554Y154577D01*
X131504Y154684D01*
X131449Y154789D01*
X131392Y154892D01*
X131331Y154993D01*
X131267Y155093D01*
X131200Y155190D01*
X131130Y155285D01*
X131056Y155377D01*
X130980Y155468D01*
X130900Y155555D01*
X130818Y155640D01*
X130733Y155722D01*
X130646Y155802D01*
X130555Y155878D01*
X130463Y155952D01*
X130368Y156022D01*
X130271Y156089D01*
X130171Y156153D01*
X130070Y156214D01*
X129967Y156271D01*
X129862Y156326D01*
X129755Y156376D01*
X129646Y156423D01*
X129536Y156466D01*
X129425Y156506D01*
X129313Y156542D01*
X129199Y156575D01*
X129084Y156604D01*
X128969Y156629D01*
X128852Y156650D01*
X128735Y156667D01*
X128618Y156681D01*
X128500Y156690D01*
X128382Y156696D01*
X128264Y156698D01*
X122846Y156698D01*
X115863Y147667D02*
X115863Y144054D01*
X115863Y147667D02*
X115861Y147786D01*
X115855Y147906D01*
X115845Y148025D01*
X115831Y148143D01*
X115814Y148262D01*
X115792Y148379D01*
X115767Y148496D01*
X115737Y148611D01*
X115704Y148726D01*
X115667Y148840D01*
X115627Y148952D01*
X115582Y149063D01*
X115534Y149172D01*
X115483Y149280D01*
X115428Y149386D01*
X115369Y149490D01*
X115307Y149592D01*
X115242Y149692D01*
X115173Y149790D01*
X115101Y149886D01*
X115026Y149979D01*
X114949Y150069D01*
X114868Y150157D01*
X114784Y150242D01*
X114697Y150324D01*
X114608Y150404D01*
X114516Y150480D01*
X114422Y150554D01*
X114325Y150624D01*
X114227Y150691D01*
X114126Y150755D01*
X114022Y150815D01*
X113917Y150872D01*
X113810Y150925D01*
X113702Y150975D01*
X113592Y151021D01*
X113480Y151063D01*
X113367Y151102D01*
X113253Y151137D01*
X113138Y151168D01*
X113021Y151196D01*
X112904Y151219D01*
X112787Y151239D01*
X112668Y151255D01*
X112549Y151267D01*
X112430Y151275D01*
X112311Y151279D01*
X112191Y151279D01*
X112072Y151275D01*
X111953Y151267D01*
X111834Y151255D01*
X111715Y151239D01*
X111598Y151219D01*
X111481Y151196D01*
X111364Y151168D01*
X111249Y151137D01*
X111135Y151102D01*
X111022Y151063D01*
X110910Y151021D01*
X110800Y150975D01*
X110692Y150925D01*
X110585Y150872D01*
X110480Y150815D01*
X110376Y150755D01*
X110275Y150691D01*
X110177Y150624D01*
X110080Y150554D01*
X109986Y150480D01*
X109894Y150404D01*
X109805Y150324D01*
X109718Y150242D01*
X109634Y150157D01*
X109553Y150069D01*
X109476Y149979D01*
X109401Y149886D01*
X109329Y149790D01*
X109260Y149692D01*
X109195Y149592D01*
X109133Y149490D01*
X109074Y149386D01*
X109019Y149280D01*
X108968Y149172D01*
X108920Y149063D01*
X108875Y148952D01*
X108835Y148840D01*
X108798Y148726D01*
X108765Y148611D01*
X108735Y148496D01*
X108710Y148379D01*
X108688Y148262D01*
X108671Y148143D01*
X108657Y148025D01*
X108647Y147906D01*
X108641Y147786D01*
X108639Y147667D01*
X108639Y144054D01*
X108641Y143935D01*
X108647Y143815D01*
X108657Y143696D01*
X108671Y143578D01*
X108688Y143459D01*
X108710Y143342D01*
X108735Y143225D01*
X108765Y143110D01*
X108798Y142995D01*
X108835Y142881D01*
X108875Y142769D01*
X108920Y142658D01*
X108968Y142549D01*
X109019Y142441D01*
X109074Y142335D01*
X109133Y142231D01*
X109195Y142129D01*
X109260Y142029D01*
X109329Y141931D01*
X109401Y141835D01*
X109476Y141742D01*
X109553Y141652D01*
X109634Y141564D01*
X109718Y141479D01*
X109805Y141397D01*
X109894Y141317D01*
X109986Y141241D01*
X110080Y141167D01*
X110177Y141097D01*
X110275Y141030D01*
X110376Y140966D01*
X110480Y140906D01*
X110585Y140849D01*
X110692Y140796D01*
X110800Y140746D01*
X110910Y140700D01*
X111022Y140658D01*
X111135Y140619D01*
X111249Y140584D01*
X111364Y140553D01*
X111481Y140525D01*
X111598Y140502D01*
X111715Y140482D01*
X111834Y140466D01*
X111953Y140454D01*
X112072Y140446D01*
X112191Y140442D01*
X112311Y140442D01*
X112430Y140446D01*
X112549Y140454D01*
X112668Y140466D01*
X112787Y140482D01*
X112904Y140502D01*
X113021Y140525D01*
X113138Y140553D01*
X113253Y140584D01*
X113367Y140619D01*
X113480Y140658D01*
X113592Y140700D01*
X113702Y140746D01*
X113810Y140796D01*
X113917Y140849D01*
X114022Y140906D01*
X114126Y140966D01*
X114227Y141030D01*
X114325Y141097D01*
X114422Y141167D01*
X114516Y141241D01*
X114608Y141317D01*
X114697Y141397D01*
X114784Y141479D01*
X114868Y141564D01*
X114949Y141652D01*
X115026Y141742D01*
X115101Y141835D01*
X115173Y141931D01*
X115242Y142029D01*
X115307Y142129D01*
X115369Y142231D01*
X115428Y142335D01*
X115483Y142441D01*
X115534Y142549D01*
X115582Y142658D01*
X115627Y142769D01*
X115667Y142881D01*
X115704Y142995D01*
X115737Y143110D01*
X115767Y143225D01*
X115792Y143342D01*
X115814Y143459D01*
X115831Y143578D01*
X115845Y143696D01*
X115855Y143815D01*
X115861Y143935D01*
X115863Y144054D01*
X101795Y140442D02*
X101795Y151279D01*
X97280Y151279D01*
X97176Y151277D01*
X97073Y151271D01*
X96969Y151261D01*
X96866Y151247D01*
X96764Y151229D01*
X96663Y151208D01*
X96562Y151182D01*
X96463Y151153D01*
X96364Y151120D01*
X96267Y151083D01*
X96172Y151042D01*
X96078Y150998D01*
X95986Y150950D01*
X95896Y150899D01*
X95807Y150844D01*
X95721Y150786D01*
X95638Y150724D01*
X95556Y150660D01*
X95478Y150592D01*
X95402Y150522D01*
X95328Y150449D01*
X95258Y150372D01*
X95190Y150294D01*
X95126Y150212D01*
X95064Y150129D01*
X95006Y150043D01*
X94951Y149954D01*
X94900Y149864D01*
X94852Y149772D01*
X94808Y149678D01*
X94767Y149583D01*
X94730Y149486D01*
X94697Y149387D01*
X94668Y149288D01*
X94642Y149187D01*
X94621Y149086D01*
X94603Y148984D01*
X94589Y148881D01*
X94579Y148777D01*
X94573Y148674D01*
X94571Y148570D01*
X94570Y148570D02*
X94570Y140442D01*
X85091Y140442D02*
X80576Y140442D01*
X85091Y140442D02*
X85192Y140444D01*
X85293Y140450D01*
X85394Y140459D01*
X85495Y140472D01*
X85595Y140489D01*
X85694Y140510D01*
X85792Y140534D01*
X85889Y140562D01*
X85986Y140594D01*
X86081Y140629D01*
X86174Y140668D01*
X86266Y140710D01*
X86357Y140756D01*
X86445Y140805D01*
X86532Y140857D01*
X86617Y140913D01*
X86700Y140971D01*
X86780Y141033D01*
X86858Y141098D01*
X86934Y141165D01*
X87007Y141235D01*
X87077Y141308D01*
X87144Y141384D01*
X87209Y141462D01*
X87271Y141542D01*
X87329Y141625D01*
X87385Y141710D01*
X87437Y141796D01*
X87486Y141885D01*
X87532Y141976D01*
X87574Y142068D01*
X87613Y142161D01*
X87648Y142256D01*
X87680Y142353D01*
X87708Y142450D01*
X87732Y142548D01*
X87753Y142647D01*
X87770Y142747D01*
X87783Y142848D01*
X87792Y142949D01*
X87798Y143050D01*
X87800Y143151D01*
X87800Y148570D01*
X87798Y148671D01*
X87792Y148772D01*
X87783Y148873D01*
X87770Y148974D01*
X87753Y149074D01*
X87732Y149173D01*
X87708Y149271D01*
X87680Y149368D01*
X87648Y149465D01*
X87613Y149560D01*
X87574Y149653D01*
X87532Y149745D01*
X87486Y149836D01*
X87437Y149925D01*
X87385Y150011D01*
X87329Y150096D01*
X87271Y150179D01*
X87209Y150259D01*
X87144Y150337D01*
X87077Y150413D01*
X87007Y150486D01*
X86934Y150556D01*
X86858Y150623D01*
X86780Y150688D01*
X86700Y150750D01*
X86617Y150808D01*
X86532Y150864D01*
X86446Y150916D01*
X86357Y150965D01*
X86266Y151011D01*
X86174Y151053D01*
X86081Y151092D01*
X85986Y151127D01*
X85889Y151159D01*
X85792Y151187D01*
X85694Y151211D01*
X85595Y151232D01*
X85495Y151249D01*
X85394Y151262D01*
X85293Y151271D01*
X85192Y151277D01*
X85091Y151279D01*
X80576Y151279D01*
X80576Y137733D01*
X80578Y137632D01*
X80584Y137531D01*
X80593Y137430D01*
X80606Y137329D01*
X80623Y137229D01*
X80644Y137130D01*
X80668Y137032D01*
X80696Y136935D01*
X80728Y136838D01*
X80763Y136743D01*
X80802Y136650D01*
X80844Y136558D01*
X80890Y136467D01*
X80939Y136379D01*
X80991Y136292D01*
X81047Y136207D01*
X81105Y136124D01*
X81167Y136044D01*
X81232Y135966D01*
X81299Y135890D01*
X81369Y135817D01*
X81442Y135747D01*
X81518Y135680D01*
X81596Y135615D01*
X81676Y135553D01*
X81759Y135495D01*
X81844Y135439D01*
X81931Y135387D01*
X82019Y135338D01*
X82110Y135292D01*
X82202Y135250D01*
X82295Y135211D01*
X82390Y135176D01*
X82487Y135144D01*
X82584Y135116D01*
X82682Y135092D01*
X82781Y135071D01*
X82881Y135054D01*
X82982Y135041D01*
X83083Y135032D01*
X83184Y135026D01*
X83285Y135024D01*
X83285Y135023D02*
X86897Y135023D01*
X212638Y130028D02*
X212638Y113772D01*
X212638Y130028D02*
X208122Y130028D01*
X207989Y130026D01*
X207857Y130020D01*
X207725Y130010D01*
X207593Y129997D01*
X207461Y129979D01*
X207331Y129958D01*
X207200Y129933D01*
X207071Y129904D01*
X206943Y129871D01*
X206815Y129835D01*
X206689Y129795D01*
X206564Y129751D01*
X206440Y129703D01*
X206318Y129652D01*
X206197Y129597D01*
X206078Y129539D01*
X205960Y129477D01*
X205845Y129412D01*
X205731Y129343D01*
X205620Y129272D01*
X205511Y129196D01*
X205404Y129118D01*
X205299Y129037D01*
X205197Y128952D01*
X205097Y128865D01*
X205000Y128775D01*
X204905Y128682D01*
X204814Y128586D01*
X204725Y128488D01*
X204639Y128387D01*
X204556Y128283D01*
X204476Y128177D01*
X204400Y128069D01*
X204326Y127959D01*
X204256Y127846D01*
X204189Y127732D01*
X204126Y127615D01*
X204066Y127497D01*
X204009Y127377D01*
X203956Y127255D01*
X203907Y127132D01*
X203861Y127008D01*
X203819Y126882D01*
X203781Y126755D01*
X203746Y126627D01*
X203715Y126498D01*
X203688Y126369D01*
X203665Y126238D01*
X203645Y126107D01*
X203630Y125975D01*
X203618Y125843D01*
X203610Y125711D01*
X203606Y125578D01*
X203606Y125446D01*
X203610Y125313D01*
X203618Y125181D01*
X203630Y125049D01*
X203645Y124917D01*
X203665Y124786D01*
X203688Y124655D01*
X203715Y124526D01*
X203746Y124397D01*
X203781Y124269D01*
X203819Y124142D01*
X203861Y124016D01*
X203907Y123892D01*
X203956Y123769D01*
X204009Y123647D01*
X204066Y123527D01*
X204126Y123409D01*
X204189Y123292D01*
X204256Y123178D01*
X204326Y123065D01*
X204400Y122955D01*
X204476Y122847D01*
X204556Y122741D01*
X204639Y122637D01*
X204725Y122536D01*
X204814Y122438D01*
X204905Y122342D01*
X205000Y122249D01*
X205097Y122159D01*
X205197Y122072D01*
X205299Y121987D01*
X205404Y121906D01*
X205511Y121828D01*
X205620Y121752D01*
X205731Y121681D01*
X205845Y121612D01*
X205960Y121547D01*
X206078Y121485D01*
X206197Y121427D01*
X206318Y121372D01*
X206440Y121321D01*
X206564Y121273D01*
X206689Y121229D01*
X206815Y121189D01*
X206943Y121153D01*
X207071Y121120D01*
X207200Y121091D01*
X207331Y121066D01*
X207461Y121045D01*
X207593Y121027D01*
X207725Y121014D01*
X207857Y121004D01*
X207989Y120998D01*
X208122Y120996D01*
X208122Y120997D02*
X212638Y120997D01*
X207219Y120997D02*
X203607Y113772D01*
X196716Y116481D02*
X196716Y124609D01*
X196716Y116481D02*
X196714Y116380D01*
X196708Y116279D01*
X196699Y116178D01*
X196686Y116077D01*
X196669Y115977D01*
X196648Y115878D01*
X196624Y115780D01*
X196596Y115683D01*
X196564Y115586D01*
X196529Y115491D01*
X196490Y115398D01*
X196448Y115306D01*
X196402Y115215D01*
X196353Y115126D01*
X196301Y115040D01*
X196245Y114955D01*
X196187Y114872D01*
X196125Y114792D01*
X196060Y114714D01*
X195993Y114638D01*
X195923Y114565D01*
X195850Y114495D01*
X195774Y114428D01*
X195696Y114363D01*
X195616Y114301D01*
X195533Y114243D01*
X195448Y114187D01*
X195362Y114135D01*
X195273Y114086D01*
X195182Y114040D01*
X195090Y113998D01*
X194997Y113959D01*
X194902Y113924D01*
X194805Y113892D01*
X194708Y113864D01*
X194610Y113840D01*
X194511Y113819D01*
X194411Y113802D01*
X194310Y113789D01*
X194209Y113780D01*
X194108Y113774D01*
X194007Y113772D01*
X189491Y113772D01*
X189491Y124609D01*
X182683Y124609D02*
X182683Y113772D01*
X183135Y129125D02*
X183135Y130028D01*
X182232Y130028D01*
X182232Y129125D01*
X183135Y129125D01*
X177693Y124609D02*
X172274Y124609D01*
X175887Y130028D02*
X175887Y116481D01*
X175886Y116481D02*
X175884Y116380D01*
X175878Y116279D01*
X175869Y116178D01*
X175856Y116077D01*
X175839Y115977D01*
X175818Y115878D01*
X175794Y115780D01*
X175766Y115683D01*
X175734Y115586D01*
X175699Y115491D01*
X175660Y115398D01*
X175618Y115306D01*
X175572Y115215D01*
X175523Y115126D01*
X175471Y115040D01*
X175415Y114955D01*
X175357Y114872D01*
X175295Y114792D01*
X175230Y114714D01*
X175163Y114638D01*
X175093Y114565D01*
X175020Y114495D01*
X174944Y114428D01*
X174866Y114363D01*
X174786Y114301D01*
X174703Y114243D01*
X174618Y114187D01*
X174532Y114135D01*
X174443Y114086D01*
X174352Y114040D01*
X174260Y113998D01*
X174167Y113959D01*
X174072Y113924D01*
X173975Y113892D01*
X173878Y113864D01*
X173780Y113840D01*
X173681Y113819D01*
X173581Y113802D01*
X173480Y113789D01*
X173379Y113780D01*
X173278Y113774D01*
X173177Y113772D01*
X172274Y113772D01*
X163408Y120094D02*
X159344Y120094D01*
X163408Y120094D02*
X163520Y120092D01*
X163631Y120086D01*
X163742Y120076D01*
X163853Y120063D01*
X163963Y120045D01*
X164072Y120023D01*
X164181Y119998D01*
X164289Y119969D01*
X164395Y119936D01*
X164501Y119899D01*
X164605Y119859D01*
X164707Y119815D01*
X164808Y119767D01*
X164907Y119716D01*
X165005Y119661D01*
X165100Y119603D01*
X165193Y119542D01*
X165284Y119477D01*
X165373Y119409D01*
X165459Y119338D01*
X165542Y119265D01*
X165623Y119188D01*
X165702Y119108D01*
X165777Y119026D01*
X165849Y118941D01*
X165919Y118854D01*
X165985Y118764D01*
X166048Y118672D01*
X166108Y118577D01*
X166164Y118481D01*
X166217Y118383D01*
X166266Y118283D01*
X166312Y118181D01*
X166354Y118078D01*
X166393Y117973D01*
X166428Y117867D01*
X166459Y117760D01*
X166486Y117652D01*
X166510Y117543D01*
X166529Y117433D01*
X166545Y117323D01*
X166557Y117212D01*
X166565Y117100D01*
X166569Y116989D01*
X166569Y116877D01*
X166565Y116766D01*
X166557Y116654D01*
X166545Y116543D01*
X166529Y116433D01*
X166510Y116323D01*
X166486Y116214D01*
X166459Y116106D01*
X166428Y115999D01*
X166393Y115893D01*
X166354Y115788D01*
X166312Y115685D01*
X166266Y115583D01*
X166217Y115483D01*
X166164Y115385D01*
X166108Y115289D01*
X166048Y115194D01*
X165985Y115102D01*
X165919Y115012D01*
X165849Y114925D01*
X165777Y114840D01*
X165702Y114758D01*
X165623Y114678D01*
X165542Y114601D01*
X165459Y114528D01*
X165373Y114457D01*
X165284Y114389D01*
X165193Y114324D01*
X165100Y114263D01*
X165005Y114205D01*
X164907Y114150D01*
X164808Y114099D01*
X164707Y114051D01*
X164605Y114007D01*
X164501Y113967D01*
X164395Y113930D01*
X164289Y113897D01*
X164181Y113868D01*
X164072Y113843D01*
X163963Y113821D01*
X163853Y113803D01*
X163742Y113790D01*
X163631Y113780D01*
X163520Y113774D01*
X163408Y113772D01*
X159344Y113772D01*
X159344Y121900D01*
X159345Y121900D02*
X159347Y122001D01*
X159353Y122102D01*
X159362Y122203D01*
X159375Y122304D01*
X159392Y122404D01*
X159413Y122503D01*
X159437Y122601D01*
X159465Y122698D01*
X159497Y122795D01*
X159532Y122890D01*
X159571Y122983D01*
X159613Y123075D01*
X159659Y123166D01*
X159708Y123255D01*
X159760Y123341D01*
X159816Y123426D01*
X159874Y123509D01*
X159936Y123589D01*
X160001Y123667D01*
X160068Y123743D01*
X160138Y123816D01*
X160211Y123886D01*
X160287Y123953D01*
X160365Y124018D01*
X160445Y124080D01*
X160528Y124138D01*
X160613Y124194D01*
X160700Y124246D01*
X160788Y124295D01*
X160879Y124341D01*
X160971Y124383D01*
X161064Y124422D01*
X161159Y124457D01*
X161256Y124489D01*
X161353Y124517D01*
X161451Y124541D01*
X161550Y124562D01*
X161650Y124579D01*
X161751Y124592D01*
X161852Y124601D01*
X161953Y124607D01*
X162054Y124609D01*
X165666Y124609D01*
X152428Y120997D02*
X152428Y117384D01*
X152427Y120997D02*
X152425Y121116D01*
X152419Y121236D01*
X152409Y121355D01*
X152395Y121473D01*
X152378Y121592D01*
X152356Y121709D01*
X152331Y121826D01*
X152301Y121941D01*
X152268Y122056D01*
X152231Y122170D01*
X152191Y122282D01*
X152146Y122393D01*
X152098Y122502D01*
X152047Y122610D01*
X151992Y122716D01*
X151933Y122820D01*
X151871Y122922D01*
X151806Y123022D01*
X151737Y123120D01*
X151665Y123216D01*
X151590Y123309D01*
X151513Y123399D01*
X151432Y123487D01*
X151348Y123572D01*
X151261Y123654D01*
X151172Y123734D01*
X151080Y123810D01*
X150986Y123884D01*
X150889Y123954D01*
X150791Y124021D01*
X150690Y124085D01*
X150586Y124145D01*
X150481Y124202D01*
X150374Y124255D01*
X150266Y124305D01*
X150156Y124351D01*
X150044Y124393D01*
X149931Y124432D01*
X149817Y124467D01*
X149702Y124498D01*
X149585Y124526D01*
X149468Y124549D01*
X149351Y124569D01*
X149232Y124585D01*
X149113Y124597D01*
X148994Y124605D01*
X148875Y124609D01*
X148755Y124609D01*
X148636Y124605D01*
X148517Y124597D01*
X148398Y124585D01*
X148279Y124569D01*
X148162Y124549D01*
X148045Y124526D01*
X147928Y124498D01*
X147813Y124467D01*
X147699Y124432D01*
X147586Y124393D01*
X147474Y124351D01*
X147364Y124305D01*
X147256Y124255D01*
X147149Y124202D01*
X147044Y124145D01*
X146940Y124085D01*
X146839Y124021D01*
X146741Y123954D01*
X146644Y123884D01*
X146550Y123810D01*
X146458Y123734D01*
X146369Y123654D01*
X146282Y123572D01*
X146198Y123487D01*
X146117Y123399D01*
X146040Y123309D01*
X145965Y123216D01*
X145893Y123120D01*
X145824Y123022D01*
X145759Y122922D01*
X145697Y122820D01*
X145638Y122716D01*
X145583Y122610D01*
X145532Y122502D01*
X145484Y122393D01*
X145439Y122282D01*
X145399Y122170D01*
X145362Y122056D01*
X145329Y121941D01*
X145299Y121826D01*
X145274Y121709D01*
X145252Y121592D01*
X145235Y121473D01*
X145221Y121355D01*
X145211Y121236D01*
X145205Y121116D01*
X145203Y120997D01*
X145203Y117384D01*
X145205Y117265D01*
X145211Y117145D01*
X145221Y117026D01*
X145235Y116908D01*
X145252Y116789D01*
X145274Y116672D01*
X145299Y116555D01*
X145329Y116440D01*
X145362Y116325D01*
X145399Y116211D01*
X145439Y116099D01*
X145484Y115988D01*
X145532Y115879D01*
X145583Y115771D01*
X145638Y115665D01*
X145697Y115561D01*
X145759Y115459D01*
X145824Y115359D01*
X145893Y115261D01*
X145965Y115165D01*
X146040Y115072D01*
X146117Y114982D01*
X146198Y114894D01*
X146282Y114809D01*
X146369Y114727D01*
X146458Y114647D01*
X146550Y114571D01*
X146644Y114497D01*
X146741Y114427D01*
X146839Y114360D01*
X146940Y114296D01*
X147044Y114236D01*
X147149Y114179D01*
X147256Y114126D01*
X147364Y114076D01*
X147474Y114030D01*
X147586Y113988D01*
X147699Y113949D01*
X147813Y113914D01*
X147928Y113883D01*
X148045Y113855D01*
X148162Y113832D01*
X148279Y113812D01*
X148398Y113796D01*
X148517Y113784D01*
X148636Y113776D01*
X148755Y113772D01*
X148875Y113772D01*
X148994Y113776D01*
X149113Y113784D01*
X149232Y113796D01*
X149351Y113812D01*
X149468Y113832D01*
X149585Y113855D01*
X149702Y113883D01*
X149817Y113914D01*
X149931Y113949D01*
X150044Y113988D01*
X150156Y114030D01*
X150266Y114076D01*
X150374Y114126D01*
X150481Y114179D01*
X150586Y114236D01*
X150690Y114296D01*
X150791Y114360D01*
X150889Y114427D01*
X150986Y114497D01*
X151080Y114571D01*
X151172Y114647D01*
X151261Y114727D01*
X151348Y114809D01*
X151432Y114894D01*
X151513Y114982D01*
X151590Y115072D01*
X151665Y115165D01*
X151737Y115261D01*
X151806Y115359D01*
X151871Y115459D01*
X151933Y115561D01*
X151992Y115665D01*
X152047Y115771D01*
X152098Y115879D01*
X152146Y115988D01*
X152191Y116099D01*
X152231Y116211D01*
X152268Y116325D01*
X152301Y116440D01*
X152331Y116555D01*
X152356Y116672D01*
X152378Y116789D01*
X152395Y116908D01*
X152409Y117026D01*
X152419Y117145D01*
X152425Y117265D01*
X152427Y117384D01*
X129854Y113772D02*
X129854Y130028D01*
X129854Y113772D02*
X122630Y113772D01*
X116997Y117384D02*
X116997Y120997D01*
X116995Y121116D01*
X116989Y121236D01*
X116979Y121355D01*
X116965Y121473D01*
X116948Y121592D01*
X116926Y121709D01*
X116901Y121826D01*
X116871Y121941D01*
X116838Y122056D01*
X116801Y122170D01*
X116761Y122282D01*
X116716Y122393D01*
X116668Y122502D01*
X116617Y122610D01*
X116562Y122716D01*
X116503Y122820D01*
X116441Y122922D01*
X116376Y123022D01*
X116307Y123120D01*
X116235Y123216D01*
X116160Y123309D01*
X116083Y123399D01*
X116002Y123487D01*
X115918Y123572D01*
X115831Y123654D01*
X115742Y123734D01*
X115650Y123810D01*
X115556Y123884D01*
X115459Y123954D01*
X115361Y124021D01*
X115260Y124085D01*
X115156Y124145D01*
X115051Y124202D01*
X114944Y124255D01*
X114836Y124305D01*
X114726Y124351D01*
X114614Y124393D01*
X114501Y124432D01*
X114387Y124467D01*
X114272Y124498D01*
X114155Y124526D01*
X114038Y124549D01*
X113921Y124569D01*
X113802Y124585D01*
X113683Y124597D01*
X113564Y124605D01*
X113445Y124609D01*
X113325Y124609D01*
X113206Y124605D01*
X113087Y124597D01*
X112968Y124585D01*
X112849Y124569D01*
X112732Y124549D01*
X112615Y124526D01*
X112498Y124498D01*
X112383Y124467D01*
X112269Y124432D01*
X112156Y124393D01*
X112044Y124351D01*
X111934Y124305D01*
X111826Y124255D01*
X111719Y124202D01*
X111614Y124145D01*
X111510Y124085D01*
X111409Y124021D01*
X111311Y123954D01*
X111214Y123884D01*
X111120Y123810D01*
X111028Y123734D01*
X110939Y123654D01*
X110852Y123572D01*
X110768Y123487D01*
X110687Y123399D01*
X110610Y123309D01*
X110535Y123216D01*
X110463Y123120D01*
X110394Y123022D01*
X110329Y122922D01*
X110267Y122820D01*
X110208Y122716D01*
X110153Y122610D01*
X110102Y122502D01*
X110054Y122393D01*
X110009Y122282D01*
X109969Y122170D01*
X109932Y122056D01*
X109899Y121941D01*
X109869Y121826D01*
X109844Y121709D01*
X109822Y121592D01*
X109805Y121473D01*
X109791Y121355D01*
X109781Y121236D01*
X109775Y121116D01*
X109773Y120997D01*
X109772Y120997D02*
X109772Y117384D01*
X109773Y117384D02*
X109775Y117265D01*
X109781Y117145D01*
X109791Y117026D01*
X109805Y116908D01*
X109822Y116789D01*
X109844Y116672D01*
X109869Y116555D01*
X109899Y116440D01*
X109932Y116325D01*
X109969Y116211D01*
X110009Y116099D01*
X110054Y115988D01*
X110102Y115879D01*
X110153Y115771D01*
X110208Y115665D01*
X110267Y115561D01*
X110329Y115459D01*
X110394Y115359D01*
X110463Y115261D01*
X110535Y115165D01*
X110610Y115072D01*
X110687Y114982D01*
X110768Y114894D01*
X110852Y114809D01*
X110939Y114727D01*
X111028Y114647D01*
X111120Y114571D01*
X111214Y114497D01*
X111311Y114427D01*
X111409Y114360D01*
X111510Y114296D01*
X111614Y114236D01*
X111719Y114179D01*
X111826Y114126D01*
X111934Y114076D01*
X112044Y114030D01*
X112156Y113988D01*
X112269Y113949D01*
X112383Y113914D01*
X112498Y113883D01*
X112615Y113855D01*
X112732Y113832D01*
X112849Y113812D01*
X112968Y113796D01*
X113087Y113784D01*
X113206Y113776D01*
X113325Y113772D01*
X113445Y113772D01*
X113564Y113776D01*
X113683Y113784D01*
X113802Y113796D01*
X113921Y113812D01*
X114038Y113832D01*
X114155Y113855D01*
X114272Y113883D01*
X114387Y113914D01*
X114501Y113949D01*
X114614Y113988D01*
X114726Y114030D01*
X114836Y114076D01*
X114944Y114126D01*
X115051Y114179D01*
X115156Y114236D01*
X115260Y114296D01*
X115361Y114360D01*
X115459Y114427D01*
X115556Y114497D01*
X115650Y114571D01*
X115742Y114647D01*
X115831Y114727D01*
X115918Y114809D01*
X116002Y114894D01*
X116083Y114982D01*
X116160Y115072D01*
X116235Y115165D01*
X116307Y115261D01*
X116376Y115359D01*
X116441Y115459D01*
X116503Y115561D01*
X116562Y115665D01*
X116617Y115771D01*
X116668Y115879D01*
X116716Y115988D01*
X116761Y116099D01*
X116801Y116211D01*
X116838Y116325D01*
X116871Y116440D01*
X116901Y116555D01*
X116926Y116672D01*
X116948Y116789D01*
X116965Y116908D01*
X116979Y117026D01*
X116989Y117145D01*
X116995Y117265D01*
X116997Y117384D01*
X102929Y113772D02*
X102929Y124609D01*
X98414Y124609D01*
X98310Y124607D01*
X98207Y124601D01*
X98103Y124591D01*
X98000Y124577D01*
X97898Y124559D01*
X97797Y124538D01*
X97696Y124512D01*
X97597Y124483D01*
X97498Y124450D01*
X97401Y124413D01*
X97306Y124372D01*
X97212Y124328D01*
X97120Y124280D01*
X97030Y124229D01*
X96941Y124174D01*
X96855Y124116D01*
X96772Y124054D01*
X96690Y123990D01*
X96612Y123922D01*
X96536Y123852D01*
X96462Y123779D01*
X96392Y123702D01*
X96324Y123624D01*
X96260Y123542D01*
X96198Y123459D01*
X96140Y123373D01*
X96085Y123284D01*
X96034Y123194D01*
X95986Y123102D01*
X95942Y123008D01*
X95901Y122913D01*
X95864Y122816D01*
X95831Y122717D01*
X95802Y122618D01*
X95776Y122517D01*
X95755Y122416D01*
X95737Y122314D01*
X95723Y122211D01*
X95713Y122107D01*
X95707Y122004D01*
X95705Y121900D01*
X95704Y121900D02*
X95704Y113772D01*
X86225Y113772D02*
X81709Y113772D01*
X86225Y113772D02*
X86326Y113774D01*
X86427Y113780D01*
X86528Y113789D01*
X86629Y113802D01*
X86729Y113819D01*
X86828Y113840D01*
X86926Y113864D01*
X87023Y113892D01*
X87120Y113924D01*
X87215Y113959D01*
X87308Y113998D01*
X87400Y114040D01*
X87491Y114086D01*
X87579Y114135D01*
X87666Y114187D01*
X87751Y114243D01*
X87834Y114301D01*
X87914Y114363D01*
X87992Y114428D01*
X88068Y114495D01*
X88141Y114565D01*
X88211Y114638D01*
X88278Y114714D01*
X88343Y114792D01*
X88405Y114872D01*
X88463Y114955D01*
X88519Y115040D01*
X88571Y115126D01*
X88620Y115215D01*
X88666Y115306D01*
X88708Y115398D01*
X88747Y115491D01*
X88782Y115586D01*
X88814Y115683D01*
X88842Y115780D01*
X88866Y115878D01*
X88887Y115977D01*
X88904Y116077D01*
X88917Y116178D01*
X88926Y116279D01*
X88932Y116380D01*
X88934Y116481D01*
X88934Y121900D01*
X88932Y122001D01*
X88926Y122102D01*
X88917Y122203D01*
X88904Y122304D01*
X88887Y122404D01*
X88866Y122503D01*
X88842Y122601D01*
X88814Y122698D01*
X88782Y122795D01*
X88747Y122890D01*
X88708Y122983D01*
X88666Y123075D01*
X88620Y123166D01*
X88571Y123255D01*
X88519Y123341D01*
X88463Y123426D01*
X88405Y123509D01*
X88343Y123589D01*
X88278Y123667D01*
X88211Y123743D01*
X88141Y123816D01*
X88068Y123886D01*
X87992Y123953D01*
X87914Y124018D01*
X87834Y124080D01*
X87751Y124138D01*
X87666Y124194D01*
X87580Y124246D01*
X87491Y124295D01*
X87400Y124341D01*
X87308Y124383D01*
X87215Y124422D01*
X87120Y124457D01*
X87023Y124489D01*
X86926Y124517D01*
X86828Y124541D01*
X86729Y124562D01*
X86629Y124579D01*
X86528Y124592D01*
X86427Y124601D01*
X86326Y124607D01*
X86225Y124609D01*
X81709Y124609D01*
X81709Y111063D01*
X81710Y111063D02*
X81712Y110962D01*
X81718Y110861D01*
X81727Y110760D01*
X81740Y110659D01*
X81757Y110559D01*
X81778Y110460D01*
X81802Y110362D01*
X81830Y110265D01*
X81862Y110168D01*
X81897Y110073D01*
X81936Y109980D01*
X81978Y109888D01*
X82024Y109797D01*
X82073Y109709D01*
X82125Y109622D01*
X82181Y109537D01*
X82239Y109454D01*
X82301Y109374D01*
X82366Y109296D01*
X82433Y109220D01*
X82503Y109147D01*
X82576Y109077D01*
X82652Y109010D01*
X82730Y108945D01*
X82810Y108883D01*
X82893Y108825D01*
X82978Y108769D01*
X83065Y108717D01*
X83153Y108668D01*
X83244Y108622D01*
X83336Y108580D01*
X83429Y108541D01*
X83524Y108506D01*
X83621Y108474D01*
X83718Y108446D01*
X83816Y108422D01*
X83915Y108401D01*
X84015Y108384D01*
X84116Y108371D01*
X84217Y108362D01*
X84318Y108356D01*
X84419Y108354D01*
X84419Y108353D02*
X88031Y108353D01*
X203607Y90714D02*
X203609Y90596D01*
X203615Y90478D01*
X203624Y90360D01*
X203638Y90243D01*
X203655Y90126D01*
X203676Y90009D01*
X203701Y89894D01*
X203730Y89779D01*
X203763Y89665D01*
X203799Y89553D01*
X203839Y89442D01*
X203882Y89332D01*
X203929Y89223D01*
X203979Y89116D01*
X204034Y89011D01*
X204091Y88908D01*
X204152Y88807D01*
X204216Y88707D01*
X204283Y88610D01*
X204353Y88515D01*
X204427Y88423D01*
X204503Y88332D01*
X204583Y88245D01*
X204665Y88160D01*
X204750Y88078D01*
X204837Y87998D01*
X204928Y87922D01*
X205020Y87848D01*
X205115Y87778D01*
X205212Y87711D01*
X205312Y87647D01*
X205413Y87586D01*
X205516Y87529D01*
X205621Y87474D01*
X205728Y87424D01*
X205837Y87377D01*
X205947Y87334D01*
X206058Y87294D01*
X206170Y87258D01*
X206284Y87225D01*
X206399Y87196D01*
X206514Y87171D01*
X206631Y87150D01*
X206748Y87133D01*
X206865Y87119D01*
X206983Y87110D01*
X207101Y87104D01*
X207219Y87102D01*
X207402Y87104D01*
X207584Y87111D01*
X207766Y87122D01*
X207948Y87137D01*
X208130Y87157D01*
X208311Y87181D01*
X208491Y87209D01*
X208671Y87241D01*
X208850Y87278D01*
X209027Y87319D01*
X209204Y87365D01*
X209380Y87414D01*
X209555Y87468D01*
X209728Y87526D01*
X209899Y87588D01*
X210070Y87654D01*
X210238Y87725D01*
X210405Y87799D01*
X210570Y87877D01*
X210733Y87959D01*
X210894Y88045D01*
X211053Y88135D01*
X211210Y88229D01*
X211364Y88326D01*
X211516Y88427D01*
X211666Y88532D01*
X211813Y88640D01*
X211957Y88751D01*
X212099Y88866D01*
X212238Y88985D01*
X212374Y89107D01*
X212507Y89232D01*
X212637Y89360D01*
X212186Y99746D02*
X212184Y99864D01*
X212178Y99982D01*
X212169Y100100D01*
X212155Y100217D01*
X212138Y100334D01*
X212117Y100451D01*
X212092Y100566D01*
X212063Y100681D01*
X212030Y100795D01*
X211994Y100907D01*
X211954Y101018D01*
X211911Y101128D01*
X211864Y101237D01*
X211814Y101344D01*
X211759Y101449D01*
X211702Y101552D01*
X211641Y101653D01*
X211577Y101753D01*
X211510Y101850D01*
X211440Y101945D01*
X211366Y102037D01*
X211290Y102128D01*
X211210Y102215D01*
X211128Y102300D01*
X211043Y102382D01*
X210956Y102462D01*
X210865Y102538D01*
X210773Y102612D01*
X210678Y102682D01*
X210581Y102749D01*
X210481Y102813D01*
X210380Y102874D01*
X210277Y102931D01*
X210172Y102986D01*
X210065Y103036D01*
X209956Y103083D01*
X209846Y103126D01*
X209735Y103166D01*
X209623Y103202D01*
X209509Y103235D01*
X209394Y103264D01*
X209279Y103289D01*
X209162Y103310D01*
X209045Y103327D01*
X208928Y103341D01*
X208810Y103350D01*
X208692Y103356D01*
X208574Y103358D01*
X208413Y103356D01*
X208251Y103350D01*
X208090Y103341D01*
X207929Y103327D01*
X207769Y103310D01*
X207609Y103289D01*
X207449Y103264D01*
X207290Y103235D01*
X207132Y103203D01*
X206975Y103167D01*
X206819Y103127D01*
X206663Y103083D01*
X206509Y103035D01*
X206356Y102984D01*
X206204Y102930D01*
X206053Y102871D01*
X205904Y102810D01*
X205757Y102744D01*
X205611Y102675D01*
X205466Y102603D01*
X205324Y102527D01*
X205183Y102448D01*
X205044Y102366D01*
X204908Y102280D01*
X204773Y102191D01*
X204640Y102099D01*
X204510Y102003D01*
X210381Y96585D02*
X210482Y96647D01*
X210582Y96712D01*
X210679Y96781D01*
X210774Y96853D01*
X210867Y96927D01*
X210957Y97005D01*
X211045Y97086D01*
X211130Y97169D01*
X211212Y97255D01*
X211291Y97344D01*
X211368Y97435D01*
X211441Y97529D01*
X211512Y97625D01*
X211579Y97723D01*
X211643Y97823D01*
X211704Y97926D01*
X211761Y98030D01*
X211815Y98136D01*
X211865Y98244D01*
X211912Y98353D01*
X211956Y98464D01*
X211996Y98576D01*
X212032Y98690D01*
X212064Y98804D01*
X212093Y98920D01*
X212118Y99036D01*
X212139Y99153D01*
X212156Y99271D01*
X212170Y99389D01*
X212179Y99508D01*
X212185Y99627D01*
X212187Y99746D01*
X205413Y93875D02*
X205312Y93813D01*
X205212Y93748D01*
X205115Y93679D01*
X205020Y93607D01*
X204927Y93533D01*
X204837Y93455D01*
X204749Y93374D01*
X204664Y93291D01*
X204582Y93205D01*
X204503Y93116D01*
X204426Y93025D01*
X204353Y92931D01*
X204282Y92835D01*
X204215Y92737D01*
X204151Y92637D01*
X204090Y92534D01*
X204033Y92430D01*
X203979Y92324D01*
X203929Y92216D01*
X203882Y92107D01*
X203838Y91996D01*
X203798Y91884D01*
X203762Y91770D01*
X203730Y91656D01*
X203701Y91540D01*
X203676Y91424D01*
X203655Y91307D01*
X203638Y91189D01*
X203624Y91071D01*
X203615Y90952D01*
X203609Y90833D01*
X203607Y90714D01*
X205413Y93875D02*
X210380Y96585D01*
X197146Y103358D02*
X197146Y87102D01*
X197146Y97939D02*
X192630Y97939D01*
X192526Y97937D01*
X192423Y97931D01*
X192319Y97921D01*
X192216Y97907D01*
X192114Y97889D01*
X192013Y97868D01*
X191912Y97842D01*
X191813Y97813D01*
X191714Y97780D01*
X191617Y97743D01*
X191522Y97702D01*
X191428Y97658D01*
X191336Y97610D01*
X191246Y97559D01*
X191157Y97504D01*
X191071Y97446D01*
X190988Y97384D01*
X190906Y97320D01*
X190828Y97252D01*
X190752Y97182D01*
X190678Y97109D01*
X190608Y97032D01*
X190540Y96954D01*
X190476Y96872D01*
X190414Y96789D01*
X190356Y96703D01*
X190301Y96614D01*
X190250Y96524D01*
X190202Y96432D01*
X190158Y96338D01*
X190117Y96243D01*
X190080Y96146D01*
X190047Y96047D01*
X190018Y95948D01*
X189992Y95847D01*
X189971Y95746D01*
X189953Y95644D01*
X189939Y95541D01*
X189929Y95437D01*
X189923Y95334D01*
X189921Y95230D01*
X189921Y87102D01*
X183113Y87102D02*
X183113Y97939D01*
X183564Y102455D02*
X183564Y103358D01*
X182661Y103358D01*
X182661Y102455D01*
X183564Y102455D01*
X169674Y97939D02*
X169674Y81683D01*
X169674Y97939D02*
X174189Y97939D01*
X174290Y97937D01*
X174391Y97931D01*
X174492Y97922D01*
X174593Y97909D01*
X174693Y97892D01*
X174792Y97871D01*
X174890Y97847D01*
X174987Y97819D01*
X175084Y97787D01*
X175179Y97752D01*
X175272Y97713D01*
X175364Y97671D01*
X175455Y97625D01*
X175544Y97576D01*
X175630Y97524D01*
X175715Y97468D01*
X175798Y97410D01*
X175878Y97348D01*
X175956Y97283D01*
X176032Y97216D01*
X176105Y97146D01*
X176175Y97073D01*
X176242Y96997D01*
X176307Y96919D01*
X176369Y96839D01*
X176427Y96756D01*
X176483Y96671D01*
X176535Y96585D01*
X176584Y96496D01*
X176630Y96405D01*
X176672Y96313D01*
X176711Y96220D01*
X176746Y96125D01*
X176778Y96028D01*
X176806Y95931D01*
X176830Y95833D01*
X176851Y95734D01*
X176868Y95634D01*
X176881Y95533D01*
X176890Y95432D01*
X176896Y95331D01*
X176898Y95230D01*
X176898Y89811D01*
X176896Y89710D01*
X176890Y89609D01*
X176881Y89508D01*
X176868Y89407D01*
X176851Y89307D01*
X176830Y89208D01*
X176806Y89110D01*
X176778Y89013D01*
X176746Y88916D01*
X176711Y88821D01*
X176672Y88728D01*
X176630Y88636D01*
X176584Y88545D01*
X176535Y88456D01*
X176483Y88370D01*
X176427Y88285D01*
X176369Y88202D01*
X176307Y88122D01*
X176242Y88044D01*
X176175Y87968D01*
X176105Y87895D01*
X176032Y87825D01*
X175956Y87758D01*
X175878Y87693D01*
X175798Y87631D01*
X175715Y87573D01*
X175630Y87517D01*
X175544Y87465D01*
X175455Y87416D01*
X175364Y87370D01*
X175272Y87328D01*
X175179Y87289D01*
X175084Y87254D01*
X174987Y87222D01*
X174890Y87194D01*
X174792Y87170D01*
X174693Y87149D01*
X174593Y87132D01*
X174492Y87119D01*
X174391Y87110D01*
X174290Y87104D01*
X174189Y87102D01*
X169674Y87102D01*
X162792Y87102D02*
X162792Y97939D01*
X163244Y102455D02*
X163244Y103358D01*
X162340Y103358D01*
X162340Y102455D01*
X163244Y102455D01*
X148932Y103358D02*
X143513Y95682D01*
X138095Y103358D01*
X143513Y95682D02*
X143513Y87102D01*
X132016Y89811D02*
X132016Y97939D01*
X132015Y89811D02*
X132013Y89710D01*
X132007Y89609D01*
X131998Y89508D01*
X131985Y89407D01*
X131968Y89307D01*
X131947Y89208D01*
X131923Y89110D01*
X131895Y89013D01*
X131863Y88916D01*
X131828Y88821D01*
X131789Y88728D01*
X131747Y88636D01*
X131701Y88545D01*
X131652Y88456D01*
X131600Y88370D01*
X131544Y88285D01*
X131486Y88202D01*
X131424Y88122D01*
X131359Y88044D01*
X131292Y87968D01*
X131222Y87895D01*
X131149Y87825D01*
X131073Y87758D01*
X130995Y87693D01*
X130915Y87631D01*
X130832Y87573D01*
X130747Y87517D01*
X130660Y87465D01*
X130572Y87416D01*
X130481Y87370D01*
X130389Y87328D01*
X130296Y87289D01*
X130201Y87254D01*
X130104Y87222D01*
X130007Y87194D01*
X129909Y87170D01*
X129810Y87149D01*
X129710Y87132D01*
X129609Y87119D01*
X129508Y87110D01*
X129407Y87104D01*
X129306Y87102D01*
X124791Y87102D01*
X124791Y97939D01*
X208122Y76688D02*
X208122Y60432D01*
X212638Y76688D02*
X203607Y76688D01*
X198223Y71269D02*
X198223Y60432D01*
X198674Y75785D02*
X198674Y76688D01*
X197771Y76688D01*
X197771Y75785D01*
X198674Y75785D01*
X188848Y66754D02*
X184784Y66754D01*
X188848Y66754D02*
X188960Y66752D01*
X189071Y66746D01*
X189182Y66736D01*
X189293Y66723D01*
X189403Y66705D01*
X189512Y66683D01*
X189621Y66658D01*
X189729Y66629D01*
X189835Y66596D01*
X189941Y66559D01*
X190045Y66519D01*
X190147Y66475D01*
X190248Y66427D01*
X190347Y66376D01*
X190445Y66321D01*
X190540Y66263D01*
X190633Y66202D01*
X190724Y66137D01*
X190813Y66069D01*
X190899Y65998D01*
X190982Y65925D01*
X191063Y65848D01*
X191142Y65768D01*
X191217Y65686D01*
X191289Y65601D01*
X191359Y65514D01*
X191425Y65424D01*
X191488Y65332D01*
X191548Y65237D01*
X191604Y65141D01*
X191657Y65043D01*
X191706Y64943D01*
X191752Y64841D01*
X191794Y64738D01*
X191833Y64633D01*
X191868Y64527D01*
X191899Y64420D01*
X191926Y64312D01*
X191950Y64203D01*
X191969Y64093D01*
X191985Y63983D01*
X191997Y63872D01*
X192005Y63760D01*
X192009Y63649D01*
X192009Y63537D01*
X192005Y63426D01*
X191997Y63314D01*
X191985Y63203D01*
X191969Y63093D01*
X191950Y62983D01*
X191926Y62874D01*
X191899Y62766D01*
X191868Y62659D01*
X191833Y62553D01*
X191794Y62448D01*
X191752Y62345D01*
X191706Y62243D01*
X191657Y62143D01*
X191604Y62045D01*
X191548Y61949D01*
X191488Y61854D01*
X191425Y61762D01*
X191359Y61672D01*
X191289Y61585D01*
X191217Y61500D01*
X191142Y61418D01*
X191063Y61338D01*
X190982Y61261D01*
X190899Y61188D01*
X190813Y61117D01*
X190724Y61049D01*
X190633Y60984D01*
X190540Y60923D01*
X190445Y60865D01*
X190347Y60810D01*
X190248Y60759D01*
X190147Y60711D01*
X190045Y60667D01*
X189941Y60627D01*
X189835Y60590D01*
X189729Y60557D01*
X189621Y60528D01*
X189512Y60503D01*
X189403Y60481D01*
X189293Y60463D01*
X189182Y60450D01*
X189071Y60440D01*
X188960Y60434D01*
X188848Y60432D01*
X184784Y60432D01*
X184784Y68560D01*
X184786Y68661D01*
X184792Y68762D01*
X184801Y68863D01*
X184814Y68964D01*
X184831Y69064D01*
X184852Y69163D01*
X184876Y69261D01*
X184904Y69358D01*
X184936Y69455D01*
X184971Y69550D01*
X185010Y69643D01*
X185052Y69735D01*
X185098Y69826D01*
X185147Y69915D01*
X185199Y70001D01*
X185255Y70086D01*
X185313Y70169D01*
X185375Y70249D01*
X185440Y70327D01*
X185507Y70403D01*
X185577Y70476D01*
X185650Y70546D01*
X185726Y70613D01*
X185804Y70678D01*
X185884Y70740D01*
X185967Y70798D01*
X186052Y70854D01*
X186139Y70906D01*
X186227Y70955D01*
X186318Y71001D01*
X186410Y71043D01*
X186503Y71082D01*
X186598Y71117D01*
X186695Y71149D01*
X186792Y71177D01*
X186890Y71201D01*
X186989Y71222D01*
X187089Y71239D01*
X187190Y71252D01*
X187291Y71261D01*
X187392Y71267D01*
X187493Y71269D01*
X191106Y71269D01*
X177346Y71269D02*
X177346Y60432D01*
X177346Y71269D02*
X172831Y71269D01*
X172727Y71267D01*
X172624Y71261D01*
X172520Y71251D01*
X172417Y71237D01*
X172315Y71219D01*
X172214Y71198D01*
X172113Y71172D01*
X172014Y71143D01*
X171915Y71110D01*
X171818Y71073D01*
X171723Y71032D01*
X171629Y70988D01*
X171537Y70940D01*
X171447Y70889D01*
X171358Y70834D01*
X171272Y70776D01*
X171189Y70714D01*
X171107Y70650D01*
X171029Y70582D01*
X170953Y70512D01*
X170879Y70439D01*
X170809Y70362D01*
X170741Y70284D01*
X170677Y70202D01*
X170615Y70119D01*
X170557Y70033D01*
X170502Y69944D01*
X170451Y69854D01*
X170403Y69762D01*
X170359Y69668D01*
X170318Y69573D01*
X170281Y69476D01*
X170248Y69377D01*
X170219Y69278D01*
X170193Y69177D01*
X170172Y69076D01*
X170154Y68974D01*
X170140Y68871D01*
X170130Y68767D01*
X170124Y68664D01*
X170122Y68560D01*
X170121Y68560D02*
X170121Y60432D01*
X163799Y55013D02*
X161993Y55013D01*
X156574Y71269D01*
X163799Y71269D02*
X160187Y60432D01*
X147686Y66754D02*
X143622Y66754D01*
X147686Y66754D02*
X147798Y66752D01*
X147909Y66746D01*
X148020Y66736D01*
X148131Y66723D01*
X148241Y66705D01*
X148350Y66683D01*
X148459Y66658D01*
X148567Y66629D01*
X148673Y66596D01*
X148779Y66559D01*
X148883Y66519D01*
X148985Y66475D01*
X149086Y66427D01*
X149185Y66376D01*
X149283Y66321D01*
X149378Y66263D01*
X149471Y66202D01*
X149562Y66137D01*
X149651Y66069D01*
X149737Y65998D01*
X149820Y65925D01*
X149901Y65848D01*
X149980Y65768D01*
X150055Y65686D01*
X150127Y65601D01*
X150197Y65514D01*
X150263Y65424D01*
X150326Y65332D01*
X150386Y65237D01*
X150442Y65141D01*
X150495Y65043D01*
X150544Y64943D01*
X150590Y64841D01*
X150632Y64738D01*
X150671Y64633D01*
X150706Y64527D01*
X150737Y64420D01*
X150764Y64312D01*
X150788Y64203D01*
X150807Y64093D01*
X150823Y63983D01*
X150835Y63872D01*
X150843Y63760D01*
X150847Y63649D01*
X150847Y63537D01*
X150843Y63426D01*
X150835Y63314D01*
X150823Y63203D01*
X150807Y63093D01*
X150788Y62983D01*
X150764Y62874D01*
X150737Y62766D01*
X150706Y62659D01*
X150671Y62553D01*
X150632Y62448D01*
X150590Y62345D01*
X150544Y62243D01*
X150495Y62143D01*
X150442Y62045D01*
X150386Y61949D01*
X150326Y61854D01*
X150263Y61762D01*
X150197Y61672D01*
X150127Y61585D01*
X150055Y61500D01*
X149980Y61418D01*
X149901Y61338D01*
X149820Y61261D01*
X149737Y61188D01*
X149651Y61117D01*
X149562Y61049D01*
X149471Y60984D01*
X149378Y60923D01*
X149283Y60865D01*
X149185Y60810D01*
X149086Y60759D01*
X148985Y60711D01*
X148883Y60667D01*
X148779Y60627D01*
X148673Y60590D01*
X148567Y60557D01*
X148459Y60528D01*
X148350Y60503D01*
X148241Y60481D01*
X148131Y60463D01*
X148020Y60450D01*
X147909Y60440D01*
X147798Y60434D01*
X147686Y60432D01*
X143622Y60432D01*
X143622Y68560D01*
X143624Y68661D01*
X143630Y68762D01*
X143639Y68863D01*
X143652Y68964D01*
X143669Y69064D01*
X143690Y69163D01*
X143714Y69261D01*
X143742Y69358D01*
X143774Y69455D01*
X143809Y69550D01*
X143848Y69643D01*
X143890Y69735D01*
X143936Y69826D01*
X143985Y69915D01*
X144037Y70001D01*
X144093Y70086D01*
X144151Y70169D01*
X144213Y70249D01*
X144278Y70327D01*
X144345Y70403D01*
X144415Y70476D01*
X144488Y70546D01*
X144564Y70613D01*
X144642Y70678D01*
X144722Y70740D01*
X144805Y70798D01*
X144890Y70854D01*
X144977Y70906D01*
X145065Y70955D01*
X145156Y71001D01*
X145248Y71043D01*
X145341Y71082D01*
X145436Y71117D01*
X145533Y71149D01*
X145630Y71177D01*
X145728Y71201D01*
X145827Y71222D01*
X145927Y71239D01*
X146028Y71252D01*
X146129Y71261D01*
X146230Y71267D01*
X146331Y71269D01*
X149943Y71269D01*
X136184Y71269D02*
X136184Y60432D01*
X136184Y71269D02*
X131669Y71269D01*
X131565Y71267D01*
X131462Y71261D01*
X131358Y71251D01*
X131255Y71237D01*
X131153Y71219D01*
X131052Y71198D01*
X130951Y71172D01*
X130852Y71143D01*
X130753Y71110D01*
X130656Y71073D01*
X130561Y71032D01*
X130467Y70988D01*
X130375Y70940D01*
X130285Y70889D01*
X130196Y70834D01*
X130110Y70776D01*
X130027Y70714D01*
X129945Y70650D01*
X129867Y70582D01*
X129791Y70512D01*
X129717Y70439D01*
X129647Y70362D01*
X129579Y70284D01*
X129515Y70202D01*
X129453Y70119D01*
X129395Y70033D01*
X129340Y69944D01*
X129289Y69854D01*
X129241Y69762D01*
X129197Y69668D01*
X129156Y69573D01*
X129119Y69476D01*
X129086Y69377D01*
X129057Y69278D01*
X129031Y69177D01*
X129010Y69076D01*
X128992Y68974D01*
X128978Y68871D01*
X128968Y68767D01*
X128962Y68664D01*
X128960Y68560D01*
X128959Y68560D02*
X128959Y60432D01*
X119480Y60432D02*
X114964Y60432D01*
X119480Y60432D02*
X119581Y60434D01*
X119682Y60440D01*
X119783Y60449D01*
X119884Y60462D01*
X119984Y60479D01*
X120083Y60500D01*
X120181Y60524D01*
X120278Y60552D01*
X120375Y60584D01*
X120470Y60619D01*
X120563Y60658D01*
X120655Y60700D01*
X120746Y60746D01*
X120834Y60795D01*
X120921Y60847D01*
X121006Y60903D01*
X121089Y60961D01*
X121169Y61023D01*
X121247Y61088D01*
X121323Y61155D01*
X121396Y61225D01*
X121466Y61298D01*
X121533Y61374D01*
X121598Y61452D01*
X121660Y61532D01*
X121718Y61615D01*
X121774Y61700D01*
X121826Y61786D01*
X121875Y61875D01*
X121921Y61966D01*
X121963Y62058D01*
X122002Y62151D01*
X122037Y62246D01*
X122069Y62343D01*
X122097Y62440D01*
X122121Y62538D01*
X122142Y62637D01*
X122159Y62737D01*
X122172Y62838D01*
X122181Y62939D01*
X122187Y63040D01*
X122189Y63141D01*
X122189Y68560D01*
X122187Y68661D01*
X122181Y68762D01*
X122172Y68863D01*
X122159Y68964D01*
X122142Y69064D01*
X122121Y69163D01*
X122097Y69261D01*
X122069Y69358D01*
X122037Y69455D01*
X122002Y69550D01*
X121963Y69643D01*
X121921Y69735D01*
X121875Y69826D01*
X121826Y69915D01*
X121774Y70001D01*
X121718Y70086D01*
X121660Y70169D01*
X121598Y70249D01*
X121533Y70327D01*
X121466Y70403D01*
X121396Y70476D01*
X121323Y70546D01*
X121247Y70613D01*
X121169Y70678D01*
X121089Y70740D01*
X121006Y70798D01*
X120921Y70854D01*
X120835Y70906D01*
X120746Y70955D01*
X120655Y71001D01*
X120563Y71043D01*
X120470Y71082D01*
X120375Y71117D01*
X120278Y71149D01*
X120181Y71177D01*
X120083Y71201D01*
X119984Y71222D01*
X119884Y71239D01*
X119783Y71252D01*
X119682Y71261D01*
X119581Y71267D01*
X119480Y71269D01*
X114964Y71269D01*
X114964Y57723D01*
X114965Y57723D02*
X114967Y57622D01*
X114973Y57521D01*
X114982Y57420D01*
X114995Y57319D01*
X115012Y57219D01*
X115033Y57120D01*
X115057Y57022D01*
X115085Y56925D01*
X115117Y56828D01*
X115152Y56733D01*
X115191Y56640D01*
X115233Y56548D01*
X115279Y56457D01*
X115328Y56368D01*
X115380Y56282D01*
X115436Y56197D01*
X115494Y56114D01*
X115556Y56034D01*
X115621Y55956D01*
X115688Y55880D01*
X115758Y55807D01*
X115831Y55737D01*
X115907Y55670D01*
X115985Y55605D01*
X116065Y55543D01*
X116148Y55485D01*
X116233Y55429D01*
X116320Y55377D01*
X116408Y55328D01*
X116499Y55282D01*
X116591Y55240D01*
X116684Y55201D01*
X116779Y55166D01*
X116876Y55134D01*
X116973Y55106D01*
X117071Y55082D01*
X117170Y55061D01*
X117270Y55044D01*
X117371Y55031D01*
X117472Y55022D01*
X117573Y55016D01*
X117674Y55014D01*
X117674Y55013D02*
X121286Y55013D01*
X94675Y60432D02*
X94557Y60434D01*
X94439Y60440D01*
X94321Y60449D01*
X94204Y60463D01*
X94087Y60480D01*
X93970Y60501D01*
X93855Y60526D01*
X93740Y60555D01*
X93626Y60588D01*
X93514Y60624D01*
X93403Y60664D01*
X93293Y60707D01*
X93184Y60754D01*
X93077Y60804D01*
X92972Y60859D01*
X92869Y60916D01*
X92768Y60977D01*
X92668Y61041D01*
X92571Y61108D01*
X92476Y61178D01*
X92384Y61252D01*
X92293Y61328D01*
X92206Y61408D01*
X92121Y61490D01*
X92039Y61575D01*
X91959Y61662D01*
X91883Y61753D01*
X91809Y61845D01*
X91739Y61940D01*
X91672Y62037D01*
X91608Y62137D01*
X91547Y62238D01*
X91490Y62341D01*
X91435Y62446D01*
X91385Y62553D01*
X91338Y62662D01*
X91295Y62772D01*
X91255Y62883D01*
X91219Y62995D01*
X91186Y63109D01*
X91157Y63224D01*
X91132Y63339D01*
X91111Y63456D01*
X91094Y63573D01*
X91080Y63690D01*
X91071Y63808D01*
X91065Y63926D01*
X91063Y64044D01*
X94675Y60432D02*
X94858Y60434D01*
X95040Y60441D01*
X95222Y60452D01*
X95404Y60467D01*
X95586Y60487D01*
X95767Y60511D01*
X95947Y60539D01*
X96127Y60571D01*
X96306Y60608D01*
X96483Y60649D01*
X96660Y60695D01*
X96836Y60744D01*
X97011Y60798D01*
X97184Y60856D01*
X97355Y60918D01*
X97526Y60984D01*
X97694Y61055D01*
X97861Y61129D01*
X98026Y61207D01*
X98189Y61289D01*
X98350Y61375D01*
X98509Y61465D01*
X98666Y61559D01*
X98820Y61656D01*
X98972Y61757D01*
X99122Y61862D01*
X99269Y61970D01*
X99413Y62081D01*
X99555Y62196D01*
X99694Y62315D01*
X99830Y62437D01*
X99963Y62562D01*
X100093Y62690D01*
X99641Y73076D02*
X99639Y73194D01*
X99633Y73312D01*
X99624Y73430D01*
X99610Y73547D01*
X99593Y73664D01*
X99572Y73781D01*
X99547Y73896D01*
X99518Y74011D01*
X99485Y74125D01*
X99449Y74237D01*
X99409Y74348D01*
X99366Y74458D01*
X99319Y74567D01*
X99269Y74674D01*
X99214Y74779D01*
X99157Y74882D01*
X99096Y74983D01*
X99032Y75083D01*
X98965Y75180D01*
X98895Y75275D01*
X98821Y75367D01*
X98745Y75458D01*
X98665Y75545D01*
X98583Y75630D01*
X98498Y75712D01*
X98411Y75792D01*
X98320Y75868D01*
X98228Y75942D01*
X98133Y76012D01*
X98036Y76079D01*
X97936Y76143D01*
X97835Y76204D01*
X97732Y76261D01*
X97627Y76316D01*
X97520Y76366D01*
X97411Y76413D01*
X97301Y76456D01*
X97190Y76496D01*
X97078Y76532D01*
X96964Y76565D01*
X96849Y76594D01*
X96734Y76619D01*
X96617Y76640D01*
X96500Y76657D01*
X96383Y76671D01*
X96265Y76680D01*
X96147Y76686D01*
X96029Y76688D01*
X95868Y76686D01*
X95706Y76680D01*
X95545Y76671D01*
X95384Y76657D01*
X95224Y76640D01*
X95064Y76619D01*
X94904Y76594D01*
X94745Y76565D01*
X94587Y76533D01*
X94430Y76497D01*
X94274Y76457D01*
X94118Y76413D01*
X93964Y76365D01*
X93811Y76314D01*
X93659Y76260D01*
X93508Y76201D01*
X93359Y76140D01*
X93212Y76074D01*
X93066Y76005D01*
X92921Y75933D01*
X92779Y75857D01*
X92638Y75778D01*
X92499Y75696D01*
X92363Y75610D01*
X92228Y75521D01*
X92095Y75429D01*
X91965Y75333D01*
X97836Y69915D02*
X97937Y69977D01*
X98037Y70042D01*
X98134Y70111D01*
X98229Y70183D01*
X98322Y70257D01*
X98412Y70335D01*
X98500Y70416D01*
X98585Y70499D01*
X98667Y70585D01*
X98746Y70674D01*
X98823Y70765D01*
X98896Y70859D01*
X98967Y70955D01*
X99034Y71053D01*
X99098Y71153D01*
X99159Y71256D01*
X99216Y71360D01*
X99270Y71466D01*
X99320Y71574D01*
X99367Y71683D01*
X99411Y71794D01*
X99451Y71906D01*
X99487Y72020D01*
X99519Y72134D01*
X99548Y72250D01*
X99573Y72366D01*
X99594Y72483D01*
X99611Y72601D01*
X99625Y72719D01*
X99634Y72838D01*
X99640Y72957D01*
X99642Y73076D01*
X92868Y67205D02*
X92767Y67143D01*
X92667Y67078D01*
X92570Y67009D01*
X92475Y66937D01*
X92382Y66863D01*
X92292Y66785D01*
X92204Y66704D01*
X92119Y66621D01*
X92037Y66535D01*
X91958Y66446D01*
X91881Y66355D01*
X91808Y66261D01*
X91737Y66165D01*
X91670Y66067D01*
X91606Y65967D01*
X91545Y65864D01*
X91488Y65760D01*
X91434Y65654D01*
X91384Y65546D01*
X91337Y65437D01*
X91293Y65326D01*
X91253Y65214D01*
X91217Y65100D01*
X91185Y64986D01*
X91156Y64870D01*
X91131Y64754D01*
X91110Y64637D01*
X91093Y64519D01*
X91079Y64401D01*
X91070Y64282D01*
X91064Y64163D01*
X91062Y64044D01*
X92868Y67205D02*
X97836Y69915D01*
X84601Y76688D02*
X84601Y60432D01*
X84601Y71269D02*
X80086Y71269D01*
X79982Y71267D01*
X79879Y71261D01*
X79775Y71251D01*
X79672Y71237D01*
X79570Y71219D01*
X79469Y71198D01*
X79368Y71172D01*
X79269Y71143D01*
X79170Y71110D01*
X79073Y71073D01*
X78978Y71032D01*
X78884Y70988D01*
X78792Y70940D01*
X78702Y70889D01*
X78613Y70834D01*
X78527Y70776D01*
X78444Y70714D01*
X78362Y70650D01*
X78284Y70582D01*
X78208Y70512D01*
X78134Y70439D01*
X78064Y70362D01*
X77996Y70284D01*
X77932Y70202D01*
X77870Y70119D01*
X77812Y70033D01*
X77757Y69944D01*
X77706Y69854D01*
X77658Y69762D01*
X77614Y69668D01*
X77573Y69573D01*
X77536Y69476D01*
X77503Y69377D01*
X77474Y69278D01*
X77448Y69177D01*
X77427Y69076D01*
X77409Y68974D01*
X77395Y68871D01*
X77385Y68767D01*
X77379Y68664D01*
X77377Y68560D01*
X77376Y68560D02*
X77376Y60432D01*
X70568Y60432D02*
X70568Y71269D01*
X71019Y75785D02*
X71019Y76688D01*
X70116Y76688D01*
X70116Y75785D01*
X71019Y75785D01*
X207219Y42342D02*
X212638Y50018D01*
X207219Y42342D02*
X201801Y50018D01*
X207219Y42342D02*
X207219Y33762D01*
X193533Y33762D02*
X189018Y33762D01*
X193533Y33762D02*
X193634Y33764D01*
X193735Y33770D01*
X193836Y33779D01*
X193937Y33792D01*
X194037Y33809D01*
X194136Y33830D01*
X194234Y33854D01*
X194331Y33882D01*
X194428Y33914D01*
X194523Y33949D01*
X194616Y33988D01*
X194708Y34030D01*
X194799Y34076D01*
X194888Y34125D01*
X194974Y34177D01*
X195059Y34233D01*
X195142Y34291D01*
X195222Y34353D01*
X195300Y34418D01*
X195376Y34485D01*
X195449Y34555D01*
X195519Y34628D01*
X195586Y34704D01*
X195651Y34782D01*
X195713Y34862D01*
X195771Y34945D01*
X195827Y35030D01*
X195879Y35116D01*
X195928Y35205D01*
X195974Y35296D01*
X196016Y35388D01*
X196055Y35481D01*
X196090Y35576D01*
X196122Y35673D01*
X196150Y35770D01*
X196174Y35868D01*
X196195Y35967D01*
X196212Y36067D01*
X196225Y36168D01*
X196234Y36269D01*
X196240Y36370D01*
X196242Y36471D01*
X196243Y36471D02*
X196243Y40987D01*
X196242Y40987D02*
X196240Y41106D01*
X196234Y41226D01*
X196224Y41345D01*
X196210Y41463D01*
X196193Y41582D01*
X196171Y41699D01*
X196146Y41816D01*
X196116Y41931D01*
X196083Y42046D01*
X196046Y42160D01*
X196006Y42272D01*
X195961Y42383D01*
X195913Y42492D01*
X195862Y42600D01*
X195807Y42706D01*
X195748Y42810D01*
X195686Y42912D01*
X195621Y43012D01*
X195552Y43110D01*
X195480Y43206D01*
X195405Y43299D01*
X195328Y43389D01*
X195247Y43477D01*
X195163Y43562D01*
X195076Y43644D01*
X194987Y43724D01*
X194895Y43800D01*
X194801Y43874D01*
X194704Y43944D01*
X194606Y44011D01*
X194505Y44075D01*
X194401Y44135D01*
X194296Y44192D01*
X194189Y44245D01*
X194081Y44295D01*
X193971Y44341D01*
X193859Y44383D01*
X193746Y44422D01*
X193632Y44457D01*
X193517Y44488D01*
X193400Y44516D01*
X193283Y44539D01*
X193166Y44559D01*
X193047Y44575D01*
X192928Y44587D01*
X192809Y44595D01*
X192690Y44599D01*
X192570Y44599D01*
X192451Y44595D01*
X192332Y44587D01*
X192213Y44575D01*
X192094Y44559D01*
X191977Y44539D01*
X191860Y44516D01*
X191743Y44488D01*
X191628Y44457D01*
X191514Y44422D01*
X191401Y44383D01*
X191289Y44341D01*
X191179Y44295D01*
X191071Y44245D01*
X190964Y44192D01*
X190859Y44135D01*
X190755Y44075D01*
X190654Y44011D01*
X190556Y43944D01*
X190459Y43874D01*
X190365Y43800D01*
X190273Y43724D01*
X190184Y43644D01*
X190097Y43562D01*
X190013Y43477D01*
X189932Y43389D01*
X189855Y43299D01*
X189780Y43206D01*
X189708Y43110D01*
X189639Y43012D01*
X189574Y42912D01*
X189512Y42810D01*
X189453Y42706D01*
X189398Y42600D01*
X189347Y42492D01*
X189299Y42383D01*
X189254Y42272D01*
X189214Y42160D01*
X189177Y42046D01*
X189144Y41931D01*
X189114Y41816D01*
X189089Y41699D01*
X189067Y41582D01*
X189050Y41463D01*
X189036Y41345D01*
X189026Y41226D01*
X189020Y41106D01*
X189018Y40987D01*
X189018Y39181D01*
X196243Y39181D01*
X179969Y33762D02*
X176356Y33762D01*
X179969Y33762D02*
X180070Y33764D01*
X180171Y33770D01*
X180272Y33779D01*
X180373Y33792D01*
X180473Y33809D01*
X180572Y33830D01*
X180670Y33854D01*
X180767Y33882D01*
X180864Y33914D01*
X180959Y33949D01*
X181052Y33988D01*
X181144Y34030D01*
X181235Y34076D01*
X181324Y34125D01*
X181410Y34177D01*
X181495Y34233D01*
X181578Y34291D01*
X181658Y34353D01*
X181736Y34418D01*
X181812Y34485D01*
X181885Y34555D01*
X181955Y34628D01*
X182022Y34704D01*
X182087Y34782D01*
X182149Y34862D01*
X182207Y34945D01*
X182263Y35030D01*
X182315Y35116D01*
X182364Y35205D01*
X182410Y35296D01*
X182452Y35388D01*
X182491Y35481D01*
X182526Y35576D01*
X182558Y35673D01*
X182586Y35770D01*
X182610Y35868D01*
X182631Y35967D01*
X182648Y36067D01*
X182661Y36168D01*
X182670Y36269D01*
X182676Y36370D01*
X182678Y36471D01*
X182678Y41890D01*
X182676Y41991D01*
X182670Y42092D01*
X182661Y42193D01*
X182648Y42294D01*
X182631Y42394D01*
X182610Y42493D01*
X182586Y42591D01*
X182558Y42688D01*
X182526Y42785D01*
X182491Y42880D01*
X182452Y42973D01*
X182410Y43065D01*
X182364Y43156D01*
X182315Y43245D01*
X182263Y43331D01*
X182207Y43416D01*
X182149Y43499D01*
X182087Y43579D01*
X182022Y43657D01*
X181955Y43733D01*
X181885Y43806D01*
X181812Y43876D01*
X181736Y43943D01*
X181658Y44008D01*
X181578Y44070D01*
X181495Y44128D01*
X181410Y44184D01*
X181324Y44236D01*
X181235Y44285D01*
X181144Y44331D01*
X181052Y44373D01*
X180959Y44412D01*
X180864Y44447D01*
X180767Y44479D01*
X180670Y44507D01*
X180572Y44531D01*
X180473Y44552D01*
X180373Y44569D01*
X180272Y44582D01*
X180171Y44591D01*
X180070Y44597D01*
X179969Y44599D01*
X176356Y44599D01*
X170191Y50018D02*
X170191Y33762D01*
X170191Y44599D02*
X165675Y44599D01*
X165571Y44597D01*
X165468Y44591D01*
X165364Y44581D01*
X165261Y44567D01*
X165159Y44549D01*
X165058Y44528D01*
X164957Y44502D01*
X164858Y44473D01*
X164759Y44440D01*
X164662Y44403D01*
X164567Y44362D01*
X164473Y44318D01*
X164381Y44270D01*
X164291Y44219D01*
X164202Y44164D01*
X164116Y44106D01*
X164033Y44044D01*
X163951Y43980D01*
X163873Y43912D01*
X163797Y43842D01*
X163723Y43769D01*
X163653Y43692D01*
X163585Y43614D01*
X163521Y43532D01*
X163459Y43449D01*
X163401Y43363D01*
X163346Y43274D01*
X163295Y43184D01*
X163247Y43092D01*
X163203Y42998D01*
X163162Y42903D01*
X163125Y42806D01*
X163092Y42707D01*
X163063Y42608D01*
X163037Y42507D01*
X163016Y42406D01*
X162998Y42304D01*
X162984Y42201D01*
X162974Y42097D01*
X162968Y41994D01*
X162966Y41890D01*
X162966Y33762D01*
X153413Y33762D02*
X148898Y33762D01*
X153413Y33762D02*
X153514Y33764D01*
X153615Y33770D01*
X153716Y33779D01*
X153817Y33792D01*
X153917Y33809D01*
X154016Y33830D01*
X154114Y33854D01*
X154211Y33882D01*
X154308Y33914D01*
X154403Y33949D01*
X154496Y33988D01*
X154588Y34030D01*
X154679Y34076D01*
X154768Y34125D01*
X154854Y34177D01*
X154939Y34233D01*
X155022Y34291D01*
X155102Y34353D01*
X155180Y34418D01*
X155256Y34485D01*
X155329Y34555D01*
X155399Y34628D01*
X155466Y34704D01*
X155531Y34782D01*
X155593Y34862D01*
X155651Y34945D01*
X155707Y35030D01*
X155759Y35116D01*
X155808Y35205D01*
X155854Y35296D01*
X155896Y35388D01*
X155935Y35481D01*
X155970Y35576D01*
X156002Y35673D01*
X156030Y35770D01*
X156054Y35868D01*
X156075Y35967D01*
X156092Y36067D01*
X156105Y36168D01*
X156114Y36269D01*
X156120Y36370D01*
X156122Y36471D01*
X156122Y40987D01*
X156120Y41106D01*
X156114Y41226D01*
X156104Y41345D01*
X156090Y41463D01*
X156073Y41582D01*
X156051Y41699D01*
X156026Y41816D01*
X155996Y41931D01*
X155963Y42046D01*
X155926Y42160D01*
X155886Y42272D01*
X155841Y42383D01*
X155793Y42492D01*
X155742Y42600D01*
X155687Y42706D01*
X155628Y42810D01*
X155566Y42912D01*
X155501Y43012D01*
X155432Y43110D01*
X155360Y43206D01*
X155285Y43299D01*
X155208Y43389D01*
X155127Y43477D01*
X155043Y43562D01*
X154956Y43644D01*
X154867Y43724D01*
X154775Y43800D01*
X154681Y43874D01*
X154584Y43944D01*
X154486Y44011D01*
X154385Y44075D01*
X154281Y44135D01*
X154176Y44192D01*
X154069Y44245D01*
X153961Y44295D01*
X153851Y44341D01*
X153739Y44383D01*
X153626Y44422D01*
X153512Y44457D01*
X153397Y44488D01*
X153280Y44516D01*
X153163Y44539D01*
X153046Y44559D01*
X152927Y44575D01*
X152808Y44587D01*
X152689Y44595D01*
X152570Y44599D01*
X152450Y44599D01*
X152331Y44595D01*
X152212Y44587D01*
X152093Y44575D01*
X151974Y44559D01*
X151857Y44539D01*
X151740Y44516D01*
X151623Y44488D01*
X151508Y44457D01*
X151394Y44422D01*
X151281Y44383D01*
X151169Y44341D01*
X151059Y44295D01*
X150951Y44245D01*
X150844Y44192D01*
X150739Y44135D01*
X150635Y44075D01*
X150534Y44011D01*
X150436Y43944D01*
X150339Y43874D01*
X150245Y43800D01*
X150153Y43724D01*
X150064Y43644D01*
X149977Y43562D01*
X149893Y43477D01*
X149812Y43389D01*
X149735Y43299D01*
X149660Y43206D01*
X149588Y43110D01*
X149519Y43012D01*
X149454Y42912D01*
X149392Y42810D01*
X149333Y42706D01*
X149278Y42600D01*
X149227Y42492D01*
X149179Y42383D01*
X149134Y42272D01*
X149094Y42160D01*
X149057Y42046D01*
X149024Y41931D01*
X148994Y41816D01*
X148969Y41699D01*
X148947Y41582D01*
X148930Y41463D01*
X148916Y41345D01*
X148906Y41226D01*
X148900Y41106D01*
X148898Y40987D01*
X148898Y39181D01*
X156122Y39181D01*
X142054Y33762D02*
X142054Y44599D01*
X137539Y44599D01*
X137435Y44597D01*
X137332Y44591D01*
X137228Y44581D01*
X137125Y44567D01*
X137023Y44549D01*
X136922Y44528D01*
X136821Y44502D01*
X136722Y44473D01*
X136623Y44440D01*
X136526Y44403D01*
X136431Y44362D01*
X136337Y44318D01*
X136245Y44270D01*
X136155Y44219D01*
X136066Y44164D01*
X135980Y44106D01*
X135897Y44044D01*
X135815Y43980D01*
X135737Y43912D01*
X135661Y43842D01*
X135587Y43769D01*
X135517Y43692D01*
X135449Y43614D01*
X135385Y43532D01*
X135323Y43449D01*
X135265Y43363D01*
X135210Y43274D01*
X135159Y43184D01*
X135111Y43092D01*
X135067Y42998D01*
X135026Y42903D01*
X134989Y42806D01*
X134956Y42707D01*
X134927Y42608D01*
X134901Y42507D01*
X134880Y42406D01*
X134862Y42304D01*
X134848Y42201D01*
X134838Y42097D01*
X134832Y41994D01*
X134830Y41890D01*
X134830Y33762D01*
X114613Y33762D02*
X114495Y33764D01*
X114377Y33770D01*
X114259Y33779D01*
X114142Y33793D01*
X114025Y33810D01*
X113908Y33831D01*
X113793Y33856D01*
X113678Y33885D01*
X113564Y33918D01*
X113452Y33954D01*
X113341Y33994D01*
X113231Y34037D01*
X113122Y34084D01*
X113015Y34134D01*
X112910Y34189D01*
X112807Y34246D01*
X112706Y34307D01*
X112606Y34371D01*
X112509Y34438D01*
X112414Y34508D01*
X112322Y34582D01*
X112231Y34658D01*
X112144Y34738D01*
X112059Y34820D01*
X111977Y34905D01*
X111897Y34992D01*
X111821Y35083D01*
X111747Y35175D01*
X111677Y35270D01*
X111610Y35367D01*
X111546Y35467D01*
X111485Y35568D01*
X111428Y35671D01*
X111373Y35776D01*
X111323Y35883D01*
X111276Y35992D01*
X111233Y36102D01*
X111193Y36213D01*
X111157Y36325D01*
X111124Y36439D01*
X111095Y36554D01*
X111070Y36669D01*
X111049Y36786D01*
X111032Y36903D01*
X111018Y37020D01*
X111009Y37138D01*
X111003Y37256D01*
X111001Y37374D01*
X114613Y33762D02*
X114796Y33764D01*
X114978Y33771D01*
X115160Y33782D01*
X115342Y33797D01*
X115524Y33817D01*
X115705Y33841D01*
X115885Y33869D01*
X116065Y33901D01*
X116244Y33938D01*
X116421Y33979D01*
X116598Y34025D01*
X116774Y34074D01*
X116949Y34128D01*
X117122Y34186D01*
X117293Y34248D01*
X117464Y34314D01*
X117632Y34385D01*
X117799Y34459D01*
X117964Y34537D01*
X118127Y34619D01*
X118288Y34705D01*
X118447Y34795D01*
X118604Y34889D01*
X118758Y34986D01*
X118910Y35087D01*
X119060Y35192D01*
X119207Y35300D01*
X119351Y35411D01*
X119493Y35526D01*
X119632Y35645D01*
X119768Y35767D01*
X119901Y35892D01*
X120031Y36020D01*
X119580Y46406D02*
X119578Y46524D01*
X119572Y46642D01*
X119563Y46760D01*
X119549Y46877D01*
X119532Y46994D01*
X119511Y47111D01*
X119486Y47226D01*
X119457Y47341D01*
X119424Y47455D01*
X119388Y47567D01*
X119348Y47678D01*
X119305Y47788D01*
X119258Y47897D01*
X119208Y48004D01*
X119153Y48109D01*
X119096Y48212D01*
X119035Y48313D01*
X118971Y48413D01*
X118904Y48510D01*
X118834Y48605D01*
X118760Y48697D01*
X118684Y48788D01*
X118604Y48875D01*
X118522Y48960D01*
X118437Y49042D01*
X118350Y49122D01*
X118259Y49198D01*
X118167Y49272D01*
X118072Y49342D01*
X117975Y49409D01*
X117875Y49473D01*
X117774Y49534D01*
X117671Y49591D01*
X117566Y49646D01*
X117459Y49696D01*
X117350Y49743D01*
X117240Y49786D01*
X117129Y49826D01*
X117017Y49862D01*
X116903Y49895D01*
X116788Y49924D01*
X116673Y49949D01*
X116556Y49970D01*
X116439Y49987D01*
X116322Y50001D01*
X116204Y50010D01*
X116086Y50016D01*
X115968Y50018D01*
X115807Y50016D01*
X115645Y50010D01*
X115484Y50001D01*
X115323Y49987D01*
X115163Y49970D01*
X115003Y49949D01*
X114843Y49924D01*
X114684Y49895D01*
X114526Y49863D01*
X114369Y49827D01*
X114213Y49787D01*
X114057Y49743D01*
X113903Y49695D01*
X113750Y49644D01*
X113598Y49590D01*
X113447Y49531D01*
X113298Y49470D01*
X113151Y49404D01*
X113005Y49335D01*
X112860Y49263D01*
X112718Y49187D01*
X112577Y49108D01*
X112438Y49026D01*
X112302Y48940D01*
X112167Y48851D01*
X112034Y48759D01*
X111904Y48663D01*
X117774Y43245D02*
X117875Y43307D01*
X117975Y43372D01*
X118072Y43441D01*
X118167Y43513D01*
X118260Y43587D01*
X118350Y43665D01*
X118438Y43746D01*
X118523Y43829D01*
X118605Y43915D01*
X118684Y44004D01*
X118761Y44095D01*
X118834Y44189D01*
X118905Y44285D01*
X118972Y44383D01*
X119036Y44483D01*
X119097Y44586D01*
X119154Y44690D01*
X119208Y44796D01*
X119258Y44904D01*
X119305Y45013D01*
X119349Y45124D01*
X119389Y45236D01*
X119425Y45350D01*
X119457Y45464D01*
X119486Y45580D01*
X119511Y45696D01*
X119532Y45813D01*
X119549Y45931D01*
X119563Y46049D01*
X119572Y46168D01*
X119578Y46287D01*
X119580Y46406D01*
X112806Y40535D02*
X112705Y40473D01*
X112605Y40408D01*
X112508Y40339D01*
X112413Y40267D01*
X112320Y40193D01*
X112230Y40115D01*
X112142Y40034D01*
X112057Y39951D01*
X111975Y39865D01*
X111896Y39776D01*
X111819Y39685D01*
X111746Y39591D01*
X111675Y39495D01*
X111608Y39397D01*
X111544Y39297D01*
X111483Y39194D01*
X111426Y39090D01*
X111372Y38984D01*
X111322Y38876D01*
X111275Y38767D01*
X111231Y38656D01*
X111191Y38544D01*
X111155Y38430D01*
X111123Y38316D01*
X111094Y38200D01*
X111069Y38084D01*
X111048Y37967D01*
X111031Y37849D01*
X111017Y37731D01*
X111008Y37612D01*
X111002Y37493D01*
X111000Y37374D01*
X112807Y40535D02*
X117774Y43245D01*
X104539Y50018D02*
X104539Y33762D01*
X104539Y44599D02*
X100024Y44599D01*
X99920Y44597D01*
X99817Y44591D01*
X99713Y44581D01*
X99610Y44567D01*
X99508Y44549D01*
X99407Y44528D01*
X99306Y44502D01*
X99207Y44473D01*
X99108Y44440D01*
X99011Y44403D01*
X98916Y44362D01*
X98822Y44318D01*
X98730Y44270D01*
X98640Y44219D01*
X98551Y44164D01*
X98465Y44106D01*
X98382Y44044D01*
X98300Y43980D01*
X98222Y43912D01*
X98146Y43842D01*
X98072Y43769D01*
X98002Y43692D01*
X97934Y43614D01*
X97870Y43532D01*
X97808Y43449D01*
X97750Y43363D01*
X97695Y43274D01*
X97644Y43184D01*
X97596Y43092D01*
X97552Y42998D01*
X97511Y42903D01*
X97474Y42806D01*
X97441Y42707D01*
X97412Y42608D01*
X97386Y42507D01*
X97365Y42406D01*
X97347Y42304D01*
X97333Y42201D01*
X97323Y42097D01*
X97317Y41994D01*
X97315Y41890D01*
X97315Y33762D01*
X90506Y33762D02*
X90506Y44599D01*
X90958Y49115D02*
X90958Y50018D01*
X90055Y50018D01*
X90055Y49115D01*
X90958Y49115D01*
D11*
X102508Y414109D02*
X102508Y416706D01*
X102508Y414109D02*
X102510Y414010D01*
X102516Y413910D01*
X102525Y413811D01*
X102538Y413713D01*
X102555Y413615D01*
X102576Y413517D01*
X102601Y413421D01*
X102629Y413326D01*
X102661Y413232D01*
X102696Y413139D01*
X102735Y413047D01*
X102778Y412957D01*
X102823Y412869D01*
X102873Y412782D01*
X102925Y412698D01*
X102981Y412615D01*
X103039Y412535D01*
X103101Y412457D01*
X103166Y412382D01*
X103234Y412309D01*
X103304Y412239D01*
X103377Y412171D01*
X103452Y412106D01*
X103530Y412044D01*
X103610Y411986D01*
X103693Y411930D01*
X103777Y411878D01*
X103864Y411828D01*
X103952Y411783D01*
X104042Y411740D01*
X104134Y411701D01*
X104227Y411666D01*
X104321Y411634D01*
X104416Y411606D01*
X104512Y411581D01*
X104610Y411560D01*
X104708Y411543D01*
X104806Y411530D01*
X104905Y411521D01*
X105005Y411515D01*
X105104Y411513D01*
X111596Y411513D01*
X111695Y411515D01*
X111795Y411521D01*
X111894Y411530D01*
X111992Y411543D01*
X112090Y411560D01*
X112188Y411581D01*
X112284Y411606D01*
X112379Y411634D01*
X112473Y411666D01*
X112566Y411701D01*
X112658Y411740D01*
X112748Y411783D01*
X112836Y411828D01*
X112923Y411878D01*
X113007Y411930D01*
X113090Y411986D01*
X113170Y412044D01*
X113248Y412106D01*
X113323Y412171D01*
X113396Y412239D01*
X113466Y412309D01*
X113534Y412382D01*
X113599Y412457D01*
X113661Y412535D01*
X113719Y412615D01*
X113775Y412698D01*
X113827Y412782D01*
X113877Y412869D01*
X113922Y412957D01*
X113965Y413047D01*
X114004Y413139D01*
X114039Y413231D01*
X114071Y413326D01*
X114099Y413421D01*
X114124Y413517D01*
X114145Y413615D01*
X114162Y413713D01*
X114175Y413811D01*
X114184Y413910D01*
X114190Y414010D01*
X114192Y414109D01*
X114192Y416706D01*
X114192Y424641D02*
X114190Y424748D01*
X114184Y424854D01*
X114174Y424960D01*
X114161Y425066D01*
X114143Y425172D01*
X114122Y425276D01*
X114097Y425380D01*
X114068Y425483D01*
X114036Y425584D01*
X113999Y425684D01*
X113959Y425783D01*
X113916Y425881D01*
X113869Y425977D01*
X113818Y426071D01*
X113764Y426163D01*
X113707Y426253D01*
X113647Y426341D01*
X113583Y426426D01*
X113516Y426509D01*
X113446Y426590D01*
X113374Y426668D01*
X113298Y426744D01*
X113220Y426816D01*
X113139Y426886D01*
X113056Y426953D01*
X112971Y427017D01*
X112883Y427077D01*
X112793Y427134D01*
X112701Y427188D01*
X112607Y427239D01*
X112511Y427286D01*
X112413Y427329D01*
X112314Y427369D01*
X112214Y427406D01*
X112113Y427438D01*
X112010Y427467D01*
X111906Y427492D01*
X111802Y427513D01*
X111696Y427531D01*
X111590Y427544D01*
X111484Y427554D01*
X111378Y427560D01*
X111271Y427562D01*
X114192Y424641D02*
X114190Y424520D01*
X114184Y424399D01*
X114174Y424279D01*
X114161Y424158D01*
X114143Y424039D01*
X114122Y423919D01*
X114097Y423801D01*
X114068Y423684D01*
X114035Y423567D01*
X113999Y423452D01*
X113958Y423338D01*
X113915Y423225D01*
X113867Y423113D01*
X113816Y423004D01*
X113761Y422896D01*
X113703Y422789D01*
X113642Y422685D01*
X113577Y422583D01*
X113509Y422483D01*
X113438Y422385D01*
X113364Y422289D01*
X113287Y422196D01*
X113206Y422106D01*
X113123Y422018D01*
X113037Y421933D01*
X112948Y421850D01*
X112857Y421771D01*
X112763Y421694D01*
X112667Y421621D01*
X112569Y421551D01*
X112468Y421484D01*
X112365Y421420D01*
X112260Y421360D01*
X112153Y421303D01*
X112045Y421249D01*
X111935Y421199D01*
X111823Y421153D01*
X111710Y421110D01*
X111595Y421071D01*
X108999Y426589D02*
X109076Y426668D01*
X109157Y426744D01*
X109240Y426817D01*
X109325Y426887D01*
X109413Y426954D01*
X109503Y427018D01*
X109595Y427078D01*
X109690Y427135D01*
X109786Y427189D01*
X109884Y427240D01*
X109984Y427287D01*
X110086Y427331D01*
X110189Y427371D01*
X110293Y427407D01*
X110399Y427439D01*
X110505Y427468D01*
X110613Y427493D01*
X110721Y427515D01*
X110831Y427532D01*
X110940Y427546D01*
X111050Y427555D01*
X111161Y427561D01*
X111271Y427563D01*
X108999Y426588D02*
X102508Y421071D01*
X102508Y427562D01*
X112894Y432501D02*
X114192Y432501D01*
X114192Y438992D01*
X102508Y435746D01*
X80291Y406808D02*
X77694Y406808D01*
X80291Y406808D02*
X80390Y406810D01*
X80490Y406816D01*
X80589Y406825D01*
X80687Y406838D01*
X80785Y406855D01*
X80883Y406876D01*
X80979Y406901D01*
X81074Y406929D01*
X81168Y406961D01*
X81261Y406996D01*
X81353Y407035D01*
X81443Y407078D01*
X81531Y407123D01*
X81618Y407173D01*
X81702Y407225D01*
X81785Y407281D01*
X81865Y407339D01*
X81943Y407401D01*
X82018Y407466D01*
X82091Y407534D01*
X82161Y407604D01*
X82229Y407677D01*
X82294Y407752D01*
X82356Y407830D01*
X82414Y407910D01*
X82470Y407993D01*
X82522Y408077D01*
X82572Y408164D01*
X82617Y408252D01*
X82660Y408342D01*
X82699Y408434D01*
X82734Y408527D01*
X82766Y408621D01*
X82794Y408716D01*
X82819Y408812D01*
X82840Y408910D01*
X82857Y409008D01*
X82870Y409106D01*
X82879Y409205D01*
X82885Y409305D01*
X82887Y409404D01*
X82887Y415896D01*
X82885Y415995D01*
X82879Y416095D01*
X82870Y416194D01*
X82857Y416292D01*
X82840Y416390D01*
X82819Y416488D01*
X82794Y416584D01*
X82766Y416679D01*
X82734Y416773D01*
X82699Y416866D01*
X82660Y416958D01*
X82617Y417048D01*
X82572Y417136D01*
X82522Y417223D01*
X82470Y417307D01*
X82414Y417390D01*
X82356Y417470D01*
X82294Y417548D01*
X82229Y417623D01*
X82161Y417696D01*
X82091Y417766D01*
X82018Y417834D01*
X81943Y417899D01*
X81865Y417961D01*
X81785Y418019D01*
X81702Y418075D01*
X81618Y418127D01*
X81531Y418177D01*
X81443Y418222D01*
X81353Y418265D01*
X81261Y418304D01*
X81168Y418339D01*
X81074Y418371D01*
X80979Y418399D01*
X80883Y418424D01*
X80785Y418445D01*
X80687Y418462D01*
X80589Y418475D01*
X80490Y418484D01*
X80390Y418490D01*
X80291Y418492D01*
X77694Y418492D01*
X69759Y418492D02*
X69652Y418490D01*
X69546Y418484D01*
X69440Y418474D01*
X69334Y418461D01*
X69228Y418443D01*
X69124Y418422D01*
X69020Y418397D01*
X68917Y418368D01*
X68816Y418336D01*
X68716Y418299D01*
X68617Y418259D01*
X68519Y418216D01*
X68423Y418169D01*
X68329Y418118D01*
X68237Y418064D01*
X68147Y418007D01*
X68059Y417947D01*
X67974Y417883D01*
X67891Y417816D01*
X67810Y417746D01*
X67732Y417674D01*
X67656Y417598D01*
X67584Y417520D01*
X67514Y417439D01*
X67447Y417356D01*
X67383Y417271D01*
X67323Y417183D01*
X67266Y417093D01*
X67212Y417001D01*
X67161Y416907D01*
X67114Y416811D01*
X67071Y416713D01*
X67031Y416614D01*
X66994Y416514D01*
X66962Y416413D01*
X66933Y416310D01*
X66908Y416206D01*
X66887Y416102D01*
X66869Y415996D01*
X66856Y415890D01*
X66846Y415784D01*
X66840Y415678D01*
X66838Y415571D01*
X69759Y418492D02*
X69880Y418490D01*
X70001Y418484D01*
X70121Y418474D01*
X70242Y418461D01*
X70361Y418443D01*
X70481Y418422D01*
X70599Y418397D01*
X70716Y418368D01*
X70833Y418335D01*
X70948Y418299D01*
X71062Y418258D01*
X71175Y418215D01*
X71287Y418167D01*
X71396Y418116D01*
X71504Y418061D01*
X71611Y418003D01*
X71715Y417942D01*
X71817Y417877D01*
X71917Y417809D01*
X72015Y417738D01*
X72111Y417664D01*
X72204Y417587D01*
X72294Y417506D01*
X72382Y417423D01*
X72467Y417337D01*
X72550Y417248D01*
X72629Y417157D01*
X72706Y417063D01*
X72779Y416967D01*
X72849Y416869D01*
X72916Y416768D01*
X72980Y416665D01*
X73041Y416560D01*
X73098Y416453D01*
X73151Y416345D01*
X73201Y416235D01*
X73247Y416123D01*
X73290Y416010D01*
X73329Y415895D01*
X67812Y413299D02*
X67733Y413377D01*
X67657Y413457D01*
X67584Y413540D01*
X67514Y413626D01*
X67447Y413713D01*
X67383Y413804D01*
X67323Y413896D01*
X67265Y413990D01*
X67211Y414087D01*
X67161Y414185D01*
X67114Y414285D01*
X67070Y414386D01*
X67030Y414489D01*
X66994Y414594D01*
X66962Y414699D01*
X66933Y414806D01*
X66908Y414913D01*
X66886Y415022D01*
X66869Y415131D01*
X66855Y415240D01*
X66846Y415350D01*
X66840Y415461D01*
X66838Y415571D01*
X67812Y413299D02*
X73329Y406808D01*
X66838Y406808D01*
X59303Y412001D02*
X55408Y412001D01*
X59303Y412001D02*
X59402Y412003D01*
X59502Y412009D01*
X59601Y412018D01*
X59699Y412031D01*
X59797Y412048D01*
X59895Y412069D01*
X59991Y412094D01*
X60086Y412122D01*
X60180Y412154D01*
X60273Y412189D01*
X60365Y412228D01*
X60455Y412271D01*
X60543Y412316D01*
X60630Y412366D01*
X60714Y412418D01*
X60797Y412474D01*
X60877Y412532D01*
X60955Y412594D01*
X61030Y412659D01*
X61103Y412727D01*
X61173Y412797D01*
X61241Y412870D01*
X61306Y412945D01*
X61368Y413023D01*
X61426Y413103D01*
X61482Y413186D01*
X61534Y413270D01*
X61584Y413357D01*
X61629Y413445D01*
X61672Y413535D01*
X61711Y413627D01*
X61746Y413720D01*
X61778Y413814D01*
X61806Y413909D01*
X61831Y414005D01*
X61852Y414103D01*
X61869Y414201D01*
X61882Y414299D01*
X61891Y414398D01*
X61897Y414498D01*
X61899Y414597D01*
X61899Y415246D01*
X61900Y415246D02*
X61898Y415359D01*
X61892Y415472D01*
X61882Y415585D01*
X61868Y415698D01*
X61851Y415810D01*
X61829Y415921D01*
X61804Y416031D01*
X61774Y416141D01*
X61741Y416249D01*
X61704Y416356D01*
X61664Y416462D01*
X61619Y416566D01*
X61571Y416669D01*
X61520Y416770D01*
X61465Y416869D01*
X61407Y416966D01*
X61345Y417061D01*
X61280Y417154D01*
X61212Y417244D01*
X61141Y417332D01*
X61066Y417418D01*
X60989Y417501D01*
X60909Y417581D01*
X60826Y417658D01*
X60740Y417733D01*
X60652Y417804D01*
X60562Y417872D01*
X60469Y417937D01*
X60374Y417999D01*
X60277Y418057D01*
X60178Y418112D01*
X60077Y418163D01*
X59974Y418211D01*
X59870Y418256D01*
X59764Y418296D01*
X59657Y418333D01*
X59549Y418366D01*
X59439Y418396D01*
X59329Y418421D01*
X59218Y418443D01*
X59106Y418460D01*
X58993Y418474D01*
X58880Y418484D01*
X58767Y418490D01*
X58654Y418492D01*
X58541Y418490D01*
X58428Y418484D01*
X58315Y418474D01*
X58202Y418460D01*
X58090Y418443D01*
X57979Y418421D01*
X57869Y418396D01*
X57759Y418366D01*
X57651Y418333D01*
X57544Y418296D01*
X57438Y418256D01*
X57334Y418211D01*
X57231Y418163D01*
X57130Y418112D01*
X57031Y418057D01*
X56934Y417999D01*
X56839Y417937D01*
X56746Y417872D01*
X56656Y417804D01*
X56568Y417733D01*
X56482Y417658D01*
X56399Y417581D01*
X56319Y417501D01*
X56242Y417418D01*
X56167Y417332D01*
X56096Y417244D01*
X56028Y417154D01*
X55963Y417061D01*
X55901Y416966D01*
X55843Y416869D01*
X55788Y416770D01*
X55737Y416669D01*
X55689Y416566D01*
X55644Y416462D01*
X55604Y416356D01*
X55567Y416249D01*
X55534Y416141D01*
X55504Y416031D01*
X55479Y415921D01*
X55457Y415810D01*
X55440Y415698D01*
X55426Y415585D01*
X55416Y415472D01*
X55410Y415359D01*
X55408Y415246D01*
X55408Y412001D01*
X55410Y411858D01*
X55416Y411715D01*
X55426Y411572D01*
X55440Y411430D01*
X55457Y411288D01*
X55479Y411146D01*
X55504Y411005D01*
X55534Y410865D01*
X55567Y410726D01*
X55604Y410588D01*
X55645Y410451D01*
X55689Y410315D01*
X55738Y410180D01*
X55790Y410047D01*
X55845Y409915D01*
X55905Y409785D01*
X55968Y409656D01*
X56034Y409529D01*
X56104Y409405D01*
X56177Y409282D01*
X56254Y409161D01*
X56334Y409042D01*
X56417Y408926D01*
X56503Y408811D01*
X56592Y408700D01*
X56685Y408590D01*
X56780Y408484D01*
X56879Y408380D01*
X56980Y408279D01*
X57084Y408180D01*
X57190Y408085D01*
X57300Y407992D01*
X57411Y407903D01*
X57526Y407817D01*
X57642Y407734D01*
X57761Y407654D01*
X57882Y407577D01*
X58004Y407504D01*
X58129Y407434D01*
X58256Y407368D01*
X58385Y407305D01*
X58515Y407245D01*
X58647Y407190D01*
X58780Y407138D01*
X58915Y407089D01*
X59051Y407045D01*
X59188Y407004D01*
X59326Y406967D01*
X59465Y406934D01*
X59605Y406904D01*
X59746Y406879D01*
X59888Y406857D01*
X60030Y406840D01*
X60172Y406826D01*
X60315Y406816D01*
X60458Y406810D01*
X60601Y406808D01*
X78094Y442408D02*
X80691Y442408D01*
X80790Y442410D01*
X80890Y442416D01*
X80989Y442425D01*
X81087Y442438D01*
X81185Y442455D01*
X81283Y442476D01*
X81379Y442501D01*
X81474Y442529D01*
X81568Y442561D01*
X81661Y442596D01*
X81753Y442635D01*
X81843Y442678D01*
X81931Y442723D01*
X82018Y442773D01*
X82102Y442825D01*
X82185Y442881D01*
X82265Y442939D01*
X82343Y443001D01*
X82418Y443066D01*
X82491Y443134D01*
X82561Y443204D01*
X82629Y443277D01*
X82694Y443352D01*
X82756Y443430D01*
X82814Y443510D01*
X82870Y443593D01*
X82922Y443677D01*
X82972Y443764D01*
X83017Y443852D01*
X83060Y443942D01*
X83099Y444034D01*
X83134Y444127D01*
X83166Y444221D01*
X83194Y444316D01*
X83219Y444412D01*
X83240Y444510D01*
X83257Y444608D01*
X83270Y444706D01*
X83279Y444805D01*
X83285Y444905D01*
X83287Y445004D01*
X83287Y451496D01*
X83285Y451595D01*
X83279Y451695D01*
X83270Y451794D01*
X83257Y451892D01*
X83240Y451990D01*
X83219Y452088D01*
X83194Y452184D01*
X83166Y452279D01*
X83134Y452373D01*
X83099Y452466D01*
X83060Y452558D01*
X83017Y452648D01*
X82972Y452736D01*
X82922Y452823D01*
X82870Y452907D01*
X82814Y452990D01*
X82756Y453070D01*
X82694Y453148D01*
X82629Y453223D01*
X82561Y453296D01*
X82491Y453366D01*
X82418Y453434D01*
X82343Y453499D01*
X82265Y453561D01*
X82185Y453619D01*
X82102Y453675D01*
X82018Y453727D01*
X81931Y453777D01*
X81843Y453822D01*
X81753Y453865D01*
X81661Y453904D01*
X81568Y453939D01*
X81474Y453971D01*
X81379Y453999D01*
X81283Y454024D01*
X81185Y454045D01*
X81087Y454062D01*
X80989Y454075D01*
X80890Y454084D01*
X80790Y454090D01*
X80691Y454092D01*
X78094Y454092D01*
X73729Y442408D02*
X70484Y442408D01*
X70371Y442410D01*
X70258Y442416D01*
X70145Y442426D01*
X70032Y442440D01*
X69920Y442457D01*
X69809Y442479D01*
X69699Y442504D01*
X69589Y442534D01*
X69481Y442567D01*
X69374Y442604D01*
X69268Y442644D01*
X69164Y442689D01*
X69061Y442737D01*
X68960Y442788D01*
X68861Y442843D01*
X68764Y442901D01*
X68669Y442963D01*
X68576Y443028D01*
X68486Y443096D01*
X68398Y443167D01*
X68312Y443242D01*
X68229Y443319D01*
X68149Y443399D01*
X68072Y443482D01*
X67997Y443568D01*
X67926Y443656D01*
X67858Y443746D01*
X67793Y443839D01*
X67731Y443934D01*
X67673Y444031D01*
X67618Y444130D01*
X67567Y444231D01*
X67519Y444334D01*
X67474Y444438D01*
X67434Y444544D01*
X67397Y444651D01*
X67364Y444759D01*
X67334Y444869D01*
X67309Y444979D01*
X67287Y445090D01*
X67270Y445202D01*
X67256Y445315D01*
X67246Y445428D01*
X67240Y445541D01*
X67238Y445654D01*
X67240Y445767D01*
X67246Y445880D01*
X67256Y445993D01*
X67270Y446106D01*
X67287Y446218D01*
X67309Y446329D01*
X67334Y446439D01*
X67364Y446549D01*
X67397Y446657D01*
X67434Y446764D01*
X67474Y446870D01*
X67519Y446974D01*
X67567Y447077D01*
X67618Y447178D01*
X67673Y447277D01*
X67731Y447374D01*
X67793Y447469D01*
X67858Y447562D01*
X67926Y447652D01*
X67997Y447740D01*
X68072Y447826D01*
X68149Y447909D01*
X68229Y447989D01*
X68312Y448066D01*
X68398Y448141D01*
X68486Y448212D01*
X68576Y448280D01*
X68669Y448345D01*
X68764Y448407D01*
X68861Y448465D01*
X68960Y448520D01*
X69061Y448571D01*
X69164Y448619D01*
X69268Y448664D01*
X69374Y448704D01*
X69481Y448741D01*
X69589Y448774D01*
X69699Y448804D01*
X69809Y448829D01*
X69920Y448851D01*
X70032Y448868D01*
X70145Y448882D01*
X70258Y448892D01*
X70371Y448898D01*
X70484Y448900D01*
X69834Y454092D02*
X73729Y454092D01*
X69834Y454092D02*
X69733Y454090D01*
X69633Y454084D01*
X69533Y454074D01*
X69433Y454061D01*
X69334Y454043D01*
X69235Y454022D01*
X69138Y453997D01*
X69041Y453968D01*
X68946Y453935D01*
X68852Y453899D01*
X68760Y453859D01*
X68669Y453816D01*
X68580Y453769D01*
X68493Y453719D01*
X68407Y453665D01*
X68324Y453608D01*
X68244Y453548D01*
X68165Y453485D01*
X68089Y453418D01*
X68016Y453349D01*
X67946Y453277D01*
X67878Y453203D01*
X67813Y453126D01*
X67752Y453046D01*
X67693Y452964D01*
X67638Y452880D01*
X67586Y452794D01*
X67537Y452706D01*
X67492Y452616D01*
X67450Y452524D01*
X67412Y452431D01*
X67378Y452336D01*
X67347Y452241D01*
X67320Y452144D01*
X67297Y452046D01*
X67277Y451947D01*
X67262Y451847D01*
X67250Y451747D01*
X67242Y451647D01*
X67238Y451546D01*
X67238Y451446D01*
X67242Y451345D01*
X67250Y451245D01*
X67262Y451145D01*
X67277Y451045D01*
X67297Y450946D01*
X67320Y450848D01*
X67347Y450751D01*
X67378Y450656D01*
X67412Y450561D01*
X67450Y450468D01*
X67492Y450376D01*
X67537Y450286D01*
X67586Y450198D01*
X67638Y450112D01*
X67693Y450028D01*
X67752Y449946D01*
X67813Y449866D01*
X67878Y449789D01*
X67946Y449715D01*
X68016Y449643D01*
X68089Y449574D01*
X68165Y449507D01*
X68244Y449444D01*
X68324Y449384D01*
X68407Y449327D01*
X68493Y449273D01*
X68580Y449223D01*
X68669Y449176D01*
X68760Y449133D01*
X68852Y449093D01*
X68946Y449057D01*
X69041Y449024D01*
X69138Y448995D01*
X69235Y448970D01*
X69334Y448949D01*
X69433Y448931D01*
X69533Y448918D01*
X69633Y448908D01*
X69733Y448902D01*
X69834Y448900D01*
X69834Y448899D02*
X72431Y448899D01*
X62299Y442408D02*
X59054Y442408D01*
X58941Y442410D01*
X58828Y442416D01*
X58715Y442426D01*
X58602Y442440D01*
X58490Y442457D01*
X58379Y442479D01*
X58269Y442504D01*
X58159Y442534D01*
X58051Y442567D01*
X57944Y442604D01*
X57838Y442644D01*
X57734Y442689D01*
X57631Y442737D01*
X57530Y442788D01*
X57431Y442843D01*
X57334Y442901D01*
X57239Y442963D01*
X57146Y443028D01*
X57056Y443096D01*
X56968Y443167D01*
X56882Y443242D01*
X56799Y443319D01*
X56719Y443399D01*
X56642Y443482D01*
X56567Y443568D01*
X56496Y443656D01*
X56428Y443746D01*
X56363Y443839D01*
X56301Y443934D01*
X56243Y444031D01*
X56188Y444130D01*
X56137Y444231D01*
X56089Y444334D01*
X56044Y444438D01*
X56004Y444544D01*
X55967Y444651D01*
X55934Y444759D01*
X55904Y444869D01*
X55879Y444979D01*
X55857Y445090D01*
X55840Y445202D01*
X55826Y445315D01*
X55816Y445428D01*
X55810Y445541D01*
X55808Y445654D01*
X55810Y445767D01*
X55816Y445880D01*
X55826Y445993D01*
X55840Y446106D01*
X55857Y446218D01*
X55879Y446329D01*
X55904Y446439D01*
X55934Y446549D01*
X55967Y446657D01*
X56004Y446764D01*
X56044Y446870D01*
X56089Y446974D01*
X56137Y447077D01*
X56188Y447178D01*
X56243Y447277D01*
X56301Y447374D01*
X56363Y447469D01*
X56428Y447562D01*
X56496Y447652D01*
X56567Y447740D01*
X56642Y447826D01*
X56719Y447909D01*
X56799Y447989D01*
X56882Y448066D01*
X56968Y448141D01*
X57056Y448212D01*
X57146Y448280D01*
X57239Y448345D01*
X57334Y448407D01*
X57431Y448465D01*
X57530Y448520D01*
X57631Y448571D01*
X57734Y448619D01*
X57838Y448664D01*
X57944Y448704D01*
X58051Y448741D01*
X58159Y448774D01*
X58269Y448804D01*
X58379Y448829D01*
X58490Y448851D01*
X58602Y448868D01*
X58715Y448882D01*
X58828Y448892D01*
X58941Y448898D01*
X59054Y448900D01*
X58404Y454092D02*
X62299Y454092D01*
X58404Y454092D02*
X58303Y454090D01*
X58203Y454084D01*
X58103Y454074D01*
X58003Y454061D01*
X57904Y454043D01*
X57805Y454022D01*
X57708Y453997D01*
X57611Y453968D01*
X57516Y453935D01*
X57422Y453899D01*
X57330Y453859D01*
X57239Y453816D01*
X57150Y453769D01*
X57063Y453719D01*
X56977Y453665D01*
X56894Y453608D01*
X56814Y453548D01*
X56735Y453485D01*
X56659Y453418D01*
X56586Y453349D01*
X56516Y453277D01*
X56448Y453203D01*
X56383Y453126D01*
X56322Y453046D01*
X56263Y452964D01*
X56208Y452880D01*
X56156Y452794D01*
X56107Y452706D01*
X56062Y452616D01*
X56020Y452524D01*
X55982Y452431D01*
X55948Y452336D01*
X55917Y452241D01*
X55890Y452144D01*
X55867Y452046D01*
X55847Y451947D01*
X55832Y451847D01*
X55820Y451747D01*
X55812Y451647D01*
X55808Y451546D01*
X55808Y451446D01*
X55812Y451345D01*
X55820Y451245D01*
X55832Y451145D01*
X55847Y451045D01*
X55867Y450946D01*
X55890Y450848D01*
X55917Y450751D01*
X55948Y450656D01*
X55982Y450561D01*
X56020Y450468D01*
X56062Y450376D01*
X56107Y450286D01*
X56156Y450198D01*
X56208Y450112D01*
X56263Y450028D01*
X56322Y449946D01*
X56383Y449866D01*
X56448Y449789D01*
X56516Y449715D01*
X56586Y449643D01*
X56659Y449574D01*
X56735Y449507D01*
X56814Y449444D01*
X56894Y449384D01*
X56977Y449327D01*
X57063Y449273D01*
X57150Y449223D01*
X57239Y449176D01*
X57330Y449133D01*
X57422Y449093D01*
X57516Y449057D01*
X57611Y449024D01*
X57708Y448995D01*
X57805Y448970D01*
X57904Y448949D01*
X58003Y448931D01*
X58103Y448918D01*
X58203Y448908D01*
X58303Y448902D01*
X58404Y448900D01*
X58404Y448899D02*
X61001Y448899D01*
X131308Y427386D02*
X131308Y424790D01*
X131310Y424691D01*
X131316Y424591D01*
X131325Y424492D01*
X131338Y424394D01*
X131355Y424296D01*
X131376Y424198D01*
X131401Y424102D01*
X131429Y424007D01*
X131461Y423913D01*
X131496Y423820D01*
X131535Y423728D01*
X131578Y423638D01*
X131623Y423550D01*
X131673Y423463D01*
X131725Y423379D01*
X131781Y423296D01*
X131839Y423216D01*
X131901Y423138D01*
X131966Y423063D01*
X132034Y422990D01*
X132104Y422920D01*
X132177Y422852D01*
X132252Y422787D01*
X132330Y422725D01*
X132410Y422667D01*
X132493Y422611D01*
X132577Y422559D01*
X132664Y422509D01*
X132752Y422464D01*
X132842Y422421D01*
X132934Y422382D01*
X133027Y422347D01*
X133121Y422315D01*
X133216Y422287D01*
X133312Y422262D01*
X133410Y422241D01*
X133508Y422224D01*
X133606Y422211D01*
X133705Y422202D01*
X133805Y422196D01*
X133904Y422194D01*
X140396Y422194D01*
X140495Y422196D01*
X140595Y422202D01*
X140694Y422211D01*
X140792Y422224D01*
X140890Y422241D01*
X140988Y422262D01*
X141084Y422287D01*
X141179Y422315D01*
X141273Y422347D01*
X141366Y422382D01*
X141458Y422421D01*
X141548Y422464D01*
X141636Y422509D01*
X141723Y422559D01*
X141807Y422611D01*
X141890Y422667D01*
X141970Y422725D01*
X142048Y422787D01*
X142123Y422852D01*
X142196Y422920D01*
X142266Y422990D01*
X142334Y423063D01*
X142399Y423138D01*
X142461Y423216D01*
X142519Y423296D01*
X142575Y423379D01*
X142627Y423463D01*
X142677Y423550D01*
X142722Y423638D01*
X142765Y423728D01*
X142804Y423820D01*
X142839Y423912D01*
X142871Y424007D01*
X142899Y424102D01*
X142924Y424198D01*
X142945Y424296D01*
X142962Y424394D01*
X142975Y424492D01*
X142984Y424591D01*
X142990Y424691D01*
X142992Y424790D01*
X142992Y427386D01*
X142992Y434997D02*
X131308Y431103D01*
X131308Y438892D02*
X142992Y434997D01*
X134229Y437918D02*
X134229Y432076D01*
D12*
X740200Y465100D02*
X745500Y465100D01*
X745500Y482300D01*
X745500Y558900D02*
X745500Y567100D01*
X723350Y465100D02*
X714350Y465100D01*
X686700Y465100D02*
X669500Y465100D01*
X669500Y475000D01*
X669500Y562200D02*
X669500Y578100D01*
X692400Y578100D01*
X720100Y578100D02*
X729700Y578100D01*
D13*
X659500Y559600D02*
X659502Y559663D01*
X659508Y559725D01*
X659518Y559787D01*
X659531Y559849D01*
X659549Y559909D01*
X659570Y559968D01*
X659595Y560026D01*
X659624Y560082D01*
X659656Y560136D01*
X659691Y560188D01*
X659729Y560237D01*
X659771Y560285D01*
X659815Y560329D01*
X659863Y560371D01*
X659912Y560409D01*
X659964Y560444D01*
X660018Y560476D01*
X660074Y560505D01*
X660132Y560530D01*
X660191Y560551D01*
X660251Y560569D01*
X660313Y560582D01*
X660375Y560592D01*
X660437Y560598D01*
X660500Y560600D01*
X660563Y560598D01*
X660625Y560592D01*
X660687Y560582D01*
X660749Y560569D01*
X660809Y560551D01*
X660868Y560530D01*
X660926Y560505D01*
X660982Y560476D01*
X661036Y560444D01*
X661088Y560409D01*
X661137Y560371D01*
X661185Y560329D01*
X661229Y560285D01*
X661271Y560237D01*
X661309Y560188D01*
X661344Y560136D01*
X661376Y560082D01*
X661405Y560026D01*
X661430Y559968D01*
X661451Y559909D01*
X661469Y559849D01*
X661482Y559787D01*
X661492Y559725D01*
X661498Y559663D01*
X661500Y559600D01*
X661498Y559537D01*
X661492Y559475D01*
X661482Y559413D01*
X661469Y559351D01*
X661451Y559291D01*
X661430Y559232D01*
X661405Y559174D01*
X661376Y559118D01*
X661344Y559064D01*
X661309Y559012D01*
X661271Y558963D01*
X661229Y558915D01*
X661185Y558871D01*
X661137Y558829D01*
X661088Y558791D01*
X661036Y558756D01*
X660982Y558724D01*
X660926Y558695D01*
X660868Y558670D01*
X660809Y558649D01*
X660749Y558631D01*
X660687Y558618D01*
X660625Y558608D01*
X660563Y558602D01*
X660500Y558600D01*
X660437Y558602D01*
X660375Y558608D01*
X660313Y558618D01*
X660251Y558631D01*
X660191Y558649D01*
X660132Y558670D01*
X660074Y558695D01*
X660018Y558724D01*
X659964Y558756D01*
X659912Y558791D01*
X659863Y558829D01*
X659815Y558871D01*
X659771Y558915D01*
X659729Y558963D01*
X659691Y559012D01*
X659656Y559064D01*
X659624Y559118D01*
X659595Y559174D01*
X659570Y559232D01*
X659549Y559291D01*
X659531Y559351D01*
X659518Y559413D01*
X659508Y559475D01*
X659502Y559537D01*
X659500Y559600D01*
D11*
X760968Y521228D02*
X770068Y521228D01*
X760968Y521228D02*
X760868Y521226D01*
X760769Y521220D01*
X760670Y521211D01*
X760571Y521198D01*
X760473Y521180D01*
X760376Y521160D01*
X760279Y521135D01*
X760184Y521107D01*
X760089Y521075D01*
X759996Y521040D01*
X759904Y521001D01*
X759814Y520958D01*
X759726Y520912D01*
X759639Y520863D01*
X759555Y520810D01*
X759472Y520755D01*
X759392Y520696D01*
X759314Y520634D01*
X759238Y520569D01*
X759165Y520501D01*
X759095Y520431D01*
X759027Y520358D01*
X758962Y520282D01*
X758900Y520204D01*
X758841Y520124D01*
X758786Y520041D01*
X758733Y519957D01*
X758684Y519870D01*
X758638Y519782D01*
X758595Y519692D01*
X758556Y519600D01*
X758521Y519507D01*
X758489Y519412D01*
X758461Y519317D01*
X758436Y519220D01*
X758416Y519123D01*
X758398Y519025D01*
X758385Y518926D01*
X758376Y518827D01*
X758370Y518728D01*
X758368Y518628D01*
X758368Y517328D01*
X767468Y526507D02*
X770068Y529757D01*
X758368Y529757D01*
X758368Y526507D02*
X758368Y533007D01*
X188742Y346558D02*
X177058Y346558D01*
X177058Y351751D01*
X177058Y356060D02*
X177058Y359306D01*
X177060Y359419D01*
X177066Y359532D01*
X177076Y359645D01*
X177090Y359758D01*
X177107Y359870D01*
X177129Y359981D01*
X177154Y360091D01*
X177184Y360201D01*
X177217Y360309D01*
X177254Y360416D01*
X177294Y360522D01*
X177339Y360626D01*
X177387Y360729D01*
X177438Y360830D01*
X177493Y360929D01*
X177551Y361026D01*
X177613Y361121D01*
X177678Y361214D01*
X177746Y361304D01*
X177817Y361392D01*
X177892Y361478D01*
X177969Y361561D01*
X178049Y361641D01*
X178132Y361718D01*
X178218Y361793D01*
X178306Y361864D01*
X178396Y361932D01*
X178489Y361997D01*
X178584Y362059D01*
X178681Y362117D01*
X178780Y362172D01*
X178881Y362223D01*
X178984Y362271D01*
X179088Y362316D01*
X179194Y362356D01*
X179301Y362393D01*
X179409Y362426D01*
X179519Y362456D01*
X179629Y362481D01*
X179740Y362503D01*
X179852Y362520D01*
X179965Y362534D01*
X180078Y362544D01*
X180191Y362550D01*
X180304Y362552D01*
X180417Y362550D01*
X180530Y362544D01*
X180643Y362534D01*
X180756Y362520D01*
X180868Y362503D01*
X180979Y362481D01*
X181089Y362456D01*
X181199Y362426D01*
X181307Y362393D01*
X181414Y362356D01*
X181520Y362316D01*
X181624Y362271D01*
X181727Y362223D01*
X181828Y362172D01*
X181927Y362117D01*
X182024Y362059D01*
X182119Y361997D01*
X182212Y361932D01*
X182302Y361864D01*
X182390Y361793D01*
X182476Y361718D01*
X182559Y361641D01*
X182639Y361561D01*
X182716Y361478D01*
X182791Y361392D01*
X182862Y361304D01*
X182930Y361214D01*
X182995Y361121D01*
X183057Y361026D01*
X183115Y360929D01*
X183170Y360830D01*
X183221Y360729D01*
X183269Y360626D01*
X183314Y360522D01*
X183354Y360416D01*
X183391Y360309D01*
X183424Y360201D01*
X183454Y360091D01*
X183479Y359981D01*
X183501Y359870D01*
X183518Y359758D01*
X183532Y359645D01*
X183542Y359532D01*
X183548Y359419D01*
X183550Y359306D01*
X188742Y359955D02*
X188742Y356060D01*
X188742Y359955D02*
X188740Y360056D01*
X188734Y360156D01*
X188724Y360256D01*
X188711Y360356D01*
X188693Y360455D01*
X188672Y360554D01*
X188647Y360651D01*
X188618Y360748D01*
X188585Y360843D01*
X188549Y360937D01*
X188509Y361029D01*
X188466Y361120D01*
X188419Y361209D01*
X188369Y361296D01*
X188315Y361382D01*
X188258Y361465D01*
X188198Y361545D01*
X188135Y361624D01*
X188068Y361700D01*
X187999Y361773D01*
X187927Y361843D01*
X187853Y361911D01*
X187776Y361976D01*
X187696Y362037D01*
X187614Y362096D01*
X187530Y362151D01*
X187444Y362203D01*
X187356Y362252D01*
X187266Y362297D01*
X187174Y362339D01*
X187081Y362377D01*
X186986Y362411D01*
X186891Y362442D01*
X186794Y362469D01*
X186696Y362492D01*
X186597Y362512D01*
X186497Y362527D01*
X186397Y362539D01*
X186297Y362547D01*
X186196Y362551D01*
X186096Y362551D01*
X185995Y362547D01*
X185895Y362539D01*
X185795Y362527D01*
X185695Y362512D01*
X185596Y362492D01*
X185498Y362469D01*
X185401Y362442D01*
X185306Y362411D01*
X185211Y362377D01*
X185118Y362339D01*
X185026Y362297D01*
X184936Y362252D01*
X184848Y362203D01*
X184762Y362151D01*
X184678Y362096D01*
X184596Y362037D01*
X184516Y361976D01*
X184439Y361911D01*
X184365Y361843D01*
X184293Y361773D01*
X184224Y361700D01*
X184157Y361624D01*
X184094Y361545D01*
X184034Y361465D01*
X183977Y361382D01*
X183923Y361296D01*
X183873Y361209D01*
X183826Y361120D01*
X183783Y361029D01*
X183743Y360937D01*
X183707Y360843D01*
X183674Y360748D01*
X183645Y360651D01*
X183620Y360554D01*
X183599Y360455D01*
X183581Y360356D01*
X183568Y360256D01*
X183558Y360156D01*
X183552Y360056D01*
X183550Y359955D01*
X183549Y359955D02*
X183549Y357359D01*
X513555Y690208D02*
X513555Y701892D01*
X510310Y701892D01*
X510197Y701890D01*
X510084Y701884D01*
X509971Y701874D01*
X509858Y701860D01*
X509746Y701843D01*
X509635Y701821D01*
X509525Y701796D01*
X509415Y701766D01*
X509307Y701733D01*
X509200Y701696D01*
X509094Y701656D01*
X508990Y701611D01*
X508887Y701563D01*
X508786Y701512D01*
X508687Y701457D01*
X508590Y701399D01*
X508495Y701337D01*
X508402Y701272D01*
X508312Y701204D01*
X508224Y701133D01*
X508138Y701058D01*
X508055Y700981D01*
X507975Y700901D01*
X507898Y700818D01*
X507823Y700732D01*
X507752Y700644D01*
X507684Y700554D01*
X507619Y700461D01*
X507557Y700366D01*
X507499Y700269D01*
X507444Y700170D01*
X507393Y700069D01*
X507345Y699966D01*
X507300Y699862D01*
X507260Y699756D01*
X507223Y699649D01*
X507190Y699541D01*
X507160Y699431D01*
X507135Y699321D01*
X507113Y699210D01*
X507096Y699098D01*
X507082Y698985D01*
X507072Y698872D01*
X507066Y698759D01*
X507064Y698646D01*
X507066Y698533D01*
X507072Y698420D01*
X507082Y698307D01*
X507096Y698194D01*
X507113Y698082D01*
X507135Y697971D01*
X507160Y697861D01*
X507190Y697751D01*
X507223Y697643D01*
X507260Y697536D01*
X507300Y697430D01*
X507345Y697326D01*
X507393Y697223D01*
X507444Y697122D01*
X507499Y697023D01*
X507557Y696926D01*
X507619Y696831D01*
X507684Y696738D01*
X507752Y696648D01*
X507823Y696560D01*
X507898Y696474D01*
X507975Y696391D01*
X508055Y696311D01*
X508138Y696234D01*
X508224Y696159D01*
X508312Y696088D01*
X508402Y696020D01*
X508495Y695955D01*
X508590Y695893D01*
X508687Y695835D01*
X508786Y695780D01*
X508887Y695729D01*
X508990Y695681D01*
X509094Y695636D01*
X509200Y695596D01*
X509307Y695559D01*
X509415Y695526D01*
X509525Y695496D01*
X509635Y695471D01*
X509746Y695449D01*
X509858Y695432D01*
X509971Y695418D01*
X510084Y695408D01*
X510197Y695402D01*
X510310Y695400D01*
X510310Y695401D02*
X513555Y695401D01*
X509661Y695401D02*
X507064Y690208D01*
X502199Y699296D02*
X498954Y701892D01*
X498954Y690208D01*
X502199Y690208D02*
X495708Y690208D01*
X286591Y722008D02*
X283994Y722008D01*
X286591Y722008D02*
X286690Y722010D01*
X286790Y722016D01*
X286889Y722025D01*
X286987Y722038D01*
X287085Y722055D01*
X287183Y722076D01*
X287279Y722101D01*
X287374Y722129D01*
X287468Y722161D01*
X287561Y722196D01*
X287653Y722235D01*
X287743Y722278D01*
X287831Y722323D01*
X287918Y722373D01*
X288002Y722425D01*
X288085Y722481D01*
X288165Y722539D01*
X288243Y722601D01*
X288318Y722666D01*
X288391Y722734D01*
X288461Y722804D01*
X288529Y722877D01*
X288594Y722952D01*
X288656Y723030D01*
X288714Y723110D01*
X288770Y723193D01*
X288822Y723277D01*
X288872Y723364D01*
X288917Y723452D01*
X288960Y723542D01*
X288999Y723634D01*
X289034Y723727D01*
X289066Y723821D01*
X289094Y723916D01*
X289119Y724012D01*
X289140Y724110D01*
X289157Y724208D01*
X289170Y724306D01*
X289179Y724405D01*
X289185Y724505D01*
X289187Y724604D01*
X289187Y731096D01*
X289185Y731195D01*
X289179Y731295D01*
X289170Y731394D01*
X289157Y731492D01*
X289140Y731590D01*
X289119Y731688D01*
X289094Y731784D01*
X289066Y731879D01*
X289034Y731973D01*
X288999Y732066D01*
X288960Y732158D01*
X288917Y732248D01*
X288872Y732336D01*
X288822Y732423D01*
X288770Y732507D01*
X288714Y732590D01*
X288656Y732670D01*
X288594Y732748D01*
X288529Y732823D01*
X288461Y732896D01*
X288391Y732966D01*
X288318Y733034D01*
X288243Y733099D01*
X288165Y733161D01*
X288085Y733219D01*
X288002Y733275D01*
X287918Y733327D01*
X287831Y733377D01*
X287743Y733422D01*
X287653Y733465D01*
X287561Y733504D01*
X287468Y733539D01*
X287374Y733571D01*
X287279Y733599D01*
X287183Y733624D01*
X287085Y733645D01*
X286987Y733662D01*
X286889Y733675D01*
X286790Y733684D01*
X286690Y733690D01*
X286591Y733692D01*
X283994Y733692D01*
X279629Y731096D02*
X276384Y733692D01*
X276384Y722008D01*
X279629Y722008D02*
X273138Y722008D01*
X268199Y728499D02*
X264304Y728499D01*
X264205Y728497D01*
X264105Y728491D01*
X264006Y728482D01*
X263908Y728469D01*
X263810Y728452D01*
X263712Y728431D01*
X263616Y728406D01*
X263521Y728378D01*
X263427Y728346D01*
X263334Y728311D01*
X263242Y728272D01*
X263152Y728229D01*
X263064Y728184D01*
X262977Y728134D01*
X262893Y728082D01*
X262810Y728026D01*
X262730Y727968D01*
X262652Y727906D01*
X262577Y727841D01*
X262504Y727773D01*
X262434Y727703D01*
X262366Y727630D01*
X262301Y727555D01*
X262239Y727477D01*
X262181Y727397D01*
X262125Y727314D01*
X262073Y727230D01*
X262023Y727143D01*
X261978Y727055D01*
X261935Y726965D01*
X261896Y726873D01*
X261861Y726780D01*
X261829Y726686D01*
X261801Y726591D01*
X261776Y726495D01*
X261755Y726397D01*
X261738Y726299D01*
X261725Y726201D01*
X261716Y726102D01*
X261710Y726002D01*
X261708Y725903D01*
X261708Y725254D01*
X261710Y725141D01*
X261716Y725028D01*
X261726Y724915D01*
X261740Y724802D01*
X261757Y724690D01*
X261779Y724579D01*
X261804Y724469D01*
X261834Y724359D01*
X261867Y724251D01*
X261904Y724144D01*
X261944Y724038D01*
X261989Y723934D01*
X262037Y723831D01*
X262088Y723730D01*
X262143Y723631D01*
X262201Y723534D01*
X262263Y723439D01*
X262328Y723346D01*
X262396Y723256D01*
X262467Y723168D01*
X262542Y723082D01*
X262619Y722999D01*
X262699Y722919D01*
X262782Y722842D01*
X262868Y722767D01*
X262956Y722696D01*
X263046Y722628D01*
X263139Y722563D01*
X263234Y722501D01*
X263331Y722443D01*
X263430Y722388D01*
X263531Y722337D01*
X263634Y722289D01*
X263738Y722244D01*
X263844Y722204D01*
X263951Y722167D01*
X264059Y722134D01*
X264169Y722104D01*
X264279Y722079D01*
X264390Y722057D01*
X264502Y722040D01*
X264615Y722026D01*
X264728Y722016D01*
X264841Y722010D01*
X264954Y722008D01*
X265067Y722010D01*
X265180Y722016D01*
X265293Y722026D01*
X265406Y722040D01*
X265518Y722057D01*
X265629Y722079D01*
X265739Y722104D01*
X265849Y722134D01*
X265957Y722167D01*
X266064Y722204D01*
X266170Y722244D01*
X266274Y722289D01*
X266377Y722337D01*
X266478Y722388D01*
X266577Y722443D01*
X266674Y722501D01*
X266769Y722563D01*
X266862Y722628D01*
X266952Y722696D01*
X267040Y722767D01*
X267126Y722842D01*
X267209Y722919D01*
X267289Y722999D01*
X267366Y723082D01*
X267441Y723168D01*
X267512Y723256D01*
X267580Y723346D01*
X267645Y723439D01*
X267707Y723534D01*
X267765Y723631D01*
X267820Y723730D01*
X267871Y723831D01*
X267919Y723934D01*
X267964Y724038D01*
X268004Y724144D01*
X268041Y724251D01*
X268074Y724359D01*
X268104Y724469D01*
X268129Y724579D01*
X268151Y724690D01*
X268168Y724802D01*
X268182Y724915D01*
X268192Y725028D01*
X268198Y725141D01*
X268200Y725254D01*
X268199Y725254D02*
X268199Y728499D01*
X268197Y728642D01*
X268191Y728785D01*
X268181Y728928D01*
X268167Y729070D01*
X268150Y729212D01*
X268128Y729354D01*
X268103Y729495D01*
X268073Y729635D01*
X268040Y729774D01*
X268003Y729912D01*
X267962Y730049D01*
X267918Y730185D01*
X267869Y730320D01*
X267817Y730453D01*
X267762Y730585D01*
X267702Y730715D01*
X267639Y730844D01*
X267573Y730971D01*
X267503Y731096D01*
X267430Y731218D01*
X267353Y731339D01*
X267273Y731458D01*
X267190Y731574D01*
X267104Y731689D01*
X267015Y731800D01*
X266922Y731910D01*
X266827Y732016D01*
X266728Y732120D01*
X266627Y732221D01*
X266523Y732320D01*
X266417Y732415D01*
X266307Y732508D01*
X266196Y732597D01*
X266081Y732683D01*
X265965Y732766D01*
X265846Y732846D01*
X265725Y732923D01*
X265603Y732996D01*
X265478Y733066D01*
X265351Y733132D01*
X265222Y733195D01*
X265092Y733255D01*
X264960Y733310D01*
X264827Y733362D01*
X264692Y733411D01*
X264556Y733455D01*
X264419Y733496D01*
X264281Y733533D01*
X264142Y733566D01*
X264002Y733596D01*
X263861Y733621D01*
X263719Y733643D01*
X263577Y733660D01*
X263435Y733674D01*
X263292Y733684D01*
X263149Y733690D01*
X263006Y733692D01*
X285094Y749508D02*
X287691Y749508D01*
X287790Y749510D01*
X287890Y749516D01*
X287989Y749525D01*
X288087Y749538D01*
X288185Y749555D01*
X288283Y749576D01*
X288379Y749601D01*
X288474Y749629D01*
X288568Y749661D01*
X288661Y749696D01*
X288753Y749735D01*
X288843Y749778D01*
X288931Y749823D01*
X289018Y749873D01*
X289102Y749925D01*
X289185Y749981D01*
X289265Y750039D01*
X289343Y750101D01*
X289418Y750166D01*
X289491Y750234D01*
X289561Y750304D01*
X289629Y750377D01*
X289694Y750452D01*
X289756Y750530D01*
X289814Y750610D01*
X289870Y750693D01*
X289922Y750777D01*
X289972Y750864D01*
X290017Y750952D01*
X290060Y751042D01*
X290099Y751134D01*
X290134Y751227D01*
X290166Y751321D01*
X290194Y751416D01*
X290219Y751512D01*
X290240Y751610D01*
X290257Y751708D01*
X290270Y751806D01*
X290279Y751905D01*
X290285Y752005D01*
X290287Y752104D01*
X290287Y758596D01*
X290285Y758695D01*
X290279Y758795D01*
X290270Y758894D01*
X290257Y758992D01*
X290240Y759090D01*
X290219Y759188D01*
X290194Y759284D01*
X290166Y759379D01*
X290134Y759473D01*
X290099Y759566D01*
X290060Y759658D01*
X290017Y759748D01*
X289972Y759836D01*
X289922Y759923D01*
X289870Y760007D01*
X289814Y760090D01*
X289756Y760170D01*
X289694Y760248D01*
X289629Y760323D01*
X289561Y760396D01*
X289491Y760466D01*
X289418Y760534D01*
X289343Y760599D01*
X289265Y760661D01*
X289185Y760719D01*
X289102Y760775D01*
X289018Y760827D01*
X288931Y760877D01*
X288843Y760922D01*
X288753Y760965D01*
X288661Y761004D01*
X288568Y761039D01*
X288474Y761071D01*
X288379Y761099D01*
X288283Y761124D01*
X288185Y761145D01*
X288087Y761162D01*
X287989Y761175D01*
X287890Y761184D01*
X287790Y761190D01*
X287691Y761192D01*
X285094Y761192D01*
X277159Y761192D02*
X277052Y761190D01*
X276946Y761184D01*
X276840Y761174D01*
X276734Y761161D01*
X276628Y761143D01*
X276524Y761122D01*
X276420Y761097D01*
X276317Y761068D01*
X276216Y761036D01*
X276116Y760999D01*
X276017Y760959D01*
X275919Y760916D01*
X275823Y760869D01*
X275729Y760818D01*
X275637Y760764D01*
X275547Y760707D01*
X275459Y760647D01*
X275374Y760583D01*
X275291Y760516D01*
X275210Y760446D01*
X275132Y760374D01*
X275056Y760298D01*
X274984Y760220D01*
X274914Y760139D01*
X274847Y760056D01*
X274783Y759971D01*
X274723Y759883D01*
X274666Y759793D01*
X274612Y759701D01*
X274561Y759607D01*
X274514Y759511D01*
X274471Y759413D01*
X274431Y759314D01*
X274394Y759214D01*
X274362Y759113D01*
X274333Y759010D01*
X274308Y758906D01*
X274287Y758802D01*
X274269Y758696D01*
X274256Y758590D01*
X274246Y758484D01*
X274240Y758378D01*
X274238Y758271D01*
X277159Y761192D02*
X277280Y761190D01*
X277401Y761184D01*
X277521Y761174D01*
X277642Y761161D01*
X277761Y761143D01*
X277881Y761122D01*
X277999Y761097D01*
X278116Y761068D01*
X278233Y761035D01*
X278348Y760999D01*
X278462Y760958D01*
X278575Y760915D01*
X278687Y760867D01*
X278796Y760816D01*
X278904Y760761D01*
X279011Y760703D01*
X279115Y760642D01*
X279217Y760577D01*
X279317Y760509D01*
X279415Y760438D01*
X279511Y760364D01*
X279604Y760287D01*
X279694Y760206D01*
X279782Y760123D01*
X279867Y760037D01*
X279950Y759948D01*
X280029Y759857D01*
X280106Y759763D01*
X280179Y759667D01*
X280249Y759569D01*
X280316Y759468D01*
X280380Y759365D01*
X280441Y759260D01*
X280498Y759153D01*
X280551Y759045D01*
X280601Y758935D01*
X280647Y758823D01*
X280690Y758710D01*
X280729Y758595D01*
X275212Y755999D02*
X275133Y756077D01*
X275057Y756157D01*
X274984Y756240D01*
X274914Y756326D01*
X274847Y756413D01*
X274783Y756504D01*
X274723Y756596D01*
X274665Y756690D01*
X274611Y756787D01*
X274561Y756885D01*
X274514Y756985D01*
X274470Y757086D01*
X274430Y757189D01*
X274394Y757294D01*
X274362Y757399D01*
X274333Y757506D01*
X274308Y757613D01*
X274286Y757722D01*
X274269Y757831D01*
X274255Y757940D01*
X274246Y758050D01*
X274240Y758161D01*
X274238Y758271D01*
X275212Y755999D02*
X280729Y749508D01*
X274238Y749508D01*
X269300Y752754D02*
X269298Y752867D01*
X269292Y752980D01*
X269282Y753093D01*
X269268Y753206D01*
X269251Y753318D01*
X269229Y753429D01*
X269204Y753539D01*
X269174Y753649D01*
X269141Y753757D01*
X269104Y753864D01*
X269064Y753970D01*
X269019Y754074D01*
X268971Y754177D01*
X268920Y754278D01*
X268865Y754377D01*
X268807Y754474D01*
X268745Y754569D01*
X268680Y754662D01*
X268612Y754752D01*
X268541Y754840D01*
X268466Y754926D01*
X268389Y755009D01*
X268309Y755089D01*
X268226Y755166D01*
X268140Y755241D01*
X268052Y755312D01*
X267962Y755380D01*
X267869Y755445D01*
X267774Y755507D01*
X267677Y755565D01*
X267578Y755620D01*
X267477Y755671D01*
X267374Y755719D01*
X267270Y755764D01*
X267164Y755804D01*
X267057Y755841D01*
X266949Y755874D01*
X266839Y755904D01*
X266729Y755929D01*
X266618Y755951D01*
X266506Y755968D01*
X266393Y755982D01*
X266280Y755992D01*
X266167Y755998D01*
X266054Y756000D01*
X265941Y755998D01*
X265828Y755992D01*
X265715Y755982D01*
X265602Y755968D01*
X265490Y755951D01*
X265379Y755929D01*
X265269Y755904D01*
X265159Y755874D01*
X265051Y755841D01*
X264944Y755804D01*
X264838Y755764D01*
X264734Y755719D01*
X264631Y755671D01*
X264530Y755620D01*
X264431Y755565D01*
X264334Y755507D01*
X264239Y755445D01*
X264146Y755380D01*
X264056Y755312D01*
X263968Y755241D01*
X263882Y755166D01*
X263799Y755089D01*
X263719Y755009D01*
X263642Y754926D01*
X263567Y754840D01*
X263496Y754752D01*
X263428Y754662D01*
X263363Y754569D01*
X263301Y754474D01*
X263243Y754377D01*
X263188Y754278D01*
X263137Y754177D01*
X263089Y754074D01*
X263044Y753970D01*
X263004Y753864D01*
X262967Y753757D01*
X262934Y753649D01*
X262904Y753539D01*
X262879Y753429D01*
X262857Y753318D01*
X262840Y753206D01*
X262826Y753093D01*
X262816Y752980D01*
X262810Y752867D01*
X262808Y752754D01*
X262810Y752641D01*
X262816Y752528D01*
X262826Y752415D01*
X262840Y752302D01*
X262857Y752190D01*
X262879Y752079D01*
X262904Y751969D01*
X262934Y751859D01*
X262967Y751751D01*
X263004Y751644D01*
X263044Y751538D01*
X263089Y751434D01*
X263137Y751331D01*
X263188Y751230D01*
X263243Y751131D01*
X263301Y751034D01*
X263363Y750939D01*
X263428Y750846D01*
X263496Y750756D01*
X263567Y750668D01*
X263642Y750582D01*
X263719Y750499D01*
X263799Y750419D01*
X263882Y750342D01*
X263968Y750267D01*
X264056Y750196D01*
X264146Y750128D01*
X264239Y750063D01*
X264334Y750001D01*
X264431Y749943D01*
X264530Y749888D01*
X264631Y749837D01*
X264734Y749789D01*
X264838Y749744D01*
X264944Y749704D01*
X265051Y749667D01*
X265159Y749634D01*
X265269Y749604D01*
X265379Y749579D01*
X265490Y749557D01*
X265602Y749540D01*
X265715Y749526D01*
X265828Y749516D01*
X265941Y749510D01*
X266054Y749508D01*
X266167Y749510D01*
X266280Y749516D01*
X266393Y749526D01*
X266506Y749540D01*
X266618Y749557D01*
X266729Y749579D01*
X266839Y749604D01*
X266949Y749634D01*
X267057Y749667D01*
X267164Y749704D01*
X267270Y749744D01*
X267374Y749789D01*
X267477Y749837D01*
X267578Y749888D01*
X267677Y749943D01*
X267774Y750001D01*
X267869Y750063D01*
X267962Y750128D01*
X268052Y750196D01*
X268140Y750267D01*
X268226Y750342D01*
X268309Y750419D01*
X268389Y750499D01*
X268466Y750582D01*
X268541Y750668D01*
X268612Y750756D01*
X268680Y750846D01*
X268745Y750939D01*
X268807Y751034D01*
X268865Y751131D01*
X268920Y751230D01*
X268971Y751331D01*
X269019Y751434D01*
X269064Y751538D01*
X269104Y751644D01*
X269141Y751751D01*
X269174Y751859D01*
X269204Y751969D01*
X269229Y752079D01*
X269251Y752190D01*
X269268Y752302D01*
X269282Y752415D01*
X269292Y752528D01*
X269298Y752641D01*
X269300Y752754D01*
X268650Y758596D02*
X268648Y758697D01*
X268642Y758797D01*
X268632Y758897D01*
X268619Y758997D01*
X268601Y759096D01*
X268580Y759195D01*
X268555Y759292D01*
X268526Y759389D01*
X268493Y759484D01*
X268457Y759578D01*
X268417Y759670D01*
X268374Y759761D01*
X268327Y759850D01*
X268277Y759937D01*
X268223Y760023D01*
X268166Y760106D01*
X268106Y760186D01*
X268043Y760265D01*
X267976Y760341D01*
X267907Y760414D01*
X267835Y760484D01*
X267761Y760552D01*
X267684Y760617D01*
X267604Y760678D01*
X267522Y760737D01*
X267438Y760792D01*
X267352Y760844D01*
X267264Y760893D01*
X267174Y760938D01*
X267082Y760980D01*
X266989Y761018D01*
X266894Y761052D01*
X266799Y761083D01*
X266702Y761110D01*
X266604Y761133D01*
X266505Y761153D01*
X266405Y761168D01*
X266305Y761180D01*
X266205Y761188D01*
X266104Y761192D01*
X266004Y761192D01*
X265903Y761188D01*
X265803Y761180D01*
X265703Y761168D01*
X265603Y761153D01*
X265504Y761133D01*
X265406Y761110D01*
X265309Y761083D01*
X265214Y761052D01*
X265119Y761018D01*
X265026Y760980D01*
X264934Y760938D01*
X264844Y760893D01*
X264756Y760844D01*
X264670Y760792D01*
X264586Y760737D01*
X264504Y760678D01*
X264424Y760617D01*
X264347Y760552D01*
X264273Y760484D01*
X264201Y760414D01*
X264132Y760341D01*
X264065Y760265D01*
X264002Y760186D01*
X263942Y760106D01*
X263885Y760023D01*
X263831Y759937D01*
X263781Y759850D01*
X263734Y759761D01*
X263691Y759670D01*
X263651Y759578D01*
X263615Y759484D01*
X263582Y759389D01*
X263553Y759292D01*
X263528Y759195D01*
X263507Y759096D01*
X263489Y758997D01*
X263476Y758897D01*
X263466Y758797D01*
X263460Y758697D01*
X263458Y758596D01*
X263460Y758495D01*
X263466Y758395D01*
X263476Y758295D01*
X263489Y758195D01*
X263507Y758096D01*
X263528Y757997D01*
X263553Y757900D01*
X263582Y757803D01*
X263615Y757708D01*
X263651Y757614D01*
X263691Y757522D01*
X263734Y757431D01*
X263781Y757342D01*
X263831Y757255D01*
X263885Y757169D01*
X263942Y757086D01*
X264002Y757006D01*
X264065Y756927D01*
X264132Y756851D01*
X264201Y756778D01*
X264273Y756708D01*
X264347Y756640D01*
X264424Y756575D01*
X264504Y756514D01*
X264586Y756455D01*
X264670Y756400D01*
X264756Y756348D01*
X264844Y756299D01*
X264934Y756254D01*
X265026Y756212D01*
X265119Y756174D01*
X265214Y756140D01*
X265309Y756109D01*
X265406Y756082D01*
X265504Y756059D01*
X265603Y756039D01*
X265703Y756024D01*
X265803Y756012D01*
X265903Y756004D01*
X266004Y756000D01*
X266104Y756000D01*
X266205Y756004D01*
X266305Y756012D01*
X266405Y756024D01*
X266505Y756039D01*
X266604Y756059D01*
X266702Y756082D01*
X266799Y756109D01*
X266894Y756140D01*
X266989Y756174D01*
X267082Y756212D01*
X267174Y756254D01*
X267264Y756299D01*
X267352Y756348D01*
X267438Y756400D01*
X267522Y756455D01*
X267604Y756514D01*
X267684Y756575D01*
X267761Y756640D01*
X267835Y756708D01*
X267907Y756778D01*
X267976Y756851D01*
X268043Y756927D01*
X268106Y757006D01*
X268166Y757086D01*
X268223Y757169D01*
X268277Y757255D01*
X268327Y757342D01*
X268374Y757431D01*
X268417Y757522D01*
X268457Y757614D01*
X268493Y757708D01*
X268526Y757803D01*
X268555Y757900D01*
X268580Y757997D01*
X268601Y758096D01*
X268619Y758195D01*
X268632Y758295D01*
X268642Y758395D01*
X268648Y758495D01*
X268650Y758596D01*
M02*
