G04 EAGLE Gerber RS-274X export*
G75*
%MOMM*%
%FSLAX34Y34*%
%LPD*%
%INSoldermask Top*%
%IPPOS*%
%AMOC8*
5,1,8,0,0,1.08239X$1,22.5*%
G01*
%ADD10C,1.203200*%
%ADD11R,2.203200X5.703200*%
%ADD12R,5.703200X1.203200*%
%ADD13R,3.203200X1.803200*%
%ADD14R,2.006200X1.803200*%
%ADD15R,1.753200X1.503200*%
%ADD16R,1.203200X1.303200*%
%ADD17R,1.303200X1.203200*%
%ADD18R,1.917700X1.917700*%
%ADD19C,1.917700*%
%ADD20R,0.654000X1.314400*%
%ADD21R,1.803200X1.403200*%
%ADD22R,0.508000X2.692400*%
%ADD23R,2.692400X0.508000*%
%ADD24R,2.303200X2.303200*%
%ADD25C,2.303200*%
%ADD26R,2.403200X1.803200*%
%ADD27C,0.353406*%
%ADD28R,2.103200X1.503200*%
%ADD29C,1.727200*%
%ADD30C,1.211200*%
%ADD31R,1.397000X0.508000*%
%ADD32R,0.508000X1.397000*%
%ADD33R,0.736600X2.209800*%
%ADD34R,0.660400X1.727200*%
%ADD35R,1.460500X0.660400*%
%ADD36R,1.447800X0.558800*%
%ADD37R,1.905000X0.914400*%
%ADD38R,6.426200X6.756400*%
%ADD39P,1.759533X8X292.500000*%
%ADD40C,1.625600*%
%ADD41C,1.409600*%
%ADD42C,1.109600*%
%ADD43C,0.959600*%


D10*
X780000Y20000D03*
X20000Y20100D03*
X20100Y780000D03*
X780000Y780000D03*
D11*
X367800Y467300D03*
X367800Y562300D03*
D12*
X723000Y118200D03*
X723000Y98200D03*
X723000Y78200D03*
D13*
X745500Y54200D03*
X745500Y142200D03*
D14*
X529800Y353020D03*
X529800Y324580D03*
D15*
X734950Y718700D03*
X655450Y718700D03*
X734950Y763700D03*
X655450Y763700D03*
D16*
X409900Y588100D03*
X409900Y571100D03*
D17*
X253800Y369600D03*
X270800Y369600D03*
X330500Y369600D03*
X313500Y369600D03*
X113600Y587200D03*
X96600Y587200D03*
X113900Y618000D03*
X96900Y618000D03*
X156200Y444900D03*
X173200Y444900D03*
X280300Y53700D03*
X263300Y53700D03*
D16*
X490600Y78200D03*
X490600Y61200D03*
X409700Y554800D03*
X409700Y537800D03*
X654000Y173900D03*
X654000Y190900D03*
D17*
X192300Y88300D03*
X209300Y88300D03*
X192400Y116800D03*
X209400Y116800D03*
X192700Y144000D03*
X209700Y144000D03*
X117700Y421500D03*
X134700Y421500D03*
X118200Y445200D03*
X135200Y445200D03*
D16*
X462500Y78200D03*
X462500Y61200D03*
D17*
X721800Y426600D03*
X704800Y426600D03*
X721200Y451600D03*
X704200Y451600D03*
D16*
X433900Y78200D03*
X433900Y61200D03*
X63600Y477800D03*
X63600Y494800D03*
X438600Y537600D03*
X438600Y554600D03*
X439300Y522900D03*
X439300Y505900D03*
X608300Y571700D03*
X608300Y554700D03*
D17*
X496600Y434300D03*
X479600Y434300D03*
D16*
X654700Y677300D03*
X654700Y660300D03*
X439800Y471900D03*
X439800Y488900D03*
D18*
X326100Y63100D03*
D19*
X326100Y184004D03*
D20*
X378400Y171500D03*
X378400Y148500D03*
D16*
X88500Y495200D03*
X88500Y478200D03*
D21*
X440200Y422900D03*
X440200Y452900D03*
D22*
X161100Y101100D03*
X101800Y101100D03*
D23*
X131450Y54600D03*
D24*
X33400Y304500D03*
D25*
X33400Y355300D03*
D24*
X109600Y304500D03*
D25*
X109600Y355300D03*
D26*
X59600Y423400D03*
X59600Y451400D03*
D14*
X653800Y112880D03*
X653800Y141320D03*
D27*
X454199Y125299D02*
X454199Y110201D01*
X449701Y110201D01*
X449701Y125299D01*
X454199Y125299D01*
X454199Y113558D02*
X449701Y113558D01*
X449701Y116915D02*
X454199Y116915D01*
X454199Y120272D02*
X449701Y120272D01*
X449701Y123629D02*
X454199Y123629D01*
X466899Y125299D02*
X466899Y110201D01*
X462401Y110201D01*
X462401Y125299D01*
X466899Y125299D01*
X466899Y113558D02*
X462401Y113558D01*
X462401Y116915D02*
X466899Y116915D01*
X466899Y120272D02*
X462401Y120272D01*
X462401Y123629D02*
X466899Y123629D01*
X479599Y125299D02*
X479599Y110201D01*
X475101Y110201D01*
X475101Y125299D01*
X479599Y125299D01*
X479599Y113558D02*
X475101Y113558D01*
X475101Y116915D02*
X479599Y116915D01*
X479599Y120272D02*
X475101Y120272D01*
X475101Y123629D02*
X479599Y123629D01*
X492299Y125299D02*
X492299Y110201D01*
X487801Y110201D01*
X487801Y125299D01*
X492299Y125299D01*
X492299Y113558D02*
X487801Y113558D01*
X487801Y116915D02*
X492299Y116915D01*
X492299Y120272D02*
X487801Y120272D01*
X487801Y123629D02*
X492299Y123629D01*
X492299Y162701D02*
X492299Y177799D01*
X492299Y162701D02*
X487801Y162701D01*
X487801Y177799D01*
X492299Y177799D01*
X492299Y166058D02*
X487801Y166058D01*
X487801Y169415D02*
X492299Y169415D01*
X492299Y172772D02*
X487801Y172772D01*
X487801Y176129D02*
X492299Y176129D01*
X479599Y177799D02*
X479599Y162701D01*
X475101Y162701D01*
X475101Y177799D01*
X479599Y177799D01*
X479599Y166058D02*
X475101Y166058D01*
X475101Y169415D02*
X479599Y169415D01*
X479599Y172772D02*
X475101Y172772D01*
X475101Y176129D02*
X479599Y176129D01*
X466899Y177799D02*
X466899Y162701D01*
X462401Y162701D01*
X462401Y177799D01*
X466899Y177799D01*
X466899Y166058D02*
X462401Y166058D01*
X462401Y169415D02*
X466899Y169415D01*
X466899Y172772D02*
X462401Y172772D01*
X462401Y176129D02*
X466899Y176129D01*
X454199Y177799D02*
X454199Y162701D01*
X449701Y162701D01*
X449701Y177799D01*
X454199Y177799D01*
X454199Y166058D02*
X449701Y166058D01*
X449701Y169415D02*
X454199Y169415D01*
X454199Y172772D02*
X449701Y172772D01*
X449701Y176129D02*
X454199Y176129D01*
X487401Y243601D02*
X487401Y258699D01*
X491899Y258699D01*
X491899Y243601D01*
X487401Y243601D01*
X487401Y246958D02*
X491899Y246958D01*
X491899Y250315D02*
X487401Y250315D01*
X487401Y253672D02*
X491899Y253672D01*
X491899Y257029D02*
X487401Y257029D01*
X474701Y258699D02*
X474701Y243601D01*
X474701Y258699D02*
X479199Y258699D01*
X479199Y243601D01*
X474701Y243601D01*
X474701Y246958D02*
X479199Y246958D01*
X479199Y250315D02*
X474701Y250315D01*
X474701Y253672D02*
X479199Y253672D01*
X479199Y257029D02*
X474701Y257029D01*
X462001Y258699D02*
X462001Y243601D01*
X462001Y258699D02*
X466499Y258699D01*
X466499Y243601D01*
X462001Y243601D01*
X462001Y246958D02*
X466499Y246958D01*
X466499Y250315D02*
X462001Y250315D01*
X462001Y253672D02*
X466499Y253672D01*
X466499Y257029D02*
X462001Y257029D01*
X449301Y258699D02*
X449301Y243601D01*
X449301Y258699D02*
X453799Y258699D01*
X453799Y243601D01*
X449301Y243601D01*
X449301Y246958D02*
X453799Y246958D01*
X453799Y250315D02*
X449301Y250315D01*
X449301Y253672D02*
X453799Y253672D01*
X453799Y257029D02*
X449301Y257029D01*
X449301Y206199D02*
X449301Y191101D01*
X449301Y206199D02*
X453799Y206199D01*
X453799Y191101D01*
X449301Y191101D01*
X449301Y194458D02*
X453799Y194458D01*
X453799Y197815D02*
X449301Y197815D01*
X449301Y201172D02*
X453799Y201172D01*
X453799Y204529D02*
X449301Y204529D01*
X462001Y206199D02*
X462001Y191101D01*
X462001Y206199D02*
X466499Y206199D01*
X466499Y191101D01*
X462001Y191101D01*
X462001Y194458D02*
X466499Y194458D01*
X466499Y197815D02*
X462001Y197815D01*
X462001Y201172D02*
X466499Y201172D01*
X466499Y204529D02*
X462001Y204529D01*
X474701Y206199D02*
X474701Y191101D01*
X474701Y206199D02*
X479199Y206199D01*
X479199Y191101D01*
X474701Y191101D01*
X474701Y194458D02*
X479199Y194458D01*
X479199Y197815D02*
X474701Y197815D01*
X474701Y201172D02*
X479199Y201172D01*
X479199Y204529D02*
X474701Y204529D01*
X487401Y206199D02*
X487401Y191101D01*
X487401Y206199D02*
X491899Y206199D01*
X491899Y191101D01*
X487401Y191101D01*
X487401Y194458D02*
X491899Y194458D01*
X491899Y197815D02*
X487401Y197815D01*
X487401Y201172D02*
X491899Y201172D01*
X491899Y204529D02*
X487401Y204529D01*
D17*
X530800Y386600D03*
X530800Y403600D03*
D16*
X705700Y618100D03*
X722700Y618100D03*
X705500Y578500D03*
X722500Y578500D03*
X705300Y503700D03*
X722300Y503700D03*
X705100Y538900D03*
X722100Y538900D03*
X705900Y660700D03*
X722900Y660700D03*
X605600Y434100D03*
X622600Y434100D03*
X270700Y338600D03*
X253700Y338600D03*
D17*
X604600Y76900D03*
X604600Y59900D03*
X549800Y660100D03*
X549800Y677100D03*
X653800Y59800D03*
X653800Y76800D03*
X553900Y59800D03*
X553900Y76800D03*
X530600Y203700D03*
X530600Y220700D03*
X530600Y269500D03*
X530600Y286500D03*
D16*
X159300Y593600D03*
X176300Y593600D03*
X159100Y629900D03*
X176100Y629900D03*
X330900Y337500D03*
X313900Y337500D03*
D17*
X88700Y453800D03*
X88700Y436800D03*
X478400Y676900D03*
X478400Y659900D03*
X621000Y676800D03*
X621000Y659800D03*
X513800Y676900D03*
X513800Y659900D03*
X585200Y676900D03*
X585200Y659900D03*
X401300Y61200D03*
X401300Y78200D03*
D16*
X500600Y595000D03*
X517600Y595000D03*
D17*
X409300Y471800D03*
X409300Y488800D03*
D28*
X399700Y622400D03*
X399700Y677400D03*
X367700Y677400D03*
X367700Y622400D03*
D16*
X96600Y557600D03*
X113600Y557600D03*
D29*
X481100Y749780D02*
X481100Y765020D01*
X506500Y765020D02*
X506500Y749780D01*
X531900Y749780D02*
X531900Y765020D01*
X557300Y765020D02*
X557300Y749780D01*
X582700Y749780D02*
X582700Y765020D01*
X608100Y765020D02*
X608100Y749780D01*
D30*
X727900Y405740D02*
X727900Y395660D01*
X715200Y395660D02*
X715200Y405740D01*
X702500Y405740D02*
X702500Y395660D01*
X689800Y395660D02*
X689800Y405740D01*
X677100Y405740D02*
X677100Y395660D01*
X664400Y395660D02*
X664400Y405740D01*
X651700Y405740D02*
X651700Y395660D01*
X639000Y395660D02*
X639000Y405740D01*
X626300Y405740D02*
X626300Y395660D01*
X613600Y395660D02*
X613600Y405740D01*
X600900Y405740D02*
X600900Y395660D01*
X588200Y395660D02*
X588200Y405740D01*
X586940Y381700D02*
X576860Y381700D01*
X576860Y369000D02*
X586940Y369000D01*
X586940Y356300D02*
X576860Y356300D01*
X576860Y343600D02*
X586940Y343600D01*
X586940Y330900D02*
X576860Y330900D01*
X576860Y318200D02*
X586940Y318200D01*
X586940Y305500D02*
X576860Y305500D01*
X576860Y292800D02*
X586940Y292800D01*
X586940Y280100D02*
X576860Y280100D01*
X576860Y267400D02*
X586940Y267400D01*
X727900Y253540D02*
X727900Y243460D01*
X715200Y243460D02*
X715200Y253540D01*
X702500Y253540D02*
X702500Y243460D01*
X689800Y243460D02*
X689800Y253540D01*
X677100Y253540D02*
X677100Y243460D01*
X664400Y243460D02*
X664400Y253540D01*
X651700Y253540D02*
X651700Y243460D01*
X639000Y243460D02*
X639000Y253540D01*
X626300Y253540D02*
X626300Y243460D01*
X613600Y243460D02*
X613600Y253540D01*
X600900Y253540D02*
X600900Y243460D01*
X588200Y243460D02*
X588200Y253540D01*
X737860Y267400D02*
X747940Y267400D01*
X747940Y280100D02*
X737860Y280100D01*
X737860Y292800D02*
X747940Y292800D01*
X747940Y305500D02*
X737860Y305500D01*
X737860Y318200D02*
X747940Y318200D01*
X747940Y330900D02*
X737860Y330900D01*
X737860Y343600D02*
X747940Y343600D01*
X747940Y356300D02*
X737860Y356300D01*
X737860Y369000D02*
X747940Y369000D01*
X747940Y381700D02*
X737860Y381700D01*
D31*
X471100Y552900D03*
X471100Y547900D03*
X471100Y542900D03*
X471100Y537900D03*
X471100Y532900D03*
X471100Y527900D03*
X471100Y522900D03*
X471100Y517900D03*
X471100Y512900D03*
X471100Y507900D03*
X471100Y502900D03*
X471100Y497900D03*
X471100Y492900D03*
X471100Y487900D03*
X471100Y482900D03*
X471100Y477900D03*
D32*
X491100Y457900D03*
X496100Y457900D03*
X501100Y457900D03*
X506100Y457900D03*
X511100Y457900D03*
X516100Y457900D03*
X521100Y457900D03*
X526100Y457900D03*
X531100Y457900D03*
X536100Y457900D03*
X541100Y457900D03*
X546100Y457900D03*
X551100Y457900D03*
X556100Y457900D03*
X561100Y457900D03*
X566100Y457900D03*
D31*
X586100Y477900D03*
X586100Y482900D03*
X586100Y487900D03*
X586100Y492900D03*
X586100Y497900D03*
X586100Y502900D03*
X586100Y507900D03*
X586100Y512900D03*
X586100Y517900D03*
X586100Y522900D03*
X586100Y527900D03*
X586100Y532900D03*
X586100Y537900D03*
X586100Y542900D03*
X586100Y547900D03*
X586100Y552900D03*
D32*
X566100Y572900D03*
X561100Y572900D03*
X556100Y572900D03*
X551100Y572900D03*
X546100Y572900D03*
X541100Y572900D03*
X536100Y572900D03*
X531100Y572900D03*
X526100Y572900D03*
X521100Y572900D03*
X516100Y572900D03*
X511100Y572900D03*
X506100Y572900D03*
X501100Y572900D03*
X496100Y572900D03*
X491100Y572900D03*
D33*
X114500Y471157D03*
X127200Y471157D03*
X139900Y471157D03*
X152600Y471157D03*
X165300Y471157D03*
X178000Y471157D03*
X190700Y471157D03*
X190700Y524243D03*
X178000Y524243D03*
X165300Y524243D03*
X152600Y524243D03*
X139900Y524243D03*
X127200Y524243D03*
X114500Y524243D03*
D34*
X570350Y120353D03*
X576850Y120353D03*
X583350Y120353D03*
X589850Y120353D03*
X589850Y161247D03*
X583350Y161247D03*
X576850Y161247D03*
X570350Y161247D03*
D35*
X264881Y294750D03*
X264881Y301250D03*
X264881Y307750D03*
X264881Y314250D03*
X221320Y314250D03*
X221320Y307750D03*
X221320Y301250D03*
X221320Y294750D03*
D36*
X320894Y295850D03*
X320894Y289350D03*
X320894Y282850D03*
X320894Y276350D03*
X366106Y276350D03*
X366106Y282850D03*
X366106Y289350D03*
X366106Y295850D03*
D16*
X158700Y666600D03*
X175700Y666600D03*
X210100Y483700D03*
X210100Y466700D03*
D37*
X163264Y171700D03*
D38*
X95700Y194700D03*
D37*
X163264Y217700D03*
D17*
X276900Y144100D03*
X259900Y144100D03*
D39*
X223800Y684500D03*
X249200Y684500D03*
X223800Y659100D03*
X249200Y659100D03*
X223800Y633700D03*
X249200Y633700D03*
X223800Y608300D03*
X249200Y608300D03*
X223800Y582900D03*
X249200Y582900D03*
X223800Y557500D03*
X249200Y557500D03*
X223800Y532100D03*
X249200Y532100D03*
D17*
X569500Y433400D03*
X552500Y433400D03*
X467800Y595100D03*
X484800Y595100D03*
D40*
X125300Y746388D02*
X125300Y760612D01*
X150700Y760612D02*
X150700Y746388D01*
X176100Y746388D02*
X176100Y760612D01*
D41*
X707300Y62700D03*
X583500Y181600D03*
D42*
X221100Y254100D03*
X380600Y289300D03*
X292600Y369600D03*
D43*
X695200Y763700D03*
X654500Y638000D03*
X229900Y53900D03*
X530200Y310200D03*
X736900Y451600D03*
X511500Y50600D03*
X627830Y554700D03*
X479500Y417700D03*
X537900Y443300D03*
X500500Y611370D03*
X394900Y601700D03*
X393800Y554400D03*
X409200Y506000D03*
X685300Y523600D03*
X621000Y542900D03*
X621000Y637700D03*
D42*
X513700Y523600D03*
D43*
X550000Y638000D03*
D42*
X489500Y487900D03*
D43*
X656700Y503800D03*
X641300Y502600D03*
X641300Y530700D03*
X641480Y569800D03*
X290400Y655600D03*
X613800Y517000D03*
D42*
X600800Y528300D03*
X568700Y527400D03*
X559200Y537900D03*
X550900Y517900D03*
D43*
X127600Y489354D03*
X73100Y534100D03*
X96800Y420200D03*
X188300Y444900D03*
X96800Y603900D03*
X165300Y550300D03*
X641000Y541600D03*
M02*
