G04 EAGLE Gerber RS-274X export*
G75*
%MOMM*%
%FSLAX34Y34*%
%LPD*%
%INSolderpaste Top*%
%IPPOS*%
%AMOC8*
5,1,8,0,0,1.08239X$1,22.5*%
G01*
%ADD10R,2.000000X5.500000*%
%ADD11R,5.500000X1.000000*%
%ADD12R,3.000000X1.600000*%
%ADD13R,1.803000X1.600000*%
%ADD14R,1.550000X1.300000*%
%ADD15R,1.000000X1.100000*%
%ADD16R,1.100000X1.000000*%
%ADD17R,0.450800X1.111200*%
%ADD18R,1.600000X1.200000*%
%ADD19R,0.304800X2.489200*%
%ADD20R,2.489200X0.304800*%
%ADD21R,2.200000X1.600000*%
%ADD22C,0.150000*%
%ADD23R,1.900000X1.300000*%
%ADD24R,1.193800X0.304800*%
%ADD25R,0.304800X1.193800*%
%ADD26R,0.533400X2.006600*%
%ADD27R,0.457200X1.524000*%
%ADD28R,1.257300X0.457200*%
%ADD29R,1.244600X0.355600*%
%ADD30R,1.701800X0.711200*%
%ADD31R,6.223000X6.553200*%


D10*
X367800Y467300D03*
X367800Y562300D03*
D11*
X723000Y118200D03*
X723000Y98200D03*
X723000Y78200D03*
D12*
X745500Y54200D03*
X745500Y142200D03*
D13*
X529800Y353020D03*
X529800Y324580D03*
D14*
X734950Y718700D03*
X655450Y718700D03*
X734950Y763700D03*
X655450Y763700D03*
D15*
X409900Y588100D03*
X409900Y571100D03*
D16*
X253800Y369600D03*
X270800Y369600D03*
X330500Y369600D03*
X313500Y369600D03*
X113600Y587200D03*
X96600Y587200D03*
X113900Y618000D03*
X96900Y618000D03*
X156200Y444900D03*
X173200Y444900D03*
X280300Y53700D03*
X263300Y53700D03*
D15*
X490600Y78200D03*
X490600Y61200D03*
X409700Y554800D03*
X409700Y537800D03*
X654000Y173900D03*
X654000Y190900D03*
D16*
X192300Y88300D03*
X209300Y88300D03*
X192400Y116800D03*
X209400Y116800D03*
X192700Y144000D03*
X209700Y144000D03*
X117700Y421500D03*
X134700Y421500D03*
X118200Y445200D03*
X135200Y445200D03*
D15*
X462500Y78200D03*
X462500Y61200D03*
D16*
X721800Y426600D03*
X704800Y426600D03*
X721200Y451600D03*
X704200Y451600D03*
D15*
X433900Y78200D03*
X433900Y61200D03*
X63600Y477800D03*
X63600Y494800D03*
X438600Y537600D03*
X438600Y554600D03*
X439300Y522900D03*
X439300Y505900D03*
X608300Y571700D03*
X608300Y554700D03*
D16*
X496600Y434300D03*
X479600Y434300D03*
D15*
X654700Y677300D03*
X654700Y660300D03*
X439800Y471900D03*
X439800Y488900D03*
D17*
X378400Y171500D03*
X378400Y148500D03*
D15*
X88500Y495200D03*
X88500Y478200D03*
D18*
X440200Y422900D03*
X440200Y452900D03*
D19*
X161100Y101100D03*
X101800Y101100D03*
D20*
X131450Y54600D03*
D21*
X59600Y423400D03*
X59600Y451400D03*
D13*
X653800Y112880D03*
X653800Y141320D03*
D22*
X454200Y125300D02*
X454200Y110200D01*
X449700Y110200D01*
X449700Y125300D01*
X454200Y125300D01*
X454200Y111625D02*
X449700Y111625D01*
X449700Y113050D02*
X454200Y113050D01*
X454200Y114475D02*
X449700Y114475D01*
X449700Y115900D02*
X454200Y115900D01*
X454200Y117325D02*
X449700Y117325D01*
X449700Y118750D02*
X454200Y118750D01*
X454200Y120175D02*
X449700Y120175D01*
X449700Y121600D02*
X454200Y121600D01*
X454200Y123025D02*
X449700Y123025D01*
X449700Y124450D02*
X454200Y124450D01*
X466900Y125300D02*
X466900Y110200D01*
X462400Y110200D01*
X462400Y125300D01*
X466900Y125300D01*
X466900Y111625D02*
X462400Y111625D01*
X462400Y113050D02*
X466900Y113050D01*
X466900Y114475D02*
X462400Y114475D01*
X462400Y115900D02*
X466900Y115900D01*
X466900Y117325D02*
X462400Y117325D01*
X462400Y118750D02*
X466900Y118750D01*
X466900Y120175D02*
X462400Y120175D01*
X462400Y121600D02*
X466900Y121600D01*
X466900Y123025D02*
X462400Y123025D01*
X462400Y124450D02*
X466900Y124450D01*
X479600Y125300D02*
X479600Y110200D01*
X475100Y110200D01*
X475100Y125300D01*
X479600Y125300D01*
X479600Y111625D02*
X475100Y111625D01*
X475100Y113050D02*
X479600Y113050D01*
X479600Y114475D02*
X475100Y114475D01*
X475100Y115900D02*
X479600Y115900D01*
X479600Y117325D02*
X475100Y117325D01*
X475100Y118750D02*
X479600Y118750D01*
X479600Y120175D02*
X475100Y120175D01*
X475100Y121600D02*
X479600Y121600D01*
X479600Y123025D02*
X475100Y123025D01*
X475100Y124450D02*
X479600Y124450D01*
X492300Y125300D02*
X492300Y110200D01*
X487800Y110200D01*
X487800Y125300D01*
X492300Y125300D01*
X492300Y111625D02*
X487800Y111625D01*
X487800Y113050D02*
X492300Y113050D01*
X492300Y114475D02*
X487800Y114475D01*
X487800Y115900D02*
X492300Y115900D01*
X492300Y117325D02*
X487800Y117325D01*
X487800Y118750D02*
X492300Y118750D01*
X492300Y120175D02*
X487800Y120175D01*
X487800Y121600D02*
X492300Y121600D01*
X492300Y123025D02*
X487800Y123025D01*
X487800Y124450D02*
X492300Y124450D01*
X492300Y162700D02*
X492300Y177800D01*
X492300Y162700D02*
X487800Y162700D01*
X487800Y177800D01*
X492300Y177800D01*
X492300Y164125D02*
X487800Y164125D01*
X487800Y165550D02*
X492300Y165550D01*
X492300Y166975D02*
X487800Y166975D01*
X487800Y168400D02*
X492300Y168400D01*
X492300Y169825D02*
X487800Y169825D01*
X487800Y171250D02*
X492300Y171250D01*
X492300Y172675D02*
X487800Y172675D01*
X487800Y174100D02*
X492300Y174100D01*
X492300Y175525D02*
X487800Y175525D01*
X487800Y176950D02*
X492300Y176950D01*
X479600Y177800D02*
X479600Y162700D01*
X475100Y162700D01*
X475100Y177800D01*
X479600Y177800D01*
X479600Y164125D02*
X475100Y164125D01*
X475100Y165550D02*
X479600Y165550D01*
X479600Y166975D02*
X475100Y166975D01*
X475100Y168400D02*
X479600Y168400D01*
X479600Y169825D02*
X475100Y169825D01*
X475100Y171250D02*
X479600Y171250D01*
X479600Y172675D02*
X475100Y172675D01*
X475100Y174100D02*
X479600Y174100D01*
X479600Y175525D02*
X475100Y175525D01*
X475100Y176950D02*
X479600Y176950D01*
X466900Y177800D02*
X466900Y162700D01*
X462400Y162700D01*
X462400Y177800D01*
X466900Y177800D01*
X466900Y164125D02*
X462400Y164125D01*
X462400Y165550D02*
X466900Y165550D01*
X466900Y166975D02*
X462400Y166975D01*
X462400Y168400D02*
X466900Y168400D01*
X466900Y169825D02*
X462400Y169825D01*
X462400Y171250D02*
X466900Y171250D01*
X466900Y172675D02*
X462400Y172675D01*
X462400Y174100D02*
X466900Y174100D01*
X466900Y175525D02*
X462400Y175525D01*
X462400Y176950D02*
X466900Y176950D01*
X454200Y177800D02*
X454200Y162700D01*
X449700Y162700D01*
X449700Y177800D01*
X454200Y177800D01*
X454200Y164125D02*
X449700Y164125D01*
X449700Y165550D02*
X454200Y165550D01*
X454200Y166975D02*
X449700Y166975D01*
X449700Y168400D02*
X454200Y168400D01*
X454200Y169825D02*
X449700Y169825D01*
X449700Y171250D02*
X454200Y171250D01*
X454200Y172675D02*
X449700Y172675D01*
X449700Y174100D02*
X454200Y174100D01*
X454200Y175525D02*
X449700Y175525D01*
X449700Y176950D02*
X454200Y176950D01*
X487400Y243600D02*
X487400Y258700D01*
X491900Y258700D01*
X491900Y243600D01*
X487400Y243600D01*
X487400Y245025D02*
X491900Y245025D01*
X491900Y246450D02*
X487400Y246450D01*
X487400Y247875D02*
X491900Y247875D01*
X491900Y249300D02*
X487400Y249300D01*
X487400Y250725D02*
X491900Y250725D01*
X491900Y252150D02*
X487400Y252150D01*
X487400Y253575D02*
X491900Y253575D01*
X491900Y255000D02*
X487400Y255000D01*
X487400Y256425D02*
X491900Y256425D01*
X491900Y257850D02*
X487400Y257850D01*
X474700Y258700D02*
X474700Y243600D01*
X474700Y258700D02*
X479200Y258700D01*
X479200Y243600D01*
X474700Y243600D01*
X474700Y245025D02*
X479200Y245025D01*
X479200Y246450D02*
X474700Y246450D01*
X474700Y247875D02*
X479200Y247875D01*
X479200Y249300D02*
X474700Y249300D01*
X474700Y250725D02*
X479200Y250725D01*
X479200Y252150D02*
X474700Y252150D01*
X474700Y253575D02*
X479200Y253575D01*
X479200Y255000D02*
X474700Y255000D01*
X474700Y256425D02*
X479200Y256425D01*
X479200Y257850D02*
X474700Y257850D01*
X462000Y258700D02*
X462000Y243600D01*
X462000Y258700D02*
X466500Y258700D01*
X466500Y243600D01*
X462000Y243600D01*
X462000Y245025D02*
X466500Y245025D01*
X466500Y246450D02*
X462000Y246450D01*
X462000Y247875D02*
X466500Y247875D01*
X466500Y249300D02*
X462000Y249300D01*
X462000Y250725D02*
X466500Y250725D01*
X466500Y252150D02*
X462000Y252150D01*
X462000Y253575D02*
X466500Y253575D01*
X466500Y255000D02*
X462000Y255000D01*
X462000Y256425D02*
X466500Y256425D01*
X466500Y257850D02*
X462000Y257850D01*
X449300Y258700D02*
X449300Y243600D01*
X449300Y258700D02*
X453800Y258700D01*
X453800Y243600D01*
X449300Y243600D01*
X449300Y245025D02*
X453800Y245025D01*
X453800Y246450D02*
X449300Y246450D01*
X449300Y247875D02*
X453800Y247875D01*
X453800Y249300D02*
X449300Y249300D01*
X449300Y250725D02*
X453800Y250725D01*
X453800Y252150D02*
X449300Y252150D01*
X449300Y253575D02*
X453800Y253575D01*
X453800Y255000D02*
X449300Y255000D01*
X449300Y256425D02*
X453800Y256425D01*
X453800Y257850D02*
X449300Y257850D01*
X449300Y206200D02*
X449300Y191100D01*
X449300Y206200D02*
X453800Y206200D01*
X453800Y191100D01*
X449300Y191100D01*
X449300Y192525D02*
X453800Y192525D01*
X453800Y193950D02*
X449300Y193950D01*
X449300Y195375D02*
X453800Y195375D01*
X453800Y196800D02*
X449300Y196800D01*
X449300Y198225D02*
X453800Y198225D01*
X453800Y199650D02*
X449300Y199650D01*
X449300Y201075D02*
X453800Y201075D01*
X453800Y202500D02*
X449300Y202500D01*
X449300Y203925D02*
X453800Y203925D01*
X453800Y205350D02*
X449300Y205350D01*
X462000Y206200D02*
X462000Y191100D01*
X462000Y206200D02*
X466500Y206200D01*
X466500Y191100D01*
X462000Y191100D01*
X462000Y192525D02*
X466500Y192525D01*
X466500Y193950D02*
X462000Y193950D01*
X462000Y195375D02*
X466500Y195375D01*
X466500Y196800D02*
X462000Y196800D01*
X462000Y198225D02*
X466500Y198225D01*
X466500Y199650D02*
X462000Y199650D01*
X462000Y201075D02*
X466500Y201075D01*
X466500Y202500D02*
X462000Y202500D01*
X462000Y203925D02*
X466500Y203925D01*
X466500Y205350D02*
X462000Y205350D01*
X474700Y206200D02*
X474700Y191100D01*
X474700Y206200D02*
X479200Y206200D01*
X479200Y191100D01*
X474700Y191100D01*
X474700Y192525D02*
X479200Y192525D01*
X479200Y193950D02*
X474700Y193950D01*
X474700Y195375D02*
X479200Y195375D01*
X479200Y196800D02*
X474700Y196800D01*
X474700Y198225D02*
X479200Y198225D01*
X479200Y199650D02*
X474700Y199650D01*
X474700Y201075D02*
X479200Y201075D01*
X479200Y202500D02*
X474700Y202500D01*
X474700Y203925D02*
X479200Y203925D01*
X479200Y205350D02*
X474700Y205350D01*
X487400Y206200D02*
X487400Y191100D01*
X487400Y206200D02*
X491900Y206200D01*
X491900Y191100D01*
X487400Y191100D01*
X487400Y192525D02*
X491900Y192525D01*
X491900Y193950D02*
X487400Y193950D01*
X487400Y195375D02*
X491900Y195375D01*
X491900Y196800D02*
X487400Y196800D01*
X487400Y198225D02*
X491900Y198225D01*
X491900Y199650D02*
X487400Y199650D01*
X487400Y201075D02*
X491900Y201075D01*
X491900Y202500D02*
X487400Y202500D01*
X487400Y203925D02*
X491900Y203925D01*
X491900Y205350D02*
X487400Y205350D01*
D16*
X530800Y386600D03*
X530800Y403600D03*
D15*
X705700Y618100D03*
X722700Y618100D03*
X705500Y578500D03*
X722500Y578500D03*
X705300Y503700D03*
X722300Y503700D03*
X705100Y538900D03*
X722100Y538900D03*
X705900Y660700D03*
X722900Y660700D03*
X605600Y434100D03*
X622600Y434100D03*
X270700Y338600D03*
X253700Y338600D03*
D16*
X604600Y76900D03*
X604600Y59900D03*
X549800Y660100D03*
X549800Y677100D03*
X653800Y59800D03*
X653800Y76800D03*
X553900Y59800D03*
X553900Y76800D03*
X530600Y203700D03*
X530600Y220700D03*
X530600Y269500D03*
X530600Y286500D03*
D15*
X159300Y593600D03*
X176300Y593600D03*
X159100Y629900D03*
X176100Y629900D03*
X330900Y337500D03*
X313900Y337500D03*
D16*
X88700Y453800D03*
X88700Y436800D03*
X478400Y676900D03*
X478400Y659900D03*
X621000Y676800D03*
X621000Y659800D03*
X513800Y676900D03*
X513800Y659900D03*
X585200Y676900D03*
X585200Y659900D03*
X401300Y61200D03*
X401300Y78200D03*
D15*
X500600Y595000D03*
X517600Y595000D03*
D16*
X409300Y471800D03*
X409300Y488800D03*
D23*
X399700Y622400D03*
X399700Y677400D03*
X367700Y677400D03*
X367700Y622400D03*
D15*
X96600Y557600D03*
X113600Y557600D03*
D24*
X471100Y552900D03*
X471100Y547900D03*
X471100Y542900D03*
X471100Y537900D03*
X471100Y532900D03*
X471100Y527900D03*
X471100Y522900D03*
X471100Y517900D03*
X471100Y512900D03*
X471100Y507900D03*
X471100Y502900D03*
X471100Y497900D03*
X471100Y492900D03*
X471100Y487900D03*
X471100Y482900D03*
X471100Y477900D03*
D25*
X491100Y457900D03*
X496100Y457900D03*
X501100Y457900D03*
X506100Y457900D03*
X511100Y457900D03*
X516100Y457900D03*
X521100Y457900D03*
X526100Y457900D03*
X531100Y457900D03*
X536100Y457900D03*
X541100Y457900D03*
X546100Y457900D03*
X551100Y457900D03*
X556100Y457900D03*
X561100Y457900D03*
X566100Y457900D03*
D24*
X586100Y477900D03*
X586100Y482900D03*
X586100Y487900D03*
X586100Y492900D03*
X586100Y497900D03*
X586100Y502900D03*
X586100Y507900D03*
X586100Y512900D03*
X586100Y517900D03*
X586100Y522900D03*
X586100Y527900D03*
X586100Y532900D03*
X586100Y537900D03*
X586100Y542900D03*
X586100Y547900D03*
X586100Y552900D03*
D25*
X566100Y572900D03*
X561100Y572900D03*
X556100Y572900D03*
X551100Y572900D03*
X546100Y572900D03*
X541100Y572900D03*
X536100Y572900D03*
X531100Y572900D03*
X526100Y572900D03*
X521100Y572900D03*
X516100Y572900D03*
X511100Y572900D03*
X506100Y572900D03*
X501100Y572900D03*
X496100Y572900D03*
X491100Y572900D03*
D26*
X114500Y471157D03*
X127200Y471157D03*
X139900Y471157D03*
X152600Y471157D03*
X165300Y471157D03*
X178000Y471157D03*
X190700Y471157D03*
X190700Y524243D03*
X178000Y524243D03*
X165300Y524243D03*
X152600Y524243D03*
X139900Y524243D03*
X127200Y524243D03*
X114500Y524243D03*
D27*
X570350Y120353D03*
X576850Y120353D03*
X583350Y120353D03*
X589850Y120353D03*
X589850Y161247D03*
X583350Y161247D03*
X576850Y161247D03*
X570350Y161247D03*
D28*
X264881Y294750D03*
X264881Y301250D03*
X264881Y307750D03*
X264881Y314250D03*
X221320Y314250D03*
X221320Y307750D03*
X221320Y301250D03*
X221320Y294750D03*
D29*
X320894Y295850D03*
X320894Y289350D03*
X320894Y282850D03*
X320894Y276350D03*
X366106Y276350D03*
X366106Y282850D03*
X366106Y289350D03*
X366106Y295850D03*
D15*
X158700Y666600D03*
X175700Y666600D03*
X210100Y483700D03*
X210100Y466700D03*
D30*
X163264Y171700D03*
D31*
X95700Y194700D03*
D30*
X163264Y217700D03*
D16*
X276900Y144100D03*
X259900Y144100D03*
X569500Y433400D03*
X552500Y433400D03*
X467800Y595100D03*
X484800Y595100D03*
M02*
