M48
;GenerationSoftware,Autodesk,EAGLE,9.6.2*%
;CreationDate,2021-11-15T03:52:16Z*%
FMAT,2
ICI,OFF
METRIC,TZ,000.000
T8C0.350
T7C0.500
T6C0.800
T5C0.914
T4C1.000
T3C1.016
T2C1.143
T1C1.400
%
G90
M71
T1
X10960Y30450
X10960Y35530
X3340Y35530
X3340Y30450
T2
X32610Y6310
X32610Y18400
T3
X48110Y75740
X50650Y75740
X53190Y75740
X55730Y75740
X58270Y75740
X60810Y75740
T4
X2010Y78000
X78000Y78000
X78000Y2000
X2000Y2010
T5
X17610Y75350
X22380Y60830
X15070Y75350
X12530Y75350
X24920Y63370
X24920Y53210
X22380Y63370
X22380Y53210
X24920Y55750
X22380Y55750
X24920Y58290
X22380Y58290
X24920Y60830
X24920Y65910
X24920Y68450
X22380Y68450
X22380Y65910
T6
X58350Y18160
X70730Y6270
T7
X22110Y25410
X38060Y28930
X29260Y36960
X61360Y24850
X58820Y24850
X74290Y26740
X74290Y28010
X74290Y29280
X74290Y30550
X74290Y31820
X74290Y33090
X74290Y34360
X74290Y35630
X74290Y36900
X74290Y38170
X60090Y24850
X51370Y52360
X48950Y48790
X60080Y52830
X56870Y52740
X55920Y53790
X55090Y51790
X72790Y40070
X71520Y40070
X70250Y40070
X68980Y40070
X67710Y40070
X66440Y40070
X65170Y40070
X63900Y40070
X62630Y40070
X61360Y40070
X60090Y40070
X58820Y40070
X58190Y38170
X58190Y36900
X58190Y35630
X58190Y34360
X58190Y33090
X58190Y31820
X58190Y30550
X58190Y29280
X58190Y28010
X58190Y26740
X72790Y24850
X71520Y24850
X70250Y24850
X68980Y24850
X67710Y24850
X66440Y24850
X65170Y24850
X63900Y24850
X62630Y24850
T8
X69520Y76370
X65450Y63800
X22990Y5390
X53020Y31020
X73690Y45160
X51150Y5060
X62783Y55470
X47950Y41770
X53790Y44330
X39490Y60170
X39380Y55440
X40920Y50600
X68530Y52360
X16530Y55030
X9680Y60390
X50050Y61137
X18830Y44490
X9680Y42020
X7310Y53410
X12760Y48935
X61380Y51700
X29040Y65560
X64148Y56980
X64130Y53070
X64130Y50260
X65670Y50380
X55000Y63800
X62100Y63770
X62100Y54290
X64100Y54160
M30