G75*
%MOIN*%
%OFA0B0*%
%FSLAX25Y25*%
%IPPOS*%
%LPD*%
%AMOC8*
5,1,8,0,0,1.08239X$1,22.5*
%
%ADD10C,0.00000*%
%ADD11C,0.00600*%
%ADD12C,0.00400*%
%ADD13C,0.00500*%
%ADD14C,0.00787*%
D10*
X0023185Y0023185D02*
X0023185Y0338146D01*
X0338146Y0338146D01*
X0338146Y0023185D01*
X0023185Y0023185D01*
X0029090Y0031098D02*
X0029092Y0031186D01*
X0029098Y0031274D01*
X0029108Y0031362D01*
X0029122Y0031450D01*
X0029139Y0031536D01*
X0029161Y0031622D01*
X0029186Y0031706D01*
X0029216Y0031790D01*
X0029248Y0031872D01*
X0029285Y0031952D01*
X0029325Y0032031D01*
X0029369Y0032108D01*
X0029416Y0032183D01*
X0029466Y0032255D01*
X0029520Y0032326D01*
X0029576Y0032393D01*
X0029636Y0032459D01*
X0029698Y0032521D01*
X0029764Y0032581D01*
X0029831Y0032637D01*
X0029902Y0032691D01*
X0029974Y0032741D01*
X0030049Y0032788D01*
X0030126Y0032832D01*
X0030205Y0032872D01*
X0030285Y0032909D01*
X0030367Y0032941D01*
X0030451Y0032971D01*
X0030535Y0032996D01*
X0030621Y0033018D01*
X0030707Y0033035D01*
X0030795Y0033049D01*
X0030883Y0033059D01*
X0030971Y0033065D01*
X0031059Y0033067D01*
X0031147Y0033065D01*
X0031235Y0033059D01*
X0031323Y0033049D01*
X0031411Y0033035D01*
X0031497Y0033018D01*
X0031583Y0032996D01*
X0031667Y0032971D01*
X0031751Y0032941D01*
X0031833Y0032909D01*
X0031913Y0032872D01*
X0031992Y0032832D01*
X0032069Y0032788D01*
X0032144Y0032741D01*
X0032216Y0032691D01*
X0032287Y0032637D01*
X0032354Y0032581D01*
X0032420Y0032521D01*
X0032482Y0032459D01*
X0032542Y0032393D01*
X0032598Y0032326D01*
X0032652Y0032255D01*
X0032702Y0032183D01*
X0032749Y0032108D01*
X0032793Y0032031D01*
X0032833Y0031952D01*
X0032870Y0031872D01*
X0032902Y0031790D01*
X0032932Y0031706D01*
X0032957Y0031622D01*
X0032979Y0031536D01*
X0032996Y0031450D01*
X0033010Y0031362D01*
X0033020Y0031274D01*
X0033026Y0031186D01*
X0033028Y0031098D01*
X0033026Y0031010D01*
X0033020Y0030922D01*
X0033010Y0030834D01*
X0032996Y0030746D01*
X0032979Y0030660D01*
X0032957Y0030574D01*
X0032932Y0030490D01*
X0032902Y0030406D01*
X0032870Y0030324D01*
X0032833Y0030244D01*
X0032793Y0030165D01*
X0032749Y0030088D01*
X0032702Y0030013D01*
X0032652Y0029941D01*
X0032598Y0029870D01*
X0032542Y0029803D01*
X0032482Y0029737D01*
X0032420Y0029675D01*
X0032354Y0029615D01*
X0032287Y0029559D01*
X0032216Y0029505D01*
X0032144Y0029455D01*
X0032069Y0029408D01*
X0031992Y0029364D01*
X0031913Y0029324D01*
X0031833Y0029287D01*
X0031751Y0029255D01*
X0031667Y0029225D01*
X0031583Y0029200D01*
X0031497Y0029178D01*
X0031411Y0029161D01*
X0031323Y0029147D01*
X0031235Y0029137D01*
X0031147Y0029131D01*
X0031059Y0029129D01*
X0030971Y0029131D01*
X0030883Y0029137D01*
X0030795Y0029147D01*
X0030707Y0029161D01*
X0030621Y0029178D01*
X0030535Y0029200D01*
X0030451Y0029225D01*
X0030367Y0029255D01*
X0030285Y0029287D01*
X0030205Y0029324D01*
X0030126Y0029364D01*
X0030049Y0029408D01*
X0029974Y0029455D01*
X0029902Y0029505D01*
X0029831Y0029559D01*
X0029764Y0029615D01*
X0029698Y0029675D01*
X0029636Y0029737D01*
X0029576Y0029803D01*
X0029520Y0029870D01*
X0029466Y0029941D01*
X0029416Y0030013D01*
X0029369Y0030088D01*
X0029325Y0030165D01*
X0029285Y0030244D01*
X0029248Y0030324D01*
X0029216Y0030406D01*
X0029186Y0030490D01*
X0029161Y0030574D01*
X0029139Y0030660D01*
X0029122Y0030746D01*
X0029108Y0030834D01*
X0029098Y0030922D01*
X0029092Y0031010D01*
X0029090Y0031098D01*
X0029129Y0330272D02*
X0029131Y0330360D01*
X0029137Y0330448D01*
X0029147Y0330536D01*
X0029161Y0330624D01*
X0029178Y0330710D01*
X0029200Y0330796D01*
X0029225Y0330880D01*
X0029255Y0330964D01*
X0029287Y0331046D01*
X0029324Y0331126D01*
X0029364Y0331205D01*
X0029408Y0331282D01*
X0029455Y0331357D01*
X0029505Y0331429D01*
X0029559Y0331500D01*
X0029615Y0331567D01*
X0029675Y0331633D01*
X0029737Y0331695D01*
X0029803Y0331755D01*
X0029870Y0331811D01*
X0029941Y0331865D01*
X0030013Y0331915D01*
X0030088Y0331962D01*
X0030165Y0332006D01*
X0030244Y0332046D01*
X0030324Y0332083D01*
X0030406Y0332115D01*
X0030490Y0332145D01*
X0030574Y0332170D01*
X0030660Y0332192D01*
X0030746Y0332209D01*
X0030834Y0332223D01*
X0030922Y0332233D01*
X0031010Y0332239D01*
X0031098Y0332241D01*
X0031186Y0332239D01*
X0031274Y0332233D01*
X0031362Y0332223D01*
X0031450Y0332209D01*
X0031536Y0332192D01*
X0031622Y0332170D01*
X0031706Y0332145D01*
X0031790Y0332115D01*
X0031872Y0332083D01*
X0031952Y0332046D01*
X0032031Y0332006D01*
X0032108Y0331962D01*
X0032183Y0331915D01*
X0032255Y0331865D01*
X0032326Y0331811D01*
X0032393Y0331755D01*
X0032459Y0331695D01*
X0032521Y0331633D01*
X0032581Y0331567D01*
X0032637Y0331500D01*
X0032691Y0331429D01*
X0032741Y0331357D01*
X0032788Y0331282D01*
X0032832Y0331205D01*
X0032872Y0331126D01*
X0032909Y0331046D01*
X0032941Y0330964D01*
X0032971Y0330880D01*
X0032996Y0330796D01*
X0033018Y0330710D01*
X0033035Y0330624D01*
X0033049Y0330536D01*
X0033059Y0330448D01*
X0033065Y0330360D01*
X0033067Y0330272D01*
X0033065Y0330184D01*
X0033059Y0330096D01*
X0033049Y0330008D01*
X0033035Y0329920D01*
X0033018Y0329834D01*
X0032996Y0329748D01*
X0032971Y0329664D01*
X0032941Y0329580D01*
X0032909Y0329498D01*
X0032872Y0329418D01*
X0032832Y0329339D01*
X0032788Y0329262D01*
X0032741Y0329187D01*
X0032691Y0329115D01*
X0032637Y0329044D01*
X0032581Y0328977D01*
X0032521Y0328911D01*
X0032459Y0328849D01*
X0032393Y0328789D01*
X0032326Y0328733D01*
X0032255Y0328679D01*
X0032183Y0328629D01*
X0032108Y0328582D01*
X0032031Y0328538D01*
X0031952Y0328498D01*
X0031872Y0328461D01*
X0031790Y0328429D01*
X0031706Y0328399D01*
X0031622Y0328374D01*
X0031536Y0328352D01*
X0031450Y0328335D01*
X0031362Y0328321D01*
X0031274Y0328311D01*
X0031186Y0328305D01*
X0031098Y0328303D01*
X0031010Y0328305D01*
X0030922Y0328311D01*
X0030834Y0328321D01*
X0030746Y0328335D01*
X0030660Y0328352D01*
X0030574Y0328374D01*
X0030490Y0328399D01*
X0030406Y0328429D01*
X0030324Y0328461D01*
X0030244Y0328498D01*
X0030165Y0328538D01*
X0030088Y0328582D01*
X0030013Y0328629D01*
X0029941Y0328679D01*
X0029870Y0328733D01*
X0029803Y0328789D01*
X0029737Y0328849D01*
X0029675Y0328911D01*
X0029615Y0328977D01*
X0029559Y0329044D01*
X0029505Y0329115D01*
X0029455Y0329187D01*
X0029408Y0329262D01*
X0029364Y0329339D01*
X0029324Y0329418D01*
X0029287Y0329498D01*
X0029255Y0329580D01*
X0029225Y0329664D01*
X0029200Y0329748D01*
X0029178Y0329834D01*
X0029161Y0329920D01*
X0029147Y0330008D01*
X0029137Y0330096D01*
X0029131Y0330184D01*
X0029129Y0330272D01*
X0328303Y0330272D02*
X0328305Y0330360D01*
X0328311Y0330448D01*
X0328321Y0330536D01*
X0328335Y0330624D01*
X0328352Y0330710D01*
X0328374Y0330796D01*
X0328399Y0330880D01*
X0328429Y0330964D01*
X0328461Y0331046D01*
X0328498Y0331126D01*
X0328538Y0331205D01*
X0328582Y0331282D01*
X0328629Y0331357D01*
X0328679Y0331429D01*
X0328733Y0331500D01*
X0328789Y0331567D01*
X0328849Y0331633D01*
X0328911Y0331695D01*
X0328977Y0331755D01*
X0329044Y0331811D01*
X0329115Y0331865D01*
X0329187Y0331915D01*
X0329262Y0331962D01*
X0329339Y0332006D01*
X0329418Y0332046D01*
X0329498Y0332083D01*
X0329580Y0332115D01*
X0329664Y0332145D01*
X0329748Y0332170D01*
X0329834Y0332192D01*
X0329920Y0332209D01*
X0330008Y0332223D01*
X0330096Y0332233D01*
X0330184Y0332239D01*
X0330272Y0332241D01*
X0330360Y0332239D01*
X0330448Y0332233D01*
X0330536Y0332223D01*
X0330624Y0332209D01*
X0330710Y0332192D01*
X0330796Y0332170D01*
X0330880Y0332145D01*
X0330964Y0332115D01*
X0331046Y0332083D01*
X0331126Y0332046D01*
X0331205Y0332006D01*
X0331282Y0331962D01*
X0331357Y0331915D01*
X0331429Y0331865D01*
X0331500Y0331811D01*
X0331567Y0331755D01*
X0331633Y0331695D01*
X0331695Y0331633D01*
X0331755Y0331567D01*
X0331811Y0331500D01*
X0331865Y0331429D01*
X0331915Y0331357D01*
X0331962Y0331282D01*
X0332006Y0331205D01*
X0332046Y0331126D01*
X0332083Y0331046D01*
X0332115Y0330964D01*
X0332145Y0330880D01*
X0332170Y0330796D01*
X0332192Y0330710D01*
X0332209Y0330624D01*
X0332223Y0330536D01*
X0332233Y0330448D01*
X0332239Y0330360D01*
X0332241Y0330272D01*
X0332239Y0330184D01*
X0332233Y0330096D01*
X0332223Y0330008D01*
X0332209Y0329920D01*
X0332192Y0329834D01*
X0332170Y0329748D01*
X0332145Y0329664D01*
X0332115Y0329580D01*
X0332083Y0329498D01*
X0332046Y0329418D01*
X0332006Y0329339D01*
X0331962Y0329262D01*
X0331915Y0329187D01*
X0331865Y0329115D01*
X0331811Y0329044D01*
X0331755Y0328977D01*
X0331695Y0328911D01*
X0331633Y0328849D01*
X0331567Y0328789D01*
X0331500Y0328733D01*
X0331429Y0328679D01*
X0331357Y0328629D01*
X0331282Y0328582D01*
X0331205Y0328538D01*
X0331126Y0328498D01*
X0331046Y0328461D01*
X0330964Y0328429D01*
X0330880Y0328399D01*
X0330796Y0328374D01*
X0330710Y0328352D01*
X0330624Y0328335D01*
X0330536Y0328321D01*
X0330448Y0328311D01*
X0330360Y0328305D01*
X0330272Y0328303D01*
X0330184Y0328305D01*
X0330096Y0328311D01*
X0330008Y0328321D01*
X0329920Y0328335D01*
X0329834Y0328352D01*
X0329748Y0328374D01*
X0329664Y0328399D01*
X0329580Y0328429D01*
X0329498Y0328461D01*
X0329418Y0328498D01*
X0329339Y0328538D01*
X0329262Y0328582D01*
X0329187Y0328629D01*
X0329115Y0328679D01*
X0329044Y0328733D01*
X0328977Y0328789D01*
X0328911Y0328849D01*
X0328849Y0328911D01*
X0328789Y0328977D01*
X0328733Y0329044D01*
X0328679Y0329115D01*
X0328629Y0329187D01*
X0328582Y0329262D01*
X0328538Y0329339D01*
X0328498Y0329418D01*
X0328461Y0329498D01*
X0328429Y0329580D01*
X0328399Y0329664D01*
X0328374Y0329748D01*
X0328352Y0329834D01*
X0328335Y0329920D01*
X0328321Y0330008D01*
X0328311Y0330096D01*
X0328305Y0330184D01*
X0328303Y0330272D01*
X0328303Y0031059D02*
X0328305Y0031147D01*
X0328311Y0031235D01*
X0328321Y0031323D01*
X0328335Y0031411D01*
X0328352Y0031497D01*
X0328374Y0031583D01*
X0328399Y0031667D01*
X0328429Y0031751D01*
X0328461Y0031833D01*
X0328498Y0031913D01*
X0328538Y0031992D01*
X0328582Y0032069D01*
X0328629Y0032144D01*
X0328679Y0032216D01*
X0328733Y0032287D01*
X0328789Y0032354D01*
X0328849Y0032420D01*
X0328911Y0032482D01*
X0328977Y0032542D01*
X0329044Y0032598D01*
X0329115Y0032652D01*
X0329187Y0032702D01*
X0329262Y0032749D01*
X0329339Y0032793D01*
X0329418Y0032833D01*
X0329498Y0032870D01*
X0329580Y0032902D01*
X0329664Y0032932D01*
X0329748Y0032957D01*
X0329834Y0032979D01*
X0329920Y0032996D01*
X0330008Y0033010D01*
X0330096Y0033020D01*
X0330184Y0033026D01*
X0330272Y0033028D01*
X0330360Y0033026D01*
X0330448Y0033020D01*
X0330536Y0033010D01*
X0330624Y0032996D01*
X0330710Y0032979D01*
X0330796Y0032957D01*
X0330880Y0032932D01*
X0330964Y0032902D01*
X0331046Y0032870D01*
X0331126Y0032833D01*
X0331205Y0032793D01*
X0331282Y0032749D01*
X0331357Y0032702D01*
X0331429Y0032652D01*
X0331500Y0032598D01*
X0331567Y0032542D01*
X0331633Y0032482D01*
X0331695Y0032420D01*
X0331755Y0032354D01*
X0331811Y0032287D01*
X0331865Y0032216D01*
X0331915Y0032144D01*
X0331962Y0032069D01*
X0332006Y0031992D01*
X0332046Y0031913D01*
X0332083Y0031833D01*
X0332115Y0031751D01*
X0332145Y0031667D01*
X0332170Y0031583D01*
X0332192Y0031497D01*
X0332209Y0031411D01*
X0332223Y0031323D01*
X0332233Y0031235D01*
X0332239Y0031147D01*
X0332241Y0031059D01*
X0332239Y0030971D01*
X0332233Y0030883D01*
X0332223Y0030795D01*
X0332209Y0030707D01*
X0332192Y0030621D01*
X0332170Y0030535D01*
X0332145Y0030451D01*
X0332115Y0030367D01*
X0332083Y0030285D01*
X0332046Y0030205D01*
X0332006Y0030126D01*
X0331962Y0030049D01*
X0331915Y0029974D01*
X0331865Y0029902D01*
X0331811Y0029831D01*
X0331755Y0029764D01*
X0331695Y0029698D01*
X0331633Y0029636D01*
X0331567Y0029576D01*
X0331500Y0029520D01*
X0331429Y0029466D01*
X0331357Y0029416D01*
X0331282Y0029369D01*
X0331205Y0029325D01*
X0331126Y0029285D01*
X0331046Y0029248D01*
X0330964Y0029216D01*
X0330880Y0029186D01*
X0330796Y0029161D01*
X0330710Y0029139D01*
X0330624Y0029122D01*
X0330536Y0029108D01*
X0330448Y0029098D01*
X0330360Y0029092D01*
X0330272Y0029090D01*
X0330184Y0029092D01*
X0330096Y0029098D01*
X0330008Y0029108D01*
X0329920Y0029122D01*
X0329834Y0029139D01*
X0329748Y0029161D01*
X0329664Y0029186D01*
X0329580Y0029216D01*
X0329498Y0029248D01*
X0329418Y0029285D01*
X0329339Y0029325D01*
X0329262Y0029369D01*
X0329187Y0029416D01*
X0329115Y0029466D01*
X0329044Y0029520D01*
X0328977Y0029576D01*
X0328911Y0029636D01*
X0328849Y0029698D01*
X0328789Y0029764D01*
X0328733Y0029831D01*
X0328679Y0029902D01*
X0328629Y0029974D01*
X0328582Y0030049D01*
X0328538Y0030126D01*
X0328498Y0030205D01*
X0328461Y0030285D01*
X0328429Y0030367D01*
X0328399Y0030451D01*
X0328374Y0030535D01*
X0328352Y0030621D01*
X0328335Y0030707D01*
X0328321Y0030795D01*
X0328311Y0030883D01*
X0328305Y0030971D01*
X0328303Y0031059D01*
D11*
X0106901Y0042877D02*
X0104767Y0039855D01*
X0104767Y0036477D01*
X0104767Y0039855D02*
X0102634Y0042877D01*
X0100446Y0039322D02*
X0100446Y0037544D01*
X0100446Y0038610D02*
X0097601Y0038610D01*
X0097601Y0039322D01*
X0097602Y0039322D02*
X0097604Y0039396D01*
X0097610Y0039471D01*
X0097620Y0039544D01*
X0097633Y0039618D01*
X0097650Y0039690D01*
X0097672Y0039761D01*
X0097696Y0039832D01*
X0097725Y0039900D01*
X0097757Y0039968D01*
X0097793Y0040033D01*
X0097831Y0040096D01*
X0097874Y0040158D01*
X0097919Y0040217D01*
X0097967Y0040274D01*
X0098018Y0040328D01*
X0098072Y0040379D01*
X0098129Y0040427D01*
X0098188Y0040472D01*
X0098250Y0040515D01*
X0098313Y0040553D01*
X0098378Y0040589D01*
X0098446Y0040621D01*
X0098514Y0040650D01*
X0098585Y0040674D01*
X0098656Y0040696D01*
X0098728Y0040713D01*
X0098802Y0040726D01*
X0098875Y0040736D01*
X0098950Y0040742D01*
X0099024Y0040744D01*
X0099098Y0040742D01*
X0099173Y0040736D01*
X0099246Y0040726D01*
X0099320Y0040713D01*
X0099392Y0040696D01*
X0099463Y0040674D01*
X0099534Y0040650D01*
X0099602Y0040621D01*
X0099670Y0040589D01*
X0099735Y0040553D01*
X0099798Y0040515D01*
X0099860Y0040472D01*
X0099919Y0040427D01*
X0099976Y0040379D01*
X0100030Y0040328D01*
X0100081Y0040274D01*
X0100129Y0040217D01*
X0100174Y0040158D01*
X0100217Y0040096D01*
X0100255Y0040033D01*
X0100291Y0039968D01*
X0100323Y0039900D01*
X0100352Y0039832D01*
X0100376Y0039761D01*
X0100398Y0039690D01*
X0100415Y0039618D01*
X0100428Y0039544D01*
X0100438Y0039471D01*
X0100444Y0039396D01*
X0100446Y0039322D01*
X0100446Y0037544D02*
X0100444Y0037480D01*
X0100438Y0037415D01*
X0100429Y0037352D01*
X0100415Y0037289D01*
X0100398Y0037227D01*
X0100377Y0037166D01*
X0100352Y0037106D01*
X0100324Y0037048D01*
X0100292Y0036992D01*
X0100257Y0036938D01*
X0100219Y0036886D01*
X0100178Y0036836D01*
X0100133Y0036790D01*
X0100087Y0036745D01*
X0100037Y0036704D01*
X0099985Y0036666D01*
X0099931Y0036631D01*
X0099875Y0036599D01*
X0099817Y0036571D01*
X0099757Y0036546D01*
X0099696Y0036525D01*
X0099634Y0036508D01*
X0099571Y0036494D01*
X0099508Y0036485D01*
X0099443Y0036479D01*
X0099379Y0036477D01*
X0097601Y0036477D01*
X0095105Y0037544D02*
X0095105Y0039677D01*
X0095106Y0039677D02*
X0095104Y0039741D01*
X0095098Y0039806D01*
X0095089Y0039869D01*
X0095075Y0039932D01*
X0095058Y0039994D01*
X0095037Y0040055D01*
X0095012Y0040115D01*
X0094984Y0040173D01*
X0094952Y0040229D01*
X0094917Y0040283D01*
X0094879Y0040335D01*
X0094838Y0040385D01*
X0094793Y0040431D01*
X0094747Y0040476D01*
X0094697Y0040517D01*
X0094645Y0040555D01*
X0094591Y0040590D01*
X0094535Y0040622D01*
X0094477Y0040650D01*
X0094417Y0040675D01*
X0094356Y0040696D01*
X0094294Y0040713D01*
X0094231Y0040727D01*
X0094168Y0040736D01*
X0094103Y0040742D01*
X0094039Y0040744D01*
X0092617Y0040744D01*
X0090189Y0040744D02*
X0088411Y0040744D01*
X0088347Y0040742D01*
X0088282Y0040736D01*
X0088219Y0040727D01*
X0088156Y0040713D01*
X0088094Y0040696D01*
X0088033Y0040675D01*
X0087973Y0040650D01*
X0087915Y0040622D01*
X0087859Y0040590D01*
X0087805Y0040555D01*
X0087753Y0040517D01*
X0087703Y0040476D01*
X0087657Y0040431D01*
X0087612Y0040385D01*
X0087571Y0040335D01*
X0087533Y0040283D01*
X0087498Y0040229D01*
X0087466Y0040173D01*
X0087438Y0040115D01*
X0087413Y0040055D01*
X0087392Y0039994D01*
X0087375Y0039932D01*
X0087361Y0039869D01*
X0087352Y0039806D01*
X0087346Y0039741D01*
X0087344Y0039677D01*
X0087345Y0039677D02*
X0087345Y0036477D01*
X0090189Y0036477D02*
X0090189Y0042877D01*
X0087673Y0044844D02*
X0086962Y0044844D01*
X0084828Y0051244D01*
X0082218Y0051244D02*
X0080796Y0051244D01*
X0080732Y0051242D01*
X0080667Y0051236D01*
X0080604Y0051227D01*
X0080541Y0051213D01*
X0080479Y0051196D01*
X0080418Y0051175D01*
X0080358Y0051150D01*
X0080300Y0051122D01*
X0080244Y0051090D01*
X0080190Y0051055D01*
X0080138Y0051017D01*
X0080088Y0050976D01*
X0080042Y0050931D01*
X0079997Y0050885D01*
X0079956Y0050835D01*
X0079918Y0050783D01*
X0079883Y0050729D01*
X0079851Y0050673D01*
X0079823Y0050615D01*
X0079798Y0050555D01*
X0079777Y0050494D01*
X0079760Y0050432D01*
X0079746Y0050369D01*
X0079737Y0050306D01*
X0079731Y0050241D01*
X0079729Y0050177D01*
X0079729Y0046977D01*
X0081329Y0046977D01*
X0081329Y0046978D02*
X0081399Y0046980D01*
X0081468Y0046986D01*
X0081537Y0046996D01*
X0081606Y0047009D01*
X0081673Y0047027D01*
X0081740Y0047048D01*
X0081805Y0047073D01*
X0081869Y0047101D01*
X0081931Y0047133D01*
X0081991Y0047169D01*
X0082049Y0047207D01*
X0082105Y0047249D01*
X0082158Y0047294D01*
X0082209Y0047342D01*
X0082257Y0047393D01*
X0082302Y0047446D01*
X0082344Y0047502D01*
X0082382Y0047560D01*
X0082418Y0047620D01*
X0082450Y0047682D01*
X0082478Y0047746D01*
X0082503Y0047811D01*
X0082524Y0047878D01*
X0082542Y0047945D01*
X0082555Y0048014D01*
X0082565Y0048083D01*
X0082571Y0048152D01*
X0082573Y0048222D01*
X0082571Y0048292D01*
X0082565Y0048361D01*
X0082555Y0048430D01*
X0082542Y0048499D01*
X0082524Y0048566D01*
X0082503Y0048633D01*
X0082478Y0048698D01*
X0082450Y0048762D01*
X0082418Y0048824D01*
X0082382Y0048884D01*
X0082344Y0048942D01*
X0082302Y0048998D01*
X0082257Y0049051D01*
X0082209Y0049102D01*
X0082158Y0049150D01*
X0082105Y0049195D01*
X0082049Y0049237D01*
X0081991Y0049275D01*
X0081931Y0049311D01*
X0081869Y0049343D01*
X0081805Y0049371D01*
X0081740Y0049396D01*
X0081673Y0049417D01*
X0081606Y0049435D01*
X0081537Y0049448D01*
X0081468Y0049458D01*
X0081399Y0049464D01*
X0081329Y0049466D01*
X0079729Y0049466D01*
X0076801Y0051244D02*
X0075023Y0051244D01*
X0074959Y0051242D01*
X0074894Y0051236D01*
X0074831Y0051227D01*
X0074768Y0051213D01*
X0074706Y0051196D01*
X0074645Y0051175D01*
X0074585Y0051150D01*
X0074527Y0051122D01*
X0074471Y0051090D01*
X0074417Y0051055D01*
X0074365Y0051017D01*
X0074315Y0050976D01*
X0074269Y0050931D01*
X0074224Y0050885D01*
X0074183Y0050835D01*
X0074145Y0050783D01*
X0074110Y0050729D01*
X0074078Y0050673D01*
X0074050Y0050615D01*
X0074025Y0050555D01*
X0074004Y0050494D01*
X0073987Y0050432D01*
X0073973Y0050369D01*
X0073964Y0050306D01*
X0073958Y0050241D01*
X0073956Y0050177D01*
X0073956Y0046977D01*
X0076801Y0046977D02*
X0076801Y0051244D01*
X0071291Y0050177D02*
X0071291Y0048044D01*
X0071289Y0047980D01*
X0071283Y0047915D01*
X0071274Y0047852D01*
X0071260Y0047789D01*
X0071243Y0047727D01*
X0071222Y0047666D01*
X0071197Y0047606D01*
X0071169Y0047548D01*
X0071137Y0047492D01*
X0071102Y0047438D01*
X0071064Y0047386D01*
X0071023Y0047336D01*
X0070978Y0047290D01*
X0070932Y0047245D01*
X0070882Y0047204D01*
X0070830Y0047166D01*
X0070776Y0047131D01*
X0070720Y0047099D01*
X0070662Y0047071D01*
X0070602Y0047046D01*
X0070541Y0047025D01*
X0070479Y0047008D01*
X0070416Y0046994D01*
X0070353Y0046985D01*
X0070288Y0046979D01*
X0070224Y0046977D01*
X0068447Y0046977D01*
X0068447Y0045911D02*
X0068447Y0051244D01*
X0070224Y0051244D01*
X0070288Y0051242D01*
X0070353Y0051236D01*
X0070416Y0051227D01*
X0070479Y0051213D01*
X0070541Y0051196D01*
X0070602Y0051175D01*
X0070662Y0051150D01*
X0070720Y0051122D01*
X0070776Y0051090D01*
X0070830Y0051055D01*
X0070882Y0051017D01*
X0070932Y0050976D01*
X0070978Y0050931D01*
X0071023Y0050885D01*
X0071064Y0050835D01*
X0071102Y0050783D01*
X0071137Y0050729D01*
X0071169Y0050673D01*
X0071197Y0050615D01*
X0071222Y0050555D01*
X0071243Y0050494D01*
X0071260Y0050432D01*
X0071274Y0050369D01*
X0071283Y0050306D01*
X0071289Y0050241D01*
X0071291Y0050177D01*
X0068446Y0045911D02*
X0068448Y0045847D01*
X0068454Y0045782D01*
X0068463Y0045719D01*
X0068477Y0045656D01*
X0068494Y0045594D01*
X0068515Y0045533D01*
X0068540Y0045473D01*
X0068568Y0045415D01*
X0068600Y0045359D01*
X0068635Y0045305D01*
X0068673Y0045253D01*
X0068714Y0045203D01*
X0068759Y0045157D01*
X0068805Y0045112D01*
X0068855Y0045071D01*
X0068907Y0045033D01*
X0068961Y0044998D01*
X0069017Y0044966D01*
X0069075Y0044938D01*
X0069135Y0044913D01*
X0069196Y0044892D01*
X0069258Y0044875D01*
X0069321Y0044861D01*
X0069384Y0044852D01*
X0069449Y0044846D01*
X0069513Y0044844D01*
X0070935Y0044844D01*
X0068842Y0042877D02*
X0068916Y0042875D01*
X0068991Y0042869D01*
X0069064Y0042859D01*
X0069138Y0042846D01*
X0069210Y0042829D01*
X0069281Y0042807D01*
X0069352Y0042783D01*
X0069420Y0042754D01*
X0069488Y0042722D01*
X0069553Y0042686D01*
X0069616Y0042648D01*
X0069678Y0042605D01*
X0069737Y0042560D01*
X0069794Y0042512D01*
X0069848Y0042461D01*
X0069899Y0042407D01*
X0069947Y0042350D01*
X0069992Y0042291D01*
X0070035Y0042229D01*
X0070073Y0042166D01*
X0070109Y0042101D01*
X0070141Y0042033D01*
X0070170Y0041965D01*
X0070194Y0041894D01*
X0070216Y0041823D01*
X0070233Y0041751D01*
X0070246Y0041677D01*
X0070256Y0041604D01*
X0070262Y0041529D01*
X0070264Y0041455D01*
X0069553Y0040210D02*
X0067597Y0039144D01*
X0068308Y0036478D02*
X0068416Y0036480D01*
X0068523Y0036486D01*
X0068631Y0036495D01*
X0068738Y0036509D01*
X0068844Y0036526D01*
X0068950Y0036547D01*
X0069055Y0036572D01*
X0069159Y0036601D01*
X0069262Y0036633D01*
X0069363Y0036669D01*
X0069463Y0036709D01*
X0069562Y0036752D01*
X0069659Y0036799D01*
X0069755Y0036849D01*
X0069848Y0036903D01*
X0069940Y0036960D01*
X0070029Y0037020D01*
X0070116Y0037083D01*
X0070201Y0037150D01*
X0070284Y0037219D01*
X0070364Y0037292D01*
X0070441Y0037367D01*
X0067597Y0039143D02*
X0067533Y0039103D01*
X0067472Y0039060D01*
X0067413Y0039014D01*
X0067356Y0038965D01*
X0067302Y0038913D01*
X0067251Y0038859D01*
X0067203Y0038801D01*
X0067157Y0038742D01*
X0067115Y0038680D01*
X0067076Y0038615D01*
X0067041Y0038549D01*
X0067009Y0038482D01*
X0066980Y0038412D01*
X0066955Y0038342D01*
X0066934Y0038270D01*
X0066917Y0038197D01*
X0066903Y0038123D01*
X0066894Y0038049D01*
X0066888Y0037974D01*
X0066886Y0037899D01*
X0066888Y0037825D01*
X0066894Y0037750D01*
X0066904Y0037677D01*
X0066917Y0037603D01*
X0066934Y0037531D01*
X0066956Y0037460D01*
X0066980Y0037389D01*
X0067009Y0037321D01*
X0067041Y0037253D01*
X0067077Y0037188D01*
X0067115Y0037125D01*
X0067158Y0037063D01*
X0067203Y0037004D01*
X0067251Y0036947D01*
X0067302Y0036893D01*
X0067356Y0036842D01*
X0067413Y0036794D01*
X0067472Y0036749D01*
X0067534Y0036706D01*
X0067597Y0036668D01*
X0067662Y0036632D01*
X0067730Y0036600D01*
X0067798Y0036571D01*
X0067869Y0036547D01*
X0067940Y0036525D01*
X0068012Y0036508D01*
X0068086Y0036495D01*
X0068159Y0036485D01*
X0068234Y0036479D01*
X0068308Y0036477D01*
X0067242Y0042345D02*
X0067324Y0042404D01*
X0067408Y0042460D01*
X0067494Y0042512D01*
X0067582Y0042562D01*
X0067672Y0042608D01*
X0067763Y0042650D01*
X0067856Y0042689D01*
X0067951Y0042725D01*
X0068047Y0042757D01*
X0068144Y0042785D01*
X0068241Y0042810D01*
X0068340Y0042830D01*
X0068440Y0042847D01*
X0068540Y0042861D01*
X0068640Y0042870D01*
X0068741Y0042876D01*
X0068842Y0042878D01*
X0070263Y0041455D02*
X0070261Y0041380D01*
X0070255Y0041305D01*
X0070246Y0041231D01*
X0070232Y0041157D01*
X0070215Y0041084D01*
X0070194Y0041012D01*
X0070169Y0040942D01*
X0070140Y0040872D01*
X0070108Y0040805D01*
X0070073Y0040739D01*
X0070034Y0040674D01*
X0069992Y0040612D01*
X0069946Y0040553D01*
X0069898Y0040495D01*
X0069847Y0040441D01*
X0069793Y0040389D01*
X0069736Y0040340D01*
X0069677Y0040294D01*
X0069616Y0040251D01*
X0069552Y0040211D01*
X0064342Y0040744D02*
X0062565Y0040744D01*
X0062501Y0040742D01*
X0062436Y0040736D01*
X0062373Y0040727D01*
X0062310Y0040713D01*
X0062248Y0040696D01*
X0062187Y0040675D01*
X0062127Y0040650D01*
X0062069Y0040622D01*
X0062013Y0040590D01*
X0061959Y0040555D01*
X0061907Y0040517D01*
X0061857Y0040476D01*
X0061811Y0040431D01*
X0061766Y0040385D01*
X0061725Y0040335D01*
X0061687Y0040283D01*
X0061652Y0040229D01*
X0061620Y0040173D01*
X0061592Y0040115D01*
X0061567Y0040055D01*
X0061546Y0039994D01*
X0061529Y0039932D01*
X0061515Y0039869D01*
X0061506Y0039806D01*
X0061500Y0039741D01*
X0061498Y0039677D01*
X0061498Y0036477D01*
X0058817Y0036477D02*
X0058817Y0040744D01*
X0058640Y0042522D02*
X0058995Y0042522D01*
X0058995Y0042877D01*
X0058640Y0042877D01*
X0058640Y0042522D01*
X0056493Y0046977D02*
X0056493Y0053377D01*
X0056493Y0051244D02*
X0054715Y0051244D01*
X0054651Y0051242D01*
X0054586Y0051236D01*
X0054523Y0051227D01*
X0054460Y0051213D01*
X0054398Y0051196D01*
X0054337Y0051175D01*
X0054277Y0051150D01*
X0054219Y0051122D01*
X0054163Y0051090D01*
X0054109Y0051055D01*
X0054057Y0051017D01*
X0054007Y0050976D01*
X0053961Y0050931D01*
X0053916Y0050885D01*
X0053875Y0050835D01*
X0053837Y0050783D01*
X0053802Y0050729D01*
X0053770Y0050673D01*
X0053742Y0050615D01*
X0053717Y0050555D01*
X0053696Y0050494D01*
X0053679Y0050432D01*
X0053665Y0050369D01*
X0053656Y0050306D01*
X0053650Y0050241D01*
X0053648Y0050177D01*
X0053648Y0046977D01*
X0050968Y0046977D02*
X0050968Y0051244D01*
X0050790Y0053022D02*
X0051145Y0053022D01*
X0051145Y0053377D01*
X0050790Y0053377D01*
X0050790Y0053022D01*
X0059747Y0049644D02*
X0061703Y0050710D01*
X0060992Y0053378D02*
X0060891Y0053376D01*
X0060790Y0053370D01*
X0060690Y0053361D01*
X0060590Y0053347D01*
X0060490Y0053330D01*
X0060391Y0053310D01*
X0060294Y0053285D01*
X0060197Y0053257D01*
X0060101Y0053225D01*
X0060006Y0053189D01*
X0059913Y0053150D01*
X0059822Y0053108D01*
X0059732Y0053062D01*
X0059644Y0053012D01*
X0059558Y0052960D01*
X0059474Y0052904D01*
X0059392Y0052845D01*
X0061703Y0050711D02*
X0061767Y0050751D01*
X0061828Y0050794D01*
X0061887Y0050840D01*
X0061944Y0050889D01*
X0061998Y0050941D01*
X0062049Y0050995D01*
X0062097Y0051053D01*
X0062143Y0051112D01*
X0062185Y0051174D01*
X0062224Y0051239D01*
X0062259Y0051305D01*
X0062291Y0051372D01*
X0062320Y0051442D01*
X0062345Y0051512D01*
X0062366Y0051584D01*
X0062383Y0051657D01*
X0062397Y0051731D01*
X0062406Y0051805D01*
X0062412Y0051880D01*
X0062414Y0051955D01*
X0062412Y0052029D01*
X0062406Y0052104D01*
X0062396Y0052177D01*
X0062383Y0052251D01*
X0062366Y0052323D01*
X0062344Y0052394D01*
X0062320Y0052465D01*
X0062291Y0052533D01*
X0062259Y0052601D01*
X0062223Y0052666D01*
X0062185Y0052729D01*
X0062142Y0052791D01*
X0062097Y0052850D01*
X0062049Y0052907D01*
X0061998Y0052961D01*
X0061944Y0053012D01*
X0061887Y0053060D01*
X0061828Y0053105D01*
X0061766Y0053148D01*
X0061703Y0053186D01*
X0061638Y0053222D01*
X0061570Y0053254D01*
X0061502Y0053283D01*
X0061431Y0053307D01*
X0061360Y0053329D01*
X0061288Y0053346D01*
X0061214Y0053359D01*
X0061141Y0053369D01*
X0061066Y0053375D01*
X0060992Y0053377D01*
X0062592Y0047867D02*
X0062515Y0047792D01*
X0062435Y0047719D01*
X0062352Y0047650D01*
X0062267Y0047583D01*
X0062180Y0047520D01*
X0062091Y0047460D01*
X0061999Y0047403D01*
X0061906Y0047349D01*
X0061810Y0047299D01*
X0061713Y0047252D01*
X0061614Y0047209D01*
X0061514Y0047169D01*
X0061413Y0047133D01*
X0061310Y0047101D01*
X0061206Y0047072D01*
X0061101Y0047047D01*
X0060995Y0047026D01*
X0060889Y0047009D01*
X0060782Y0046995D01*
X0060674Y0046986D01*
X0060567Y0046980D01*
X0060459Y0046978D01*
X0060459Y0046977D02*
X0060385Y0046979D01*
X0060310Y0046985D01*
X0060237Y0046995D01*
X0060163Y0047008D01*
X0060091Y0047025D01*
X0060020Y0047047D01*
X0059949Y0047071D01*
X0059881Y0047100D01*
X0059813Y0047132D01*
X0059748Y0047168D01*
X0059685Y0047206D01*
X0059623Y0047249D01*
X0059564Y0047294D01*
X0059507Y0047342D01*
X0059453Y0047393D01*
X0059402Y0047447D01*
X0059354Y0047504D01*
X0059309Y0047563D01*
X0059266Y0047625D01*
X0059228Y0047688D01*
X0059192Y0047753D01*
X0059160Y0047821D01*
X0059131Y0047889D01*
X0059107Y0047960D01*
X0059085Y0048031D01*
X0059068Y0048103D01*
X0059055Y0048177D01*
X0059045Y0048250D01*
X0059039Y0048325D01*
X0059037Y0048399D01*
X0059039Y0048474D01*
X0059045Y0048549D01*
X0059054Y0048623D01*
X0059068Y0048697D01*
X0059085Y0048770D01*
X0059106Y0048842D01*
X0059131Y0048912D01*
X0059160Y0048982D01*
X0059192Y0049049D01*
X0059227Y0049115D01*
X0059266Y0049180D01*
X0059308Y0049242D01*
X0059354Y0049301D01*
X0059402Y0049359D01*
X0059453Y0049413D01*
X0059507Y0049465D01*
X0059564Y0049514D01*
X0059623Y0049560D01*
X0059684Y0049603D01*
X0059748Y0049643D01*
X0064342Y0042877D02*
X0064342Y0036477D01*
X0076268Y0036477D02*
X0076268Y0039677D01*
X0076267Y0039677D02*
X0076269Y0039741D01*
X0076275Y0039806D01*
X0076284Y0039869D01*
X0076298Y0039932D01*
X0076315Y0039994D01*
X0076336Y0040055D01*
X0076361Y0040115D01*
X0076389Y0040173D01*
X0076421Y0040229D01*
X0076456Y0040283D01*
X0076494Y0040335D01*
X0076535Y0040385D01*
X0076580Y0040431D01*
X0076626Y0040476D01*
X0076676Y0040517D01*
X0076728Y0040555D01*
X0076782Y0040590D01*
X0076838Y0040622D01*
X0076896Y0040650D01*
X0076956Y0040675D01*
X0077017Y0040696D01*
X0077079Y0040713D01*
X0077142Y0040727D01*
X0077205Y0040736D01*
X0077270Y0040742D01*
X0077334Y0040744D01*
X0079112Y0040744D01*
X0079112Y0036477D01*
X0081806Y0036477D02*
X0083584Y0036477D01*
X0083648Y0036479D01*
X0083713Y0036485D01*
X0083776Y0036494D01*
X0083839Y0036508D01*
X0083901Y0036525D01*
X0083962Y0036546D01*
X0084022Y0036571D01*
X0084080Y0036599D01*
X0084136Y0036631D01*
X0084190Y0036666D01*
X0084242Y0036704D01*
X0084292Y0036745D01*
X0084338Y0036790D01*
X0084383Y0036836D01*
X0084424Y0036886D01*
X0084462Y0036938D01*
X0084497Y0036992D01*
X0084529Y0037048D01*
X0084557Y0037106D01*
X0084582Y0037166D01*
X0084603Y0037227D01*
X0084620Y0037289D01*
X0084634Y0037352D01*
X0084643Y0037415D01*
X0084649Y0037480D01*
X0084651Y0037544D01*
X0084651Y0039322D01*
X0084651Y0038610D02*
X0081806Y0038610D01*
X0081806Y0039322D01*
X0081808Y0039396D01*
X0081814Y0039471D01*
X0081824Y0039544D01*
X0081837Y0039618D01*
X0081854Y0039690D01*
X0081876Y0039761D01*
X0081900Y0039832D01*
X0081929Y0039900D01*
X0081961Y0039968D01*
X0081997Y0040033D01*
X0082035Y0040096D01*
X0082078Y0040158D01*
X0082123Y0040217D01*
X0082171Y0040274D01*
X0082222Y0040328D01*
X0082276Y0040379D01*
X0082333Y0040427D01*
X0082392Y0040472D01*
X0082454Y0040515D01*
X0082517Y0040553D01*
X0082582Y0040589D01*
X0082650Y0040621D01*
X0082718Y0040650D01*
X0082789Y0040674D01*
X0082860Y0040696D01*
X0082932Y0040713D01*
X0083006Y0040726D01*
X0083079Y0040736D01*
X0083154Y0040742D01*
X0083228Y0040744D01*
X0083302Y0040742D01*
X0083377Y0040736D01*
X0083450Y0040726D01*
X0083524Y0040713D01*
X0083596Y0040696D01*
X0083667Y0040674D01*
X0083738Y0040650D01*
X0083806Y0040621D01*
X0083874Y0040589D01*
X0083939Y0040553D01*
X0084002Y0040515D01*
X0084064Y0040472D01*
X0084123Y0040427D01*
X0084180Y0040379D01*
X0084234Y0040328D01*
X0084285Y0040274D01*
X0084333Y0040217D01*
X0084378Y0040158D01*
X0084421Y0040096D01*
X0084459Y0040033D01*
X0084495Y0039968D01*
X0084527Y0039900D01*
X0084556Y0039832D01*
X0084580Y0039761D01*
X0084602Y0039690D01*
X0084619Y0039618D01*
X0084632Y0039544D01*
X0084642Y0039471D01*
X0084648Y0039396D01*
X0084650Y0039322D01*
X0092617Y0036477D02*
X0094039Y0036477D01*
X0094103Y0036479D01*
X0094168Y0036485D01*
X0094231Y0036494D01*
X0094294Y0036508D01*
X0094356Y0036525D01*
X0094417Y0036546D01*
X0094477Y0036571D01*
X0094535Y0036599D01*
X0094591Y0036631D01*
X0094645Y0036666D01*
X0094697Y0036704D01*
X0094747Y0036745D01*
X0094793Y0036790D01*
X0094838Y0036836D01*
X0094879Y0036886D01*
X0094917Y0036938D01*
X0094952Y0036992D01*
X0094984Y0037048D01*
X0095012Y0037106D01*
X0095037Y0037166D01*
X0095058Y0037227D01*
X0095075Y0037289D01*
X0095089Y0037352D01*
X0095098Y0037415D01*
X0095104Y0037480D01*
X0095106Y0037544D01*
X0095935Y0046977D02*
X0095935Y0050177D01*
X0095935Y0049466D02*
X0097535Y0049466D01*
X0095934Y0050177D02*
X0095936Y0050241D01*
X0095942Y0050306D01*
X0095951Y0050369D01*
X0095965Y0050432D01*
X0095982Y0050494D01*
X0096003Y0050555D01*
X0096028Y0050615D01*
X0096056Y0050673D01*
X0096088Y0050729D01*
X0096123Y0050783D01*
X0096161Y0050835D01*
X0096202Y0050885D01*
X0096247Y0050931D01*
X0096293Y0050976D01*
X0096343Y0051017D01*
X0096395Y0051055D01*
X0096449Y0051090D01*
X0096505Y0051122D01*
X0096563Y0051150D01*
X0096623Y0051175D01*
X0096684Y0051196D01*
X0096746Y0051213D01*
X0096809Y0051227D01*
X0096872Y0051236D01*
X0096937Y0051242D01*
X0097001Y0051244D01*
X0098423Y0051244D01*
X0101225Y0051244D02*
X0101225Y0046977D01*
X0097535Y0046977D02*
X0095935Y0046977D01*
X0097535Y0046978D02*
X0097605Y0046980D01*
X0097674Y0046986D01*
X0097743Y0046996D01*
X0097812Y0047009D01*
X0097879Y0047027D01*
X0097946Y0047048D01*
X0098011Y0047073D01*
X0098075Y0047101D01*
X0098137Y0047133D01*
X0098197Y0047169D01*
X0098255Y0047207D01*
X0098311Y0047249D01*
X0098364Y0047294D01*
X0098415Y0047342D01*
X0098463Y0047393D01*
X0098508Y0047446D01*
X0098550Y0047502D01*
X0098588Y0047560D01*
X0098624Y0047620D01*
X0098656Y0047682D01*
X0098684Y0047746D01*
X0098709Y0047811D01*
X0098730Y0047878D01*
X0098748Y0047945D01*
X0098761Y0048014D01*
X0098771Y0048083D01*
X0098777Y0048152D01*
X0098779Y0048222D01*
X0098777Y0048292D01*
X0098771Y0048361D01*
X0098761Y0048430D01*
X0098748Y0048499D01*
X0098730Y0048566D01*
X0098709Y0048633D01*
X0098684Y0048698D01*
X0098656Y0048762D01*
X0098624Y0048824D01*
X0098588Y0048884D01*
X0098550Y0048942D01*
X0098508Y0048998D01*
X0098463Y0049051D01*
X0098415Y0049102D01*
X0098364Y0049150D01*
X0098311Y0049195D01*
X0098255Y0049237D01*
X0098197Y0049275D01*
X0098137Y0049311D01*
X0098075Y0049343D01*
X0098011Y0049371D01*
X0097946Y0049396D01*
X0097879Y0049417D01*
X0097812Y0049435D01*
X0097743Y0049448D01*
X0097674Y0049458D01*
X0097605Y0049464D01*
X0097535Y0049466D01*
X0093006Y0051244D02*
X0091229Y0051244D01*
X0091165Y0051242D01*
X0091100Y0051236D01*
X0091037Y0051227D01*
X0090974Y0051213D01*
X0090912Y0051196D01*
X0090851Y0051175D01*
X0090791Y0051150D01*
X0090733Y0051122D01*
X0090677Y0051090D01*
X0090623Y0051055D01*
X0090571Y0051017D01*
X0090521Y0050976D01*
X0090475Y0050931D01*
X0090430Y0050885D01*
X0090389Y0050835D01*
X0090351Y0050783D01*
X0090316Y0050729D01*
X0090284Y0050673D01*
X0090256Y0050615D01*
X0090231Y0050555D01*
X0090210Y0050494D01*
X0090193Y0050432D01*
X0090179Y0050369D01*
X0090170Y0050306D01*
X0090164Y0050241D01*
X0090162Y0050177D01*
X0090162Y0046977D01*
X0093006Y0046977D02*
X0093006Y0051244D01*
X0089986Y0055344D02*
X0089986Y0061744D01*
X0091763Y0061744D01*
X0091827Y0061742D01*
X0091892Y0061736D01*
X0091955Y0061727D01*
X0092018Y0061713D01*
X0092080Y0061696D01*
X0092141Y0061675D01*
X0092201Y0061650D01*
X0092259Y0061622D01*
X0092315Y0061590D01*
X0092369Y0061555D01*
X0092421Y0061517D01*
X0092471Y0061476D01*
X0092517Y0061431D01*
X0092562Y0061385D01*
X0092603Y0061335D01*
X0092641Y0061283D01*
X0092676Y0061229D01*
X0092708Y0061173D01*
X0092736Y0061115D01*
X0092761Y0061055D01*
X0092782Y0060994D01*
X0092799Y0060932D01*
X0092813Y0060869D01*
X0092822Y0060806D01*
X0092828Y0060741D01*
X0092830Y0060677D01*
X0092830Y0058544D01*
X0092828Y0058480D01*
X0092822Y0058415D01*
X0092813Y0058352D01*
X0092799Y0058289D01*
X0092782Y0058227D01*
X0092761Y0058166D01*
X0092736Y0058106D01*
X0092708Y0058048D01*
X0092676Y0057992D01*
X0092641Y0057938D01*
X0092603Y0057886D01*
X0092562Y0057836D01*
X0092517Y0057790D01*
X0092471Y0057745D01*
X0092421Y0057704D01*
X0092369Y0057666D01*
X0092315Y0057631D01*
X0092259Y0057599D01*
X0092201Y0057571D01*
X0092141Y0057546D01*
X0092080Y0057525D01*
X0092018Y0057508D01*
X0091955Y0057494D01*
X0091892Y0057485D01*
X0091827Y0057479D01*
X0091763Y0057477D01*
X0089986Y0057477D01*
X0087276Y0057477D02*
X0087276Y0061744D01*
X0087099Y0063522D02*
X0087454Y0063522D01*
X0087454Y0063877D01*
X0087099Y0063877D01*
X0087099Y0063522D01*
X0087519Y0067977D02*
X0085919Y0067977D01*
X0085919Y0071177D01*
X0085919Y0070466D02*
X0087519Y0070466D01*
X0085919Y0071177D02*
X0085921Y0071241D01*
X0085927Y0071306D01*
X0085936Y0071369D01*
X0085950Y0071432D01*
X0085967Y0071494D01*
X0085988Y0071555D01*
X0086013Y0071615D01*
X0086041Y0071673D01*
X0086073Y0071729D01*
X0086108Y0071783D01*
X0086146Y0071835D01*
X0086187Y0071885D01*
X0086232Y0071931D01*
X0086278Y0071976D01*
X0086328Y0072017D01*
X0086380Y0072055D01*
X0086434Y0072090D01*
X0086490Y0072122D01*
X0086548Y0072150D01*
X0086608Y0072175D01*
X0086669Y0072196D01*
X0086731Y0072213D01*
X0086794Y0072227D01*
X0086857Y0072236D01*
X0086922Y0072242D01*
X0086986Y0072244D01*
X0088408Y0072244D01*
X0091010Y0072244D02*
X0093143Y0072244D01*
X0095108Y0072244D02*
X0095108Y0067977D01*
X0097788Y0067977D02*
X0097788Y0072244D01*
X0100632Y0072244D02*
X0100632Y0069044D01*
X0100633Y0069044D02*
X0100631Y0068980D01*
X0100625Y0068915D01*
X0100616Y0068852D01*
X0100602Y0068789D01*
X0100585Y0068727D01*
X0100564Y0068666D01*
X0100539Y0068606D01*
X0100511Y0068548D01*
X0100479Y0068492D01*
X0100444Y0068438D01*
X0100406Y0068386D01*
X0100365Y0068336D01*
X0100320Y0068290D01*
X0100274Y0068245D01*
X0100224Y0068204D01*
X0100172Y0068166D01*
X0100118Y0068131D01*
X0100062Y0068099D01*
X0100004Y0068071D01*
X0099944Y0068046D01*
X0099883Y0068025D01*
X0099821Y0068008D01*
X0099758Y0067994D01*
X0099695Y0067985D01*
X0099630Y0067979D01*
X0099566Y0067977D01*
X0097788Y0067977D01*
X0095454Y0063877D02*
X0095099Y0063877D01*
X0095099Y0063522D01*
X0095454Y0063522D01*
X0095454Y0063877D01*
X0095277Y0061744D02*
X0095277Y0057477D01*
X0097957Y0057477D02*
X0097957Y0060677D01*
X0097959Y0060741D01*
X0097965Y0060806D01*
X0097974Y0060869D01*
X0097988Y0060932D01*
X0098005Y0060994D01*
X0098026Y0061055D01*
X0098051Y0061115D01*
X0098079Y0061173D01*
X0098111Y0061229D01*
X0098146Y0061283D01*
X0098184Y0061335D01*
X0098225Y0061385D01*
X0098270Y0061431D01*
X0098316Y0061476D01*
X0098366Y0061517D01*
X0098418Y0061555D01*
X0098472Y0061590D01*
X0098528Y0061622D01*
X0098586Y0061650D01*
X0098646Y0061675D01*
X0098707Y0061696D01*
X0098769Y0061713D01*
X0098832Y0061727D01*
X0098895Y0061736D01*
X0098960Y0061742D01*
X0099024Y0061744D01*
X0100801Y0061744D01*
X0100801Y0063877D02*
X0100801Y0057477D01*
X0101048Y0053377D02*
X0101048Y0053022D01*
X0101403Y0053022D01*
X0101403Y0053377D01*
X0101048Y0053377D01*
X0103345Y0053377D02*
X0106901Y0053377D01*
X0105123Y0053377D02*
X0105123Y0046977D01*
X0103346Y0058899D02*
X0103348Y0058974D01*
X0103354Y0059049D01*
X0103363Y0059123D01*
X0103377Y0059197D01*
X0103394Y0059270D01*
X0103415Y0059342D01*
X0103440Y0059412D01*
X0103469Y0059482D01*
X0103501Y0059549D01*
X0103536Y0059615D01*
X0103575Y0059680D01*
X0103617Y0059742D01*
X0103663Y0059801D01*
X0103711Y0059859D01*
X0103762Y0059913D01*
X0103816Y0059965D01*
X0103873Y0060014D01*
X0103932Y0060060D01*
X0103993Y0060103D01*
X0104057Y0060143D01*
X0104056Y0060144D02*
X0106012Y0061210D01*
X0105301Y0063878D02*
X0105200Y0063876D01*
X0105099Y0063870D01*
X0104999Y0063861D01*
X0104899Y0063847D01*
X0104799Y0063830D01*
X0104700Y0063810D01*
X0104603Y0063785D01*
X0104506Y0063757D01*
X0104410Y0063725D01*
X0104315Y0063689D01*
X0104222Y0063650D01*
X0104131Y0063608D01*
X0104041Y0063562D01*
X0103953Y0063512D01*
X0103867Y0063460D01*
X0103783Y0063404D01*
X0103701Y0063345D01*
X0106012Y0061211D02*
X0106076Y0061251D01*
X0106137Y0061294D01*
X0106196Y0061340D01*
X0106253Y0061389D01*
X0106307Y0061441D01*
X0106358Y0061495D01*
X0106406Y0061553D01*
X0106452Y0061612D01*
X0106494Y0061674D01*
X0106533Y0061739D01*
X0106568Y0061805D01*
X0106600Y0061872D01*
X0106629Y0061942D01*
X0106654Y0062012D01*
X0106675Y0062084D01*
X0106692Y0062157D01*
X0106706Y0062231D01*
X0106715Y0062305D01*
X0106721Y0062380D01*
X0106723Y0062455D01*
X0106721Y0062529D01*
X0106715Y0062604D01*
X0106705Y0062677D01*
X0106692Y0062751D01*
X0106675Y0062823D01*
X0106653Y0062894D01*
X0106629Y0062965D01*
X0106600Y0063033D01*
X0106568Y0063101D01*
X0106532Y0063166D01*
X0106494Y0063229D01*
X0106451Y0063291D01*
X0106406Y0063350D01*
X0106358Y0063407D01*
X0106307Y0063461D01*
X0106253Y0063512D01*
X0106196Y0063560D01*
X0106137Y0063605D01*
X0106075Y0063648D01*
X0106012Y0063686D01*
X0105947Y0063722D01*
X0105879Y0063754D01*
X0105811Y0063783D01*
X0105740Y0063807D01*
X0105669Y0063829D01*
X0105597Y0063846D01*
X0105523Y0063859D01*
X0105450Y0063869D01*
X0105375Y0063875D01*
X0105301Y0063877D01*
X0106900Y0058367D02*
X0106823Y0058292D01*
X0106743Y0058219D01*
X0106660Y0058150D01*
X0106575Y0058083D01*
X0106488Y0058020D01*
X0106399Y0057960D01*
X0106307Y0057903D01*
X0106214Y0057849D01*
X0106118Y0057799D01*
X0106021Y0057752D01*
X0105922Y0057709D01*
X0105822Y0057669D01*
X0105721Y0057633D01*
X0105618Y0057601D01*
X0105514Y0057572D01*
X0105409Y0057547D01*
X0105303Y0057526D01*
X0105197Y0057509D01*
X0105090Y0057495D01*
X0104982Y0057486D01*
X0104875Y0057480D01*
X0104767Y0057478D01*
X0104767Y0057477D02*
X0104693Y0057479D01*
X0104618Y0057485D01*
X0104545Y0057495D01*
X0104471Y0057508D01*
X0104399Y0057525D01*
X0104328Y0057547D01*
X0104257Y0057571D01*
X0104189Y0057600D01*
X0104121Y0057632D01*
X0104056Y0057668D01*
X0103993Y0057706D01*
X0103931Y0057749D01*
X0103872Y0057794D01*
X0103815Y0057842D01*
X0103761Y0057893D01*
X0103710Y0057947D01*
X0103662Y0058004D01*
X0103617Y0058063D01*
X0103574Y0058125D01*
X0103536Y0058188D01*
X0103500Y0058253D01*
X0103468Y0058321D01*
X0103439Y0058389D01*
X0103415Y0058460D01*
X0103393Y0058531D01*
X0103376Y0058603D01*
X0103363Y0058677D01*
X0103353Y0058750D01*
X0103347Y0058825D01*
X0103345Y0058899D01*
X0103345Y0067977D02*
X0104767Y0070822D01*
X0105123Y0070822D02*
X0106901Y0070822D01*
X0105123Y0070821D02*
X0105040Y0070823D01*
X0104957Y0070829D01*
X0104874Y0070839D01*
X0104791Y0070852D01*
X0104710Y0070870D01*
X0104629Y0070891D01*
X0104550Y0070916D01*
X0104472Y0070945D01*
X0104395Y0070977D01*
X0104320Y0071013D01*
X0104246Y0071052D01*
X0104175Y0071095D01*
X0104105Y0071141D01*
X0104038Y0071191D01*
X0103973Y0071243D01*
X0103911Y0071298D01*
X0103851Y0071357D01*
X0103794Y0071418D01*
X0103740Y0071481D01*
X0103689Y0071547D01*
X0103642Y0071616D01*
X0103597Y0071686D01*
X0103556Y0071759D01*
X0103519Y0071833D01*
X0103484Y0071909D01*
X0103454Y0071987D01*
X0103427Y0072065D01*
X0103404Y0072146D01*
X0103384Y0072227D01*
X0103369Y0072309D01*
X0103357Y0072391D01*
X0103349Y0072474D01*
X0103345Y0072557D01*
X0103345Y0072641D01*
X0103349Y0072724D01*
X0103357Y0072807D01*
X0103369Y0072889D01*
X0103384Y0072971D01*
X0103404Y0073052D01*
X0103427Y0073133D01*
X0103454Y0073211D01*
X0103484Y0073289D01*
X0103519Y0073365D01*
X0103556Y0073439D01*
X0103597Y0073512D01*
X0103642Y0073582D01*
X0103689Y0073651D01*
X0103740Y0073717D01*
X0103794Y0073780D01*
X0103851Y0073841D01*
X0103911Y0073900D01*
X0103973Y0073955D01*
X0104038Y0074007D01*
X0104105Y0074057D01*
X0104175Y0074103D01*
X0104246Y0074146D01*
X0104320Y0074185D01*
X0104395Y0074221D01*
X0104472Y0074253D01*
X0104550Y0074282D01*
X0104629Y0074307D01*
X0104710Y0074328D01*
X0104791Y0074346D01*
X0104874Y0074359D01*
X0104957Y0074369D01*
X0105040Y0074375D01*
X0105123Y0074377D01*
X0106901Y0074377D01*
X0106901Y0067977D01*
X0106901Y0078477D02*
X0106901Y0084877D01*
X0106901Y0082033D02*
X0103345Y0082033D01*
X0103345Y0084877D02*
X0103345Y0078477D01*
X0099381Y0078477D02*
X0097781Y0078477D01*
X0097781Y0081677D01*
X0097781Y0080966D02*
X0099381Y0080966D01*
X0097780Y0081677D02*
X0097782Y0081741D01*
X0097788Y0081806D01*
X0097797Y0081869D01*
X0097811Y0081932D01*
X0097828Y0081994D01*
X0097849Y0082055D01*
X0097874Y0082115D01*
X0097902Y0082173D01*
X0097934Y0082229D01*
X0097969Y0082283D01*
X0098007Y0082335D01*
X0098048Y0082385D01*
X0098093Y0082431D01*
X0098139Y0082476D01*
X0098189Y0082517D01*
X0098241Y0082555D01*
X0098295Y0082590D01*
X0098351Y0082622D01*
X0098409Y0082650D01*
X0098469Y0082675D01*
X0098530Y0082696D01*
X0098592Y0082713D01*
X0098655Y0082727D01*
X0098718Y0082736D01*
X0098783Y0082742D01*
X0098847Y0082744D01*
X0100270Y0082744D01*
X0099381Y0080966D02*
X0099451Y0080964D01*
X0099520Y0080958D01*
X0099589Y0080948D01*
X0099658Y0080935D01*
X0099725Y0080917D01*
X0099792Y0080896D01*
X0099857Y0080871D01*
X0099921Y0080843D01*
X0099983Y0080811D01*
X0100043Y0080775D01*
X0100101Y0080737D01*
X0100157Y0080695D01*
X0100210Y0080650D01*
X0100261Y0080602D01*
X0100309Y0080551D01*
X0100354Y0080498D01*
X0100396Y0080442D01*
X0100434Y0080384D01*
X0100470Y0080324D01*
X0100502Y0080262D01*
X0100530Y0080198D01*
X0100555Y0080133D01*
X0100576Y0080066D01*
X0100594Y0079999D01*
X0100607Y0079930D01*
X0100617Y0079861D01*
X0100623Y0079792D01*
X0100625Y0079722D01*
X0100623Y0079652D01*
X0100617Y0079583D01*
X0100607Y0079514D01*
X0100594Y0079445D01*
X0100576Y0079378D01*
X0100555Y0079311D01*
X0100530Y0079246D01*
X0100502Y0079182D01*
X0100470Y0079120D01*
X0100434Y0079060D01*
X0100396Y0079002D01*
X0100354Y0078946D01*
X0100309Y0078893D01*
X0100261Y0078842D01*
X0100210Y0078794D01*
X0100157Y0078749D01*
X0100101Y0078707D01*
X0100043Y0078669D01*
X0099983Y0078633D01*
X0099921Y0078601D01*
X0099857Y0078573D01*
X0099792Y0078548D01*
X0099725Y0078527D01*
X0099658Y0078509D01*
X0099589Y0078496D01*
X0099520Y0078486D01*
X0099451Y0078480D01*
X0099381Y0078478D01*
X0095058Y0079899D02*
X0095058Y0081322D01*
X0095057Y0081322D02*
X0095055Y0081396D01*
X0095049Y0081471D01*
X0095039Y0081544D01*
X0095026Y0081618D01*
X0095009Y0081690D01*
X0094987Y0081761D01*
X0094963Y0081832D01*
X0094934Y0081900D01*
X0094902Y0081968D01*
X0094866Y0082033D01*
X0094828Y0082096D01*
X0094785Y0082158D01*
X0094740Y0082217D01*
X0094692Y0082274D01*
X0094641Y0082328D01*
X0094587Y0082379D01*
X0094530Y0082427D01*
X0094471Y0082472D01*
X0094409Y0082515D01*
X0094346Y0082553D01*
X0094281Y0082589D01*
X0094213Y0082621D01*
X0094145Y0082650D01*
X0094074Y0082674D01*
X0094003Y0082696D01*
X0093931Y0082713D01*
X0093857Y0082726D01*
X0093784Y0082736D01*
X0093709Y0082742D01*
X0093635Y0082744D01*
X0093561Y0082742D01*
X0093486Y0082736D01*
X0093413Y0082726D01*
X0093339Y0082713D01*
X0093267Y0082696D01*
X0093196Y0082674D01*
X0093125Y0082650D01*
X0093057Y0082621D01*
X0092989Y0082589D01*
X0092924Y0082553D01*
X0092861Y0082515D01*
X0092799Y0082472D01*
X0092740Y0082427D01*
X0092683Y0082379D01*
X0092629Y0082328D01*
X0092578Y0082274D01*
X0092530Y0082217D01*
X0092485Y0082158D01*
X0092442Y0082096D01*
X0092404Y0082033D01*
X0092368Y0081968D01*
X0092336Y0081900D01*
X0092307Y0081832D01*
X0092283Y0081761D01*
X0092261Y0081690D01*
X0092244Y0081618D01*
X0092231Y0081544D01*
X0092221Y0081471D01*
X0092215Y0081396D01*
X0092213Y0081322D01*
X0092213Y0079899D01*
X0092215Y0079825D01*
X0092221Y0079750D01*
X0092231Y0079677D01*
X0092244Y0079603D01*
X0092261Y0079531D01*
X0092283Y0079460D01*
X0092307Y0079389D01*
X0092336Y0079321D01*
X0092368Y0079253D01*
X0092404Y0079188D01*
X0092442Y0079125D01*
X0092485Y0079063D01*
X0092530Y0079004D01*
X0092578Y0078947D01*
X0092629Y0078893D01*
X0092683Y0078842D01*
X0092740Y0078794D01*
X0092799Y0078749D01*
X0092861Y0078706D01*
X0092924Y0078668D01*
X0092989Y0078632D01*
X0093057Y0078600D01*
X0093125Y0078571D01*
X0093196Y0078547D01*
X0093267Y0078525D01*
X0093339Y0078508D01*
X0093413Y0078495D01*
X0093486Y0078485D01*
X0093561Y0078479D01*
X0093635Y0078477D01*
X0093709Y0078479D01*
X0093784Y0078485D01*
X0093857Y0078495D01*
X0093931Y0078508D01*
X0094003Y0078525D01*
X0094074Y0078547D01*
X0094145Y0078571D01*
X0094213Y0078600D01*
X0094281Y0078632D01*
X0094346Y0078668D01*
X0094409Y0078706D01*
X0094471Y0078749D01*
X0094530Y0078794D01*
X0094587Y0078842D01*
X0094641Y0078893D01*
X0094692Y0078947D01*
X0094740Y0079004D01*
X0094785Y0079063D01*
X0094828Y0079125D01*
X0094866Y0079188D01*
X0094902Y0079253D01*
X0094934Y0079321D01*
X0094963Y0079389D01*
X0094987Y0079460D01*
X0095009Y0079531D01*
X0095026Y0079603D01*
X0095039Y0079677D01*
X0095049Y0079750D01*
X0095055Y0079825D01*
X0095057Y0079899D01*
X0089753Y0079544D02*
X0089753Y0081677D01*
X0089751Y0081741D01*
X0089745Y0081806D01*
X0089736Y0081869D01*
X0089722Y0081932D01*
X0089705Y0081994D01*
X0089684Y0082055D01*
X0089659Y0082115D01*
X0089631Y0082173D01*
X0089599Y0082229D01*
X0089564Y0082283D01*
X0089526Y0082335D01*
X0089485Y0082385D01*
X0089440Y0082431D01*
X0089394Y0082476D01*
X0089344Y0082517D01*
X0089292Y0082555D01*
X0089238Y0082590D01*
X0089182Y0082622D01*
X0089124Y0082650D01*
X0089064Y0082675D01*
X0089003Y0082696D01*
X0088941Y0082713D01*
X0088878Y0082727D01*
X0088815Y0082736D01*
X0088750Y0082742D01*
X0088686Y0082744D01*
X0086909Y0082744D01*
X0086909Y0084877D02*
X0086909Y0078477D01*
X0088686Y0078477D01*
X0088750Y0078479D01*
X0088815Y0078485D01*
X0088878Y0078494D01*
X0088941Y0078508D01*
X0089003Y0078525D01*
X0089064Y0078546D01*
X0089124Y0078571D01*
X0089182Y0078599D01*
X0089238Y0078631D01*
X0089292Y0078666D01*
X0089344Y0078704D01*
X0089394Y0078745D01*
X0089440Y0078790D01*
X0089485Y0078836D01*
X0089526Y0078886D01*
X0089564Y0078938D01*
X0089599Y0078992D01*
X0089631Y0079048D01*
X0089659Y0079106D01*
X0089684Y0079166D01*
X0089705Y0079227D01*
X0089722Y0079289D01*
X0089736Y0079352D01*
X0089745Y0079415D01*
X0089751Y0079480D01*
X0089753Y0079544D01*
X0092432Y0074377D02*
X0092432Y0069044D01*
X0092430Y0068980D01*
X0092424Y0068915D01*
X0092415Y0068852D01*
X0092401Y0068789D01*
X0092384Y0068727D01*
X0092363Y0068666D01*
X0092338Y0068606D01*
X0092310Y0068548D01*
X0092278Y0068492D01*
X0092243Y0068438D01*
X0092205Y0068386D01*
X0092164Y0068336D01*
X0092119Y0068290D01*
X0092073Y0068245D01*
X0092023Y0068204D01*
X0091971Y0068166D01*
X0091917Y0068131D01*
X0091861Y0068099D01*
X0091803Y0068071D01*
X0091743Y0068046D01*
X0091682Y0068025D01*
X0091620Y0068008D01*
X0091557Y0067994D01*
X0091494Y0067985D01*
X0091429Y0067979D01*
X0091365Y0067977D01*
X0091010Y0067977D01*
X0087519Y0067978D02*
X0087589Y0067980D01*
X0087658Y0067986D01*
X0087727Y0067996D01*
X0087796Y0068009D01*
X0087863Y0068027D01*
X0087930Y0068048D01*
X0087995Y0068073D01*
X0088059Y0068101D01*
X0088121Y0068133D01*
X0088181Y0068169D01*
X0088239Y0068207D01*
X0088295Y0068249D01*
X0088348Y0068294D01*
X0088399Y0068342D01*
X0088447Y0068393D01*
X0088492Y0068446D01*
X0088534Y0068502D01*
X0088572Y0068560D01*
X0088608Y0068620D01*
X0088640Y0068682D01*
X0088668Y0068746D01*
X0088693Y0068811D01*
X0088714Y0068878D01*
X0088732Y0068945D01*
X0088745Y0069014D01*
X0088755Y0069083D01*
X0088761Y0069152D01*
X0088763Y0069222D01*
X0088761Y0069292D01*
X0088755Y0069361D01*
X0088745Y0069430D01*
X0088732Y0069499D01*
X0088714Y0069566D01*
X0088693Y0069633D01*
X0088668Y0069698D01*
X0088640Y0069762D01*
X0088608Y0069824D01*
X0088572Y0069884D01*
X0088534Y0069942D01*
X0088492Y0069998D01*
X0088447Y0070051D01*
X0088399Y0070102D01*
X0088348Y0070150D01*
X0088295Y0070195D01*
X0088239Y0070237D01*
X0088181Y0070275D01*
X0088121Y0070311D01*
X0088059Y0070343D01*
X0087995Y0070371D01*
X0087930Y0070396D01*
X0087863Y0070417D01*
X0087796Y0070435D01*
X0087727Y0070448D01*
X0087658Y0070458D01*
X0087589Y0070464D01*
X0087519Y0070466D01*
X0083196Y0070822D02*
X0083196Y0069399D01*
X0083194Y0069325D01*
X0083188Y0069250D01*
X0083178Y0069177D01*
X0083165Y0069103D01*
X0083148Y0069031D01*
X0083126Y0068960D01*
X0083102Y0068889D01*
X0083073Y0068821D01*
X0083041Y0068753D01*
X0083005Y0068688D01*
X0082967Y0068625D01*
X0082924Y0068563D01*
X0082879Y0068504D01*
X0082831Y0068447D01*
X0082780Y0068393D01*
X0082726Y0068342D01*
X0082669Y0068294D01*
X0082610Y0068249D01*
X0082548Y0068206D01*
X0082485Y0068168D01*
X0082420Y0068132D01*
X0082352Y0068100D01*
X0082284Y0068071D01*
X0082213Y0068047D01*
X0082142Y0068025D01*
X0082070Y0068008D01*
X0081996Y0067995D01*
X0081923Y0067985D01*
X0081848Y0067979D01*
X0081774Y0067977D01*
X0081700Y0067979D01*
X0081625Y0067985D01*
X0081552Y0067995D01*
X0081478Y0068008D01*
X0081406Y0068025D01*
X0081335Y0068047D01*
X0081264Y0068071D01*
X0081196Y0068100D01*
X0081128Y0068132D01*
X0081063Y0068168D01*
X0081000Y0068206D01*
X0080938Y0068249D01*
X0080879Y0068294D01*
X0080822Y0068342D01*
X0080768Y0068393D01*
X0080717Y0068447D01*
X0080669Y0068504D01*
X0080624Y0068563D01*
X0080581Y0068625D01*
X0080543Y0068688D01*
X0080507Y0068753D01*
X0080475Y0068821D01*
X0080446Y0068889D01*
X0080422Y0068960D01*
X0080400Y0069031D01*
X0080383Y0069103D01*
X0080370Y0069177D01*
X0080360Y0069250D01*
X0080354Y0069325D01*
X0080352Y0069399D01*
X0080352Y0070822D01*
X0080354Y0070896D01*
X0080360Y0070971D01*
X0080370Y0071044D01*
X0080383Y0071118D01*
X0080400Y0071190D01*
X0080422Y0071261D01*
X0080446Y0071332D01*
X0080475Y0071400D01*
X0080507Y0071468D01*
X0080543Y0071533D01*
X0080581Y0071596D01*
X0080624Y0071658D01*
X0080669Y0071717D01*
X0080717Y0071774D01*
X0080768Y0071828D01*
X0080822Y0071879D01*
X0080879Y0071927D01*
X0080938Y0071972D01*
X0081000Y0072015D01*
X0081063Y0072053D01*
X0081128Y0072089D01*
X0081196Y0072121D01*
X0081264Y0072150D01*
X0081335Y0072174D01*
X0081406Y0072196D01*
X0081478Y0072213D01*
X0081552Y0072226D01*
X0081625Y0072236D01*
X0081700Y0072242D01*
X0081774Y0072244D01*
X0081848Y0072242D01*
X0081923Y0072236D01*
X0081996Y0072226D01*
X0082070Y0072213D01*
X0082142Y0072196D01*
X0082213Y0072174D01*
X0082284Y0072150D01*
X0082352Y0072121D01*
X0082420Y0072089D01*
X0082485Y0072053D01*
X0082548Y0072015D01*
X0082610Y0071972D01*
X0082669Y0071927D01*
X0082726Y0071879D01*
X0082780Y0071828D01*
X0082831Y0071774D01*
X0082879Y0071717D01*
X0082924Y0071658D01*
X0082967Y0071596D01*
X0083005Y0071533D01*
X0083041Y0071468D01*
X0083073Y0071400D01*
X0083102Y0071332D01*
X0083126Y0071261D01*
X0083148Y0071190D01*
X0083165Y0071118D01*
X0083178Y0071044D01*
X0083188Y0070971D01*
X0083194Y0070896D01*
X0083196Y0070822D01*
X0081820Y0063877D02*
X0079686Y0060855D01*
X0079686Y0057477D01*
X0079686Y0060855D02*
X0077553Y0063877D01*
X0075160Y0061744D02*
X0075160Y0058544D01*
X0075158Y0058480D01*
X0075152Y0058415D01*
X0075143Y0058352D01*
X0075129Y0058289D01*
X0075112Y0058227D01*
X0075091Y0058166D01*
X0075066Y0058106D01*
X0075038Y0058048D01*
X0075006Y0057992D01*
X0074971Y0057938D01*
X0074933Y0057886D01*
X0074892Y0057836D01*
X0074847Y0057790D01*
X0074801Y0057745D01*
X0074751Y0057704D01*
X0074699Y0057666D01*
X0074645Y0057631D01*
X0074589Y0057599D01*
X0074531Y0057571D01*
X0074471Y0057546D01*
X0074410Y0057525D01*
X0074348Y0057508D01*
X0074285Y0057494D01*
X0074222Y0057485D01*
X0074157Y0057479D01*
X0074093Y0057477D01*
X0072315Y0057477D01*
X0072315Y0061744D01*
X0071464Y0067977D02*
X0074309Y0067977D01*
X0074309Y0074377D01*
X0073683Y0078477D02*
X0071549Y0078477D01*
X0071549Y0082033D01*
X0072616Y0082033D01*
X0075105Y0083455D02*
X0075103Y0083529D01*
X0075097Y0083604D01*
X0075087Y0083677D01*
X0075074Y0083751D01*
X0075057Y0083823D01*
X0075035Y0083894D01*
X0075011Y0083965D01*
X0074982Y0084033D01*
X0074950Y0084101D01*
X0074914Y0084166D01*
X0074876Y0084229D01*
X0074833Y0084291D01*
X0074788Y0084350D01*
X0074740Y0084407D01*
X0074689Y0084461D01*
X0074635Y0084512D01*
X0074578Y0084560D01*
X0074519Y0084605D01*
X0074457Y0084648D01*
X0074394Y0084686D01*
X0074329Y0084722D01*
X0074261Y0084754D01*
X0074193Y0084783D01*
X0074122Y0084807D01*
X0074051Y0084829D01*
X0073979Y0084846D01*
X0073905Y0084859D01*
X0073832Y0084869D01*
X0073757Y0084875D01*
X0073683Y0084877D01*
X0071549Y0084877D01*
X0075105Y0083455D02*
X0075105Y0079899D01*
X0075103Y0079825D01*
X0075097Y0079750D01*
X0075087Y0079677D01*
X0075074Y0079603D01*
X0075057Y0079531D01*
X0075035Y0079460D01*
X0075011Y0079389D01*
X0074982Y0079321D01*
X0074950Y0079253D01*
X0074914Y0079188D01*
X0074876Y0079125D01*
X0074833Y0079063D01*
X0074788Y0079004D01*
X0074740Y0078947D01*
X0074689Y0078893D01*
X0074635Y0078842D01*
X0074578Y0078794D01*
X0074519Y0078749D01*
X0074457Y0078706D01*
X0074394Y0078668D01*
X0074329Y0078632D01*
X0074261Y0078600D01*
X0074193Y0078571D01*
X0074122Y0078547D01*
X0074051Y0078525D01*
X0073979Y0078508D01*
X0073905Y0078495D01*
X0073832Y0078485D01*
X0073757Y0078479D01*
X0073683Y0078477D01*
X0068801Y0079899D02*
X0068801Y0081322D01*
X0068800Y0081322D02*
X0068798Y0081396D01*
X0068792Y0081471D01*
X0068782Y0081544D01*
X0068769Y0081618D01*
X0068752Y0081690D01*
X0068730Y0081761D01*
X0068706Y0081832D01*
X0068677Y0081900D01*
X0068645Y0081968D01*
X0068609Y0082033D01*
X0068571Y0082096D01*
X0068528Y0082158D01*
X0068483Y0082217D01*
X0068435Y0082274D01*
X0068384Y0082328D01*
X0068330Y0082379D01*
X0068273Y0082427D01*
X0068214Y0082472D01*
X0068152Y0082515D01*
X0068089Y0082553D01*
X0068024Y0082589D01*
X0067956Y0082621D01*
X0067888Y0082650D01*
X0067817Y0082674D01*
X0067746Y0082696D01*
X0067674Y0082713D01*
X0067600Y0082726D01*
X0067527Y0082736D01*
X0067452Y0082742D01*
X0067378Y0082744D01*
X0067304Y0082742D01*
X0067229Y0082736D01*
X0067156Y0082726D01*
X0067082Y0082713D01*
X0067010Y0082696D01*
X0066939Y0082674D01*
X0066868Y0082650D01*
X0066800Y0082621D01*
X0066732Y0082589D01*
X0066667Y0082553D01*
X0066604Y0082515D01*
X0066542Y0082472D01*
X0066483Y0082427D01*
X0066426Y0082379D01*
X0066372Y0082328D01*
X0066321Y0082274D01*
X0066273Y0082217D01*
X0066228Y0082158D01*
X0066185Y0082096D01*
X0066147Y0082033D01*
X0066111Y0081968D01*
X0066079Y0081900D01*
X0066050Y0081832D01*
X0066026Y0081761D01*
X0066004Y0081690D01*
X0065987Y0081618D01*
X0065974Y0081544D01*
X0065964Y0081471D01*
X0065958Y0081396D01*
X0065956Y0081322D01*
X0065956Y0079899D01*
X0065958Y0079825D01*
X0065964Y0079750D01*
X0065974Y0079677D01*
X0065987Y0079603D01*
X0066004Y0079531D01*
X0066026Y0079460D01*
X0066050Y0079389D01*
X0066079Y0079321D01*
X0066111Y0079253D01*
X0066147Y0079188D01*
X0066185Y0079125D01*
X0066228Y0079063D01*
X0066273Y0079004D01*
X0066321Y0078947D01*
X0066372Y0078893D01*
X0066426Y0078842D01*
X0066483Y0078794D01*
X0066542Y0078749D01*
X0066604Y0078706D01*
X0066667Y0078668D01*
X0066732Y0078632D01*
X0066800Y0078600D01*
X0066868Y0078571D01*
X0066939Y0078547D01*
X0067010Y0078525D01*
X0067082Y0078508D01*
X0067156Y0078495D01*
X0067229Y0078485D01*
X0067304Y0078479D01*
X0067378Y0078477D01*
X0067452Y0078479D01*
X0067527Y0078485D01*
X0067600Y0078495D01*
X0067674Y0078508D01*
X0067746Y0078525D01*
X0067817Y0078547D01*
X0067888Y0078571D01*
X0067956Y0078600D01*
X0068024Y0078632D01*
X0068089Y0078668D01*
X0068152Y0078706D01*
X0068214Y0078749D01*
X0068273Y0078794D01*
X0068330Y0078842D01*
X0068384Y0078893D01*
X0068435Y0078947D01*
X0068483Y0079004D01*
X0068528Y0079063D01*
X0068571Y0079125D01*
X0068609Y0079188D01*
X0068645Y0079253D01*
X0068677Y0079321D01*
X0068706Y0079389D01*
X0068730Y0079460D01*
X0068752Y0079531D01*
X0068769Y0079603D01*
X0068782Y0079677D01*
X0068792Y0079750D01*
X0068798Y0079825D01*
X0068800Y0079899D01*
X0063262Y0078477D02*
X0063262Y0082744D01*
X0061484Y0082744D01*
X0061420Y0082742D01*
X0061355Y0082736D01*
X0061292Y0082727D01*
X0061229Y0082713D01*
X0061167Y0082696D01*
X0061106Y0082675D01*
X0061046Y0082650D01*
X0060988Y0082622D01*
X0060932Y0082590D01*
X0060878Y0082555D01*
X0060826Y0082517D01*
X0060776Y0082476D01*
X0060730Y0082431D01*
X0060685Y0082385D01*
X0060644Y0082335D01*
X0060606Y0082283D01*
X0060571Y0082229D01*
X0060539Y0082173D01*
X0060511Y0082115D01*
X0060486Y0082055D01*
X0060465Y0081994D01*
X0060448Y0081932D01*
X0060434Y0081869D01*
X0060425Y0081806D01*
X0060419Y0081741D01*
X0060417Y0081677D01*
X0060417Y0078477D01*
X0057752Y0079544D02*
X0057752Y0081677D01*
X0057750Y0081741D01*
X0057744Y0081806D01*
X0057735Y0081869D01*
X0057721Y0081932D01*
X0057704Y0081994D01*
X0057683Y0082055D01*
X0057658Y0082115D01*
X0057630Y0082173D01*
X0057598Y0082229D01*
X0057563Y0082283D01*
X0057525Y0082335D01*
X0057484Y0082385D01*
X0057439Y0082431D01*
X0057393Y0082476D01*
X0057343Y0082517D01*
X0057291Y0082555D01*
X0057237Y0082590D01*
X0057181Y0082622D01*
X0057123Y0082650D01*
X0057063Y0082675D01*
X0057002Y0082696D01*
X0056940Y0082713D01*
X0056877Y0082727D01*
X0056814Y0082736D01*
X0056749Y0082742D01*
X0056685Y0082744D01*
X0054908Y0082744D01*
X0054908Y0077411D01*
X0054908Y0078477D02*
X0056685Y0078477D01*
X0056749Y0078479D01*
X0056814Y0078485D01*
X0056877Y0078494D01*
X0056940Y0078508D01*
X0057002Y0078525D01*
X0057063Y0078546D01*
X0057123Y0078571D01*
X0057181Y0078599D01*
X0057237Y0078631D01*
X0057291Y0078666D01*
X0057343Y0078704D01*
X0057393Y0078745D01*
X0057439Y0078790D01*
X0057484Y0078836D01*
X0057525Y0078886D01*
X0057563Y0078938D01*
X0057598Y0078992D01*
X0057630Y0079048D01*
X0057658Y0079106D01*
X0057683Y0079166D01*
X0057704Y0079227D01*
X0057721Y0079289D01*
X0057735Y0079352D01*
X0057744Y0079415D01*
X0057750Y0079480D01*
X0057752Y0079544D01*
X0054907Y0077411D02*
X0054909Y0077347D01*
X0054915Y0077282D01*
X0054924Y0077219D01*
X0054938Y0077156D01*
X0054955Y0077094D01*
X0054976Y0077033D01*
X0055001Y0076973D01*
X0055029Y0076915D01*
X0055061Y0076859D01*
X0055096Y0076805D01*
X0055134Y0076753D01*
X0055175Y0076703D01*
X0055220Y0076657D01*
X0055266Y0076612D01*
X0055316Y0076571D01*
X0055368Y0076533D01*
X0055422Y0076498D01*
X0055478Y0076466D01*
X0055536Y0076438D01*
X0055596Y0076413D01*
X0055657Y0076392D01*
X0055719Y0076375D01*
X0055782Y0076361D01*
X0055845Y0076352D01*
X0055910Y0076346D01*
X0055974Y0076344D01*
X0057397Y0076344D01*
X0057132Y0072244D02*
X0055354Y0072244D01*
X0055354Y0066911D01*
X0055354Y0067977D02*
X0057132Y0067977D01*
X0057196Y0067979D01*
X0057261Y0067985D01*
X0057324Y0067994D01*
X0057387Y0068008D01*
X0057449Y0068025D01*
X0057510Y0068046D01*
X0057570Y0068071D01*
X0057628Y0068099D01*
X0057684Y0068131D01*
X0057738Y0068166D01*
X0057790Y0068204D01*
X0057840Y0068245D01*
X0057886Y0068290D01*
X0057931Y0068336D01*
X0057972Y0068386D01*
X0058010Y0068438D01*
X0058045Y0068492D01*
X0058077Y0068548D01*
X0058105Y0068606D01*
X0058130Y0068666D01*
X0058151Y0068727D01*
X0058168Y0068789D01*
X0058182Y0068852D01*
X0058191Y0068915D01*
X0058197Y0068980D01*
X0058199Y0069044D01*
X0058199Y0071177D01*
X0058197Y0071241D01*
X0058191Y0071306D01*
X0058182Y0071369D01*
X0058168Y0071432D01*
X0058151Y0071494D01*
X0058130Y0071555D01*
X0058105Y0071615D01*
X0058077Y0071673D01*
X0058045Y0071729D01*
X0058010Y0071783D01*
X0057972Y0071835D01*
X0057931Y0071885D01*
X0057886Y0071931D01*
X0057840Y0071976D01*
X0057790Y0072017D01*
X0057738Y0072055D01*
X0057684Y0072090D01*
X0057628Y0072122D01*
X0057570Y0072150D01*
X0057510Y0072175D01*
X0057449Y0072196D01*
X0057387Y0072213D01*
X0057324Y0072227D01*
X0057261Y0072236D01*
X0057196Y0072242D01*
X0057132Y0072244D01*
X0060864Y0071177D02*
X0060864Y0067977D01*
X0063708Y0067977D02*
X0063708Y0072244D01*
X0061931Y0072244D01*
X0061867Y0072242D01*
X0061802Y0072236D01*
X0061739Y0072227D01*
X0061676Y0072213D01*
X0061614Y0072196D01*
X0061553Y0072175D01*
X0061493Y0072150D01*
X0061435Y0072122D01*
X0061379Y0072090D01*
X0061325Y0072055D01*
X0061273Y0072017D01*
X0061223Y0071976D01*
X0061177Y0071931D01*
X0061132Y0071885D01*
X0061091Y0071835D01*
X0061053Y0071783D01*
X0061018Y0071729D01*
X0060986Y0071673D01*
X0060958Y0071615D01*
X0060933Y0071555D01*
X0060912Y0071494D01*
X0060895Y0071432D01*
X0060881Y0071369D01*
X0060872Y0071306D01*
X0060866Y0071241D01*
X0060864Y0071177D01*
X0066402Y0070822D02*
X0066402Y0069399D01*
X0066403Y0069399D02*
X0066405Y0069325D01*
X0066411Y0069250D01*
X0066421Y0069177D01*
X0066434Y0069103D01*
X0066451Y0069031D01*
X0066473Y0068960D01*
X0066497Y0068889D01*
X0066526Y0068821D01*
X0066558Y0068753D01*
X0066594Y0068688D01*
X0066632Y0068625D01*
X0066675Y0068563D01*
X0066720Y0068504D01*
X0066768Y0068447D01*
X0066819Y0068393D01*
X0066873Y0068342D01*
X0066930Y0068294D01*
X0066989Y0068249D01*
X0067051Y0068206D01*
X0067114Y0068168D01*
X0067179Y0068132D01*
X0067247Y0068100D01*
X0067315Y0068071D01*
X0067386Y0068047D01*
X0067457Y0068025D01*
X0067529Y0068008D01*
X0067603Y0067995D01*
X0067676Y0067985D01*
X0067751Y0067979D01*
X0067825Y0067977D01*
X0067899Y0067979D01*
X0067974Y0067985D01*
X0068047Y0067995D01*
X0068121Y0068008D01*
X0068193Y0068025D01*
X0068264Y0068047D01*
X0068335Y0068071D01*
X0068403Y0068100D01*
X0068471Y0068132D01*
X0068536Y0068168D01*
X0068599Y0068206D01*
X0068661Y0068249D01*
X0068720Y0068294D01*
X0068777Y0068342D01*
X0068831Y0068393D01*
X0068882Y0068447D01*
X0068930Y0068504D01*
X0068975Y0068563D01*
X0069018Y0068625D01*
X0069056Y0068688D01*
X0069092Y0068753D01*
X0069124Y0068821D01*
X0069153Y0068889D01*
X0069177Y0068960D01*
X0069199Y0069031D01*
X0069216Y0069103D01*
X0069229Y0069177D01*
X0069239Y0069250D01*
X0069245Y0069325D01*
X0069247Y0069399D01*
X0069247Y0070822D01*
X0069245Y0070896D01*
X0069239Y0070971D01*
X0069229Y0071044D01*
X0069216Y0071118D01*
X0069199Y0071190D01*
X0069177Y0071261D01*
X0069153Y0071332D01*
X0069124Y0071400D01*
X0069092Y0071468D01*
X0069056Y0071533D01*
X0069018Y0071596D01*
X0068975Y0071658D01*
X0068930Y0071717D01*
X0068882Y0071774D01*
X0068831Y0071828D01*
X0068777Y0071879D01*
X0068720Y0071927D01*
X0068661Y0071972D01*
X0068599Y0072015D01*
X0068536Y0072053D01*
X0068471Y0072089D01*
X0068403Y0072121D01*
X0068335Y0072150D01*
X0068264Y0072174D01*
X0068193Y0072196D01*
X0068121Y0072213D01*
X0068047Y0072226D01*
X0067974Y0072236D01*
X0067899Y0072242D01*
X0067825Y0072244D01*
X0067751Y0072242D01*
X0067676Y0072236D01*
X0067603Y0072226D01*
X0067529Y0072213D01*
X0067457Y0072196D01*
X0067386Y0072174D01*
X0067315Y0072150D01*
X0067247Y0072121D01*
X0067179Y0072089D01*
X0067114Y0072053D01*
X0067051Y0072015D01*
X0066989Y0071972D01*
X0066930Y0071927D01*
X0066873Y0071879D01*
X0066819Y0071828D01*
X0066768Y0071774D01*
X0066720Y0071717D01*
X0066675Y0071658D01*
X0066632Y0071596D01*
X0066594Y0071533D01*
X0066558Y0071468D01*
X0066526Y0071400D01*
X0066497Y0071332D01*
X0066473Y0071261D01*
X0066451Y0071190D01*
X0066434Y0071118D01*
X0066421Y0071044D01*
X0066411Y0070971D01*
X0066405Y0070896D01*
X0066403Y0070822D01*
X0057843Y0065844D02*
X0056421Y0065844D01*
X0056357Y0065846D01*
X0056292Y0065852D01*
X0056229Y0065861D01*
X0056166Y0065875D01*
X0056104Y0065892D01*
X0056043Y0065913D01*
X0055983Y0065938D01*
X0055925Y0065966D01*
X0055869Y0065998D01*
X0055815Y0066033D01*
X0055763Y0066071D01*
X0055713Y0066112D01*
X0055667Y0066157D01*
X0055622Y0066203D01*
X0055581Y0066253D01*
X0055543Y0066305D01*
X0055508Y0066359D01*
X0055476Y0066415D01*
X0055448Y0066473D01*
X0055423Y0066533D01*
X0055402Y0066594D01*
X0055385Y0066656D01*
X0055371Y0066719D01*
X0055362Y0066782D01*
X0055356Y0066847D01*
X0055354Y0066911D01*
X0057558Y0088977D02*
X0059335Y0088977D01*
X0059335Y0095377D01*
X0059335Y0093244D02*
X0057558Y0093244D01*
X0057494Y0093242D01*
X0057429Y0093236D01*
X0057366Y0093227D01*
X0057303Y0093213D01*
X0057241Y0093196D01*
X0057180Y0093175D01*
X0057120Y0093150D01*
X0057062Y0093122D01*
X0057006Y0093090D01*
X0056952Y0093055D01*
X0056900Y0093017D01*
X0056850Y0092976D01*
X0056804Y0092931D01*
X0056759Y0092885D01*
X0056718Y0092835D01*
X0056680Y0092783D01*
X0056645Y0092729D01*
X0056613Y0092673D01*
X0056585Y0092615D01*
X0056560Y0092555D01*
X0056539Y0092494D01*
X0056522Y0092432D01*
X0056508Y0092369D01*
X0056499Y0092306D01*
X0056493Y0092241D01*
X0056491Y0092177D01*
X0056491Y0090044D01*
X0056493Y0089980D01*
X0056499Y0089915D01*
X0056508Y0089852D01*
X0056522Y0089789D01*
X0056539Y0089727D01*
X0056560Y0089666D01*
X0056585Y0089606D01*
X0056613Y0089548D01*
X0056645Y0089492D01*
X0056680Y0089438D01*
X0056718Y0089386D01*
X0056759Y0089336D01*
X0056804Y0089290D01*
X0056850Y0089245D01*
X0056900Y0089204D01*
X0056952Y0089166D01*
X0057006Y0089131D01*
X0057062Y0089099D01*
X0057120Y0089071D01*
X0057180Y0089046D01*
X0057241Y0089025D01*
X0057303Y0089008D01*
X0057366Y0088994D01*
X0057429Y0088985D01*
X0057494Y0088979D01*
X0057558Y0088977D01*
X0054031Y0090044D02*
X0054031Y0091822D01*
X0054031Y0091110D02*
X0051186Y0091110D01*
X0051186Y0091822D01*
X0051187Y0091822D02*
X0051189Y0091896D01*
X0051195Y0091971D01*
X0051205Y0092044D01*
X0051218Y0092118D01*
X0051235Y0092190D01*
X0051257Y0092261D01*
X0051281Y0092332D01*
X0051310Y0092400D01*
X0051342Y0092468D01*
X0051378Y0092533D01*
X0051416Y0092596D01*
X0051459Y0092658D01*
X0051504Y0092717D01*
X0051552Y0092774D01*
X0051603Y0092828D01*
X0051657Y0092879D01*
X0051714Y0092927D01*
X0051773Y0092972D01*
X0051835Y0093015D01*
X0051898Y0093053D01*
X0051963Y0093089D01*
X0052031Y0093121D01*
X0052099Y0093150D01*
X0052170Y0093174D01*
X0052241Y0093196D01*
X0052313Y0093213D01*
X0052387Y0093226D01*
X0052460Y0093236D01*
X0052535Y0093242D01*
X0052609Y0093244D01*
X0052683Y0093242D01*
X0052758Y0093236D01*
X0052831Y0093226D01*
X0052905Y0093213D01*
X0052977Y0093196D01*
X0053048Y0093174D01*
X0053119Y0093150D01*
X0053187Y0093121D01*
X0053255Y0093089D01*
X0053320Y0093053D01*
X0053383Y0093015D01*
X0053445Y0092972D01*
X0053504Y0092927D01*
X0053561Y0092879D01*
X0053615Y0092828D01*
X0053666Y0092774D01*
X0053714Y0092717D01*
X0053759Y0092658D01*
X0053802Y0092596D01*
X0053840Y0092533D01*
X0053876Y0092468D01*
X0053908Y0092400D01*
X0053937Y0092332D01*
X0053961Y0092261D01*
X0053983Y0092190D01*
X0054000Y0092118D01*
X0054013Y0092044D01*
X0054023Y0091971D01*
X0054029Y0091896D01*
X0054031Y0091822D01*
X0054031Y0090044D02*
X0054029Y0089980D01*
X0054023Y0089915D01*
X0054014Y0089852D01*
X0054000Y0089789D01*
X0053983Y0089727D01*
X0053962Y0089666D01*
X0053937Y0089606D01*
X0053909Y0089548D01*
X0053877Y0089492D01*
X0053842Y0089438D01*
X0053804Y0089386D01*
X0053763Y0089336D01*
X0053718Y0089290D01*
X0053672Y0089245D01*
X0053622Y0089204D01*
X0053570Y0089166D01*
X0053516Y0089131D01*
X0053460Y0089099D01*
X0053402Y0089071D01*
X0053342Y0089046D01*
X0053281Y0089025D01*
X0053219Y0089008D01*
X0053156Y0088994D01*
X0053093Y0088985D01*
X0053028Y0088979D01*
X0052964Y0088977D01*
X0051186Y0088977D01*
X0048459Y0088977D02*
X0048459Y0093244D01*
X0046325Y0093244D01*
X0046325Y0092533D01*
X0043856Y0091466D02*
X0042078Y0090755D01*
X0042079Y0090755D02*
X0042024Y0090731D01*
X0041971Y0090704D01*
X0041920Y0090673D01*
X0041871Y0090639D01*
X0041825Y0090602D01*
X0041781Y0090562D01*
X0041739Y0090520D01*
X0041701Y0090474D01*
X0041665Y0090427D01*
X0041633Y0090377D01*
X0041603Y0090325D01*
X0041578Y0090271D01*
X0041555Y0090216D01*
X0041537Y0090160D01*
X0041522Y0090102D01*
X0041510Y0090044D01*
X0041503Y0089985D01*
X0041499Y0089925D01*
X0041500Y0089866D01*
X0041504Y0089806D01*
X0041512Y0089747D01*
X0041523Y0089689D01*
X0041539Y0089632D01*
X0041558Y0089575D01*
X0041580Y0089520D01*
X0041607Y0089467D01*
X0041636Y0089415D01*
X0041669Y0089366D01*
X0041705Y0089318D01*
X0041744Y0089273D01*
X0041786Y0089231D01*
X0041830Y0089191D01*
X0041877Y0089155D01*
X0041926Y0089121D01*
X0041977Y0089091D01*
X0042030Y0089064D01*
X0042085Y0089040D01*
X0042141Y0089021D01*
X0042198Y0089004D01*
X0042257Y0088992D01*
X0042315Y0088983D01*
X0042375Y0088978D01*
X0042434Y0088977D01*
X0041900Y0092889D02*
X0042008Y0092936D01*
X0042118Y0092979D01*
X0042229Y0093020D01*
X0042341Y0093057D01*
X0042453Y0093091D01*
X0042567Y0093122D01*
X0042682Y0093149D01*
X0042798Y0093173D01*
X0042914Y0093193D01*
X0043030Y0093210D01*
X0043147Y0093224D01*
X0043265Y0093234D01*
X0043382Y0093241D01*
X0043500Y0093245D01*
X0043501Y0093244D02*
X0043560Y0093243D01*
X0043620Y0093238D01*
X0043678Y0093229D01*
X0043737Y0093217D01*
X0043794Y0093200D01*
X0043850Y0093181D01*
X0043905Y0093157D01*
X0043958Y0093130D01*
X0044009Y0093100D01*
X0044058Y0093066D01*
X0044105Y0093030D01*
X0044149Y0092990D01*
X0044191Y0092948D01*
X0044230Y0092903D01*
X0044266Y0092855D01*
X0044299Y0092806D01*
X0044328Y0092754D01*
X0044355Y0092701D01*
X0044377Y0092646D01*
X0044396Y0092589D01*
X0044412Y0092532D01*
X0044423Y0092474D01*
X0044431Y0092415D01*
X0044435Y0092355D01*
X0044436Y0092296D01*
X0044432Y0092236D01*
X0044425Y0092177D01*
X0044413Y0092119D01*
X0044398Y0092061D01*
X0044380Y0092005D01*
X0044357Y0091950D01*
X0044332Y0091896D01*
X0044302Y0091844D01*
X0044270Y0091794D01*
X0044234Y0091747D01*
X0044196Y0091701D01*
X0044154Y0091659D01*
X0044110Y0091619D01*
X0044064Y0091582D01*
X0044015Y0091548D01*
X0043964Y0091517D01*
X0043911Y0091490D01*
X0043856Y0091466D01*
X0044390Y0089332D02*
X0044245Y0089282D01*
X0044098Y0089236D01*
X0043951Y0089193D01*
X0043802Y0089154D01*
X0043652Y0089119D01*
X0043502Y0089087D01*
X0043351Y0089060D01*
X0043199Y0089036D01*
X0043047Y0089017D01*
X0042894Y0089001D01*
X0042741Y0088989D01*
X0042588Y0088981D01*
X0042434Y0088977D01*
X0039042Y0089510D02*
X0038687Y0089510D01*
X0038687Y0089866D01*
X0039042Y0089866D01*
X0039042Y0089510D01*
X0039042Y0092355D02*
X0038687Y0092355D01*
X0038687Y0092710D01*
X0039042Y0092710D01*
X0039042Y0092355D01*
X0045208Y0110333D02*
X0045208Y0114599D01*
X0043075Y0112466D02*
X0047342Y0112466D01*
X0049735Y0114244D02*
X0052579Y0109977D01*
X0054863Y0111399D02*
X0054863Y0112822D01*
X0054864Y0112822D02*
X0054866Y0112896D01*
X0054872Y0112971D01*
X0054882Y0113044D01*
X0054895Y0113118D01*
X0054912Y0113190D01*
X0054934Y0113261D01*
X0054958Y0113332D01*
X0054987Y0113400D01*
X0055019Y0113468D01*
X0055055Y0113533D01*
X0055093Y0113596D01*
X0055136Y0113658D01*
X0055181Y0113717D01*
X0055229Y0113774D01*
X0055280Y0113828D01*
X0055334Y0113879D01*
X0055391Y0113927D01*
X0055450Y0113972D01*
X0055512Y0114015D01*
X0055575Y0114053D01*
X0055640Y0114089D01*
X0055708Y0114121D01*
X0055776Y0114150D01*
X0055847Y0114174D01*
X0055918Y0114196D01*
X0055990Y0114213D01*
X0056064Y0114226D01*
X0056137Y0114236D01*
X0056212Y0114242D01*
X0056286Y0114244D01*
X0056360Y0114242D01*
X0056435Y0114236D01*
X0056508Y0114226D01*
X0056582Y0114213D01*
X0056654Y0114196D01*
X0056725Y0114174D01*
X0056796Y0114150D01*
X0056864Y0114121D01*
X0056932Y0114089D01*
X0056997Y0114053D01*
X0057060Y0114015D01*
X0057122Y0113972D01*
X0057181Y0113927D01*
X0057238Y0113879D01*
X0057292Y0113828D01*
X0057343Y0113774D01*
X0057391Y0113717D01*
X0057436Y0113658D01*
X0057479Y0113596D01*
X0057517Y0113533D01*
X0057553Y0113468D01*
X0057585Y0113400D01*
X0057614Y0113332D01*
X0057638Y0113261D01*
X0057660Y0113190D01*
X0057677Y0113118D01*
X0057690Y0113044D01*
X0057700Y0112971D01*
X0057706Y0112896D01*
X0057708Y0112822D01*
X0057708Y0111399D01*
X0057706Y0111325D01*
X0057700Y0111250D01*
X0057690Y0111177D01*
X0057677Y0111103D01*
X0057660Y0111031D01*
X0057638Y0110960D01*
X0057614Y0110889D01*
X0057585Y0110821D01*
X0057553Y0110753D01*
X0057517Y0110688D01*
X0057479Y0110625D01*
X0057436Y0110563D01*
X0057391Y0110504D01*
X0057343Y0110447D01*
X0057292Y0110393D01*
X0057238Y0110342D01*
X0057181Y0110294D01*
X0057122Y0110249D01*
X0057060Y0110206D01*
X0056997Y0110168D01*
X0056932Y0110132D01*
X0056864Y0110100D01*
X0056796Y0110071D01*
X0056725Y0110047D01*
X0056654Y0110025D01*
X0056582Y0110008D01*
X0056508Y0109995D01*
X0056435Y0109985D01*
X0056360Y0109979D01*
X0056286Y0109977D01*
X0056212Y0109979D01*
X0056137Y0109985D01*
X0056064Y0109995D01*
X0055990Y0110008D01*
X0055918Y0110025D01*
X0055847Y0110047D01*
X0055776Y0110071D01*
X0055708Y0110100D01*
X0055640Y0110132D01*
X0055575Y0110168D01*
X0055512Y0110206D01*
X0055450Y0110249D01*
X0055391Y0110294D01*
X0055334Y0110342D01*
X0055280Y0110393D01*
X0055229Y0110447D01*
X0055181Y0110504D01*
X0055136Y0110563D01*
X0055093Y0110625D01*
X0055055Y0110688D01*
X0055019Y0110753D01*
X0054987Y0110821D01*
X0054958Y0110889D01*
X0054934Y0110960D01*
X0054912Y0111031D01*
X0054895Y0111103D01*
X0054882Y0111177D01*
X0054872Y0111250D01*
X0054866Y0111325D01*
X0054864Y0111399D01*
X0052579Y0114244D02*
X0049735Y0109977D01*
X0061741Y0109977D02*
X0063519Y0109977D01*
X0063519Y0116377D01*
X0061741Y0116377D01*
X0061667Y0116375D01*
X0061592Y0116369D01*
X0061519Y0116359D01*
X0061445Y0116346D01*
X0061373Y0116329D01*
X0061302Y0116307D01*
X0061231Y0116283D01*
X0061163Y0116254D01*
X0061095Y0116222D01*
X0061030Y0116186D01*
X0060967Y0116148D01*
X0060905Y0116105D01*
X0060846Y0116060D01*
X0060789Y0116012D01*
X0060735Y0115961D01*
X0060684Y0115907D01*
X0060636Y0115850D01*
X0060591Y0115791D01*
X0060548Y0115729D01*
X0060510Y0115666D01*
X0060474Y0115601D01*
X0060442Y0115533D01*
X0060413Y0115465D01*
X0060389Y0115394D01*
X0060367Y0115323D01*
X0060350Y0115251D01*
X0060337Y0115177D01*
X0060327Y0115104D01*
X0060321Y0115029D01*
X0060319Y0114955D01*
X0060321Y0114881D01*
X0060327Y0114806D01*
X0060337Y0114733D01*
X0060350Y0114659D01*
X0060367Y0114587D01*
X0060389Y0114516D01*
X0060413Y0114445D01*
X0060442Y0114377D01*
X0060474Y0114309D01*
X0060510Y0114244D01*
X0060548Y0114181D01*
X0060591Y0114119D01*
X0060636Y0114060D01*
X0060684Y0114003D01*
X0060735Y0113949D01*
X0060789Y0113898D01*
X0060846Y0113850D01*
X0060905Y0113805D01*
X0060967Y0113762D01*
X0061030Y0113724D01*
X0061095Y0113688D01*
X0061163Y0113656D01*
X0061231Y0113627D01*
X0061302Y0113603D01*
X0061373Y0113581D01*
X0061445Y0113564D01*
X0061519Y0113551D01*
X0061592Y0113541D01*
X0061667Y0113535D01*
X0061741Y0113533D01*
X0063519Y0113533D01*
X0065798Y0113533D02*
X0065798Y0114244D01*
X0067931Y0114244D01*
X0067931Y0109977D01*
X0070659Y0109977D02*
X0072436Y0109977D01*
X0072500Y0109979D01*
X0072565Y0109985D01*
X0072628Y0109994D01*
X0072691Y0110008D01*
X0072753Y0110025D01*
X0072814Y0110046D01*
X0072874Y0110071D01*
X0072932Y0110099D01*
X0072988Y0110131D01*
X0073042Y0110166D01*
X0073094Y0110204D01*
X0073144Y0110245D01*
X0073190Y0110290D01*
X0073235Y0110336D01*
X0073276Y0110386D01*
X0073314Y0110438D01*
X0073349Y0110492D01*
X0073381Y0110548D01*
X0073409Y0110606D01*
X0073434Y0110666D01*
X0073455Y0110727D01*
X0073472Y0110789D01*
X0073486Y0110852D01*
X0073495Y0110915D01*
X0073501Y0110980D01*
X0073503Y0111044D01*
X0073503Y0112822D01*
X0073503Y0112110D02*
X0070659Y0112110D01*
X0070659Y0112822D01*
X0070661Y0112896D01*
X0070667Y0112971D01*
X0070677Y0113044D01*
X0070690Y0113118D01*
X0070707Y0113190D01*
X0070729Y0113261D01*
X0070753Y0113332D01*
X0070782Y0113400D01*
X0070814Y0113468D01*
X0070850Y0113533D01*
X0070888Y0113596D01*
X0070931Y0113658D01*
X0070976Y0113717D01*
X0071024Y0113774D01*
X0071075Y0113828D01*
X0071129Y0113879D01*
X0071186Y0113927D01*
X0071245Y0113972D01*
X0071307Y0114015D01*
X0071370Y0114053D01*
X0071435Y0114089D01*
X0071503Y0114121D01*
X0071571Y0114150D01*
X0071642Y0114174D01*
X0071713Y0114196D01*
X0071785Y0114213D01*
X0071859Y0114226D01*
X0071932Y0114236D01*
X0072007Y0114242D01*
X0072081Y0114244D01*
X0072155Y0114242D01*
X0072230Y0114236D01*
X0072303Y0114226D01*
X0072377Y0114213D01*
X0072449Y0114196D01*
X0072520Y0114174D01*
X0072591Y0114150D01*
X0072659Y0114121D01*
X0072727Y0114089D01*
X0072792Y0114053D01*
X0072855Y0114015D01*
X0072917Y0113972D01*
X0072976Y0113927D01*
X0073033Y0113879D01*
X0073087Y0113828D01*
X0073138Y0113774D01*
X0073186Y0113717D01*
X0073231Y0113658D01*
X0073274Y0113596D01*
X0073312Y0113533D01*
X0073348Y0113468D01*
X0073380Y0113400D01*
X0073409Y0113332D01*
X0073433Y0113261D01*
X0073455Y0113190D01*
X0073472Y0113118D01*
X0073485Y0113044D01*
X0073495Y0112971D01*
X0073501Y0112896D01*
X0073503Y0112822D01*
X0075778Y0114244D02*
X0077911Y0114244D01*
X0079676Y0114244D02*
X0081809Y0114244D01*
X0083774Y0114244D02*
X0083774Y0109977D01*
X0085977Y0109977D02*
X0088822Y0109977D01*
X0088822Y0116377D01*
X0094650Y0114244D02*
X0096784Y0114244D01*
X0096073Y0116377D02*
X0096073Y0111044D01*
X0096071Y0110980D01*
X0096065Y0110915D01*
X0096056Y0110852D01*
X0096042Y0110789D01*
X0096025Y0110727D01*
X0096004Y0110666D01*
X0095979Y0110606D01*
X0095951Y0110548D01*
X0095919Y0110492D01*
X0095884Y0110438D01*
X0095846Y0110386D01*
X0095805Y0110336D01*
X0095760Y0110290D01*
X0095714Y0110245D01*
X0095664Y0110204D01*
X0095612Y0110166D01*
X0095558Y0110131D01*
X0095502Y0110099D01*
X0095444Y0110071D01*
X0095384Y0110046D01*
X0095323Y0110025D01*
X0095261Y0110008D01*
X0095198Y0109994D01*
X0095135Y0109985D01*
X0095070Y0109979D01*
X0095006Y0109977D01*
X0094650Y0109977D01*
X0098996Y0109977D02*
X0098996Y0113177D01*
X0098996Y0112466D02*
X0100596Y0112466D01*
X0098996Y0113177D02*
X0098998Y0113241D01*
X0099004Y0113306D01*
X0099013Y0113369D01*
X0099027Y0113432D01*
X0099044Y0113494D01*
X0099065Y0113555D01*
X0099090Y0113615D01*
X0099118Y0113673D01*
X0099150Y0113729D01*
X0099185Y0113783D01*
X0099223Y0113835D01*
X0099264Y0113885D01*
X0099309Y0113931D01*
X0099355Y0113976D01*
X0099405Y0114017D01*
X0099457Y0114055D01*
X0099511Y0114090D01*
X0099567Y0114122D01*
X0099625Y0114150D01*
X0099685Y0114175D01*
X0099746Y0114196D01*
X0099808Y0114213D01*
X0099871Y0114227D01*
X0099934Y0114236D01*
X0099999Y0114242D01*
X0100063Y0114244D01*
X0101485Y0114244D01*
X0100596Y0112466D02*
X0100666Y0112464D01*
X0100735Y0112458D01*
X0100804Y0112448D01*
X0100873Y0112435D01*
X0100940Y0112417D01*
X0101007Y0112396D01*
X0101072Y0112371D01*
X0101136Y0112343D01*
X0101198Y0112311D01*
X0101258Y0112275D01*
X0101316Y0112237D01*
X0101372Y0112195D01*
X0101425Y0112150D01*
X0101476Y0112102D01*
X0101524Y0112051D01*
X0101569Y0111998D01*
X0101611Y0111942D01*
X0101649Y0111884D01*
X0101685Y0111824D01*
X0101717Y0111762D01*
X0101745Y0111698D01*
X0101770Y0111633D01*
X0101791Y0111566D01*
X0101809Y0111499D01*
X0101822Y0111430D01*
X0101832Y0111361D01*
X0101838Y0111292D01*
X0101840Y0111222D01*
X0101838Y0111152D01*
X0101832Y0111083D01*
X0101822Y0111014D01*
X0101809Y0110945D01*
X0101791Y0110878D01*
X0101770Y0110811D01*
X0101745Y0110746D01*
X0101717Y0110682D01*
X0101685Y0110620D01*
X0101649Y0110560D01*
X0101611Y0110502D01*
X0101569Y0110446D01*
X0101524Y0110393D01*
X0101476Y0110342D01*
X0101425Y0110294D01*
X0101372Y0110249D01*
X0101316Y0110207D01*
X0101258Y0110169D01*
X0101198Y0110133D01*
X0101136Y0110101D01*
X0101072Y0110073D01*
X0101007Y0110048D01*
X0100940Y0110027D01*
X0100873Y0110009D01*
X0100804Y0109996D01*
X0100735Y0109986D01*
X0100666Y0109980D01*
X0100596Y0109978D01*
X0100596Y0109977D02*
X0098996Y0109977D01*
X0104056Y0109977D02*
X0105479Y0109977D01*
X0105553Y0109979D01*
X0105628Y0109985D01*
X0105701Y0109995D01*
X0105775Y0110008D01*
X0105847Y0110025D01*
X0105918Y0110047D01*
X0105989Y0110071D01*
X0106057Y0110100D01*
X0106125Y0110132D01*
X0106190Y0110168D01*
X0106253Y0110206D01*
X0106315Y0110249D01*
X0106374Y0110294D01*
X0106431Y0110342D01*
X0106485Y0110393D01*
X0106536Y0110447D01*
X0106584Y0110504D01*
X0106629Y0110563D01*
X0106672Y0110625D01*
X0106710Y0110688D01*
X0106746Y0110753D01*
X0106778Y0110821D01*
X0106807Y0110889D01*
X0106831Y0110960D01*
X0106853Y0111031D01*
X0106870Y0111103D01*
X0106883Y0111177D01*
X0106893Y0111250D01*
X0106899Y0111325D01*
X0106901Y0111399D01*
X0106901Y0114955D01*
X0106899Y0115029D01*
X0106893Y0115104D01*
X0106883Y0115177D01*
X0106870Y0115251D01*
X0106853Y0115323D01*
X0106831Y0115394D01*
X0106807Y0115465D01*
X0106778Y0115533D01*
X0106746Y0115601D01*
X0106710Y0115666D01*
X0106672Y0115729D01*
X0106629Y0115791D01*
X0106584Y0115850D01*
X0106536Y0115907D01*
X0106485Y0115961D01*
X0106431Y0116012D01*
X0106374Y0116060D01*
X0106315Y0116105D01*
X0106253Y0116148D01*
X0106190Y0116186D01*
X0106125Y0116222D01*
X0106057Y0116254D01*
X0105989Y0116283D01*
X0105918Y0116307D01*
X0105847Y0116329D01*
X0105775Y0116346D01*
X0105701Y0116359D01*
X0105628Y0116369D01*
X0105553Y0116375D01*
X0105479Y0116377D01*
X0104056Y0116377D01*
X0083951Y0116377D02*
X0083596Y0116377D01*
X0083596Y0116022D01*
X0083951Y0116022D01*
X0083951Y0116377D01*
X0081098Y0116377D02*
X0081098Y0111044D01*
X0081096Y0110980D01*
X0081090Y0110915D01*
X0081081Y0110852D01*
X0081067Y0110789D01*
X0081050Y0110727D01*
X0081029Y0110666D01*
X0081004Y0110606D01*
X0080976Y0110548D01*
X0080944Y0110492D01*
X0080909Y0110438D01*
X0080871Y0110386D01*
X0080830Y0110336D01*
X0080785Y0110290D01*
X0080739Y0110245D01*
X0080689Y0110204D01*
X0080637Y0110166D01*
X0080583Y0110131D01*
X0080527Y0110099D01*
X0080469Y0110071D01*
X0080409Y0110046D01*
X0080348Y0110025D01*
X0080286Y0110008D01*
X0080223Y0109994D01*
X0080160Y0109985D01*
X0080095Y0109979D01*
X0080031Y0109977D01*
X0079676Y0109977D01*
X0077200Y0111044D02*
X0077200Y0116377D01*
X0077201Y0111044D02*
X0077199Y0110980D01*
X0077193Y0110915D01*
X0077184Y0110852D01*
X0077170Y0110789D01*
X0077153Y0110727D01*
X0077132Y0110666D01*
X0077107Y0110606D01*
X0077079Y0110548D01*
X0077047Y0110492D01*
X0077012Y0110438D01*
X0076974Y0110386D01*
X0076933Y0110336D01*
X0076888Y0110290D01*
X0076842Y0110245D01*
X0076792Y0110204D01*
X0076740Y0110166D01*
X0076686Y0110131D01*
X0076630Y0110099D01*
X0076572Y0110071D01*
X0076512Y0110046D01*
X0076451Y0110025D01*
X0076389Y0110008D01*
X0076326Y0109994D01*
X0076263Y0109985D01*
X0076198Y0109979D01*
X0076134Y0109977D01*
X0075778Y0109977D01*
X0061741Y0109977D02*
X0061658Y0109979D01*
X0061575Y0109985D01*
X0061492Y0109995D01*
X0061409Y0110008D01*
X0061328Y0110026D01*
X0061247Y0110047D01*
X0061168Y0110072D01*
X0061090Y0110101D01*
X0061013Y0110133D01*
X0060938Y0110169D01*
X0060864Y0110208D01*
X0060793Y0110251D01*
X0060723Y0110297D01*
X0060656Y0110347D01*
X0060591Y0110399D01*
X0060529Y0110454D01*
X0060469Y0110513D01*
X0060412Y0110574D01*
X0060358Y0110637D01*
X0060307Y0110703D01*
X0060260Y0110772D01*
X0060215Y0110842D01*
X0060174Y0110915D01*
X0060137Y0110989D01*
X0060102Y0111065D01*
X0060072Y0111143D01*
X0060045Y0111221D01*
X0060022Y0111302D01*
X0060002Y0111383D01*
X0059987Y0111465D01*
X0059975Y0111547D01*
X0059967Y0111630D01*
X0059963Y0111713D01*
X0059963Y0111797D01*
X0059967Y0111880D01*
X0059975Y0111963D01*
X0059987Y0112045D01*
X0060002Y0112127D01*
X0060022Y0112208D01*
X0060045Y0112289D01*
X0060072Y0112367D01*
X0060102Y0112445D01*
X0060137Y0112521D01*
X0060174Y0112595D01*
X0060215Y0112668D01*
X0060260Y0112738D01*
X0060307Y0112807D01*
X0060358Y0112873D01*
X0060412Y0112936D01*
X0060469Y0112997D01*
X0060529Y0113056D01*
X0060591Y0113111D01*
X0060656Y0113163D01*
X0060723Y0113213D01*
X0060793Y0113259D01*
X0060864Y0113302D01*
X0060938Y0113341D01*
X0061013Y0113377D01*
X0061090Y0113409D01*
X0061168Y0113438D01*
X0061247Y0113463D01*
X0061328Y0113484D01*
X0061409Y0113502D01*
X0061492Y0113515D01*
X0061575Y0113525D01*
X0061658Y0113531D01*
X0061741Y0113533D01*
X0075091Y0095377D02*
X0075091Y0088977D01*
X0072288Y0090044D02*
X0072288Y0091822D01*
X0072288Y0091110D02*
X0069443Y0091110D01*
X0069443Y0091822D01*
X0069444Y0091822D02*
X0069446Y0091896D01*
X0069452Y0091971D01*
X0069462Y0092044D01*
X0069475Y0092118D01*
X0069492Y0092190D01*
X0069514Y0092261D01*
X0069538Y0092332D01*
X0069567Y0092400D01*
X0069599Y0092468D01*
X0069635Y0092533D01*
X0069673Y0092596D01*
X0069716Y0092658D01*
X0069761Y0092717D01*
X0069809Y0092774D01*
X0069860Y0092828D01*
X0069914Y0092879D01*
X0069971Y0092927D01*
X0070030Y0092972D01*
X0070092Y0093015D01*
X0070155Y0093053D01*
X0070220Y0093089D01*
X0070288Y0093121D01*
X0070356Y0093150D01*
X0070427Y0093174D01*
X0070498Y0093196D01*
X0070570Y0093213D01*
X0070644Y0093226D01*
X0070717Y0093236D01*
X0070792Y0093242D01*
X0070866Y0093244D01*
X0070940Y0093242D01*
X0071015Y0093236D01*
X0071088Y0093226D01*
X0071162Y0093213D01*
X0071234Y0093196D01*
X0071305Y0093174D01*
X0071376Y0093150D01*
X0071444Y0093121D01*
X0071512Y0093089D01*
X0071577Y0093053D01*
X0071640Y0093015D01*
X0071702Y0092972D01*
X0071761Y0092927D01*
X0071818Y0092879D01*
X0071872Y0092828D01*
X0071923Y0092774D01*
X0071971Y0092717D01*
X0072016Y0092658D01*
X0072059Y0092596D01*
X0072097Y0092533D01*
X0072133Y0092468D01*
X0072165Y0092400D01*
X0072194Y0092332D01*
X0072218Y0092261D01*
X0072240Y0092190D01*
X0072257Y0092118D01*
X0072270Y0092044D01*
X0072280Y0091971D01*
X0072286Y0091896D01*
X0072288Y0091822D01*
X0072288Y0090044D02*
X0072286Y0089980D01*
X0072280Y0089915D01*
X0072271Y0089852D01*
X0072257Y0089789D01*
X0072240Y0089727D01*
X0072219Y0089666D01*
X0072194Y0089606D01*
X0072166Y0089548D01*
X0072134Y0089492D01*
X0072099Y0089438D01*
X0072061Y0089386D01*
X0072020Y0089336D01*
X0071975Y0089290D01*
X0071929Y0089245D01*
X0071879Y0089204D01*
X0071827Y0089166D01*
X0071773Y0089131D01*
X0071717Y0089099D01*
X0071659Y0089071D01*
X0071599Y0089046D01*
X0071538Y0089025D01*
X0071476Y0089008D01*
X0071413Y0088994D01*
X0071350Y0088985D01*
X0071285Y0088979D01*
X0071221Y0088977D01*
X0069443Y0088977D01*
X0066640Y0088977D02*
X0066640Y0093244D01*
X0063440Y0093244D01*
X0064506Y0093244D02*
X0064506Y0088977D01*
X0062373Y0088977D02*
X0062373Y0092177D01*
X0062375Y0092241D01*
X0062381Y0092306D01*
X0062390Y0092369D01*
X0062404Y0092432D01*
X0062421Y0092494D01*
X0062442Y0092555D01*
X0062467Y0092615D01*
X0062495Y0092673D01*
X0062527Y0092729D01*
X0062562Y0092783D01*
X0062600Y0092835D01*
X0062641Y0092885D01*
X0062686Y0092931D01*
X0062732Y0092976D01*
X0062782Y0093017D01*
X0062834Y0093055D01*
X0062888Y0093090D01*
X0062944Y0093122D01*
X0063002Y0093150D01*
X0063062Y0093175D01*
X0063123Y0093196D01*
X0063185Y0093213D01*
X0063248Y0093227D01*
X0063311Y0093236D01*
X0063376Y0093242D01*
X0063440Y0093244D01*
X0075091Y0095377D02*
X0077225Y0091822D01*
X0079358Y0095377D01*
X0079358Y0088977D01*
X0085758Y0088977D02*
X0085758Y0092177D01*
X0085760Y0092241D01*
X0085766Y0092306D01*
X0085775Y0092369D01*
X0085789Y0092432D01*
X0085806Y0092494D01*
X0085827Y0092555D01*
X0085852Y0092615D01*
X0085880Y0092673D01*
X0085912Y0092729D01*
X0085947Y0092783D01*
X0085985Y0092835D01*
X0086026Y0092885D01*
X0086071Y0092931D01*
X0086117Y0092976D01*
X0086167Y0093017D01*
X0086219Y0093055D01*
X0086273Y0093090D01*
X0086329Y0093122D01*
X0086387Y0093150D01*
X0086447Y0093175D01*
X0086508Y0093196D01*
X0086570Y0093213D01*
X0086633Y0093227D01*
X0086696Y0093236D01*
X0086761Y0093242D01*
X0086825Y0093244D01*
X0090025Y0093244D01*
X0090025Y0088977D01*
X0087892Y0088977D02*
X0087892Y0093244D01*
X0093063Y0092177D02*
X0093063Y0088977D01*
X0094663Y0088977D01*
X0094663Y0088978D02*
X0094733Y0088980D01*
X0094802Y0088986D01*
X0094871Y0088996D01*
X0094940Y0089009D01*
X0095007Y0089027D01*
X0095074Y0089048D01*
X0095139Y0089073D01*
X0095203Y0089101D01*
X0095265Y0089133D01*
X0095325Y0089169D01*
X0095383Y0089207D01*
X0095439Y0089249D01*
X0095492Y0089294D01*
X0095543Y0089342D01*
X0095591Y0089393D01*
X0095636Y0089446D01*
X0095678Y0089502D01*
X0095716Y0089560D01*
X0095752Y0089620D01*
X0095784Y0089682D01*
X0095812Y0089746D01*
X0095837Y0089811D01*
X0095858Y0089878D01*
X0095876Y0089945D01*
X0095889Y0090014D01*
X0095899Y0090083D01*
X0095905Y0090152D01*
X0095907Y0090222D01*
X0095905Y0090292D01*
X0095899Y0090361D01*
X0095889Y0090430D01*
X0095876Y0090499D01*
X0095858Y0090566D01*
X0095837Y0090633D01*
X0095812Y0090698D01*
X0095784Y0090762D01*
X0095752Y0090824D01*
X0095716Y0090884D01*
X0095678Y0090942D01*
X0095636Y0090998D01*
X0095591Y0091051D01*
X0095543Y0091102D01*
X0095492Y0091150D01*
X0095439Y0091195D01*
X0095383Y0091237D01*
X0095325Y0091275D01*
X0095265Y0091311D01*
X0095203Y0091343D01*
X0095139Y0091371D01*
X0095074Y0091396D01*
X0095007Y0091417D01*
X0094940Y0091435D01*
X0094871Y0091448D01*
X0094802Y0091458D01*
X0094733Y0091464D01*
X0094663Y0091466D01*
X0093063Y0091466D01*
X0093062Y0092177D02*
X0093064Y0092241D01*
X0093070Y0092306D01*
X0093079Y0092369D01*
X0093093Y0092432D01*
X0093110Y0092494D01*
X0093131Y0092555D01*
X0093156Y0092615D01*
X0093184Y0092673D01*
X0093216Y0092729D01*
X0093251Y0092783D01*
X0093289Y0092835D01*
X0093330Y0092885D01*
X0093375Y0092931D01*
X0093421Y0092976D01*
X0093471Y0093017D01*
X0093523Y0093055D01*
X0093577Y0093090D01*
X0093633Y0093122D01*
X0093691Y0093150D01*
X0093751Y0093175D01*
X0093812Y0093196D01*
X0093874Y0093213D01*
X0093937Y0093227D01*
X0094000Y0093236D01*
X0094065Y0093242D01*
X0094129Y0093244D01*
X0095552Y0093244D01*
X0098367Y0091822D02*
X0098367Y0091110D01*
X0101212Y0091110D01*
X0101212Y0091822D02*
X0101212Y0090044D01*
X0101210Y0089980D01*
X0101204Y0089915D01*
X0101195Y0089852D01*
X0101181Y0089789D01*
X0101164Y0089727D01*
X0101143Y0089666D01*
X0101118Y0089606D01*
X0101090Y0089548D01*
X0101058Y0089492D01*
X0101023Y0089438D01*
X0100985Y0089386D01*
X0100944Y0089336D01*
X0100899Y0089290D01*
X0100853Y0089245D01*
X0100803Y0089204D01*
X0100751Y0089166D01*
X0100697Y0089131D01*
X0100641Y0089099D01*
X0100583Y0089071D01*
X0100523Y0089046D01*
X0100462Y0089025D01*
X0100400Y0089008D01*
X0100337Y0088994D01*
X0100274Y0088985D01*
X0100209Y0088979D01*
X0100145Y0088977D01*
X0098367Y0088977D01*
X0098368Y0091822D02*
X0098370Y0091896D01*
X0098376Y0091971D01*
X0098386Y0092044D01*
X0098399Y0092118D01*
X0098416Y0092190D01*
X0098438Y0092261D01*
X0098462Y0092332D01*
X0098491Y0092400D01*
X0098523Y0092468D01*
X0098559Y0092533D01*
X0098597Y0092596D01*
X0098640Y0092658D01*
X0098685Y0092717D01*
X0098733Y0092774D01*
X0098784Y0092828D01*
X0098838Y0092879D01*
X0098895Y0092927D01*
X0098954Y0092972D01*
X0099016Y0093015D01*
X0099079Y0093053D01*
X0099144Y0093089D01*
X0099212Y0093121D01*
X0099280Y0093150D01*
X0099351Y0093174D01*
X0099422Y0093196D01*
X0099494Y0093213D01*
X0099568Y0093226D01*
X0099641Y0093236D01*
X0099716Y0093242D01*
X0099790Y0093244D01*
X0099864Y0093242D01*
X0099939Y0093236D01*
X0100012Y0093226D01*
X0100086Y0093213D01*
X0100158Y0093196D01*
X0100229Y0093174D01*
X0100300Y0093150D01*
X0100368Y0093121D01*
X0100436Y0093089D01*
X0100501Y0093053D01*
X0100564Y0093015D01*
X0100626Y0092972D01*
X0100685Y0092927D01*
X0100742Y0092879D01*
X0100796Y0092828D01*
X0100847Y0092774D01*
X0100895Y0092717D01*
X0100940Y0092658D01*
X0100983Y0092596D01*
X0101021Y0092533D01*
X0101057Y0092468D01*
X0101089Y0092400D01*
X0101118Y0092332D01*
X0101142Y0092261D01*
X0101164Y0092190D01*
X0101181Y0092118D01*
X0101194Y0092044D01*
X0101204Y0091971D01*
X0101210Y0091896D01*
X0101212Y0091822D01*
X0103345Y0095377D02*
X0106901Y0095377D01*
X0105123Y0095377D02*
X0105123Y0088977D01*
X0095285Y0074377D02*
X0094930Y0074377D01*
X0094930Y0074022D01*
X0095285Y0074022D01*
X0095285Y0074377D01*
X0082970Y0078477D02*
X0081370Y0078477D01*
X0081370Y0081677D01*
X0081370Y0080966D02*
X0082970Y0080966D01*
X0081370Y0081677D02*
X0081372Y0081741D01*
X0081378Y0081806D01*
X0081387Y0081869D01*
X0081401Y0081932D01*
X0081418Y0081994D01*
X0081439Y0082055D01*
X0081464Y0082115D01*
X0081492Y0082173D01*
X0081524Y0082229D01*
X0081559Y0082283D01*
X0081597Y0082335D01*
X0081638Y0082385D01*
X0081683Y0082431D01*
X0081729Y0082476D01*
X0081779Y0082517D01*
X0081831Y0082555D01*
X0081885Y0082590D01*
X0081941Y0082622D01*
X0081999Y0082650D01*
X0082059Y0082675D01*
X0082120Y0082696D01*
X0082182Y0082713D01*
X0082245Y0082727D01*
X0082308Y0082736D01*
X0082373Y0082742D01*
X0082437Y0082744D01*
X0083859Y0082744D01*
X0082970Y0080966D02*
X0083040Y0080964D01*
X0083109Y0080958D01*
X0083178Y0080948D01*
X0083247Y0080935D01*
X0083314Y0080917D01*
X0083381Y0080896D01*
X0083446Y0080871D01*
X0083510Y0080843D01*
X0083572Y0080811D01*
X0083632Y0080775D01*
X0083690Y0080737D01*
X0083746Y0080695D01*
X0083799Y0080650D01*
X0083850Y0080602D01*
X0083898Y0080551D01*
X0083943Y0080498D01*
X0083985Y0080442D01*
X0084023Y0080384D01*
X0084059Y0080324D01*
X0084091Y0080262D01*
X0084119Y0080198D01*
X0084144Y0080133D01*
X0084165Y0080066D01*
X0084183Y0079999D01*
X0084196Y0079930D01*
X0084206Y0079861D01*
X0084212Y0079792D01*
X0084214Y0079722D01*
X0084212Y0079652D01*
X0084206Y0079583D01*
X0084196Y0079514D01*
X0084183Y0079445D01*
X0084165Y0079378D01*
X0084144Y0079311D01*
X0084119Y0079246D01*
X0084091Y0079182D01*
X0084059Y0079120D01*
X0084023Y0079060D01*
X0083985Y0079002D01*
X0083943Y0078946D01*
X0083898Y0078893D01*
X0083850Y0078842D01*
X0083799Y0078794D01*
X0083746Y0078749D01*
X0083690Y0078707D01*
X0083632Y0078669D01*
X0083572Y0078633D01*
X0083510Y0078601D01*
X0083446Y0078573D01*
X0083381Y0078548D01*
X0083314Y0078527D01*
X0083247Y0078509D01*
X0083178Y0078496D01*
X0083109Y0078486D01*
X0083040Y0078480D01*
X0082970Y0078478D01*
X0087673Y0051244D02*
X0086251Y0046977D01*
D12*
X0092893Y0159625D02*
X0092893Y0161670D01*
X0092893Y0163366D02*
X0092893Y0164644D01*
X0092895Y0164714D01*
X0092901Y0164785D01*
X0092910Y0164854D01*
X0092924Y0164923D01*
X0092941Y0164992D01*
X0092962Y0165059D01*
X0092987Y0165125D01*
X0093015Y0165189D01*
X0093047Y0165252D01*
X0093082Y0165313D01*
X0093121Y0165372D01*
X0093162Y0165429D01*
X0093207Y0165483D01*
X0093255Y0165535D01*
X0093305Y0165584D01*
X0093359Y0165631D01*
X0093414Y0165674D01*
X0093472Y0165714D01*
X0093532Y0165751D01*
X0093594Y0165784D01*
X0093658Y0165814D01*
X0093723Y0165841D01*
X0093789Y0165864D01*
X0093857Y0165883D01*
X0093926Y0165898D01*
X0093995Y0165910D01*
X0094065Y0165918D01*
X0094136Y0165922D01*
X0094206Y0165922D01*
X0094277Y0165918D01*
X0094347Y0165910D01*
X0094416Y0165898D01*
X0094485Y0165883D01*
X0094553Y0165864D01*
X0094619Y0165841D01*
X0094684Y0165814D01*
X0094748Y0165784D01*
X0094810Y0165751D01*
X0094870Y0165714D01*
X0094928Y0165674D01*
X0094983Y0165631D01*
X0095037Y0165584D01*
X0095087Y0165535D01*
X0095135Y0165483D01*
X0095180Y0165429D01*
X0095221Y0165372D01*
X0095260Y0165313D01*
X0095295Y0165252D01*
X0095327Y0165189D01*
X0095355Y0165125D01*
X0095380Y0165059D01*
X0095401Y0164992D01*
X0095418Y0164923D01*
X0095432Y0164854D01*
X0095441Y0164785D01*
X0095447Y0164714D01*
X0095449Y0164644D01*
X0095448Y0164900D02*
X0095448Y0163877D01*
X0095449Y0164900D02*
X0095451Y0164963D01*
X0095457Y0165026D01*
X0095466Y0165088D01*
X0095480Y0165149D01*
X0095497Y0165210D01*
X0095518Y0165269D01*
X0095543Y0165327D01*
X0095571Y0165384D01*
X0095602Y0165438D01*
X0095637Y0165490D01*
X0095675Y0165541D01*
X0095716Y0165589D01*
X0095760Y0165634D01*
X0095806Y0165676D01*
X0095855Y0165716D01*
X0095906Y0165752D01*
X0095960Y0165785D01*
X0096015Y0165815D01*
X0096073Y0165841D01*
X0096131Y0165864D01*
X0096191Y0165883D01*
X0096252Y0165898D01*
X0096314Y0165910D01*
X0096377Y0165918D01*
X0096440Y0165922D01*
X0096502Y0165922D01*
X0096565Y0165918D01*
X0096628Y0165910D01*
X0096690Y0165898D01*
X0096751Y0165883D01*
X0096811Y0165864D01*
X0096869Y0165841D01*
X0096927Y0165815D01*
X0096982Y0165785D01*
X0097036Y0165752D01*
X0097087Y0165716D01*
X0097136Y0165676D01*
X0097182Y0165634D01*
X0097226Y0165589D01*
X0097267Y0165541D01*
X0097305Y0165490D01*
X0097340Y0165438D01*
X0097371Y0165384D01*
X0097399Y0165327D01*
X0097424Y0165269D01*
X0097445Y0165210D01*
X0097462Y0165149D01*
X0097476Y0165088D01*
X0097485Y0165026D01*
X0097491Y0164963D01*
X0097493Y0164900D01*
X0097493Y0163366D01*
X0097493Y0159625D02*
X0092893Y0159625D01*
X0067120Y0185198D02*
X0064565Y0185198D01*
X0064503Y0185200D01*
X0064442Y0185205D01*
X0064381Y0185215D01*
X0064320Y0185228D01*
X0064261Y0185244D01*
X0064203Y0185264D01*
X0064146Y0185288D01*
X0064090Y0185315D01*
X0064036Y0185345D01*
X0063984Y0185379D01*
X0063935Y0185415D01*
X0063887Y0185455D01*
X0063842Y0185497D01*
X0063800Y0185542D01*
X0063760Y0185590D01*
X0063724Y0185639D01*
X0063690Y0185691D01*
X0063660Y0185745D01*
X0063633Y0185801D01*
X0063609Y0185858D01*
X0063589Y0185916D01*
X0063573Y0185975D01*
X0063560Y0186036D01*
X0063550Y0186097D01*
X0063545Y0186158D01*
X0063543Y0186220D01*
X0063543Y0187242D01*
X0063543Y0188961D02*
X0063543Y0191517D01*
X0063543Y0188961D02*
X0066098Y0191133D01*
X0068142Y0190367D02*
X0068140Y0190293D01*
X0068135Y0190219D01*
X0068125Y0190145D01*
X0068112Y0190072D01*
X0068096Y0189999D01*
X0068075Y0189928D01*
X0068051Y0189858D01*
X0068024Y0189789D01*
X0067993Y0189721D01*
X0067959Y0189655D01*
X0067922Y0189591D01*
X0067881Y0189529D01*
X0067837Y0189469D01*
X0067791Y0189411D01*
X0067741Y0189355D01*
X0067689Y0189302D01*
X0067634Y0189252D01*
X0067577Y0189205D01*
X0067517Y0189161D01*
X0067455Y0189119D01*
X0067392Y0189081D01*
X0067326Y0189046D01*
X0067259Y0189015D01*
X0067190Y0188987D01*
X0067120Y0188962D01*
X0066099Y0191133D02*
X0066146Y0191180D01*
X0066196Y0191224D01*
X0066248Y0191266D01*
X0066302Y0191305D01*
X0066358Y0191340D01*
X0066416Y0191373D01*
X0066476Y0191403D01*
X0066537Y0191429D01*
X0066600Y0191452D01*
X0066664Y0191471D01*
X0066728Y0191487D01*
X0066794Y0191500D01*
X0066860Y0191509D01*
X0066926Y0191514D01*
X0066993Y0191516D01*
X0066993Y0191517D02*
X0067060Y0191515D01*
X0067127Y0191509D01*
X0067193Y0191500D01*
X0067258Y0191486D01*
X0067323Y0191469D01*
X0067386Y0191448D01*
X0067448Y0191423D01*
X0067509Y0191395D01*
X0067568Y0191363D01*
X0067625Y0191328D01*
X0067680Y0191289D01*
X0067732Y0191248D01*
X0067782Y0191203D01*
X0067829Y0191156D01*
X0067874Y0191106D01*
X0067915Y0191054D01*
X0067954Y0190999D01*
X0067989Y0190942D01*
X0068021Y0190883D01*
X0068049Y0190822D01*
X0068074Y0190760D01*
X0068095Y0190697D01*
X0068112Y0190632D01*
X0068126Y0190567D01*
X0068135Y0190501D01*
X0068141Y0190434D01*
X0068143Y0190367D01*
X0068143Y0193461D02*
X0068143Y0196017D01*
X0063543Y0194739D01*
X0067631Y0193461D02*
X0068143Y0193461D01*
X0068143Y0187242D02*
X0068143Y0186220D01*
X0068142Y0186220D02*
X0068140Y0186158D01*
X0068135Y0186097D01*
X0068125Y0186036D01*
X0068112Y0185975D01*
X0068096Y0185916D01*
X0068076Y0185858D01*
X0068052Y0185801D01*
X0068025Y0185745D01*
X0067995Y0185691D01*
X0067961Y0185639D01*
X0067924Y0185590D01*
X0067885Y0185542D01*
X0067843Y0185497D01*
X0067798Y0185455D01*
X0067750Y0185415D01*
X0067701Y0185379D01*
X0067649Y0185345D01*
X0067595Y0185315D01*
X0067539Y0185288D01*
X0067482Y0185264D01*
X0067424Y0185244D01*
X0067365Y0185228D01*
X0067304Y0185215D01*
X0067243Y0185205D01*
X0067182Y0185200D01*
X0067120Y0185198D01*
X0074881Y0190425D02*
X0074881Y0191447D01*
X0074881Y0190425D02*
X0074883Y0190363D01*
X0074888Y0190302D01*
X0074898Y0190241D01*
X0074911Y0190180D01*
X0074927Y0190121D01*
X0074947Y0190063D01*
X0074971Y0190006D01*
X0074998Y0189950D01*
X0075028Y0189896D01*
X0075062Y0189844D01*
X0075098Y0189795D01*
X0075138Y0189747D01*
X0075180Y0189702D01*
X0075225Y0189660D01*
X0075273Y0189620D01*
X0075322Y0189584D01*
X0075374Y0189550D01*
X0075428Y0189520D01*
X0075484Y0189493D01*
X0075541Y0189469D01*
X0075599Y0189449D01*
X0075658Y0189433D01*
X0075719Y0189420D01*
X0075780Y0189410D01*
X0075841Y0189405D01*
X0075903Y0189403D01*
X0078459Y0189403D01*
X0078521Y0189405D01*
X0078582Y0189410D01*
X0078643Y0189420D01*
X0078704Y0189433D01*
X0078763Y0189449D01*
X0078821Y0189469D01*
X0078878Y0189493D01*
X0078934Y0189520D01*
X0078988Y0189550D01*
X0079040Y0189584D01*
X0079089Y0189620D01*
X0079137Y0189660D01*
X0079182Y0189702D01*
X0079224Y0189747D01*
X0079263Y0189795D01*
X0079300Y0189844D01*
X0079334Y0189896D01*
X0079364Y0189950D01*
X0079391Y0190006D01*
X0079415Y0190063D01*
X0079435Y0190121D01*
X0079451Y0190180D01*
X0079464Y0190241D01*
X0079474Y0190302D01*
X0079479Y0190363D01*
X0079481Y0190425D01*
X0079481Y0191447D01*
X0079481Y0194444D02*
X0074881Y0195977D01*
X0076031Y0195594D02*
X0076031Y0193294D01*
X0074881Y0192911D02*
X0079481Y0194444D01*
X0055975Y0198384D02*
X0055975Y0200939D01*
X0055973Y0201001D01*
X0055968Y0201062D01*
X0055958Y0201123D01*
X0055945Y0201184D01*
X0055929Y0201243D01*
X0055909Y0201301D01*
X0055885Y0201358D01*
X0055858Y0201414D01*
X0055828Y0201468D01*
X0055794Y0201520D01*
X0055758Y0201569D01*
X0055718Y0201617D01*
X0055676Y0201662D01*
X0055631Y0201704D01*
X0055583Y0201744D01*
X0055534Y0201780D01*
X0055482Y0201814D01*
X0055428Y0201844D01*
X0055372Y0201871D01*
X0055315Y0201895D01*
X0055257Y0201915D01*
X0055198Y0201931D01*
X0055137Y0201944D01*
X0055076Y0201954D01*
X0055015Y0201959D01*
X0054953Y0201961D01*
X0053931Y0201961D01*
X0052212Y0201961D02*
X0050679Y0201961D01*
X0050616Y0201959D01*
X0050553Y0201953D01*
X0050491Y0201944D01*
X0050430Y0201930D01*
X0050369Y0201913D01*
X0050310Y0201892D01*
X0050252Y0201867D01*
X0050195Y0201839D01*
X0050141Y0201808D01*
X0050089Y0201773D01*
X0050038Y0201735D01*
X0049990Y0201694D01*
X0049945Y0201650D01*
X0049903Y0201604D01*
X0049863Y0201555D01*
X0049827Y0201504D01*
X0049794Y0201450D01*
X0049764Y0201395D01*
X0049738Y0201337D01*
X0049715Y0201279D01*
X0049696Y0201219D01*
X0049681Y0201158D01*
X0049669Y0201096D01*
X0049661Y0201033D01*
X0049657Y0200970D01*
X0049657Y0200908D01*
X0049661Y0200845D01*
X0049669Y0200782D01*
X0049681Y0200720D01*
X0049696Y0200659D01*
X0049715Y0200599D01*
X0049738Y0200541D01*
X0049764Y0200483D01*
X0049794Y0200428D01*
X0049827Y0200374D01*
X0049863Y0200323D01*
X0049903Y0200274D01*
X0049945Y0200228D01*
X0049990Y0200184D01*
X0050038Y0200143D01*
X0050089Y0200105D01*
X0050141Y0200070D01*
X0050195Y0200039D01*
X0050252Y0200011D01*
X0050310Y0199986D01*
X0050369Y0199965D01*
X0050430Y0199948D01*
X0050491Y0199934D01*
X0050553Y0199925D01*
X0050616Y0199919D01*
X0050679Y0199917D01*
X0051701Y0199917D01*
X0050934Y0199917D02*
X0050864Y0199915D01*
X0050793Y0199909D01*
X0050724Y0199900D01*
X0050655Y0199886D01*
X0050586Y0199869D01*
X0050519Y0199848D01*
X0050453Y0199823D01*
X0050389Y0199795D01*
X0050326Y0199763D01*
X0050265Y0199728D01*
X0050206Y0199689D01*
X0050149Y0199648D01*
X0050095Y0199603D01*
X0050043Y0199555D01*
X0049994Y0199505D01*
X0049947Y0199451D01*
X0049904Y0199396D01*
X0049864Y0199338D01*
X0049827Y0199278D01*
X0049794Y0199216D01*
X0049764Y0199152D01*
X0049737Y0199087D01*
X0049714Y0199021D01*
X0049695Y0198953D01*
X0049680Y0198884D01*
X0049668Y0198815D01*
X0049660Y0198745D01*
X0049656Y0198674D01*
X0049656Y0198604D01*
X0049660Y0198533D01*
X0049668Y0198463D01*
X0049680Y0198394D01*
X0049695Y0198325D01*
X0049714Y0198257D01*
X0049737Y0198191D01*
X0049764Y0198126D01*
X0049794Y0198062D01*
X0049827Y0198000D01*
X0049864Y0197940D01*
X0049904Y0197882D01*
X0049947Y0197827D01*
X0049994Y0197773D01*
X0050043Y0197723D01*
X0050095Y0197675D01*
X0050149Y0197630D01*
X0050206Y0197589D01*
X0050265Y0197550D01*
X0050326Y0197515D01*
X0050389Y0197483D01*
X0050453Y0197455D01*
X0050519Y0197430D01*
X0050586Y0197409D01*
X0050655Y0197392D01*
X0050724Y0197378D01*
X0050793Y0197369D01*
X0050864Y0197363D01*
X0050934Y0197361D01*
X0052212Y0197361D01*
X0053931Y0197361D02*
X0054953Y0197361D01*
X0054953Y0197362D02*
X0055015Y0197364D01*
X0055076Y0197369D01*
X0055137Y0197379D01*
X0055198Y0197392D01*
X0055257Y0197408D01*
X0055315Y0197428D01*
X0055372Y0197452D01*
X0055428Y0197479D01*
X0055482Y0197509D01*
X0055534Y0197543D01*
X0055583Y0197579D01*
X0055631Y0197619D01*
X0055676Y0197661D01*
X0055718Y0197706D01*
X0055758Y0197754D01*
X0055794Y0197803D01*
X0055828Y0197855D01*
X0055858Y0197909D01*
X0055885Y0197965D01*
X0055909Y0198022D01*
X0055929Y0198080D01*
X0055945Y0198139D01*
X0055958Y0198200D01*
X0055968Y0198261D01*
X0055973Y0198322D01*
X0055975Y0198384D01*
X0047712Y0197361D02*
X0046434Y0197361D01*
X0046364Y0197363D01*
X0046293Y0197369D01*
X0046224Y0197378D01*
X0046155Y0197392D01*
X0046086Y0197409D01*
X0046019Y0197430D01*
X0045953Y0197455D01*
X0045889Y0197483D01*
X0045826Y0197515D01*
X0045765Y0197550D01*
X0045706Y0197589D01*
X0045649Y0197630D01*
X0045595Y0197675D01*
X0045543Y0197723D01*
X0045494Y0197773D01*
X0045447Y0197827D01*
X0045404Y0197882D01*
X0045364Y0197940D01*
X0045327Y0198000D01*
X0045294Y0198062D01*
X0045264Y0198126D01*
X0045237Y0198191D01*
X0045214Y0198257D01*
X0045195Y0198325D01*
X0045180Y0198394D01*
X0045168Y0198463D01*
X0045160Y0198533D01*
X0045156Y0198604D01*
X0045156Y0198674D01*
X0045160Y0198745D01*
X0045168Y0198815D01*
X0045180Y0198884D01*
X0045195Y0198953D01*
X0045214Y0199021D01*
X0045237Y0199087D01*
X0045264Y0199152D01*
X0045294Y0199216D01*
X0045327Y0199278D01*
X0045364Y0199338D01*
X0045404Y0199396D01*
X0045447Y0199451D01*
X0045494Y0199505D01*
X0045543Y0199555D01*
X0045595Y0199603D01*
X0045649Y0199648D01*
X0045706Y0199689D01*
X0045765Y0199728D01*
X0045826Y0199763D01*
X0045889Y0199795D01*
X0045953Y0199823D01*
X0046019Y0199848D01*
X0046086Y0199869D01*
X0046155Y0199886D01*
X0046224Y0199900D01*
X0046293Y0199909D01*
X0046364Y0199915D01*
X0046434Y0199917D01*
X0046179Y0199917D02*
X0047201Y0199917D01*
X0046179Y0199917D02*
X0046116Y0199919D01*
X0046053Y0199925D01*
X0045991Y0199934D01*
X0045930Y0199948D01*
X0045869Y0199965D01*
X0045810Y0199986D01*
X0045752Y0200011D01*
X0045695Y0200039D01*
X0045641Y0200070D01*
X0045589Y0200105D01*
X0045538Y0200143D01*
X0045490Y0200184D01*
X0045445Y0200228D01*
X0045403Y0200274D01*
X0045363Y0200323D01*
X0045327Y0200374D01*
X0045294Y0200428D01*
X0045264Y0200483D01*
X0045238Y0200541D01*
X0045215Y0200599D01*
X0045196Y0200659D01*
X0045181Y0200720D01*
X0045169Y0200782D01*
X0045161Y0200845D01*
X0045157Y0200908D01*
X0045157Y0200970D01*
X0045161Y0201033D01*
X0045169Y0201096D01*
X0045181Y0201158D01*
X0045196Y0201219D01*
X0045215Y0201279D01*
X0045238Y0201337D01*
X0045264Y0201395D01*
X0045294Y0201450D01*
X0045327Y0201504D01*
X0045363Y0201555D01*
X0045403Y0201604D01*
X0045445Y0201650D01*
X0045490Y0201694D01*
X0045538Y0201735D01*
X0045589Y0201773D01*
X0045641Y0201808D01*
X0045695Y0201839D01*
X0045752Y0201867D01*
X0045810Y0201892D01*
X0045869Y0201913D01*
X0045930Y0201930D01*
X0045991Y0201944D01*
X0046053Y0201953D01*
X0046116Y0201959D01*
X0046179Y0201961D01*
X0047712Y0201961D01*
X0053773Y0187946D02*
X0054796Y0187946D01*
X0054796Y0187945D02*
X0054858Y0187943D01*
X0054919Y0187938D01*
X0054980Y0187928D01*
X0055041Y0187915D01*
X0055100Y0187899D01*
X0055158Y0187879D01*
X0055215Y0187855D01*
X0055271Y0187828D01*
X0055325Y0187798D01*
X0055377Y0187764D01*
X0055426Y0187728D01*
X0055474Y0187688D01*
X0055519Y0187646D01*
X0055561Y0187601D01*
X0055601Y0187553D01*
X0055637Y0187504D01*
X0055671Y0187452D01*
X0055701Y0187398D01*
X0055728Y0187342D01*
X0055752Y0187285D01*
X0055772Y0187227D01*
X0055788Y0187168D01*
X0055801Y0187107D01*
X0055811Y0187046D01*
X0055816Y0186985D01*
X0055818Y0186923D01*
X0055818Y0184368D01*
X0055816Y0184306D01*
X0055811Y0184245D01*
X0055801Y0184184D01*
X0055788Y0184123D01*
X0055772Y0184064D01*
X0055752Y0184006D01*
X0055728Y0183949D01*
X0055701Y0183893D01*
X0055671Y0183839D01*
X0055637Y0183787D01*
X0055601Y0183738D01*
X0055561Y0183690D01*
X0055519Y0183645D01*
X0055474Y0183603D01*
X0055426Y0183563D01*
X0055377Y0183527D01*
X0055325Y0183493D01*
X0055271Y0183463D01*
X0055215Y0183436D01*
X0055158Y0183412D01*
X0055100Y0183392D01*
X0055041Y0183376D01*
X0054980Y0183363D01*
X0054919Y0183353D01*
X0054858Y0183348D01*
X0054796Y0183346D01*
X0053773Y0183346D01*
X0052055Y0183346D02*
X0049883Y0185901D01*
X0050649Y0187945D02*
X0050723Y0187943D01*
X0050797Y0187938D01*
X0050871Y0187928D01*
X0050944Y0187915D01*
X0051017Y0187899D01*
X0051088Y0187878D01*
X0051158Y0187854D01*
X0051227Y0187827D01*
X0051295Y0187796D01*
X0051361Y0187762D01*
X0051425Y0187725D01*
X0051487Y0187684D01*
X0051548Y0187640D01*
X0051605Y0187594D01*
X0051661Y0187544D01*
X0051714Y0187492D01*
X0051764Y0187437D01*
X0051811Y0187380D01*
X0051855Y0187320D01*
X0051897Y0187258D01*
X0051935Y0187195D01*
X0051970Y0187129D01*
X0052001Y0187062D01*
X0052029Y0186993D01*
X0052054Y0186923D01*
X0049882Y0185902D02*
X0049835Y0185949D01*
X0049791Y0185999D01*
X0049749Y0186051D01*
X0049710Y0186105D01*
X0049675Y0186161D01*
X0049642Y0186219D01*
X0049612Y0186279D01*
X0049586Y0186340D01*
X0049563Y0186403D01*
X0049544Y0186467D01*
X0049528Y0186531D01*
X0049515Y0186597D01*
X0049506Y0186663D01*
X0049501Y0186729D01*
X0049499Y0186796D01*
X0049501Y0186863D01*
X0049507Y0186930D01*
X0049516Y0186996D01*
X0049530Y0187061D01*
X0049547Y0187126D01*
X0049568Y0187189D01*
X0049593Y0187251D01*
X0049621Y0187312D01*
X0049653Y0187371D01*
X0049688Y0187428D01*
X0049727Y0187483D01*
X0049768Y0187535D01*
X0049813Y0187585D01*
X0049860Y0187632D01*
X0049910Y0187677D01*
X0049962Y0187718D01*
X0050017Y0187757D01*
X0050074Y0187792D01*
X0050133Y0187824D01*
X0050194Y0187852D01*
X0050256Y0187877D01*
X0050319Y0187898D01*
X0050384Y0187915D01*
X0050449Y0187929D01*
X0050515Y0187938D01*
X0050582Y0187944D01*
X0050649Y0187946D01*
X0047555Y0186668D02*
X0047555Y0186412D01*
X0047553Y0186350D01*
X0047548Y0186289D01*
X0047538Y0186228D01*
X0047525Y0186167D01*
X0047509Y0186108D01*
X0047489Y0186050D01*
X0047465Y0185993D01*
X0047438Y0185937D01*
X0047408Y0185883D01*
X0047374Y0185831D01*
X0047338Y0185782D01*
X0047298Y0185734D01*
X0047256Y0185689D01*
X0047211Y0185647D01*
X0047163Y0185607D01*
X0047114Y0185571D01*
X0047062Y0185537D01*
X0047008Y0185507D01*
X0046952Y0185480D01*
X0046895Y0185456D01*
X0046837Y0185436D01*
X0046778Y0185420D01*
X0046717Y0185407D01*
X0046656Y0185397D01*
X0046595Y0185392D01*
X0046533Y0185390D01*
X0044999Y0185390D01*
X0044999Y0186668D01*
X0045001Y0186738D01*
X0045007Y0186809D01*
X0045016Y0186878D01*
X0045030Y0186947D01*
X0045047Y0187016D01*
X0045068Y0187083D01*
X0045093Y0187149D01*
X0045121Y0187213D01*
X0045153Y0187276D01*
X0045188Y0187337D01*
X0045227Y0187396D01*
X0045268Y0187453D01*
X0045313Y0187507D01*
X0045361Y0187559D01*
X0045411Y0187608D01*
X0045465Y0187655D01*
X0045520Y0187698D01*
X0045578Y0187738D01*
X0045638Y0187775D01*
X0045700Y0187808D01*
X0045764Y0187838D01*
X0045829Y0187865D01*
X0045895Y0187888D01*
X0045963Y0187907D01*
X0046032Y0187922D01*
X0046101Y0187934D01*
X0046171Y0187942D01*
X0046242Y0187946D01*
X0046312Y0187946D01*
X0046383Y0187942D01*
X0046453Y0187934D01*
X0046522Y0187922D01*
X0046591Y0187907D01*
X0046659Y0187888D01*
X0046725Y0187865D01*
X0046790Y0187838D01*
X0046854Y0187808D01*
X0046916Y0187775D01*
X0046976Y0187738D01*
X0047034Y0187698D01*
X0047089Y0187655D01*
X0047143Y0187608D01*
X0047193Y0187559D01*
X0047241Y0187507D01*
X0047286Y0187453D01*
X0047327Y0187396D01*
X0047366Y0187337D01*
X0047401Y0187276D01*
X0047433Y0187213D01*
X0047461Y0187149D01*
X0047486Y0187083D01*
X0047507Y0187016D01*
X0047524Y0186947D01*
X0047538Y0186878D01*
X0047547Y0186809D01*
X0047553Y0186738D01*
X0047555Y0186668D01*
X0045000Y0185390D02*
X0045002Y0185301D01*
X0045008Y0185212D01*
X0045017Y0185123D01*
X0045031Y0185035D01*
X0045048Y0184948D01*
X0045070Y0184861D01*
X0045095Y0184775D01*
X0045123Y0184691D01*
X0045156Y0184608D01*
X0045192Y0184526D01*
X0045231Y0184446D01*
X0045274Y0184368D01*
X0045320Y0184292D01*
X0045370Y0184218D01*
X0045422Y0184146D01*
X0045478Y0184076D01*
X0045537Y0184009D01*
X0045599Y0183945D01*
X0045663Y0183883D01*
X0045730Y0183824D01*
X0045800Y0183768D01*
X0045872Y0183716D01*
X0045946Y0183666D01*
X0046022Y0183620D01*
X0046100Y0183577D01*
X0046180Y0183538D01*
X0046262Y0183502D01*
X0046345Y0183469D01*
X0046429Y0183441D01*
X0046515Y0183416D01*
X0046602Y0183394D01*
X0046689Y0183377D01*
X0046777Y0183363D01*
X0046866Y0183354D01*
X0046955Y0183348D01*
X0047044Y0183346D01*
X0049499Y0183346D02*
X0052055Y0183346D01*
X0126220Y0308718D02*
X0126220Y0308973D01*
X0126222Y0309035D01*
X0126227Y0309096D01*
X0126237Y0309157D01*
X0126250Y0309218D01*
X0126266Y0309277D01*
X0126286Y0309335D01*
X0126310Y0309392D01*
X0126337Y0309448D01*
X0126367Y0309502D01*
X0126401Y0309554D01*
X0126437Y0309603D01*
X0126477Y0309651D01*
X0126519Y0309696D01*
X0126564Y0309738D01*
X0126612Y0309778D01*
X0126661Y0309814D01*
X0126713Y0309848D01*
X0126767Y0309878D01*
X0126823Y0309905D01*
X0126880Y0309929D01*
X0126938Y0309949D01*
X0126997Y0309965D01*
X0127058Y0309978D01*
X0127119Y0309988D01*
X0127180Y0309993D01*
X0127242Y0309995D01*
X0127242Y0309996D02*
X0128775Y0309996D01*
X0128775Y0308718D01*
X0128773Y0308648D01*
X0128767Y0308577D01*
X0128758Y0308508D01*
X0128744Y0308439D01*
X0128727Y0308370D01*
X0128706Y0308303D01*
X0128681Y0308237D01*
X0128653Y0308173D01*
X0128621Y0308110D01*
X0128586Y0308049D01*
X0128547Y0307990D01*
X0128506Y0307933D01*
X0128461Y0307879D01*
X0128413Y0307827D01*
X0128363Y0307778D01*
X0128309Y0307731D01*
X0128254Y0307688D01*
X0128196Y0307648D01*
X0128136Y0307611D01*
X0128074Y0307578D01*
X0128010Y0307548D01*
X0127945Y0307521D01*
X0127879Y0307498D01*
X0127811Y0307479D01*
X0127742Y0307464D01*
X0127673Y0307452D01*
X0127603Y0307444D01*
X0127532Y0307440D01*
X0127462Y0307440D01*
X0127391Y0307444D01*
X0127321Y0307452D01*
X0127252Y0307464D01*
X0127183Y0307479D01*
X0127115Y0307498D01*
X0127049Y0307521D01*
X0126984Y0307548D01*
X0126920Y0307578D01*
X0126858Y0307611D01*
X0126798Y0307648D01*
X0126740Y0307688D01*
X0126685Y0307731D01*
X0126631Y0307778D01*
X0126581Y0307827D01*
X0126533Y0307879D01*
X0126488Y0307933D01*
X0126447Y0307990D01*
X0126408Y0308049D01*
X0126373Y0308110D01*
X0126341Y0308173D01*
X0126313Y0308237D01*
X0126288Y0308303D01*
X0126267Y0308370D01*
X0126250Y0308439D01*
X0126236Y0308508D01*
X0126227Y0308577D01*
X0126221Y0308648D01*
X0126219Y0308718D01*
X0128775Y0309996D02*
X0128773Y0310085D01*
X0128767Y0310174D01*
X0128758Y0310263D01*
X0128744Y0310351D01*
X0128727Y0310438D01*
X0128705Y0310525D01*
X0128680Y0310611D01*
X0128652Y0310695D01*
X0128619Y0310778D01*
X0128583Y0310860D01*
X0128544Y0310940D01*
X0128501Y0311018D01*
X0128455Y0311094D01*
X0128405Y0311168D01*
X0128353Y0311240D01*
X0128297Y0311310D01*
X0128238Y0311377D01*
X0128176Y0311441D01*
X0128112Y0311503D01*
X0128045Y0311562D01*
X0127975Y0311618D01*
X0127903Y0311670D01*
X0127829Y0311720D01*
X0127753Y0311766D01*
X0127675Y0311809D01*
X0127595Y0311848D01*
X0127513Y0311884D01*
X0127430Y0311917D01*
X0127346Y0311945D01*
X0127260Y0311970D01*
X0127173Y0311992D01*
X0127086Y0312009D01*
X0126998Y0312023D01*
X0126909Y0312032D01*
X0126820Y0312038D01*
X0126731Y0312040D01*
X0131997Y0312040D02*
X0131997Y0307440D01*
X0130720Y0307440D02*
X0133275Y0307440D01*
X0134994Y0307440D02*
X0136016Y0307440D01*
X0136078Y0307442D01*
X0136139Y0307447D01*
X0136200Y0307457D01*
X0136261Y0307470D01*
X0136320Y0307486D01*
X0136378Y0307506D01*
X0136435Y0307530D01*
X0136491Y0307557D01*
X0136545Y0307587D01*
X0136597Y0307621D01*
X0136646Y0307657D01*
X0136694Y0307697D01*
X0136739Y0307739D01*
X0136781Y0307784D01*
X0136821Y0307832D01*
X0136857Y0307881D01*
X0136891Y0307933D01*
X0136921Y0307987D01*
X0136948Y0308043D01*
X0136972Y0308100D01*
X0136992Y0308158D01*
X0137008Y0308217D01*
X0137021Y0308278D01*
X0137031Y0308339D01*
X0137036Y0308400D01*
X0137038Y0308462D01*
X0137038Y0311018D01*
X0137036Y0311080D01*
X0137031Y0311141D01*
X0137021Y0311202D01*
X0137008Y0311263D01*
X0136992Y0311322D01*
X0136972Y0311380D01*
X0136948Y0311437D01*
X0136921Y0311493D01*
X0136891Y0311547D01*
X0136857Y0311599D01*
X0136821Y0311648D01*
X0136781Y0311696D01*
X0136739Y0311741D01*
X0136694Y0311783D01*
X0136646Y0311823D01*
X0136597Y0311859D01*
X0136545Y0311893D01*
X0136491Y0311923D01*
X0136435Y0311950D01*
X0136378Y0311974D01*
X0136320Y0311994D01*
X0136261Y0312010D01*
X0136200Y0312023D01*
X0136139Y0312033D01*
X0136078Y0312038D01*
X0136016Y0312040D01*
X0134994Y0312040D01*
X0133275Y0311018D02*
X0131997Y0312040D01*
X0131153Y0318267D02*
X0133708Y0318267D01*
X0131536Y0320822D01*
X0132303Y0322867D02*
X0132377Y0322865D01*
X0132451Y0322860D01*
X0132525Y0322850D01*
X0132598Y0322837D01*
X0132671Y0322821D01*
X0132742Y0322800D01*
X0132812Y0322776D01*
X0132881Y0322749D01*
X0132949Y0322718D01*
X0133015Y0322684D01*
X0133079Y0322647D01*
X0133141Y0322606D01*
X0133202Y0322562D01*
X0133259Y0322516D01*
X0133315Y0322466D01*
X0133368Y0322414D01*
X0133418Y0322359D01*
X0133465Y0322302D01*
X0133509Y0322242D01*
X0133551Y0322180D01*
X0133589Y0322117D01*
X0133624Y0322051D01*
X0133655Y0321984D01*
X0133683Y0321915D01*
X0133708Y0321845D01*
X0131536Y0320823D02*
X0131489Y0320870D01*
X0131445Y0320920D01*
X0131403Y0320972D01*
X0131364Y0321026D01*
X0131329Y0321082D01*
X0131296Y0321140D01*
X0131266Y0321200D01*
X0131240Y0321261D01*
X0131217Y0321324D01*
X0131198Y0321388D01*
X0131182Y0321452D01*
X0131169Y0321518D01*
X0131160Y0321584D01*
X0131155Y0321650D01*
X0131153Y0321717D01*
X0131155Y0321784D01*
X0131161Y0321851D01*
X0131170Y0321917D01*
X0131184Y0321982D01*
X0131201Y0322047D01*
X0131222Y0322110D01*
X0131247Y0322172D01*
X0131275Y0322233D01*
X0131307Y0322292D01*
X0131342Y0322349D01*
X0131381Y0322404D01*
X0131422Y0322456D01*
X0131467Y0322506D01*
X0131514Y0322553D01*
X0131564Y0322598D01*
X0131616Y0322639D01*
X0131671Y0322678D01*
X0131728Y0322713D01*
X0131787Y0322745D01*
X0131848Y0322773D01*
X0131910Y0322798D01*
X0131973Y0322819D01*
X0132038Y0322836D01*
X0132103Y0322850D01*
X0132169Y0322859D01*
X0132236Y0322865D01*
X0132303Y0322867D01*
X0135427Y0322867D02*
X0136449Y0322867D01*
X0136511Y0322865D01*
X0136572Y0322860D01*
X0136633Y0322850D01*
X0136694Y0322837D01*
X0136753Y0322821D01*
X0136811Y0322801D01*
X0136868Y0322777D01*
X0136924Y0322750D01*
X0136978Y0322720D01*
X0137030Y0322686D01*
X0137079Y0322650D01*
X0137127Y0322610D01*
X0137172Y0322568D01*
X0137214Y0322523D01*
X0137254Y0322475D01*
X0137290Y0322426D01*
X0137324Y0322374D01*
X0137354Y0322320D01*
X0137381Y0322264D01*
X0137405Y0322207D01*
X0137425Y0322149D01*
X0137441Y0322090D01*
X0137454Y0322029D01*
X0137464Y0321968D01*
X0137469Y0321907D01*
X0137471Y0321845D01*
X0137471Y0319289D01*
X0137469Y0319227D01*
X0137464Y0319166D01*
X0137454Y0319105D01*
X0137441Y0319044D01*
X0137425Y0318985D01*
X0137405Y0318927D01*
X0137381Y0318870D01*
X0137354Y0318814D01*
X0137324Y0318760D01*
X0137290Y0318708D01*
X0137254Y0318659D01*
X0137214Y0318611D01*
X0137172Y0318566D01*
X0137127Y0318524D01*
X0137079Y0318484D01*
X0137030Y0318448D01*
X0136978Y0318414D01*
X0136924Y0318384D01*
X0136868Y0318357D01*
X0136811Y0318333D01*
X0136753Y0318313D01*
X0136694Y0318297D01*
X0136633Y0318284D01*
X0136572Y0318274D01*
X0136511Y0318269D01*
X0136449Y0318267D01*
X0135427Y0318267D01*
X0129209Y0319545D02*
X0129207Y0319475D01*
X0129201Y0319404D01*
X0129192Y0319335D01*
X0129178Y0319266D01*
X0129161Y0319197D01*
X0129140Y0319130D01*
X0129115Y0319064D01*
X0129087Y0319000D01*
X0129055Y0318937D01*
X0129020Y0318876D01*
X0128981Y0318817D01*
X0128940Y0318760D01*
X0128895Y0318706D01*
X0128847Y0318654D01*
X0128797Y0318605D01*
X0128743Y0318558D01*
X0128688Y0318515D01*
X0128630Y0318475D01*
X0128570Y0318438D01*
X0128508Y0318405D01*
X0128444Y0318375D01*
X0128379Y0318348D01*
X0128313Y0318325D01*
X0128245Y0318306D01*
X0128176Y0318291D01*
X0128107Y0318279D01*
X0128037Y0318271D01*
X0127966Y0318267D01*
X0127896Y0318267D01*
X0127825Y0318271D01*
X0127755Y0318279D01*
X0127686Y0318291D01*
X0127617Y0318306D01*
X0127549Y0318325D01*
X0127483Y0318348D01*
X0127418Y0318375D01*
X0127354Y0318405D01*
X0127292Y0318438D01*
X0127232Y0318475D01*
X0127174Y0318515D01*
X0127119Y0318558D01*
X0127065Y0318605D01*
X0127015Y0318654D01*
X0126967Y0318706D01*
X0126922Y0318760D01*
X0126881Y0318817D01*
X0126842Y0318876D01*
X0126807Y0318937D01*
X0126775Y0319000D01*
X0126747Y0319064D01*
X0126722Y0319130D01*
X0126701Y0319197D01*
X0126684Y0319266D01*
X0126670Y0319335D01*
X0126661Y0319404D01*
X0126655Y0319475D01*
X0126653Y0319545D01*
X0126655Y0319615D01*
X0126661Y0319686D01*
X0126670Y0319755D01*
X0126684Y0319824D01*
X0126701Y0319893D01*
X0126722Y0319960D01*
X0126747Y0320026D01*
X0126775Y0320090D01*
X0126807Y0320153D01*
X0126842Y0320214D01*
X0126881Y0320273D01*
X0126922Y0320330D01*
X0126967Y0320384D01*
X0127015Y0320436D01*
X0127065Y0320485D01*
X0127119Y0320532D01*
X0127174Y0320575D01*
X0127232Y0320615D01*
X0127292Y0320652D01*
X0127354Y0320685D01*
X0127418Y0320715D01*
X0127483Y0320742D01*
X0127549Y0320765D01*
X0127617Y0320784D01*
X0127686Y0320799D01*
X0127755Y0320811D01*
X0127825Y0320819D01*
X0127896Y0320823D01*
X0127966Y0320823D01*
X0128037Y0320819D01*
X0128107Y0320811D01*
X0128176Y0320799D01*
X0128245Y0320784D01*
X0128313Y0320765D01*
X0128379Y0320742D01*
X0128444Y0320715D01*
X0128508Y0320685D01*
X0128570Y0320652D01*
X0128630Y0320615D01*
X0128688Y0320575D01*
X0128743Y0320532D01*
X0128797Y0320485D01*
X0128847Y0320436D01*
X0128895Y0320384D01*
X0128940Y0320330D01*
X0128981Y0320273D01*
X0129020Y0320214D01*
X0129055Y0320153D01*
X0129087Y0320090D01*
X0129115Y0320026D01*
X0129140Y0319960D01*
X0129161Y0319893D01*
X0129178Y0319824D01*
X0129192Y0319755D01*
X0129201Y0319686D01*
X0129207Y0319615D01*
X0129209Y0319545D01*
X0128953Y0321845D02*
X0128951Y0321782D01*
X0128945Y0321719D01*
X0128936Y0321657D01*
X0128922Y0321596D01*
X0128905Y0321535D01*
X0128884Y0321476D01*
X0128859Y0321418D01*
X0128831Y0321361D01*
X0128800Y0321307D01*
X0128765Y0321255D01*
X0128727Y0321204D01*
X0128686Y0321156D01*
X0128642Y0321111D01*
X0128596Y0321069D01*
X0128547Y0321029D01*
X0128496Y0320993D01*
X0128442Y0320960D01*
X0128387Y0320930D01*
X0128329Y0320904D01*
X0128271Y0320881D01*
X0128211Y0320862D01*
X0128150Y0320847D01*
X0128088Y0320835D01*
X0128025Y0320827D01*
X0127962Y0320823D01*
X0127900Y0320823D01*
X0127837Y0320827D01*
X0127774Y0320835D01*
X0127712Y0320847D01*
X0127651Y0320862D01*
X0127591Y0320881D01*
X0127533Y0320904D01*
X0127475Y0320930D01*
X0127420Y0320960D01*
X0127366Y0320993D01*
X0127315Y0321029D01*
X0127266Y0321069D01*
X0127220Y0321111D01*
X0127176Y0321156D01*
X0127135Y0321204D01*
X0127097Y0321255D01*
X0127062Y0321307D01*
X0127031Y0321361D01*
X0127003Y0321418D01*
X0126978Y0321476D01*
X0126957Y0321535D01*
X0126940Y0321596D01*
X0126926Y0321657D01*
X0126917Y0321719D01*
X0126911Y0321782D01*
X0126909Y0321845D01*
X0126911Y0321908D01*
X0126917Y0321971D01*
X0126926Y0322033D01*
X0126940Y0322094D01*
X0126957Y0322155D01*
X0126978Y0322214D01*
X0127003Y0322272D01*
X0127031Y0322329D01*
X0127062Y0322383D01*
X0127097Y0322435D01*
X0127135Y0322486D01*
X0127176Y0322534D01*
X0127220Y0322579D01*
X0127266Y0322621D01*
X0127315Y0322661D01*
X0127366Y0322697D01*
X0127420Y0322730D01*
X0127475Y0322760D01*
X0127533Y0322786D01*
X0127591Y0322809D01*
X0127651Y0322828D01*
X0127712Y0322843D01*
X0127774Y0322855D01*
X0127837Y0322863D01*
X0127900Y0322867D01*
X0127962Y0322867D01*
X0128025Y0322863D01*
X0128088Y0322855D01*
X0128150Y0322843D01*
X0128211Y0322828D01*
X0128271Y0322809D01*
X0128329Y0322786D01*
X0128387Y0322760D01*
X0128442Y0322730D01*
X0128496Y0322697D01*
X0128547Y0322661D01*
X0128596Y0322621D01*
X0128642Y0322579D01*
X0128686Y0322534D01*
X0128727Y0322486D01*
X0128765Y0322435D01*
X0128800Y0322383D01*
X0128831Y0322329D01*
X0128859Y0322272D01*
X0128884Y0322214D01*
X0128905Y0322155D01*
X0128922Y0322094D01*
X0128936Y0322033D01*
X0128945Y0321971D01*
X0128951Y0321908D01*
X0128953Y0321845D01*
X0218346Y0294920D02*
X0220901Y0294920D01*
X0219623Y0294920D02*
X0219623Y0299520D01*
X0220901Y0298498D01*
X0224094Y0299521D02*
X0224024Y0299519D01*
X0223953Y0299513D01*
X0223884Y0299504D01*
X0223815Y0299490D01*
X0223746Y0299473D01*
X0223679Y0299452D01*
X0223613Y0299427D01*
X0223549Y0299399D01*
X0223486Y0299367D01*
X0223425Y0299332D01*
X0223366Y0299293D01*
X0223309Y0299252D01*
X0223255Y0299207D01*
X0223203Y0299159D01*
X0223154Y0299109D01*
X0223107Y0299055D01*
X0223064Y0299000D01*
X0223024Y0298942D01*
X0222987Y0298882D01*
X0222954Y0298820D01*
X0222924Y0298756D01*
X0222897Y0298691D01*
X0222874Y0298625D01*
X0222855Y0298557D01*
X0222840Y0298488D01*
X0222828Y0298419D01*
X0222820Y0298349D01*
X0222816Y0298278D01*
X0222816Y0298208D01*
X0222820Y0298137D01*
X0222828Y0298067D01*
X0222840Y0297998D01*
X0222855Y0297929D01*
X0222874Y0297861D01*
X0222897Y0297795D01*
X0222924Y0297730D01*
X0222954Y0297666D01*
X0222987Y0297604D01*
X0223024Y0297544D01*
X0223064Y0297486D01*
X0223107Y0297431D01*
X0223154Y0297377D01*
X0223203Y0297327D01*
X0223255Y0297279D01*
X0223309Y0297234D01*
X0223366Y0297193D01*
X0223425Y0297154D01*
X0223486Y0297119D01*
X0223549Y0297087D01*
X0223613Y0297059D01*
X0223679Y0297034D01*
X0223746Y0297013D01*
X0223815Y0296996D01*
X0223884Y0296982D01*
X0223953Y0296973D01*
X0224024Y0296967D01*
X0224094Y0296965D01*
X0225372Y0296965D01*
X0223839Y0296965D02*
X0222817Y0294920D01*
X0225372Y0294920D02*
X0225372Y0299520D01*
X0224094Y0299520D01*
X0321755Y0233030D02*
X0321755Y0230471D01*
X0321755Y0231751D02*
X0326361Y0231751D01*
X0325338Y0230471D01*
X0326361Y0228393D02*
X0322779Y0228393D01*
X0322717Y0228391D01*
X0322656Y0228386D01*
X0322594Y0228376D01*
X0322534Y0228363D01*
X0322474Y0228347D01*
X0322416Y0228326D01*
X0322359Y0228303D01*
X0322303Y0228276D01*
X0322249Y0228245D01*
X0322197Y0228212D01*
X0322147Y0228175D01*
X0322100Y0228135D01*
X0322055Y0228093D01*
X0322013Y0228048D01*
X0321973Y0228001D01*
X0321936Y0227951D01*
X0321903Y0227899D01*
X0321872Y0227845D01*
X0321845Y0227789D01*
X0321822Y0227732D01*
X0321801Y0227674D01*
X0321785Y0227614D01*
X0321772Y0227554D01*
X0321762Y0227492D01*
X0321757Y0227431D01*
X0321755Y0227369D01*
X0321755Y0226857D01*
D13*
X0316689Y0213067D02*
X0316689Y0206295D01*
X0314602Y0206295D01*
X0307969Y0206295D02*
X0304425Y0206295D01*
X0293539Y0206295D02*
X0286768Y0206295D01*
X0286768Y0210193D01*
X0286768Y0244524D02*
X0286768Y0250783D01*
X0295783Y0250783D01*
X0306689Y0250783D02*
X0310469Y0250783D01*
X0316689Y0246453D02*
X0316689Y0243224D01*
D14*
X0282830Y0243500D02*
X0282832Y0243539D01*
X0282838Y0243578D01*
X0282848Y0243616D01*
X0282861Y0243653D01*
X0282878Y0243688D01*
X0282898Y0243722D01*
X0282922Y0243753D01*
X0282949Y0243782D01*
X0282978Y0243808D01*
X0283010Y0243831D01*
X0283044Y0243851D01*
X0283080Y0243867D01*
X0283117Y0243879D01*
X0283156Y0243888D01*
X0283195Y0243893D01*
X0283234Y0243894D01*
X0283273Y0243891D01*
X0283312Y0243884D01*
X0283349Y0243873D01*
X0283386Y0243859D01*
X0283421Y0243841D01*
X0283454Y0243820D01*
X0283485Y0243795D01*
X0283513Y0243768D01*
X0283538Y0243738D01*
X0283560Y0243705D01*
X0283579Y0243671D01*
X0283594Y0243635D01*
X0283606Y0243597D01*
X0283614Y0243559D01*
X0283618Y0243520D01*
X0283618Y0243480D01*
X0283614Y0243441D01*
X0283606Y0243403D01*
X0283594Y0243365D01*
X0283579Y0243329D01*
X0283560Y0243295D01*
X0283538Y0243262D01*
X0283513Y0243232D01*
X0283485Y0243205D01*
X0283454Y0243180D01*
X0283421Y0243159D01*
X0283386Y0243141D01*
X0283349Y0243127D01*
X0283312Y0243116D01*
X0283273Y0243109D01*
X0283234Y0243106D01*
X0283195Y0243107D01*
X0283156Y0243112D01*
X0283117Y0243121D01*
X0283080Y0243133D01*
X0283044Y0243149D01*
X0283010Y0243169D01*
X0282978Y0243192D01*
X0282949Y0243218D01*
X0282922Y0243247D01*
X0282898Y0243278D01*
X0282878Y0243312D01*
X0282861Y0243347D01*
X0282848Y0243384D01*
X0282838Y0243422D01*
X0282832Y0243461D01*
X0282830Y0243500D01*
M02*
