%
M48
M72
T01C0.01378
T02C0.01969
T03C0.03150
T04C0.03600
T05C0.03937
T06C0.04000
T07C0.04500
T08C0.05512
%
T01
X113697Y44406
X224563Y43106
X231925Y145311
X211965Y187634
X234957Y197713
X264839Y226728
X267673Y236925
X270362Y241571
X275736Y247516
X275547Y236413
X275665Y232122
X275665Y221059
X281728Y221531
X292988Y229327
X313303Y200980
X280862Y274366
X267673Y274248
X239720Y274366
X220232Y263882
X178657Y260075
X178224Y241453
X184287Y222398
X137516Y281295
X88264Y239839
X73421Y215844
X51965Y233461
X61295Y260941
X97319Y198343
X61295Y188618
X296886Y323854
T02
X243343Y234957
X247083Y230823
X240075Y227083
X225429Y229327
X215902Y215272
X254760Y180941
X259760Y180941
X264760Y180941
X269760Y180941
X274760Y180941
X279760Y180941
X284760Y180941
X289760Y180941
X294760Y180941
X299760Y180941
X304760Y180941
X309760Y180941
X315665Y173461
X315665Y168461
X315665Y163461
X315665Y158461
X315665Y153461
X315665Y148461
X315665Y143461
X315665Y138461
X315665Y133461
X315665Y128461
X309760Y121020
X304760Y121020
X299760Y121020
X294760Y121020
X289760Y121020
X284760Y121020
X279760Y121020
X274760Y121020
X269760Y121020
X264760Y121020
X259760Y121020
X254760Y121020
X252280Y128461
X252280Y133461
X252280Y138461
X252280Y143461
X252280Y148461
X252280Y153461
X252280Y158461
X252280Y163461
X252280Y168461
X252280Y173461
X259720Y231177
X173028Y137083
X138382Y168697
X110232Y123224
T03
X252909Y94681
X301650Y47870
T04
X121295Y232673
X111295Y232673
X111295Y242673
X111295Y252673
X111295Y262673
X111295Y272673
X111295Y282673
X111295Y292673
X121295Y292673
X121295Y282673
X121295Y272673
X121295Y262673
X121295Y252673
X121295Y242673
X92516Y319839
X82516Y319839
X72516Y319839
T05
X31059Y31098
X31098Y330272
X330272Y330272
X330272Y31059
T06
X262594Y321374
X252594Y321374
X242594Y321374
X232594Y321374
X222594Y321374
X212594Y321374
T07
X151571Y95628
X151571Y48028
T08
X66335Y143067
X66335Y163067
X36335Y163067
X36335Y143067
M30
