G75*
%MOIN*%
%OFA0B0*%
%FSLAX25Y25*%
%IPPOS*%
%LPD*%
%AMOC8*
5,1,8,0,0,1.08239X$1,22.5*
%
%ADD10R,0.03937X0.04331*%
%ADD11R,0.04331X0.03937*%
%ADD12R,0.06750X0.06750*%
%ADD13C,0.06750*%
%ADD14R,0.03937X0.01969*%
%ADD15R,0.09409X0.04134*%
%ADD16R,0.04724X0.04134*%
%ADD17R,0.03071X0.02835*%
%ADD18R,0.04252X0.04134*%
%ADD19R,0.02165X0.11457*%
%ADD20R,0.08268X0.08268*%
%ADD21C,0.08268*%
%ADD22R,0.08661X0.06299*%
%ADD23C,0.06000*%
%ADD24C,0.03969*%
%ADD25OC8,0.05600*%
%ADD26C,0.05600*%
%ADD27C,0.02000*%
%ADD28C,0.04750*%
%ADD29C,0.03569*%
%ADD30C,0.01200*%
%ADD31C,0.02978*%
%ADD32C,0.05000*%
%ADD33C,0.02400*%
%ADD34C,0.01000*%
D10*
X0073343Y0187870D03*
X0073343Y0194563D03*
X0084681Y0194524D03*
X0084681Y0187831D03*
X0219799Y0304720D03*
X0226492Y0304720D03*
D11*
X0122240Y0310311D03*
X0115547Y0310311D03*
X0115547Y0321138D03*
X0122240Y0321138D03*
X0053303Y0207161D03*
X0046610Y0207161D03*
X0046453Y0193146D03*
X0053146Y0193146D03*
D12*
X0151571Y0048028D03*
D13*
X0151571Y0095628D03*
D14*
X0287890Y0212201D03*
X0287890Y0216531D03*
X0287890Y0220862D03*
X0287890Y0225193D03*
X0287890Y0229524D03*
X0287890Y0233854D03*
X0287890Y0238185D03*
X0287890Y0242516D03*
D15*
X0298933Y0207575D03*
D16*
X0311472Y0207575D03*
X0313717Y0249504D03*
D17*
X0298441Y0249445D03*
D18*
X0303441Y0249504D03*
D19*
X0316374Y0236591D03*
X0316374Y0220094D03*
D20*
X0066335Y0143067D03*
X0036335Y0143067D03*
D21*
X0036335Y0163067D03*
X0066335Y0163067D03*
D22*
X0085193Y0161413D03*
X0085193Y0172437D03*
D23*
X0212594Y0318374D02*
X0212594Y0324374D01*
X0222594Y0324374D02*
X0222594Y0318374D01*
X0232594Y0318374D02*
X0232594Y0324374D01*
X0242594Y0324374D02*
X0242594Y0318374D01*
X0252594Y0318374D02*
X0252594Y0324374D01*
X0262594Y0324374D02*
X0262594Y0318374D01*
D24*
X0264760Y0182925D02*
X0264760Y0178957D01*
X0269760Y0178957D02*
X0269760Y0182925D01*
X0274760Y0182925D02*
X0274760Y0178957D01*
X0279760Y0178957D02*
X0279760Y0182925D01*
X0284760Y0182925D02*
X0284760Y0178957D01*
X0289760Y0178957D02*
X0289760Y0182925D01*
X0294760Y0182925D02*
X0294760Y0178957D01*
X0299760Y0178957D02*
X0299760Y0182925D01*
X0304760Y0182925D02*
X0304760Y0178957D01*
X0309760Y0178957D02*
X0309760Y0182925D01*
X0313681Y0173461D02*
X0317650Y0173461D01*
X0317650Y0168461D02*
X0313681Y0168461D01*
X0313681Y0163461D02*
X0317650Y0163461D01*
X0317650Y0158461D02*
X0313681Y0158461D01*
X0313681Y0153461D02*
X0317650Y0153461D01*
X0317650Y0148461D02*
X0313681Y0148461D01*
X0313681Y0143461D02*
X0317650Y0143461D01*
X0317650Y0138461D02*
X0313681Y0138461D01*
X0313681Y0133461D02*
X0317650Y0133461D01*
X0317650Y0128461D02*
X0313681Y0128461D01*
X0309760Y0123004D02*
X0309760Y0119035D01*
X0304760Y0119035D02*
X0304760Y0123004D01*
X0299760Y0123004D02*
X0299760Y0119035D01*
X0294760Y0119035D02*
X0294760Y0123004D01*
X0289760Y0123004D02*
X0289760Y0119035D01*
X0284760Y0119035D02*
X0284760Y0123004D01*
X0279760Y0123004D02*
X0279760Y0119035D01*
X0274760Y0119035D02*
X0274760Y0123004D01*
X0269760Y0123004D02*
X0269760Y0119035D01*
X0264760Y0119035D02*
X0264760Y0123004D01*
X0259760Y0123004D02*
X0259760Y0119035D01*
X0254760Y0119035D02*
X0254760Y0123004D01*
X0254264Y0128461D02*
X0250295Y0128461D01*
X0250295Y0133461D02*
X0254264Y0133461D01*
X0254264Y0138461D02*
X0250295Y0138461D01*
X0250295Y0143461D02*
X0254264Y0143461D01*
X0254264Y0148461D02*
X0250295Y0148461D01*
X0250295Y0153461D02*
X0254264Y0153461D01*
X0254264Y0158461D02*
X0250295Y0158461D01*
X0250295Y0163461D02*
X0254264Y0163461D01*
X0254264Y0168461D02*
X0250295Y0168461D01*
X0250295Y0173461D02*
X0254264Y0173461D01*
X0254760Y0178957D02*
X0254760Y0182925D01*
X0259760Y0182925D02*
X0259760Y0178957D01*
D25*
X0121295Y0232673D03*
X0111295Y0232673D03*
X0111295Y0242673D03*
X0111295Y0252673D03*
X0111295Y0262673D03*
X0111295Y0272673D03*
X0111295Y0282673D03*
X0111295Y0292673D03*
X0121295Y0292673D03*
X0121295Y0282673D03*
X0121295Y0272673D03*
X0121295Y0262673D03*
X0121295Y0252673D03*
X0121295Y0242673D03*
D26*
X0092516Y0317039D02*
X0092516Y0322639D01*
X0082516Y0322639D02*
X0082516Y0317039D01*
X0072516Y0317039D02*
X0072516Y0322639D01*
D27*
X0038028Y0029712D02*
X0037395Y0028185D01*
X0318471Y0028185D01*
X0318511Y0124570D01*
X0318042Y0124476D01*
X0315665Y0124476D01*
X0315665Y0128460D01*
X0315665Y0128460D01*
X0315665Y0128461D02*
X0309697Y0128461D01*
X0315665Y0128461D01*
X0315665Y0133460D01*
X0315665Y0133460D01*
X0315665Y0133461D02*
X0309697Y0133461D01*
X0315665Y0133461D01*
X0315665Y0138460D01*
X0315665Y0138460D01*
X0315665Y0138461D02*
X0309697Y0138461D01*
X0315665Y0138461D01*
X0315665Y0143460D01*
X0315665Y0143460D01*
X0315665Y0143461D02*
X0309697Y0143461D01*
X0315665Y0143461D01*
X0315665Y0148460D01*
X0315665Y0148460D01*
X0315665Y0148461D02*
X0309697Y0148461D01*
X0315665Y0148461D01*
X0315665Y0153460D01*
X0315665Y0153460D01*
X0315665Y0153461D02*
X0309697Y0153461D01*
X0315665Y0153461D01*
X0315665Y0158460D01*
X0315665Y0158460D01*
X0315665Y0158461D02*
X0309697Y0158461D01*
X0315665Y0158461D01*
X0315665Y0163460D01*
X0315665Y0163460D01*
X0315665Y0163461D02*
X0309697Y0163461D01*
X0315665Y0163461D01*
X0315665Y0168460D01*
X0315665Y0168460D01*
X0315665Y0168461D02*
X0309697Y0168461D01*
X0315665Y0168461D01*
X0315665Y0173460D01*
X0315665Y0173460D01*
X0315665Y0173461D02*
X0309697Y0173461D01*
X0315665Y0173461D01*
X0315665Y0177445D01*
X0313446Y0177445D01*
X0313591Y0177795D01*
X0313744Y0178564D01*
X0313744Y0180941D01*
X0313744Y0183318D01*
X0313591Y0184087D01*
X0313291Y0184812D01*
X0312855Y0185465D01*
X0312300Y0186020D01*
X0311647Y0186456D01*
X0310922Y0186756D01*
X0310152Y0186909D01*
X0309760Y0186909D01*
X0309760Y0180941D01*
X0313744Y0180941D01*
X0309760Y0180941D01*
X0309760Y0180941D01*
X0309760Y0180941D01*
X0309760Y0174972D01*
X0309995Y0174972D01*
X0309850Y0174623D01*
X0309697Y0173853D01*
X0309697Y0173461D01*
X0309697Y0173068D01*
X0309850Y0172298D01*
X0310150Y0171573D01*
X0310560Y0170961D01*
X0310150Y0170348D01*
X0309850Y0169623D01*
X0309697Y0168853D01*
X0309697Y0168461D01*
X0309697Y0168068D01*
X0309850Y0167298D01*
X0310150Y0166573D01*
X0310560Y0165961D01*
X0310150Y0165348D01*
X0309850Y0164623D01*
X0309697Y0163853D01*
X0309697Y0163461D01*
X0309697Y0163068D01*
X0309850Y0162298D01*
X0310150Y0161573D01*
X0310560Y0160961D01*
X0310150Y0160348D01*
X0309850Y0159623D01*
X0309697Y0158853D01*
X0309697Y0158461D01*
X0309697Y0158068D01*
X0309850Y0157298D01*
X0310150Y0156573D01*
X0310560Y0155961D01*
X0310150Y0155348D01*
X0309850Y0154623D01*
X0309697Y0153853D01*
X0309697Y0153461D01*
X0309697Y0153068D01*
X0309850Y0152298D01*
X0310150Y0151573D01*
X0310560Y0150961D01*
X0310150Y0150348D01*
X0309850Y0149623D01*
X0309697Y0148853D01*
X0309697Y0148461D01*
X0309697Y0148068D01*
X0309850Y0147298D01*
X0310150Y0146573D01*
X0310560Y0145961D01*
X0310150Y0145348D01*
X0309850Y0144623D01*
X0309697Y0143853D01*
X0309697Y0143461D01*
X0309697Y0143068D01*
X0309850Y0142298D01*
X0310150Y0141573D01*
X0310560Y0140961D01*
X0310150Y0140348D01*
X0309850Y0139623D01*
X0309697Y0138853D01*
X0309697Y0138461D01*
X0309697Y0138068D01*
X0309850Y0137298D01*
X0310150Y0136573D01*
X0310560Y0135961D01*
X0310150Y0135348D01*
X0309850Y0134623D01*
X0309697Y0133853D01*
X0309697Y0133461D01*
X0309697Y0133068D01*
X0309850Y0132298D01*
X0310150Y0131573D01*
X0310560Y0130961D01*
X0310150Y0130348D01*
X0309850Y0129623D01*
X0309697Y0128853D01*
X0309697Y0128461D01*
X0309697Y0128068D01*
X0309850Y0127298D01*
X0309978Y0126988D01*
X0309760Y0126988D01*
X0309760Y0121020D01*
X0309760Y0121020D01*
X0313744Y0121020D01*
X0313744Y0123396D01*
X0313591Y0124166D01*
X0313462Y0124476D01*
X0315665Y0124476D01*
X0315665Y0128460D01*
X0315665Y0128461D02*
X0315665Y0128461D01*
X0315665Y0128461D01*
X0315665Y0129476D01*
X0315665Y0133460D01*
X0315665Y0133461D02*
X0315665Y0133461D01*
X0315665Y0133461D01*
X0315665Y0137445D01*
X0315665Y0138460D01*
X0315665Y0138461D02*
X0315665Y0138461D01*
X0315665Y0138461D01*
X0315665Y0139476D01*
X0315665Y0143460D01*
X0315665Y0143461D02*
X0315665Y0143461D01*
X0315665Y0143461D01*
X0315665Y0144476D01*
X0315665Y0148460D01*
X0315665Y0148461D02*
X0315665Y0148461D01*
X0315665Y0148461D01*
X0315665Y0149476D01*
X0315665Y0153460D01*
X0315665Y0153461D02*
X0315665Y0153461D01*
X0315665Y0153461D01*
X0315665Y0154476D01*
X0315665Y0158460D01*
X0315665Y0158461D02*
X0315665Y0158461D01*
X0315665Y0158461D01*
X0315665Y0159476D01*
X0315665Y0163460D01*
X0315665Y0163461D02*
X0315665Y0163461D01*
X0315665Y0163461D01*
X0315665Y0164476D01*
X0315665Y0168460D01*
X0315665Y0168461D02*
X0315665Y0168461D01*
X0315665Y0168461D01*
X0315665Y0172445D01*
X0315665Y0173460D01*
X0315665Y0173461D02*
X0315665Y0173461D01*
X0315665Y0173461D01*
X0315665Y0177445D01*
X0318042Y0177445D01*
X0318532Y0177347D01*
X0318543Y0202043D01*
X0333146Y0202043D01*
X0333146Y0323919D01*
X0331658Y0323303D01*
X0328886Y0323303D01*
X0326324Y0324364D01*
X0324364Y0326324D01*
X0323303Y0328886D01*
X0323303Y0331658D01*
X0323919Y0333146D01*
X0037451Y0333146D01*
X0038067Y0331658D01*
X0038067Y0328886D01*
X0037006Y0326324D01*
X0035046Y0324364D01*
X0032485Y0323303D01*
X0029712Y0323303D01*
X0028185Y0323936D01*
X0028185Y0194657D01*
X0028880Y0195270D01*
X0028880Y0295157D01*
X0030110Y0296387D01*
X0108787Y0296387D01*
X0109473Y0297073D01*
X0113118Y0297073D01*
X0113804Y0296387D01*
X0117165Y0296387D01*
X0117976Y0295576D01*
X0119473Y0297073D01*
X0123118Y0297073D01*
X0125695Y0294496D01*
X0125695Y0290851D01*
X0123118Y0288273D01*
X0119473Y0288273D01*
X0118395Y0289351D01*
X0118395Y0285996D01*
X0119473Y0287073D01*
X0123118Y0287073D01*
X0125695Y0284496D01*
X0125695Y0280851D01*
X0123118Y0278273D01*
X0119473Y0278273D01*
X0118395Y0279351D01*
X0118395Y0276561D01*
X0119307Y0277473D01*
X0121295Y0277473D01*
X0121295Y0272673D01*
X0121295Y0272673D01*
X0121295Y0267873D01*
X0119307Y0267873D01*
X0118395Y0268785D01*
X0118395Y0265996D01*
X0119473Y0267073D01*
X0123118Y0267073D01*
X0125695Y0264496D01*
X0125695Y0260851D01*
X0123118Y0258273D01*
X0119473Y0258273D01*
X0118395Y0259351D01*
X0118395Y0255996D01*
X0119473Y0257073D01*
X0123118Y0257073D01*
X0125695Y0254496D01*
X0125695Y0250851D01*
X0123118Y0248273D01*
X0119473Y0248273D01*
X0118395Y0249351D01*
X0118395Y0245996D01*
X0119473Y0247073D01*
X0122584Y0247073D01*
X0135316Y0259805D01*
X0135316Y0279127D01*
X0134897Y0279546D01*
X0134427Y0280681D01*
X0134427Y0281910D01*
X0134897Y0283045D01*
X0135766Y0283914D01*
X0136901Y0284384D01*
X0138130Y0284384D01*
X0139266Y0283914D01*
X0140134Y0283045D01*
X0140605Y0281910D01*
X0140605Y0280681D01*
X0140134Y0279546D01*
X0139716Y0279127D01*
X0139716Y0257982D01*
X0138427Y0256694D01*
X0125695Y0243962D01*
X0125695Y0240851D01*
X0123118Y0238273D01*
X0119473Y0238273D01*
X0118395Y0239351D01*
X0118395Y0235996D01*
X0119473Y0237073D01*
X0123118Y0237073D01*
X0125695Y0234496D01*
X0125695Y0230851D01*
X0123118Y0228273D01*
X0119473Y0228273D01*
X0118395Y0229351D01*
X0118395Y0179087D01*
X0117165Y0177857D01*
X0087793Y0177857D01*
X0087793Y0177187D01*
X0090186Y0177187D01*
X0091124Y0176249D01*
X0091124Y0168625D01*
X0090186Y0167687D01*
X0080199Y0167687D01*
X0079262Y0168625D01*
X0079262Y0169837D01*
X0077098Y0169837D01*
X0076142Y0170233D01*
X0068519Y0177857D01*
X0039135Y0177857D01*
X0039135Y0168113D01*
X0039583Y0167928D01*
X0041196Y0166315D01*
X0041381Y0165867D01*
X0061288Y0165867D01*
X0061474Y0166315D01*
X0063087Y0167928D01*
X0065194Y0168801D01*
X0067475Y0168801D01*
X0069583Y0167928D01*
X0071196Y0166315D01*
X0072068Y0164207D01*
X0072068Y0161926D01*
X0071196Y0159819D01*
X0069583Y0158206D01*
X0067475Y0157333D01*
X0065194Y0157333D01*
X0063087Y0158206D01*
X0061474Y0159819D01*
X0061288Y0160267D01*
X0041381Y0160267D01*
X0041196Y0159819D01*
X0039583Y0158206D01*
X0037475Y0157333D01*
X0035194Y0157333D01*
X0033087Y0158206D01*
X0031474Y0159819D01*
X0031185Y0160516D01*
X0031185Y0153833D01*
X0036217Y0148801D01*
X0041131Y0148801D01*
X0042068Y0147864D01*
X0042068Y0145867D01*
X0060601Y0145867D01*
X0060601Y0147864D01*
X0061538Y0148801D01*
X0068903Y0148801D01*
X0079262Y0159160D01*
X0079262Y0165226D01*
X0080199Y0166163D01*
X0090186Y0166163D01*
X0091124Y0165226D01*
X0091124Y0157601D01*
X0090186Y0156664D01*
X0084120Y0156664D01*
X0072068Y0144612D01*
X0072068Y0138270D01*
X0071131Y0137333D01*
X0061538Y0137333D01*
X0060601Y0138270D01*
X0060601Y0140267D01*
X0042068Y0140267D01*
X0042068Y0138270D01*
X0041131Y0137333D01*
X0031538Y0137333D01*
X0030601Y0138270D01*
X0030601Y0146498D01*
X0028185Y0148913D01*
X0028185Y0037451D01*
X0029673Y0038067D01*
X0032445Y0038067D01*
X0035006Y0037006D01*
X0036967Y0035046D01*
X0038028Y0032485D01*
X0038028Y0029712D01*
X0037807Y0029181D02*
X0318471Y0029181D01*
X0318472Y0031179D02*
X0038028Y0031179D01*
X0037740Y0033178D02*
X0318473Y0033178D01*
X0318474Y0035176D02*
X0036836Y0035176D01*
X0034599Y0037175D02*
X0318475Y0037175D01*
X0318475Y0039173D02*
X0028185Y0039173D01*
X0028185Y0041172D02*
X0318476Y0041172D01*
X0318477Y0043170D02*
X0155726Y0043170D01*
X0155609Y0043053D02*
X0156546Y0043990D01*
X0156546Y0052065D01*
X0155609Y0053003D01*
X0147533Y0053003D01*
X0146596Y0052065D01*
X0146596Y0043990D01*
X0147533Y0043053D01*
X0155609Y0043053D01*
X0156546Y0045169D02*
X0318478Y0045169D01*
X0318479Y0047167D02*
X0156546Y0047167D01*
X0156546Y0049166D02*
X0318479Y0049166D01*
X0318480Y0051164D02*
X0156546Y0051164D01*
X0146596Y0051164D02*
X0028185Y0051164D01*
X0028185Y0049166D02*
X0146596Y0049166D01*
X0146596Y0047167D02*
X0028185Y0047167D01*
X0028185Y0045169D02*
X0146596Y0045169D01*
X0147416Y0043170D02*
X0028185Y0043170D01*
X0028185Y0053163D02*
X0318481Y0053163D01*
X0318482Y0055161D02*
X0028185Y0055161D01*
X0028185Y0057160D02*
X0318483Y0057160D01*
X0318484Y0059158D02*
X0028185Y0059158D01*
X0028185Y0061157D02*
X0318484Y0061157D01*
X0318485Y0063155D02*
X0028185Y0063155D01*
X0028185Y0065154D02*
X0318486Y0065154D01*
X0318487Y0067152D02*
X0028185Y0067152D01*
X0028185Y0069151D02*
X0318488Y0069151D01*
X0318489Y0071149D02*
X0028185Y0071149D01*
X0028185Y0073148D02*
X0318489Y0073148D01*
X0318490Y0075146D02*
X0028185Y0075146D01*
X0028185Y0077145D02*
X0318491Y0077145D01*
X0318492Y0079143D02*
X0028185Y0079143D01*
X0028185Y0081142D02*
X0318493Y0081142D01*
X0318494Y0083140D02*
X0028185Y0083140D01*
X0028185Y0085139D02*
X0318494Y0085139D01*
X0318495Y0087137D02*
X0028185Y0087137D01*
X0028185Y0089136D02*
X0318496Y0089136D01*
X0318497Y0091134D02*
X0153724Y0091134D01*
X0154389Y0091410D02*
X0155788Y0092809D01*
X0156546Y0094638D01*
X0156546Y0096617D01*
X0155788Y0098446D01*
X0154389Y0099845D01*
X0152560Y0100603D01*
X0150581Y0100603D01*
X0148753Y0099845D01*
X0147353Y0098446D01*
X0146596Y0096617D01*
X0146596Y0094638D01*
X0147353Y0092809D01*
X0148753Y0091410D01*
X0150581Y0090653D01*
X0152560Y0090653D01*
X0154389Y0091410D01*
X0155922Y0093133D02*
X0318498Y0093133D01*
X0318498Y0095131D02*
X0156546Y0095131D01*
X0156333Y0097130D02*
X0318499Y0097130D01*
X0318500Y0099128D02*
X0155106Y0099128D01*
X0148036Y0099128D02*
X0028185Y0099128D01*
X0028185Y0097130D02*
X0146808Y0097130D01*
X0146596Y0095131D02*
X0028185Y0095131D01*
X0028185Y0093133D02*
X0147219Y0093133D01*
X0149418Y0091134D02*
X0028185Y0091134D01*
X0028185Y0101127D02*
X0318501Y0101127D01*
X0318502Y0103125D02*
X0028185Y0103125D01*
X0028185Y0105124D02*
X0248647Y0105124D01*
X0248229Y0105541D02*
X0249518Y0104253D01*
X0297915Y0104253D01*
X0306960Y0113297D01*
X0306960Y0116167D01*
X0306977Y0116184D01*
X0307220Y0115941D01*
X0307873Y0115505D01*
X0308598Y0115204D01*
X0309367Y0115051D01*
X0309760Y0115051D01*
X0310152Y0115051D01*
X0310922Y0115204D01*
X0311647Y0115505D01*
X0312300Y0115941D01*
X0312855Y0116496D01*
X0313291Y0117148D01*
X0313591Y0117873D01*
X0313744Y0118643D01*
X0313744Y0121020D01*
X0309760Y0121020D01*
X0309760Y0121020D01*
X0309760Y0126988D01*
X0309367Y0126988D01*
X0308598Y0126835D01*
X0307873Y0126535D01*
X0307220Y0126099D01*
X0306977Y0125856D01*
X0306790Y0126043D01*
X0305473Y0126588D01*
X0304047Y0126588D01*
X0302730Y0126043D01*
X0302260Y0125573D01*
X0301790Y0126043D01*
X0300473Y0126588D01*
X0299047Y0126588D01*
X0297730Y0126043D01*
X0297260Y0125573D01*
X0296790Y0126043D01*
X0295473Y0126588D01*
X0294047Y0126588D01*
X0292730Y0126043D01*
X0292260Y0125573D01*
X0291790Y0126043D01*
X0290473Y0126588D01*
X0289047Y0126588D01*
X0287730Y0126043D01*
X0287260Y0125573D01*
X0286790Y0126043D01*
X0285473Y0126588D01*
X0284047Y0126588D01*
X0282730Y0126043D01*
X0282260Y0125573D01*
X0281790Y0126043D01*
X0280473Y0126588D01*
X0279047Y0126588D01*
X0277730Y0126043D01*
X0277260Y0125573D01*
X0276790Y0126043D01*
X0275473Y0126588D01*
X0274047Y0126588D01*
X0272730Y0126043D01*
X0272260Y0125573D01*
X0271790Y0126043D01*
X0270473Y0126588D01*
X0269047Y0126588D01*
X0267730Y0126043D01*
X0267260Y0125573D01*
X0266790Y0126043D01*
X0265473Y0126588D01*
X0264047Y0126588D01*
X0262730Y0126043D01*
X0262260Y0125573D01*
X0261790Y0126043D01*
X0260473Y0126588D01*
X0259047Y0126588D01*
X0257730Y0126043D01*
X0257543Y0125856D01*
X0257300Y0126099D01*
X0257102Y0126230D01*
X0257302Y0126430D01*
X0257848Y0127748D01*
X0257848Y0129174D01*
X0257302Y0130491D01*
X0256833Y0130961D01*
X0257302Y0131430D01*
X0257848Y0132748D01*
X0257848Y0134174D01*
X0257302Y0135491D01*
X0256833Y0135961D01*
X0257302Y0136430D01*
X0257848Y0137748D01*
X0257848Y0139174D01*
X0257302Y0140491D01*
X0256833Y0140961D01*
X0257302Y0141430D01*
X0257848Y0142748D01*
X0257848Y0144174D01*
X0257302Y0145491D01*
X0256833Y0145961D01*
X0257302Y0146430D01*
X0257848Y0147748D01*
X0257848Y0149174D01*
X0257302Y0150491D01*
X0256833Y0150961D01*
X0257302Y0151430D01*
X0257848Y0152748D01*
X0257848Y0154174D01*
X0257302Y0155491D01*
X0256833Y0155961D01*
X0257302Y0156430D01*
X0257848Y0157748D01*
X0257848Y0159174D01*
X0257302Y0160491D01*
X0256833Y0160961D01*
X0257302Y0161430D01*
X0257848Y0162748D01*
X0257848Y0164174D01*
X0257302Y0165491D01*
X0256833Y0165961D01*
X0257302Y0166430D01*
X0257848Y0167748D01*
X0257848Y0169174D01*
X0257302Y0170491D01*
X0256833Y0170961D01*
X0257302Y0171430D01*
X0257848Y0172748D01*
X0257848Y0174174D01*
X0257302Y0175491D01*
X0257079Y0175714D01*
X0257300Y0175862D01*
X0257543Y0176105D01*
X0257730Y0175918D01*
X0259047Y0175372D01*
X0260473Y0175372D01*
X0261790Y0175918D01*
X0262260Y0176388D01*
X0262730Y0175918D01*
X0264047Y0175372D01*
X0265473Y0175372D01*
X0266790Y0175918D01*
X0267260Y0176388D01*
X0267730Y0175918D01*
X0269047Y0175372D01*
X0270473Y0175372D01*
X0271790Y0175918D01*
X0272260Y0176388D01*
X0272730Y0175918D01*
X0274047Y0175372D01*
X0275473Y0175372D01*
X0276790Y0175918D01*
X0277260Y0176388D01*
X0277730Y0175918D01*
X0279047Y0175372D01*
X0280473Y0175372D01*
X0281790Y0175918D01*
X0282260Y0176388D01*
X0282730Y0175918D01*
X0284047Y0175372D01*
X0285473Y0175372D01*
X0286790Y0175918D01*
X0287260Y0176388D01*
X0287730Y0175918D01*
X0289047Y0175372D01*
X0290473Y0175372D01*
X0291790Y0175918D01*
X0292260Y0176388D01*
X0292730Y0175918D01*
X0294047Y0175372D01*
X0295473Y0175372D01*
X0296790Y0175918D01*
X0297260Y0176388D01*
X0297730Y0175918D01*
X0299047Y0175372D01*
X0300473Y0175372D01*
X0301790Y0175918D01*
X0302260Y0176388D01*
X0302730Y0175918D01*
X0304047Y0175372D01*
X0305473Y0175372D01*
X0306790Y0175918D01*
X0306977Y0176105D01*
X0307220Y0175862D01*
X0307873Y0175426D01*
X0308598Y0175126D01*
X0309367Y0174972D01*
X0309760Y0174972D01*
X0309760Y0180941D01*
X0309760Y0180941D01*
X0309760Y0186909D01*
X0309367Y0186909D01*
X0308598Y0186756D01*
X0307873Y0186456D01*
X0307220Y0186020D01*
X0306977Y0185777D01*
X0306790Y0185964D01*
X0305473Y0186509D01*
X0304047Y0186509D01*
X0302730Y0185964D01*
X0302260Y0185494D01*
X0301790Y0185964D01*
X0300473Y0186509D01*
X0299047Y0186509D01*
X0297730Y0185964D01*
X0297260Y0185494D01*
X0296790Y0185964D01*
X0295473Y0186509D01*
X0294047Y0186509D01*
X0292730Y0185964D01*
X0292260Y0185494D01*
X0291790Y0185964D01*
X0290473Y0186509D01*
X0289047Y0186509D01*
X0287730Y0185964D01*
X0287260Y0185494D01*
X0286790Y0185964D01*
X0285473Y0186509D01*
X0284047Y0186509D01*
X0282730Y0185964D01*
X0282260Y0185494D01*
X0281790Y0185964D01*
X0280473Y0186509D01*
X0279047Y0186509D01*
X0277730Y0185964D01*
X0277260Y0185494D01*
X0276790Y0185964D01*
X0275473Y0186509D01*
X0274047Y0186509D01*
X0272730Y0185964D01*
X0272260Y0185494D01*
X0271790Y0185964D01*
X0270473Y0186509D01*
X0269047Y0186509D01*
X0267730Y0185964D01*
X0267260Y0185494D01*
X0267039Y0185715D01*
X0267039Y0224560D01*
X0267457Y0224979D01*
X0267928Y0226114D01*
X0267928Y0227343D01*
X0267457Y0228478D01*
X0266588Y0229347D01*
X0265453Y0229817D01*
X0264224Y0229817D01*
X0263089Y0229347D01*
X0262220Y0228478D01*
X0261920Y0227755D01*
X0261920Y0228591D01*
X0262589Y0229260D01*
X0263105Y0230504D01*
X0263105Y0231850D01*
X0262589Y0233094D01*
X0261637Y0234046D01*
X0260394Y0234561D01*
X0259047Y0234561D01*
X0257803Y0234046D01*
X0256851Y0233094D01*
X0256336Y0231850D01*
X0256336Y0230504D01*
X0256851Y0229260D01*
X0257520Y0228591D01*
X0257520Y0185799D01*
X0257300Y0186020D01*
X0256647Y0186456D01*
X0255922Y0186756D01*
X0255152Y0186909D01*
X0254760Y0186909D01*
X0254760Y0180941D01*
X0254760Y0180941D01*
X0254760Y0177045D01*
X0254760Y0177045D01*
X0254760Y0180941D01*
X0254760Y0180941D01*
X0254760Y0186909D01*
X0254367Y0186909D01*
X0253598Y0186756D01*
X0252873Y0186456D01*
X0252220Y0186020D01*
X0251665Y0185465D01*
X0251229Y0184812D01*
X0250929Y0184087D01*
X0250776Y0183318D01*
X0250776Y0180941D01*
X0254760Y0180941D01*
X0254760Y0180941D01*
X0250776Y0180941D01*
X0250776Y0178564D01*
X0250929Y0177795D01*
X0251229Y0177069D01*
X0251245Y0177045D01*
X0249582Y0177045D01*
X0249311Y0176932D01*
X0249311Y0228265D01*
X0249952Y0228906D01*
X0250467Y0230150D01*
X0250467Y0231496D01*
X0249952Y0232740D01*
X0249000Y0233692D01*
X0247756Y0234207D01*
X0246695Y0234207D01*
X0246727Y0234284D01*
X0246727Y0235630D01*
X0246212Y0236874D01*
X0245260Y0237826D01*
X0244016Y0238341D01*
X0242669Y0238341D01*
X0241425Y0237826D01*
X0240473Y0236874D01*
X0239958Y0235630D01*
X0239958Y0234284D01*
X0240473Y0233040D01*
X0241143Y0232371D01*
X0241143Y0230303D01*
X0240748Y0230467D01*
X0239402Y0230467D01*
X0238158Y0229952D01*
X0237206Y0229000D01*
X0236691Y0227756D01*
X0236691Y0226409D01*
X0237206Y0225166D01*
X0237875Y0224497D01*
X0237875Y0115896D01*
X0239164Y0114607D01*
X0248229Y0105541D01*
X0246648Y0107123D02*
X0028185Y0107123D01*
X0028185Y0109121D02*
X0244650Y0109121D01*
X0242651Y0111120D02*
X0028185Y0111120D01*
X0028185Y0113118D02*
X0240653Y0113118D01*
X0238654Y0115117D02*
X0028185Y0115117D01*
X0028185Y0117115D02*
X0237875Y0117115D01*
X0237875Y0119114D02*
X0028185Y0119114D01*
X0028185Y0121112D02*
X0237875Y0121112D01*
X0237875Y0123111D02*
X0028185Y0123111D01*
X0028185Y0125109D02*
X0237875Y0125109D01*
X0237875Y0127108D02*
X0028185Y0127108D01*
X0028185Y0129106D02*
X0237875Y0129106D01*
X0237875Y0131105D02*
X0028185Y0131105D01*
X0028185Y0133103D02*
X0237875Y0133103D01*
X0237875Y0135102D02*
X0028185Y0135102D01*
X0028185Y0137100D02*
X0237875Y0137100D01*
X0237875Y0139099D02*
X0072068Y0139099D01*
X0072068Y0141097D02*
X0237875Y0141097D01*
X0237875Y0143096D02*
X0072068Y0143096D01*
X0072551Y0145094D02*
X0237875Y0145094D01*
X0237875Y0147093D02*
X0074549Y0147093D01*
X0076548Y0149091D02*
X0237875Y0149091D01*
X0237875Y0151090D02*
X0078546Y0151090D01*
X0080545Y0153088D02*
X0237875Y0153088D01*
X0237875Y0155087D02*
X0082543Y0155087D01*
X0079186Y0159084D02*
X0070460Y0159084D01*
X0071719Y0161082D02*
X0079262Y0161082D01*
X0079262Y0163081D02*
X0072068Y0163081D01*
X0071707Y0165079D02*
X0079262Y0165079D01*
X0079262Y0169076D02*
X0039135Y0169076D01*
X0039135Y0171075D02*
X0075300Y0171075D01*
X0077615Y0172437D02*
X0065193Y0184859D01*
X0065193Y0220232D01*
X0051965Y0233461D01*
X0028880Y0233029D02*
X0028185Y0233029D01*
X0028185Y0235027D02*
X0028880Y0235027D01*
X0028880Y0237026D02*
X0028185Y0237026D01*
X0028185Y0239024D02*
X0028880Y0239024D01*
X0028880Y0241023D02*
X0028185Y0241023D01*
X0028185Y0243021D02*
X0028880Y0243021D01*
X0028880Y0245020D02*
X0028185Y0245020D01*
X0028185Y0247018D02*
X0028880Y0247018D01*
X0028880Y0249017D02*
X0028185Y0249017D01*
X0028185Y0251015D02*
X0028880Y0251015D01*
X0028880Y0253014D02*
X0028185Y0253014D01*
X0028185Y0255012D02*
X0028880Y0255012D01*
X0028880Y0257011D02*
X0028185Y0257011D01*
X0028185Y0259009D02*
X0028880Y0259009D01*
X0028880Y0261008D02*
X0028185Y0261008D01*
X0028185Y0263006D02*
X0028880Y0263006D01*
X0028880Y0265005D02*
X0028185Y0265005D01*
X0028185Y0267003D02*
X0028880Y0267003D01*
X0028880Y0269002D02*
X0028185Y0269002D01*
X0028185Y0271000D02*
X0028880Y0271000D01*
X0028880Y0272999D02*
X0028185Y0272999D01*
X0028185Y0274997D02*
X0028880Y0274997D01*
X0028880Y0276996D02*
X0028185Y0276996D01*
X0028185Y0278994D02*
X0028880Y0278994D01*
X0028880Y0280993D02*
X0028185Y0280993D01*
X0028185Y0282992D02*
X0028880Y0282992D01*
X0028880Y0284990D02*
X0028185Y0284990D01*
X0028185Y0286989D02*
X0028880Y0286989D01*
X0028880Y0288987D02*
X0028185Y0288987D01*
X0028185Y0290986D02*
X0028880Y0290986D01*
X0028880Y0292984D02*
X0028185Y0292984D01*
X0028185Y0294983D02*
X0028880Y0294983D01*
X0028185Y0296981D02*
X0109381Y0296981D01*
X0113210Y0296981D02*
X0119381Y0296981D01*
X0123210Y0296981D02*
X0133380Y0296981D01*
X0131459Y0298903D02*
X0178891Y0251471D01*
X0178891Y0249171D01*
X0212517Y0215545D01*
X0212517Y0214598D01*
X0213033Y0213355D01*
X0213985Y0212403D01*
X0215228Y0211887D01*
X0216575Y0211887D01*
X0217819Y0212403D01*
X0218771Y0213355D01*
X0219286Y0214598D01*
X0219286Y0215945D01*
X0218771Y0217189D01*
X0217819Y0218141D01*
X0216575Y0218656D01*
X0215629Y0218656D01*
X0183291Y0250994D01*
X0183291Y0253294D01*
X0134570Y0302014D01*
X0133281Y0303303D01*
X0103706Y0303303D01*
X0094083Y0312925D01*
X0095008Y0313308D01*
X0096246Y0314546D01*
X0096740Y0315739D01*
X0110148Y0315739D01*
X0110148Y0310795D01*
X0110772Y0309288D01*
X0111782Y0308278D01*
X0111782Y0307680D01*
X0112719Y0306743D01*
X0113449Y0306743D01*
X0114732Y0306211D01*
X0116363Y0306211D01*
X0117646Y0306743D01*
X0118375Y0306743D01*
X0118611Y0306978D01*
X0118847Y0306742D01*
X0119303Y0306479D01*
X0119811Y0306343D01*
X0122240Y0306343D01*
X0122240Y0310311D01*
X0122240Y0310311D01*
X0122240Y0314280D01*
X0119811Y0314280D01*
X0119303Y0314143D01*
X0118847Y0313880D01*
X0118611Y0313644D01*
X0118375Y0313880D01*
X0118348Y0313880D01*
X0118348Y0317569D01*
X0118375Y0317569D01*
X0118611Y0317805D01*
X0118847Y0317569D01*
X0119303Y0317306D01*
X0119811Y0317169D01*
X0122240Y0317169D01*
X0122240Y0321138D01*
X0122240Y0325106D01*
X0119811Y0325106D01*
X0119303Y0324970D01*
X0118847Y0324707D01*
X0118611Y0324471D01*
X0118375Y0324706D01*
X0117646Y0324706D01*
X0116363Y0325238D01*
X0114732Y0325238D01*
X0113449Y0324706D01*
X0112719Y0324706D01*
X0111951Y0323939D01*
X0096740Y0323939D01*
X0096246Y0325131D01*
X0095008Y0326369D01*
X0093391Y0327039D01*
X0091641Y0327039D01*
X0090023Y0326369D01*
X0088786Y0325131D01*
X0088116Y0323514D01*
X0088116Y0318893D01*
X0086916Y0320093D01*
X0086916Y0323514D01*
X0086246Y0325131D01*
X0085008Y0326369D01*
X0083391Y0327039D01*
X0081641Y0327039D01*
X0080023Y0326369D01*
X0078786Y0325131D01*
X0078116Y0323514D01*
X0078116Y0316163D01*
X0078786Y0314546D01*
X0080023Y0313308D01*
X0081641Y0312639D01*
X0083391Y0312639D01*
X0085008Y0313308D01*
X0086243Y0314543D01*
X0100594Y0300192D01*
X0101883Y0298903D01*
X0131459Y0298903D01*
X0133607Y0302977D02*
X0216231Y0302977D01*
X0216231Y0303800D02*
X0216231Y0301892D01*
X0217168Y0300955D01*
X0222430Y0300955D01*
X0222879Y0301404D01*
X0222923Y0301327D01*
X0223296Y0300955D01*
X0223752Y0300691D01*
X0224260Y0300555D01*
X0226492Y0300555D01*
X0226492Y0304720D01*
X0226492Y0304720D01*
X0226492Y0300555D01*
X0228724Y0300555D01*
X0229233Y0300691D01*
X0229689Y0300955D01*
X0230061Y0301327D01*
X0230324Y0301783D01*
X0230461Y0302292D01*
X0230461Y0304720D01*
X0226492Y0304720D01*
X0226492Y0304721D01*
X0226492Y0308886D01*
X0224260Y0308886D01*
X0223752Y0308750D01*
X0223296Y0308486D01*
X0222923Y0308114D01*
X0222879Y0308037D01*
X0222430Y0308486D01*
X0219301Y0308486D01*
X0215394Y0311218D01*
X0215394Y0314669D01*
X0216494Y0315768D01*
X0217194Y0317459D01*
X0217194Y0325289D01*
X0216494Y0326980D01*
X0215200Y0328274D01*
X0213509Y0328974D01*
X0211679Y0328974D01*
X0209989Y0328274D01*
X0208695Y0326980D01*
X0207994Y0325289D01*
X0207994Y0317459D01*
X0208695Y0315768D01*
X0209794Y0314669D01*
X0209794Y0310066D01*
X0209740Y0309821D01*
X0209794Y0309514D01*
X0209794Y0309203D01*
X0209891Y0308971D01*
X0209934Y0308724D01*
X0210102Y0308461D01*
X0210221Y0308174D01*
X0210398Y0307996D01*
X0210533Y0307785D01*
X0210788Y0307606D01*
X0211008Y0307386D01*
X0211240Y0307290D01*
X0216231Y0303800D01*
X0214550Y0304975D02*
X0102034Y0304975D01*
X0100035Y0306974D02*
X0112488Y0306974D01*
X0111088Y0308972D02*
X0098037Y0308972D01*
X0096038Y0310971D02*
X0110148Y0310971D01*
X0110148Y0312969D02*
X0094189Y0312969D01*
X0096420Y0314968D02*
X0110148Y0314968D01*
X0118348Y0314968D02*
X0209495Y0314968D01*
X0209794Y0312969D02*
X0126291Y0312969D01*
X0126269Y0313051D02*
X0126006Y0313508D01*
X0125634Y0313880D01*
X0125177Y0314143D01*
X0124669Y0314280D01*
X0122240Y0314280D01*
X0122240Y0310311D01*
X0122240Y0310311D01*
X0122240Y0306343D01*
X0124669Y0306343D01*
X0125177Y0306479D01*
X0125634Y0306742D01*
X0126006Y0307114D01*
X0126269Y0307571D01*
X0126405Y0308079D01*
X0126405Y0310311D01*
X0126405Y0312543D01*
X0126269Y0313051D01*
X0126405Y0310971D02*
X0209794Y0310971D01*
X0209890Y0308972D02*
X0126405Y0308972D01*
X0126405Y0310311D02*
X0122240Y0310311D01*
X0126405Y0310311D01*
X0125865Y0306974D02*
X0211693Y0306974D01*
X0215749Y0310971D02*
X0333146Y0310971D01*
X0333146Y0312969D02*
X0215394Y0312969D01*
X0215694Y0314968D02*
X0219495Y0314968D01*
X0219989Y0314474D02*
X0221679Y0313774D01*
X0223509Y0313774D01*
X0225200Y0314474D01*
X0226494Y0315768D01*
X0227194Y0317459D01*
X0227194Y0325289D01*
X0226494Y0326980D01*
X0225200Y0328274D01*
X0223509Y0328974D01*
X0221679Y0328974D01*
X0219989Y0328274D01*
X0218695Y0326980D01*
X0217994Y0325289D01*
X0217994Y0317459D01*
X0218695Y0315768D01*
X0219989Y0314474D01*
X0218199Y0316966D02*
X0216990Y0316966D01*
X0217194Y0318965D02*
X0217994Y0318965D01*
X0217994Y0320963D02*
X0217194Y0320963D01*
X0217194Y0322962D02*
X0217994Y0322962D01*
X0217994Y0324960D02*
X0217194Y0324960D01*
X0216503Y0326959D02*
X0218686Y0326959D01*
X0221639Y0328957D02*
X0213550Y0328957D01*
X0211639Y0328957D02*
X0038067Y0328957D01*
X0038067Y0330956D02*
X0323303Y0330956D01*
X0323303Y0328957D02*
X0263550Y0328957D01*
X0263509Y0328974D02*
X0261679Y0328974D01*
X0259989Y0328274D01*
X0258695Y0326980D01*
X0257994Y0325289D01*
X0257994Y0317459D01*
X0258695Y0315768D01*
X0259989Y0314474D01*
X0261679Y0313774D01*
X0263509Y0313774D01*
X0265200Y0314474D01*
X0266494Y0315768D01*
X0267194Y0317459D01*
X0267194Y0325289D01*
X0266494Y0326980D01*
X0265200Y0328274D01*
X0263509Y0328974D01*
X0261639Y0328957D02*
X0253550Y0328957D01*
X0253509Y0328974D02*
X0251679Y0328974D01*
X0249989Y0328274D01*
X0248695Y0326980D01*
X0247994Y0325289D01*
X0247994Y0317459D01*
X0248695Y0315768D01*
X0249989Y0314474D01*
X0251679Y0313774D01*
X0253509Y0313774D01*
X0255200Y0314474D01*
X0256494Y0315768D01*
X0257194Y0317459D01*
X0257194Y0325289D01*
X0256494Y0326980D01*
X0255200Y0328274D01*
X0253509Y0328974D01*
X0251639Y0328957D02*
X0243550Y0328957D01*
X0243509Y0328974D02*
X0241679Y0328974D01*
X0239989Y0328274D01*
X0238695Y0326980D01*
X0237994Y0325289D01*
X0237994Y0317459D01*
X0238695Y0315768D01*
X0239989Y0314474D01*
X0241679Y0313774D01*
X0243509Y0313774D01*
X0245200Y0314474D01*
X0246494Y0315768D01*
X0247194Y0317459D01*
X0247194Y0325289D01*
X0246494Y0326980D01*
X0245200Y0328274D01*
X0243509Y0328974D01*
X0241639Y0328957D02*
X0234613Y0328957D01*
X0234514Y0329008D02*
X0233765Y0329251D01*
X0232988Y0329374D01*
X0232595Y0329374D01*
X0232595Y0321374D01*
X0237594Y0321374D01*
X0232595Y0321374D01*
X0232595Y0321374D01*
X0232595Y0313374D01*
X0232988Y0313374D01*
X0233765Y0313497D01*
X0234514Y0313740D01*
X0235215Y0314098D01*
X0235852Y0314560D01*
X0236408Y0315117D01*
X0236871Y0315753D01*
X0237228Y0316455D01*
X0237471Y0317203D01*
X0237594Y0317980D01*
X0237594Y0321374D01*
X0237594Y0324768D01*
X0237471Y0325545D01*
X0237228Y0326293D01*
X0236871Y0326995D01*
X0236408Y0327631D01*
X0235852Y0328188D01*
X0235215Y0328650D01*
X0234514Y0329008D01*
X0232595Y0328957D02*
X0232594Y0328957D01*
X0232594Y0329374D02*
X0232201Y0329374D01*
X0231424Y0329251D01*
X0230675Y0329008D01*
X0229974Y0328650D01*
X0229337Y0328188D01*
X0228781Y0327631D01*
X0228318Y0326995D01*
X0227961Y0326293D01*
X0227718Y0325545D01*
X0227594Y0324768D01*
X0227594Y0321374D01*
X0227594Y0317980D01*
X0227718Y0317203D01*
X0227961Y0316455D01*
X0228318Y0315753D01*
X0228781Y0315117D01*
X0229337Y0314560D01*
X0229974Y0314098D01*
X0230675Y0313740D01*
X0231424Y0313497D01*
X0232201Y0313374D01*
X0232594Y0313374D01*
X0232594Y0321374D01*
X0227594Y0321374D01*
X0232594Y0321374D01*
X0232594Y0321374D01*
X0232595Y0321374D01*
X0232594Y0321374D01*
X0232594Y0329374D01*
X0230576Y0328957D02*
X0223550Y0328957D01*
X0226503Y0326959D02*
X0228300Y0326959D01*
X0227625Y0324960D02*
X0227194Y0324960D01*
X0227194Y0322962D02*
X0227594Y0322962D01*
X0227594Y0320963D02*
X0227194Y0320963D01*
X0227194Y0318965D02*
X0227594Y0318965D01*
X0227795Y0316966D02*
X0226990Y0316966D01*
X0225694Y0314968D02*
X0228930Y0314968D01*
X0232594Y0314968D02*
X0232595Y0314968D01*
X0232594Y0316966D02*
X0232595Y0316966D01*
X0232594Y0318965D02*
X0232595Y0318965D01*
X0232594Y0320963D02*
X0232595Y0320963D01*
X0232594Y0322962D02*
X0232595Y0322962D01*
X0232594Y0324960D02*
X0232595Y0324960D01*
X0232594Y0326959D02*
X0232595Y0326959D01*
X0236889Y0326959D02*
X0238686Y0326959D01*
X0237994Y0324960D02*
X0237564Y0324960D01*
X0237594Y0322962D02*
X0237994Y0322962D01*
X0237994Y0320963D02*
X0237594Y0320963D01*
X0237594Y0318965D02*
X0237994Y0318965D01*
X0238199Y0316966D02*
X0237394Y0316966D01*
X0236259Y0314968D02*
X0239495Y0314968D01*
X0245694Y0314968D02*
X0249495Y0314968D01*
X0248199Y0316966D02*
X0246990Y0316966D01*
X0247194Y0318965D02*
X0247994Y0318965D01*
X0247994Y0320963D02*
X0247194Y0320963D01*
X0247194Y0322962D02*
X0247994Y0322962D01*
X0247994Y0324960D02*
X0247194Y0324960D01*
X0246503Y0326959D02*
X0248686Y0326959D01*
X0256503Y0326959D02*
X0258686Y0326959D01*
X0257994Y0324960D02*
X0257194Y0324960D01*
X0257194Y0322962D02*
X0257994Y0322962D01*
X0257994Y0320963D02*
X0257194Y0320963D01*
X0257194Y0318965D02*
X0257994Y0318965D01*
X0258199Y0316966D02*
X0256990Y0316966D01*
X0255694Y0314968D02*
X0259495Y0314968D01*
X0265694Y0314968D02*
X0333146Y0314968D01*
X0333146Y0316966D02*
X0266990Y0316966D01*
X0267194Y0318965D02*
X0333146Y0318965D01*
X0333146Y0320963D02*
X0267194Y0320963D01*
X0267194Y0322962D02*
X0333146Y0322962D01*
X0325728Y0324960D02*
X0267194Y0324960D01*
X0266503Y0326959D02*
X0324101Y0326959D01*
X0323840Y0332954D02*
X0037530Y0332954D01*
X0037269Y0326959D02*
X0070422Y0326959D01*
X0070673Y0327087D02*
X0070000Y0326744D01*
X0069389Y0326300D01*
X0068855Y0325766D01*
X0068410Y0325154D01*
X0068067Y0324481D01*
X0067834Y0323763D01*
X0067716Y0323016D01*
X0067716Y0319839D01*
X0072516Y0319839D01*
X0072516Y0319839D01*
X0072516Y0327439D01*
X0072894Y0327439D01*
X0073640Y0327320D01*
X0074358Y0327087D01*
X0075031Y0326744D01*
X0075643Y0326300D01*
X0076177Y0325766D01*
X0076621Y0325154D01*
X0076964Y0324481D01*
X0077198Y0323763D01*
X0077316Y0323016D01*
X0077316Y0319839D01*
X0072516Y0319839D01*
X0072516Y0319839D01*
X0072516Y0327439D01*
X0072138Y0327439D01*
X0071392Y0327320D01*
X0070673Y0327087D01*
X0072516Y0326959D02*
X0072516Y0326959D01*
X0072516Y0324960D02*
X0072516Y0324960D01*
X0072516Y0322962D02*
X0072516Y0322962D01*
X0072516Y0320963D02*
X0072516Y0320963D01*
X0072516Y0319839D02*
X0072516Y0319839D01*
X0077316Y0319839D01*
X0077316Y0316661D01*
X0077198Y0315915D01*
X0076964Y0315196D01*
X0076621Y0314523D01*
X0076177Y0313912D01*
X0075643Y0313377D01*
X0075031Y0312933D01*
X0074358Y0312590D01*
X0073640Y0312357D01*
X0072894Y0312239D01*
X0072516Y0312239D01*
X0072516Y0319838D01*
X0072516Y0319838D01*
X0072516Y0312239D01*
X0072138Y0312239D01*
X0071392Y0312357D01*
X0070673Y0312590D01*
X0070000Y0312933D01*
X0069389Y0313377D01*
X0068855Y0313912D01*
X0068410Y0314523D01*
X0068067Y0315196D01*
X0067834Y0315915D01*
X0067716Y0316661D01*
X0067716Y0319839D01*
X0072516Y0319839D01*
X0072516Y0318965D02*
X0072516Y0318965D01*
X0072516Y0316966D02*
X0072516Y0316966D01*
X0072516Y0314968D02*
X0072516Y0314968D01*
X0072516Y0312969D02*
X0072516Y0312969D01*
X0075081Y0312969D02*
X0080842Y0312969D01*
X0078611Y0314968D02*
X0076848Y0314968D01*
X0077316Y0316966D02*
X0078116Y0316966D01*
X0078116Y0318965D02*
X0077316Y0318965D01*
X0077316Y0320963D02*
X0078116Y0320963D01*
X0078116Y0322962D02*
X0077316Y0322962D01*
X0076720Y0324960D02*
X0078715Y0324960D01*
X0081448Y0326959D02*
X0074610Y0326959D01*
X0068312Y0324960D02*
X0035642Y0324960D01*
X0028185Y0322962D02*
X0067716Y0322962D01*
X0067716Y0320963D02*
X0028185Y0320963D01*
X0028185Y0318965D02*
X0067716Y0318965D01*
X0067716Y0316966D02*
X0028185Y0316966D01*
X0028185Y0314968D02*
X0068184Y0314968D01*
X0069951Y0312969D02*
X0028185Y0312969D01*
X0028185Y0310971D02*
X0089816Y0310971D01*
X0091814Y0308972D02*
X0028185Y0308972D01*
X0028185Y0306974D02*
X0093813Y0306974D01*
X0095811Y0304975D02*
X0028185Y0304975D01*
X0028185Y0302977D02*
X0097810Y0302977D01*
X0099808Y0300978D02*
X0028185Y0300978D01*
X0028185Y0298980D02*
X0101807Y0298980D01*
X0087817Y0312969D02*
X0084189Y0312969D01*
X0088044Y0318965D02*
X0088116Y0318965D01*
X0088116Y0320963D02*
X0086916Y0320963D01*
X0086916Y0322962D02*
X0088116Y0322962D01*
X0088715Y0324960D02*
X0086317Y0324960D01*
X0083584Y0326959D02*
X0091448Y0326959D01*
X0093584Y0326959D02*
X0208686Y0326959D01*
X0207994Y0324960D02*
X0125194Y0324960D01*
X0125177Y0324970D02*
X0124669Y0325106D01*
X0122240Y0325106D01*
X0122240Y0321138D01*
X0122240Y0321138D01*
X0126405Y0321138D01*
X0126405Y0323370D01*
X0126269Y0323878D01*
X0126006Y0324334D01*
X0125634Y0324707D01*
X0125177Y0324970D01*
X0126405Y0322962D02*
X0207994Y0322962D01*
X0207994Y0320963D02*
X0126405Y0320963D01*
X0126405Y0321138D02*
X0122240Y0321138D01*
X0122240Y0321138D01*
X0122240Y0321138D01*
X0122240Y0317169D01*
X0124669Y0317169D01*
X0125177Y0317306D01*
X0125634Y0317569D01*
X0126006Y0317941D01*
X0126269Y0318397D01*
X0126405Y0318906D01*
X0126405Y0321138D01*
X0126405Y0318965D02*
X0207994Y0318965D01*
X0208199Y0316966D02*
X0118348Y0316966D01*
X0122240Y0318965D02*
X0122240Y0318965D01*
X0122240Y0320963D02*
X0122240Y0320963D01*
X0122240Y0322962D02*
X0122240Y0322962D01*
X0122240Y0324960D02*
X0122240Y0324960D01*
X0119286Y0324960D02*
X0117033Y0324960D01*
X0114062Y0324960D02*
X0096317Y0324960D01*
X0118606Y0306974D02*
X0118615Y0306974D01*
X0122240Y0306974D02*
X0122240Y0306974D01*
X0122240Y0308972D02*
X0122240Y0308972D01*
X0122240Y0310311D02*
X0122240Y0310311D01*
X0122240Y0310971D02*
X0122240Y0310971D01*
X0122240Y0312969D02*
X0122240Y0312969D01*
X0135606Y0300978D02*
X0217145Y0300978D01*
X0222453Y0300978D02*
X0223272Y0300978D01*
X0226492Y0300978D02*
X0226492Y0300978D01*
X0226492Y0302977D02*
X0226492Y0302977D01*
X0226492Y0304721D02*
X0230461Y0304721D01*
X0230461Y0307149D01*
X0230324Y0307658D01*
X0230061Y0308114D01*
X0229689Y0308486D01*
X0229233Y0308750D01*
X0228724Y0308886D01*
X0226492Y0308886D01*
X0226492Y0304721D01*
X0226492Y0304721D01*
X0226492Y0304975D02*
X0226492Y0304975D01*
X0226492Y0306974D02*
X0226492Y0306974D01*
X0230461Y0306974D02*
X0333146Y0306974D01*
X0333146Y0308972D02*
X0218606Y0308972D01*
X0230461Y0304975D02*
X0333146Y0304975D01*
X0333146Y0302977D02*
X0230461Y0302977D01*
X0229712Y0300978D02*
X0333146Y0300978D01*
X0333146Y0298980D02*
X0137605Y0298980D01*
X0139603Y0296981D02*
X0333146Y0296981D01*
X0333146Y0294983D02*
X0141602Y0294983D01*
X0143600Y0292984D02*
X0333146Y0292984D01*
X0333146Y0290986D02*
X0145599Y0290986D01*
X0147597Y0288987D02*
X0333146Y0288987D01*
X0333146Y0286989D02*
X0149596Y0286989D01*
X0151594Y0284990D02*
X0333146Y0284990D01*
X0333146Y0282992D02*
X0153593Y0282992D01*
X0155591Y0280993D02*
X0333146Y0280993D01*
X0333146Y0278994D02*
X0157590Y0278994D01*
X0159588Y0276996D02*
X0237998Y0276996D01*
X0237971Y0276985D02*
X0237102Y0276116D01*
X0236631Y0274981D01*
X0236631Y0273752D01*
X0237102Y0272616D01*
X0237520Y0272198D01*
X0237520Y0244529D01*
X0225702Y0232711D01*
X0224756Y0232711D01*
X0223512Y0232196D01*
X0222560Y0231244D01*
X0222045Y0230000D01*
X0222045Y0228654D01*
X0222560Y0227410D01*
X0223512Y0226458D01*
X0224756Y0225943D01*
X0226102Y0225943D01*
X0227346Y0226458D01*
X0228298Y0227410D01*
X0228813Y0228654D01*
X0228813Y0229600D01*
X0241920Y0242707D01*
X0241920Y0272198D01*
X0242339Y0272616D01*
X0242809Y0273752D01*
X0242809Y0274981D01*
X0242339Y0276116D01*
X0241470Y0276985D01*
X0240335Y0277455D01*
X0239106Y0277455D01*
X0237971Y0276985D01*
X0236638Y0274997D02*
X0161587Y0274997D01*
X0163585Y0272999D02*
X0236943Y0272999D01*
X0237520Y0271000D02*
X0165584Y0271000D01*
X0167582Y0269002D02*
X0237520Y0269002D01*
X0237520Y0267003D02*
X0169581Y0267003D01*
X0171579Y0265005D02*
X0237520Y0265005D01*
X0237520Y0263006D02*
X0173578Y0263006D01*
X0175576Y0261008D02*
X0237520Y0261008D01*
X0237520Y0259009D02*
X0177575Y0259009D01*
X0179573Y0257011D02*
X0237520Y0257011D01*
X0237520Y0255012D02*
X0181572Y0255012D01*
X0183291Y0253014D02*
X0237520Y0253014D01*
X0237520Y0251015D02*
X0183291Y0251015D01*
X0185268Y0249017D02*
X0237520Y0249017D01*
X0237520Y0247018D02*
X0187266Y0247018D01*
X0189265Y0245020D02*
X0237520Y0245020D01*
X0236012Y0243021D02*
X0191263Y0243021D01*
X0193262Y0241023D02*
X0234014Y0241023D01*
X0232015Y0239024D02*
X0195260Y0239024D01*
X0197259Y0237026D02*
X0230017Y0237026D01*
X0228018Y0235027D02*
X0199257Y0235027D01*
X0201256Y0233029D02*
X0226020Y0233029D01*
X0222472Y0231030D02*
X0203254Y0231030D01*
X0205253Y0229032D02*
X0222045Y0229032D01*
X0222937Y0227033D02*
X0207251Y0227033D01*
X0209250Y0225035D02*
X0237337Y0225035D01*
X0237875Y0223036D02*
X0211248Y0223036D01*
X0213247Y0221038D02*
X0237875Y0221038D01*
X0237875Y0219039D02*
X0215245Y0219039D01*
X0218832Y0217041D02*
X0237875Y0217041D01*
X0237875Y0215042D02*
X0219286Y0215042D01*
X0218460Y0213044D02*
X0237875Y0213044D01*
X0237875Y0211045D02*
X0118395Y0211045D01*
X0118395Y0209047D02*
X0237875Y0209047D01*
X0237875Y0207048D02*
X0118395Y0207048D01*
X0118395Y0205050D02*
X0237875Y0205050D01*
X0237875Y0203051D02*
X0118395Y0203051D01*
X0118395Y0201053D02*
X0237875Y0201053D01*
X0237875Y0199054D02*
X0118395Y0199054D01*
X0118395Y0197056D02*
X0237875Y0197056D01*
X0237875Y0195057D02*
X0118395Y0195057D01*
X0118395Y0193059D02*
X0237875Y0193059D01*
X0237875Y0191060D02*
X0118395Y0191060D01*
X0118395Y0189061D02*
X0237875Y0189061D01*
X0237875Y0187063D02*
X0118395Y0187063D01*
X0118395Y0185064D02*
X0237875Y0185064D01*
X0237875Y0183066D02*
X0118395Y0183066D01*
X0118395Y0181067D02*
X0237875Y0181067D01*
X0237875Y0179069D02*
X0118377Y0179069D01*
X0091124Y0175072D02*
X0237875Y0175072D01*
X0237875Y0177070D02*
X0090303Y0177070D01*
X0091124Y0173073D02*
X0237875Y0173073D01*
X0237875Y0171075D02*
X0091124Y0171075D01*
X0091124Y0169076D02*
X0237875Y0169076D01*
X0237875Y0167078D02*
X0070433Y0167078D01*
X0073302Y0173073D02*
X0039135Y0173073D01*
X0039135Y0175072D02*
X0071303Y0175072D01*
X0069305Y0177070D02*
X0039135Y0177070D01*
X0040433Y0167078D02*
X0062237Y0167078D01*
X0062209Y0159084D02*
X0040460Y0159084D01*
X0032209Y0159084D02*
X0031185Y0159084D01*
X0031185Y0157085D02*
X0077188Y0157085D01*
X0075189Y0155087D02*
X0031185Y0155087D01*
X0031930Y0153088D02*
X0073191Y0153088D01*
X0071192Y0151090D02*
X0033928Y0151090D01*
X0035927Y0149091D02*
X0069194Y0149091D01*
X0066846Y0143067D02*
X0066335Y0143067D01*
X0066846Y0143067D02*
X0085193Y0161413D01*
X0091124Y0161082D02*
X0237875Y0161082D01*
X0237875Y0159084D02*
X0091124Y0159084D01*
X0090608Y0157085D02*
X0237875Y0157085D01*
X0237875Y0163081D02*
X0091124Y0163081D01*
X0091124Y0165079D02*
X0237875Y0165079D01*
X0249311Y0177070D02*
X0251229Y0177070D01*
X0250776Y0179069D02*
X0249311Y0179069D01*
X0249311Y0181067D02*
X0250776Y0181067D01*
X0250776Y0183066D02*
X0249311Y0183066D01*
X0249311Y0185064D02*
X0251397Y0185064D01*
X0249311Y0187063D02*
X0257520Y0187063D01*
X0257520Y0189061D02*
X0249311Y0189061D01*
X0249311Y0191060D02*
X0257520Y0191060D01*
X0257520Y0193059D02*
X0249311Y0193059D01*
X0249311Y0195057D02*
X0257520Y0195057D01*
X0257520Y0197056D02*
X0249311Y0197056D01*
X0249311Y0199054D02*
X0257520Y0199054D01*
X0257520Y0201053D02*
X0249311Y0201053D01*
X0249311Y0203051D02*
X0257520Y0203051D01*
X0257520Y0205050D02*
X0249311Y0205050D01*
X0249311Y0207048D02*
X0257520Y0207048D01*
X0257520Y0209047D02*
X0249311Y0209047D01*
X0249311Y0211045D02*
X0257520Y0211045D01*
X0257520Y0213044D02*
X0249311Y0213044D01*
X0249311Y0215042D02*
X0257520Y0215042D01*
X0257520Y0217041D02*
X0249311Y0217041D01*
X0249311Y0219039D02*
X0257520Y0219039D01*
X0257520Y0221038D02*
X0249311Y0221038D01*
X0249311Y0223036D02*
X0257520Y0223036D01*
X0257520Y0225035D02*
X0249311Y0225035D01*
X0249311Y0227033D02*
X0257520Y0227033D01*
X0257080Y0229032D02*
X0250004Y0229032D01*
X0250467Y0231030D02*
X0256336Y0231030D01*
X0256824Y0233029D02*
X0249663Y0233029D01*
X0246727Y0235027D02*
X0265203Y0235027D01*
X0265055Y0235175D02*
X0265923Y0234306D01*
X0267059Y0233836D01*
X0268288Y0233836D01*
X0269423Y0234306D01*
X0270292Y0235175D01*
X0270762Y0236311D01*
X0270762Y0237540D01*
X0270292Y0238675D01*
X0269873Y0239094D01*
X0269873Y0272080D01*
X0270292Y0272498D01*
X0270762Y0273634D01*
X0270762Y0274862D01*
X0270292Y0275998D01*
X0269423Y0276867D01*
X0268288Y0277337D01*
X0267059Y0277337D01*
X0265923Y0276867D01*
X0265055Y0275998D01*
X0264584Y0274862D01*
X0264584Y0273634D01*
X0265055Y0272498D01*
X0265473Y0272080D01*
X0265473Y0239094D01*
X0265055Y0238675D01*
X0264584Y0237540D01*
X0264584Y0236311D01*
X0265055Y0235175D01*
X0264584Y0237026D02*
X0246059Y0237026D01*
X0240626Y0237026D02*
X0236239Y0237026D01*
X0234241Y0235027D02*
X0239958Y0235027D01*
X0240484Y0233029D02*
X0232242Y0233029D01*
X0230244Y0231030D02*
X0241143Y0231030D01*
X0237238Y0229032D02*
X0228813Y0229032D01*
X0227922Y0227033D02*
X0236691Y0227033D01*
X0238238Y0239024D02*
X0265404Y0239024D01*
X0265473Y0241023D02*
X0240236Y0241023D01*
X0241920Y0243021D02*
X0265473Y0243021D01*
X0265473Y0245020D02*
X0241920Y0245020D01*
X0241920Y0247018D02*
X0265473Y0247018D01*
X0265473Y0249017D02*
X0241920Y0249017D01*
X0241920Y0251015D02*
X0265473Y0251015D01*
X0265473Y0253014D02*
X0241920Y0253014D01*
X0241920Y0255012D02*
X0265473Y0255012D01*
X0265473Y0257011D02*
X0241920Y0257011D01*
X0241920Y0259009D02*
X0265473Y0259009D01*
X0265473Y0261008D02*
X0241920Y0261008D01*
X0241920Y0263006D02*
X0265473Y0263006D01*
X0265473Y0265005D02*
X0241920Y0265005D01*
X0241920Y0267003D02*
X0265473Y0267003D01*
X0265473Y0269002D02*
X0241920Y0269002D01*
X0241920Y0271000D02*
X0265473Y0271000D01*
X0264847Y0272999D02*
X0242498Y0272999D01*
X0242802Y0274997D02*
X0264640Y0274997D01*
X0266235Y0276996D02*
X0241443Y0276996D01*
X0269111Y0276996D02*
X0333146Y0276996D01*
X0333146Y0274997D02*
X0270706Y0274997D01*
X0270499Y0272999D02*
X0333146Y0272999D01*
X0333146Y0271000D02*
X0269873Y0271000D01*
X0269873Y0269002D02*
X0333146Y0269002D01*
X0333146Y0267003D02*
X0269873Y0267003D01*
X0269873Y0265005D02*
X0333146Y0265005D01*
X0333146Y0263006D02*
X0269873Y0263006D01*
X0269873Y0261008D02*
X0333146Y0261008D01*
X0333146Y0259009D02*
X0269873Y0259009D01*
X0269873Y0257011D02*
X0333146Y0257011D01*
X0333146Y0255012D02*
X0269873Y0255012D01*
X0269873Y0253014D02*
X0299930Y0253014D01*
X0300087Y0253171D02*
X0299715Y0252799D01*
X0299520Y0252462D01*
X0296243Y0252462D01*
X0295306Y0251525D01*
X0295306Y0249716D01*
X0277905Y0249716D01*
X0277486Y0250134D01*
X0276351Y0250605D01*
X0275122Y0250605D01*
X0273986Y0250134D01*
X0273118Y0249266D01*
X0272647Y0248130D01*
X0272647Y0246901D01*
X0273118Y0245766D01*
X0273986Y0244897D01*
X0275122Y0244427D01*
X0276351Y0244427D01*
X0277486Y0244897D01*
X0277905Y0245316D01*
X0294423Y0245316D01*
X0294423Y0232076D01*
X0293603Y0232416D01*
X0292374Y0232416D01*
X0292151Y0232324D01*
X0291458Y0232324D01*
X0291458Y0235501D01*
X0290940Y0236020D01*
X0291458Y0236538D01*
X0291458Y0239832D01*
X0290940Y0240350D01*
X0291458Y0240869D01*
X0291458Y0244163D01*
X0290521Y0245100D01*
X0285259Y0245100D01*
X0284321Y0244163D01*
X0284321Y0240869D01*
X0284805Y0240385D01*
X0276408Y0240385D01*
X0275525Y0239502D01*
X0274933Y0239502D01*
X0273797Y0239032D01*
X0272929Y0238163D01*
X0272458Y0237028D01*
X0272458Y0235799D01*
X0272929Y0234664D01*
X0273384Y0234209D01*
X0273047Y0233872D01*
X0272576Y0232736D01*
X0272576Y0231508D01*
X0273047Y0230372D01*
X0273916Y0229503D01*
X0275051Y0229033D01*
X0276280Y0229033D01*
X0277415Y0229503D01*
X0278284Y0230372D01*
X0278754Y0231508D01*
X0278754Y0231654D01*
X0284805Y0231654D01*
X0284321Y0231171D01*
X0284321Y0227877D01*
X0284805Y0227393D01*
X0284478Y0227393D01*
X0283190Y0226104D01*
X0281706Y0224620D01*
X0281114Y0224620D01*
X0279979Y0224150D01*
X0279110Y0223281D01*
X0278639Y0222146D01*
X0278639Y0221951D01*
X0278284Y0222809D01*
X0277415Y0223678D01*
X0276280Y0224148D01*
X0275051Y0224148D01*
X0273916Y0223678D01*
X0273047Y0222809D01*
X0272576Y0221673D01*
X0272576Y0220445D01*
X0273047Y0219309D01*
X0273916Y0218440D01*
X0275051Y0217970D01*
X0275643Y0217970D01*
X0279282Y0214331D01*
X0284805Y0214331D01*
X0284321Y0213848D01*
X0284321Y0210554D01*
X0285259Y0209617D01*
X0290521Y0209617D01*
X0291458Y0210554D01*
X0291458Y0213848D01*
X0290940Y0214366D01*
X0291458Y0214884D01*
X0291458Y0218178D01*
X0291223Y0218414D01*
X0291459Y0218650D01*
X0291722Y0219106D01*
X0291858Y0219615D01*
X0291858Y0220862D01*
X0287890Y0220862D01*
X0287890Y0220862D01*
X0291858Y0220862D01*
X0291858Y0222110D01*
X0291722Y0222618D01*
X0291459Y0223074D01*
X0291223Y0223310D01*
X0291458Y0223546D01*
X0291458Y0226617D01*
X0292374Y0226238D01*
X0293603Y0226238D01*
X0294423Y0226577D01*
X0294423Y0211642D01*
X0293965Y0211642D01*
X0293456Y0211505D01*
X0293000Y0211242D01*
X0292628Y0210870D01*
X0292365Y0210414D01*
X0292228Y0209905D01*
X0292228Y0207608D01*
X0298900Y0207608D01*
X0298900Y0207541D01*
X0298967Y0207541D01*
X0298967Y0207608D01*
X0305638Y0207608D01*
X0305638Y0209905D01*
X0305559Y0210198D01*
X0307189Y0210198D01*
X0307110Y0209905D01*
X0307110Y0207608D01*
X0311439Y0207608D01*
X0311439Y0207541D01*
X0311506Y0207541D01*
X0311506Y0203508D01*
X0314098Y0203508D01*
X0314607Y0203644D01*
X0315063Y0203907D01*
X0315435Y0204280D01*
X0315698Y0204736D01*
X0315835Y0205245D01*
X0315835Y0207541D01*
X0311506Y0207541D01*
X0311506Y0207608D01*
X0315835Y0207608D01*
X0315835Y0209905D01*
X0315698Y0210414D01*
X0315435Y0210870D01*
X0315063Y0211242D01*
X0314607Y0211505D01*
X0314098Y0211642D01*
X0311783Y0211642D01*
X0311783Y0245437D01*
X0313683Y0245437D01*
X0313683Y0249470D01*
X0313750Y0249470D01*
X0313750Y0245437D01*
X0316342Y0245437D01*
X0316851Y0245573D01*
X0317307Y0245837D01*
X0317679Y0246209D01*
X0317942Y0246665D01*
X0318079Y0247174D01*
X0318079Y0249470D01*
X0313750Y0249470D01*
X0313750Y0249537D01*
X0318079Y0249537D01*
X0318079Y0251834D01*
X0317942Y0252343D01*
X0317679Y0252799D01*
X0317307Y0253171D01*
X0316851Y0253435D01*
X0316342Y0253571D01*
X0313750Y0253571D01*
X0313750Y0249537D01*
X0313683Y0249537D01*
X0313683Y0249470D01*
X0309354Y0249470D01*
X0309354Y0247174D01*
X0309438Y0246862D01*
X0307483Y0246862D01*
X0307567Y0247174D01*
X0307567Y0249470D01*
X0303474Y0249470D01*
X0303474Y0249537D01*
X0303407Y0249537D01*
X0303407Y0253571D01*
X0301052Y0253571D01*
X0300543Y0253435D01*
X0300087Y0253171D01*
X0303407Y0253014D02*
X0303474Y0253014D01*
X0303474Y0253571D02*
X0303474Y0249537D01*
X0307567Y0249537D01*
X0307567Y0251834D01*
X0307431Y0252343D01*
X0307167Y0252799D01*
X0306795Y0253171D01*
X0306339Y0253435D01*
X0305830Y0253571D01*
X0303474Y0253571D01*
X0303407Y0251015D02*
X0303474Y0251015D01*
X0306952Y0253014D02*
X0309969Y0253014D01*
X0310126Y0253171D02*
X0309754Y0252799D01*
X0309491Y0252343D01*
X0309354Y0251834D01*
X0309354Y0249537D01*
X0313683Y0249537D01*
X0313683Y0253571D01*
X0311091Y0253571D01*
X0310582Y0253435D01*
X0310126Y0253171D01*
X0309354Y0251015D02*
X0307567Y0251015D01*
X0307567Y0249017D02*
X0309354Y0249017D01*
X0309396Y0247018D02*
X0307525Y0247018D01*
X0311783Y0245020D02*
X0333146Y0245020D01*
X0333146Y0247018D02*
X0318037Y0247018D01*
X0318079Y0249017D02*
X0333146Y0249017D01*
X0333146Y0251015D02*
X0318079Y0251015D01*
X0317464Y0253014D02*
X0333146Y0253014D01*
X0333146Y0243021D02*
X0319339Y0243021D01*
X0319320Y0243091D02*
X0319057Y0243547D01*
X0318685Y0243919D01*
X0318229Y0244183D01*
X0317720Y0244319D01*
X0316374Y0244319D01*
X0315028Y0244319D01*
X0314519Y0244183D01*
X0314063Y0243919D01*
X0313691Y0243547D01*
X0313428Y0243091D01*
X0313291Y0242582D01*
X0313291Y0236591D01*
X0316374Y0236591D01*
X0316374Y0244319D01*
X0316374Y0236591D01*
X0316374Y0236591D01*
X0316374Y0236590D01*
X0316374Y0228862D01*
X0316374Y0236590D01*
X0316374Y0236590D01*
X0313291Y0236590D01*
X0313291Y0230599D01*
X0313428Y0230090D01*
X0313691Y0229634D01*
X0314063Y0229262D01*
X0314519Y0228998D01*
X0315028Y0228862D01*
X0316374Y0228862D01*
X0317720Y0228862D01*
X0318229Y0228998D01*
X0318685Y0229262D01*
X0319057Y0229634D01*
X0319320Y0230090D01*
X0319457Y0230599D01*
X0319457Y0236590D01*
X0316374Y0236590D01*
X0316374Y0236591D01*
X0319457Y0236591D01*
X0319457Y0242582D01*
X0319320Y0243091D01*
X0319457Y0241023D02*
X0333146Y0241023D01*
X0333146Y0239024D02*
X0319457Y0239024D01*
X0319457Y0237026D02*
X0333146Y0237026D01*
X0333146Y0235027D02*
X0319457Y0235027D01*
X0319457Y0233029D02*
X0333146Y0233029D01*
X0333146Y0231030D02*
X0319457Y0231030D01*
X0318286Y0229032D02*
X0333146Y0229032D01*
X0333146Y0227033D02*
X0319067Y0227033D01*
X0319057Y0227051D02*
X0318685Y0227423D01*
X0318229Y0227687D01*
X0317720Y0227823D01*
X0316374Y0227823D01*
X0315028Y0227823D01*
X0314519Y0227687D01*
X0314063Y0227423D01*
X0313691Y0227051D01*
X0313428Y0226595D01*
X0313291Y0226086D01*
X0313291Y0220095D01*
X0316374Y0220095D01*
X0316374Y0227823D01*
X0316374Y0220095D01*
X0316374Y0220095D01*
X0316374Y0220094D01*
X0316374Y0212366D01*
X0316374Y0220094D01*
X0316374Y0220094D01*
X0313291Y0220094D01*
X0313291Y0214103D01*
X0313428Y0213594D01*
X0313691Y0213138D01*
X0314063Y0212766D01*
X0314519Y0212502D01*
X0315028Y0212366D01*
X0316374Y0212366D01*
X0317720Y0212366D01*
X0318229Y0212502D01*
X0318685Y0212766D01*
X0319057Y0213138D01*
X0319320Y0213594D01*
X0319457Y0214103D01*
X0319457Y0220094D01*
X0316374Y0220094D01*
X0316374Y0220095D01*
X0319457Y0220095D01*
X0319457Y0226086D01*
X0319320Y0226595D01*
X0319057Y0227051D01*
X0319457Y0225035D02*
X0333146Y0225035D01*
X0333146Y0223036D02*
X0319457Y0223036D01*
X0319457Y0221038D02*
X0333146Y0221038D01*
X0333146Y0219039D02*
X0319457Y0219039D01*
X0319457Y0217041D02*
X0333146Y0217041D01*
X0333146Y0215042D02*
X0319457Y0215042D01*
X0318963Y0213044D02*
X0333146Y0213044D01*
X0333146Y0211045D02*
X0315260Y0211045D01*
X0315835Y0209047D02*
X0333146Y0209047D01*
X0333146Y0207048D02*
X0315835Y0207048D01*
X0315782Y0205050D02*
X0333146Y0205050D01*
X0333146Y0203051D02*
X0267039Y0203051D01*
X0267039Y0201053D02*
X0318542Y0201053D01*
X0318541Y0199054D02*
X0267039Y0199054D01*
X0267039Y0197056D02*
X0318541Y0197056D01*
X0318540Y0195057D02*
X0267039Y0195057D01*
X0267039Y0193059D02*
X0318539Y0193059D01*
X0318538Y0191060D02*
X0267039Y0191060D01*
X0267039Y0189061D02*
X0318537Y0189061D01*
X0318536Y0187063D02*
X0267039Y0187063D01*
X0257476Y0175072D02*
X0308867Y0175072D01*
X0309760Y0175072D02*
X0309760Y0175072D01*
X0309760Y0177070D02*
X0309760Y0177070D01*
X0309760Y0179069D02*
X0309760Y0179069D01*
X0309760Y0181067D02*
X0309760Y0181067D01*
X0309760Y0183066D02*
X0309760Y0183066D01*
X0309760Y0185064D02*
X0309760Y0185064D01*
X0313122Y0185064D02*
X0318536Y0185064D01*
X0318535Y0183066D02*
X0313744Y0183066D01*
X0313744Y0181067D02*
X0318534Y0181067D01*
X0318533Y0179069D02*
X0313744Y0179069D01*
X0315665Y0177070D02*
X0315665Y0177070D01*
X0315665Y0175072D02*
X0315665Y0175072D01*
X0315665Y0173073D02*
X0315665Y0173073D01*
X0315665Y0171075D02*
X0315665Y0171075D01*
X0315665Y0169076D02*
X0315665Y0169076D01*
X0315665Y0167078D02*
X0315665Y0167078D01*
X0315665Y0165079D02*
X0315665Y0165079D01*
X0315665Y0163081D02*
X0315665Y0163081D01*
X0315665Y0161082D02*
X0315665Y0161082D01*
X0315665Y0159084D02*
X0315665Y0159084D01*
X0315665Y0157085D02*
X0315665Y0157085D01*
X0315665Y0155087D02*
X0315665Y0155087D01*
X0315665Y0153088D02*
X0315665Y0153088D01*
X0315665Y0151090D02*
X0315665Y0151090D01*
X0315665Y0149091D02*
X0315665Y0149091D01*
X0315665Y0147093D02*
X0315665Y0147093D01*
X0315665Y0145094D02*
X0315665Y0145094D01*
X0315665Y0143096D02*
X0315665Y0143096D01*
X0315665Y0141097D02*
X0315665Y0141097D01*
X0315665Y0139099D02*
X0315665Y0139099D01*
X0315665Y0137100D02*
X0315665Y0137100D01*
X0315665Y0135102D02*
X0315665Y0135102D01*
X0315665Y0133103D02*
X0315665Y0133103D01*
X0315665Y0131105D02*
X0315665Y0131105D01*
X0315665Y0129106D02*
X0315665Y0129106D01*
X0315665Y0127108D02*
X0315665Y0127108D01*
X0315665Y0125109D02*
X0315665Y0125109D01*
X0313744Y0123111D02*
X0318510Y0123111D01*
X0318509Y0121112D02*
X0313744Y0121112D01*
X0313744Y0119114D02*
X0318508Y0119114D01*
X0318508Y0117115D02*
X0313268Y0117115D01*
X0310481Y0115117D02*
X0318507Y0115117D01*
X0318506Y0113118D02*
X0306780Y0113118D01*
X0306960Y0115117D02*
X0309039Y0115117D01*
X0309760Y0115117D02*
X0309760Y0115117D01*
X0309760Y0115051D02*
X0309760Y0121020D01*
X0309760Y0121020D01*
X0309760Y0115051D01*
X0309760Y0117115D02*
X0309760Y0117115D01*
X0309760Y0119114D02*
X0309760Y0119114D01*
X0309760Y0121112D02*
X0309760Y0121112D01*
X0309760Y0123111D02*
X0309760Y0123111D01*
X0309760Y0125109D02*
X0309760Y0125109D01*
X0309929Y0127108D02*
X0257583Y0127108D01*
X0257848Y0129106D02*
X0309747Y0129106D01*
X0310463Y0131105D02*
X0256977Y0131105D01*
X0257848Y0133103D02*
X0309697Y0133103D01*
X0310048Y0135102D02*
X0257464Y0135102D01*
X0257580Y0137100D02*
X0309932Y0137100D01*
X0309746Y0139099D02*
X0257848Y0139099D01*
X0256969Y0141097D02*
X0310468Y0141097D01*
X0309697Y0143096D02*
X0257848Y0143096D01*
X0257467Y0145094D02*
X0310045Y0145094D01*
X0309935Y0147093D02*
X0257577Y0147093D01*
X0257848Y0149091D02*
X0309744Y0149091D01*
X0310473Y0151090D02*
X0256962Y0151090D01*
X0257848Y0153088D02*
X0309697Y0153088D01*
X0310042Y0155087D02*
X0257470Y0155087D01*
X0257574Y0157085D02*
X0309938Y0157085D01*
X0309743Y0159084D02*
X0257848Y0159084D01*
X0256954Y0161082D02*
X0310478Y0161082D01*
X0309697Y0163081D02*
X0257848Y0163081D01*
X0257473Y0165079D02*
X0310039Y0165079D01*
X0309941Y0167078D02*
X0257571Y0167078D01*
X0257848Y0169076D02*
X0309741Y0169076D01*
X0310483Y0171075D02*
X0256947Y0171075D01*
X0257848Y0173073D02*
X0309697Y0173073D01*
X0308847Y0203508D02*
X0311439Y0203508D01*
X0311439Y0207541D01*
X0307110Y0207541D01*
X0307110Y0205245D01*
X0307247Y0204736D01*
X0307510Y0204280D01*
X0307882Y0203907D01*
X0308338Y0203644D01*
X0308847Y0203508D01*
X0307162Y0205050D02*
X0305586Y0205050D01*
X0305638Y0205245D02*
X0305501Y0204736D01*
X0305238Y0204280D01*
X0304866Y0203907D01*
X0304410Y0203644D01*
X0303901Y0203508D01*
X0298967Y0203508D01*
X0298967Y0207541D01*
X0305638Y0207541D01*
X0305638Y0205245D01*
X0305638Y0207048D02*
X0307110Y0207048D01*
X0307110Y0209047D02*
X0305638Y0209047D01*
X0311439Y0207048D02*
X0311506Y0207048D01*
X0311506Y0205050D02*
X0311439Y0205050D01*
X0311783Y0213044D02*
X0313785Y0213044D01*
X0313291Y0215042D02*
X0311783Y0215042D01*
X0311783Y0217041D02*
X0313291Y0217041D01*
X0313291Y0219039D02*
X0311783Y0219039D01*
X0311783Y0221038D02*
X0313291Y0221038D01*
X0313291Y0223036D02*
X0311783Y0223036D01*
X0311783Y0225035D02*
X0313291Y0225035D01*
X0313681Y0227033D02*
X0311783Y0227033D01*
X0311783Y0229032D02*
X0314462Y0229032D01*
X0316374Y0229032D02*
X0316374Y0229032D01*
X0316374Y0231030D02*
X0316374Y0231030D01*
X0316374Y0233029D02*
X0316374Y0233029D01*
X0316374Y0235027D02*
X0316374Y0235027D01*
X0316374Y0237026D02*
X0316374Y0237026D01*
X0316374Y0239024D02*
X0316374Y0239024D01*
X0316374Y0241023D02*
X0316374Y0241023D01*
X0316374Y0243021D02*
X0316374Y0243021D01*
X0313409Y0243021D02*
X0311783Y0243021D01*
X0311783Y0241023D02*
X0313291Y0241023D01*
X0313291Y0239024D02*
X0311783Y0239024D01*
X0311783Y0237026D02*
X0313291Y0237026D01*
X0313291Y0235027D02*
X0311783Y0235027D01*
X0311783Y0233029D02*
X0313291Y0233029D01*
X0313291Y0231030D02*
X0311783Y0231030D01*
X0316374Y0227033D02*
X0316374Y0227033D01*
X0316374Y0225035D02*
X0316374Y0225035D01*
X0316374Y0223036D02*
X0316374Y0223036D01*
X0316374Y0221038D02*
X0316374Y0221038D01*
X0316374Y0219039D02*
X0316374Y0219039D01*
X0316374Y0217041D02*
X0316374Y0217041D01*
X0316374Y0215042D02*
X0316374Y0215042D01*
X0316374Y0213044D02*
X0316374Y0213044D01*
X0298900Y0207541D02*
X0298900Y0203508D01*
X0293965Y0203508D01*
X0293456Y0203644D01*
X0293000Y0203907D01*
X0292628Y0204280D01*
X0292365Y0204736D01*
X0292228Y0205245D01*
X0292228Y0207541D01*
X0298900Y0207541D01*
X0298900Y0207048D02*
X0298967Y0207048D01*
X0298967Y0205050D02*
X0298900Y0205050D01*
X0292281Y0205050D02*
X0267039Y0205050D01*
X0267039Y0207048D02*
X0292228Y0207048D01*
X0292228Y0209047D02*
X0267039Y0209047D01*
X0267039Y0211045D02*
X0284321Y0211045D01*
X0284321Y0213044D02*
X0267039Y0213044D01*
X0267039Y0215042D02*
X0278571Y0215042D01*
X0276572Y0217041D02*
X0267039Y0217041D01*
X0267039Y0219039D02*
X0273317Y0219039D01*
X0272576Y0221038D02*
X0267039Y0221038D01*
X0267039Y0223036D02*
X0273274Y0223036D01*
X0267481Y0225035D02*
X0282120Y0225035D01*
X0284119Y0227033D02*
X0267928Y0227033D01*
X0266904Y0229032D02*
X0284321Y0229032D01*
X0284321Y0231030D02*
X0278557Y0231030D01*
X0272774Y0231030D02*
X0263105Y0231030D01*
X0262773Y0229032D02*
X0262361Y0229032D01*
X0262617Y0233029D02*
X0272697Y0233029D01*
X0272778Y0235027D02*
X0270144Y0235027D01*
X0270762Y0237026D02*
X0272458Y0237026D01*
X0273790Y0239024D02*
X0269943Y0239024D01*
X0269873Y0241023D02*
X0284321Y0241023D01*
X0284321Y0243021D02*
X0269873Y0243021D01*
X0269873Y0245020D02*
X0273864Y0245020D01*
X0272647Y0247018D02*
X0269873Y0247018D01*
X0269873Y0249017D02*
X0273015Y0249017D01*
X0269873Y0251015D02*
X0295306Y0251015D01*
X0294423Y0245020D02*
X0290601Y0245020D01*
X0291458Y0243021D02*
X0294423Y0243021D01*
X0294423Y0241023D02*
X0291458Y0241023D01*
X0291458Y0239024D02*
X0294423Y0239024D01*
X0294423Y0237026D02*
X0291458Y0237026D01*
X0291458Y0235027D02*
X0294423Y0235027D01*
X0294423Y0233029D02*
X0291458Y0233029D01*
X0291458Y0225035D02*
X0294423Y0225035D01*
X0294423Y0223036D02*
X0291481Y0223036D01*
X0291858Y0221038D02*
X0294423Y0221038D01*
X0294423Y0219039D02*
X0291683Y0219039D01*
X0291458Y0217041D02*
X0294423Y0217041D01*
X0294423Y0215042D02*
X0291458Y0215042D01*
X0291458Y0213044D02*
X0294423Y0213044D01*
X0292803Y0211045D02*
X0291458Y0211045D01*
X0279008Y0223036D02*
X0278057Y0223036D01*
X0277609Y0245020D02*
X0285178Y0245020D01*
X0313683Y0247018D02*
X0313750Y0247018D01*
X0313750Y0249017D02*
X0313683Y0249017D01*
X0313683Y0251015D02*
X0313750Y0251015D01*
X0313750Y0253014D02*
X0313683Y0253014D01*
X0254760Y0185064D02*
X0254760Y0185064D01*
X0254760Y0183066D02*
X0254760Y0183066D01*
X0254760Y0181067D02*
X0254760Y0181067D01*
X0254760Y0179069D02*
X0254760Y0179069D01*
X0254760Y0177070D02*
X0254760Y0177070D01*
X0213344Y0213044D02*
X0118395Y0213044D01*
X0118395Y0215042D02*
X0212517Y0215042D01*
X0211021Y0217041D02*
X0118395Y0217041D01*
X0118395Y0219039D02*
X0209023Y0219039D01*
X0207024Y0221038D02*
X0118395Y0221038D01*
X0118395Y0223036D02*
X0205026Y0223036D01*
X0203027Y0225035D02*
X0118395Y0225035D01*
X0118395Y0227033D02*
X0201029Y0227033D01*
X0199030Y0229032D02*
X0123876Y0229032D01*
X0125695Y0231030D02*
X0197032Y0231030D01*
X0195033Y0233029D02*
X0125695Y0233029D01*
X0125164Y0235027D02*
X0193035Y0235027D01*
X0191036Y0237026D02*
X0123165Y0237026D01*
X0123869Y0239024D02*
X0189038Y0239024D01*
X0187039Y0241023D02*
X0125695Y0241023D01*
X0125695Y0243021D02*
X0185041Y0243021D01*
X0183042Y0245020D02*
X0126753Y0245020D01*
X0128752Y0247018D02*
X0181044Y0247018D01*
X0179045Y0249017D02*
X0130750Y0249017D01*
X0132749Y0251015D02*
X0178891Y0251015D01*
X0177348Y0253014D02*
X0134747Y0253014D01*
X0136746Y0255012D02*
X0175349Y0255012D01*
X0173351Y0257011D02*
X0138744Y0257011D01*
X0139716Y0259009D02*
X0171352Y0259009D01*
X0169354Y0261008D02*
X0139716Y0261008D01*
X0139716Y0263006D02*
X0167355Y0263006D01*
X0165357Y0265005D02*
X0139716Y0265005D01*
X0139716Y0267003D02*
X0163358Y0267003D01*
X0161360Y0269002D02*
X0139716Y0269002D01*
X0139716Y0271000D02*
X0159361Y0271000D01*
X0157363Y0272999D02*
X0139716Y0272999D01*
X0139716Y0274997D02*
X0155364Y0274997D01*
X0153366Y0276996D02*
X0139716Y0276996D01*
X0139716Y0278994D02*
X0151367Y0278994D01*
X0149369Y0280993D02*
X0140605Y0280993D01*
X0140157Y0282992D02*
X0147370Y0282992D01*
X0145372Y0284990D02*
X0125201Y0284990D01*
X0125695Y0282992D02*
X0134875Y0282992D01*
X0134427Y0280993D02*
X0125695Y0280993D01*
X0123839Y0278994D02*
X0135316Y0278994D01*
X0135316Y0276996D02*
X0123761Y0276996D01*
X0123283Y0277473D02*
X0126095Y0274661D01*
X0126095Y0272673D01*
X0121295Y0272673D01*
X0121295Y0267873D01*
X0123283Y0267873D01*
X0126095Y0270685D01*
X0126095Y0272673D01*
X0121295Y0272673D01*
X0121295Y0272673D01*
X0121295Y0272673D01*
X0121295Y0277473D01*
X0123283Y0277473D01*
X0121295Y0276996D02*
X0121295Y0276996D01*
X0121295Y0274997D02*
X0121295Y0274997D01*
X0121295Y0272999D02*
X0121295Y0272999D01*
X0121295Y0271000D02*
X0121295Y0271000D01*
X0121295Y0269002D02*
X0121295Y0269002D01*
X0119403Y0267003D02*
X0118395Y0267003D01*
X0123188Y0267003D02*
X0135316Y0267003D01*
X0135316Y0265005D02*
X0125186Y0265005D01*
X0125695Y0263006D02*
X0135316Y0263006D01*
X0135316Y0261008D02*
X0125695Y0261008D01*
X0123854Y0259009D02*
X0134520Y0259009D01*
X0132522Y0257011D02*
X0123180Y0257011D01*
X0125179Y0255012D02*
X0130523Y0255012D01*
X0128525Y0253014D02*
X0125695Y0253014D01*
X0125695Y0251015D02*
X0126526Y0251015D01*
X0124528Y0249017D02*
X0123861Y0249017D01*
X0119418Y0247018D02*
X0118395Y0247018D01*
X0118395Y0249017D02*
X0118729Y0249017D01*
X0118395Y0257011D02*
X0119410Y0257011D01*
X0118737Y0259009D02*
X0118395Y0259009D01*
X0124412Y0269002D02*
X0135316Y0269002D01*
X0135316Y0271000D02*
X0126095Y0271000D01*
X0126095Y0272999D02*
X0135316Y0272999D01*
X0135316Y0274997D02*
X0125759Y0274997D01*
X0118830Y0276996D02*
X0118395Y0276996D01*
X0118395Y0278994D02*
X0118751Y0278994D01*
X0118395Y0286989D02*
X0119388Y0286989D01*
X0118759Y0288987D02*
X0118395Y0288987D01*
X0123202Y0286989D02*
X0143373Y0286989D01*
X0141375Y0288987D02*
X0123832Y0288987D01*
X0125695Y0290986D02*
X0139376Y0290986D01*
X0137378Y0292984D02*
X0125695Y0292984D01*
X0125208Y0294983D02*
X0135379Y0294983D01*
X0118722Y0239024D02*
X0118395Y0239024D01*
X0118395Y0237026D02*
X0119425Y0237026D01*
X0118714Y0229032D02*
X0118395Y0229032D01*
X0084681Y0194524D02*
X0073421Y0205783D01*
X0073421Y0215844D01*
X0073421Y0194642D01*
X0073343Y0194563D01*
X0084681Y0187831D02*
X0085193Y0187319D01*
X0085193Y0172437D01*
X0077615Y0172437D01*
X0060601Y0147093D02*
X0042068Y0147093D01*
X0042068Y0139099D02*
X0060601Y0139099D01*
X0030601Y0139099D02*
X0028185Y0139099D01*
X0028185Y0141097D02*
X0030601Y0141097D01*
X0030601Y0143096D02*
X0028185Y0143096D01*
X0028185Y0145094D02*
X0030601Y0145094D01*
X0030006Y0147093D02*
X0028185Y0147093D01*
X0028185Y0195057D02*
X0028639Y0195057D01*
X0028880Y0197056D02*
X0028185Y0197056D01*
X0028185Y0199054D02*
X0028880Y0199054D01*
X0028880Y0201053D02*
X0028185Y0201053D01*
X0028185Y0203051D02*
X0028880Y0203051D01*
X0028880Y0205050D02*
X0028185Y0205050D01*
X0028185Y0207048D02*
X0028880Y0207048D01*
X0028880Y0209047D02*
X0028185Y0209047D01*
X0028185Y0211045D02*
X0028880Y0211045D01*
X0028880Y0213044D02*
X0028185Y0213044D01*
X0028185Y0215042D02*
X0028880Y0215042D01*
X0028880Y0217041D02*
X0028185Y0217041D01*
X0028185Y0219039D02*
X0028880Y0219039D01*
X0028880Y0221038D02*
X0028185Y0221038D01*
X0028185Y0223036D02*
X0028880Y0223036D01*
X0028880Y0225035D02*
X0028185Y0225035D01*
X0028185Y0227033D02*
X0028880Y0227033D01*
X0028880Y0229032D02*
X0028185Y0229032D01*
X0028185Y0231030D02*
X0028880Y0231030D01*
X0249311Y0124989D02*
X0249311Y0120345D01*
X0250776Y0118881D01*
X0250776Y0121020D01*
X0254760Y0121020D01*
X0254760Y0121020D01*
X0250776Y0121020D01*
X0250776Y0123396D01*
X0250929Y0124166D01*
X0251223Y0124876D01*
X0249582Y0124876D01*
X0249311Y0124989D01*
X0249311Y0123111D02*
X0250776Y0123111D01*
X0250776Y0121112D02*
X0249311Y0121112D01*
X0250543Y0119114D02*
X0250776Y0119114D01*
X0298786Y0105124D02*
X0318503Y0105124D01*
X0318503Y0107123D02*
X0300785Y0107123D01*
X0302783Y0109121D02*
X0318504Y0109121D01*
X0318505Y0111120D02*
X0304782Y0111120D01*
D28*
X0252909Y0094681D03*
X0301650Y0047870D03*
D29*
X0173028Y0137083D03*
X0138382Y0168697D03*
X0110232Y0123224D03*
X0215902Y0215272D03*
X0225429Y0229327D03*
X0240075Y0227083D03*
X0247083Y0230823D03*
X0243343Y0234957D03*
X0259720Y0231177D03*
D30*
X0259720Y0180980D01*
X0259760Y0180941D01*
X0254760Y0180941D02*
X0254760Y0178343D01*
X0259642Y0173461D01*
X0315665Y0173461D01*
X0287890Y0216531D02*
X0280193Y0216531D01*
X0275665Y0221059D01*
X0281728Y0221531D02*
X0285390Y0225193D01*
X0287890Y0225193D01*
X0287594Y0225193D01*
X0287890Y0233854D02*
X0277398Y0233854D01*
X0275665Y0232122D01*
X0275547Y0236413D02*
X0277319Y0238185D01*
X0287890Y0238185D01*
X0296512Y0247516D02*
X0275736Y0247516D01*
X0267673Y0236925D02*
X0267673Y0274248D01*
X0239720Y0274366D02*
X0239720Y0243618D01*
X0225429Y0229327D01*
X0240075Y0227083D02*
X0240075Y0116807D01*
X0250429Y0106453D01*
X0297004Y0106453D01*
X0304760Y0114209D01*
X0304760Y0121020D01*
X0294760Y0121020D02*
X0294760Y0118500D01*
X0286914Y0110654D01*
X0251197Y0110654D01*
X0243343Y0118509D01*
X0243343Y0234957D01*
X0247083Y0230823D02*
X0247111Y0230794D01*
X0247111Y0119434D01*
X0251982Y0114563D01*
X0286059Y0114563D01*
X0289760Y0118264D01*
X0289760Y0121020D01*
X0315366Y0128161D02*
X0315665Y0128461D01*
X0315366Y0128161D02*
X0259115Y0128161D01*
X0254843Y0123890D01*
X0254843Y0121103D01*
X0254760Y0121020D01*
X0264760Y0180941D02*
X0264839Y0181020D01*
X0264839Y0226728D01*
X0296512Y0247516D02*
X0298441Y0249445D01*
X0215902Y0215272D02*
X0181091Y0250083D01*
X0181091Y0252382D01*
X0132370Y0301103D01*
X0102794Y0301103D01*
X0084059Y0319839D01*
X0082516Y0319839D01*
X0137516Y0281295D02*
X0137516Y0258894D01*
X0121295Y0242673D01*
D31*
X0088264Y0239839D03*
X0073421Y0215844D03*
X0051965Y0233461D03*
X0061295Y0260941D03*
X0097319Y0198343D03*
X0061295Y0188618D03*
X0137516Y0281295D03*
X0178657Y0260075D03*
X0178224Y0241453D03*
X0184287Y0222398D03*
X0211965Y0187634D03*
X0234957Y0197713D03*
X0264839Y0226728D03*
X0267673Y0236925D03*
X0270362Y0241571D03*
X0275736Y0247516D03*
X0275547Y0236413D03*
X0275665Y0232122D03*
X0275665Y0221059D03*
X0281728Y0221531D03*
X0292988Y0229327D03*
X0313303Y0200980D03*
X0280862Y0274366D03*
X0267673Y0274248D03*
X0239720Y0274366D03*
X0220232Y0263882D03*
X0296886Y0323854D03*
X0231925Y0145311D03*
X0224563Y0043106D03*
X0113697Y0044406D03*
D32*
X0115547Y0310311D02*
X0114248Y0311610D01*
X0114248Y0319839D01*
X0115547Y0321138D01*
X0114248Y0319839D02*
X0092516Y0319839D01*
D33*
X0111098Y0262673D02*
X0111295Y0262673D01*
X0111098Y0262673D02*
X0088264Y0239839D01*
X0046610Y0207161D02*
X0028385Y0191102D01*
X0028385Y0152673D01*
X0036335Y0144724D01*
X0036335Y0143067D01*
X0066335Y0143067D01*
X0066335Y0163067D02*
X0036335Y0163067D01*
X0036335Y0185311D01*
X0044169Y0193146D01*
X0046453Y0193146D01*
X0212594Y0309760D02*
X0212594Y0321374D01*
X0212594Y0309760D02*
X0219799Y0304720D01*
X0287890Y0229524D02*
X0292791Y0229524D01*
X0292988Y0229327D01*
D34*
X0116295Y0228878D02*
X0113016Y0228878D01*
X0112911Y0228773D02*
X0115195Y0231058D01*
X0115195Y0234289D01*
X0112911Y0236573D01*
X0109680Y0236573D01*
X0107395Y0234289D01*
X0107395Y0231058D01*
X0109680Y0228773D01*
X0112911Y0228773D01*
X0114014Y0229877D02*
X0116295Y0229877D01*
X0116295Y0230875D02*
X0115013Y0230875D01*
X0115195Y0231874D02*
X0116295Y0231874D01*
X0116295Y0232872D02*
X0115195Y0232872D01*
X0115195Y0233871D02*
X0116295Y0233871D01*
X0116295Y0234869D02*
X0114614Y0234869D01*
X0113616Y0235868D02*
X0116295Y0235868D01*
X0116295Y0236866D02*
X0030980Y0236866D01*
X0030980Y0235868D02*
X0051011Y0235868D01*
X0051450Y0236050D02*
X0050498Y0235655D01*
X0049770Y0234927D01*
X0049376Y0233976D01*
X0049376Y0232946D01*
X0049770Y0231994D01*
X0050498Y0231266D01*
X0051450Y0230872D01*
X0051584Y0230872D01*
X0063093Y0219362D01*
X0063093Y0183989D01*
X0064323Y0182759D01*
X0067126Y0179957D01*
X0038635Y0179957D01*
X0038635Y0184358D01*
X0044353Y0190077D01*
X0049074Y0190077D01*
X0049587Y0190590D01*
X0049780Y0190256D01*
X0050059Y0189977D01*
X0050401Y0189779D01*
X0050783Y0189677D01*
X0052661Y0189677D01*
X0052661Y0192661D01*
X0053630Y0192661D01*
X0053630Y0189677D01*
X0055509Y0189677D01*
X0055890Y0189779D01*
X0056232Y0189977D01*
X0056511Y0190256D01*
X0056709Y0190598D01*
X0056811Y0190980D01*
X0056811Y0192661D01*
X0053630Y0192661D01*
X0053630Y0193630D01*
X0052661Y0193630D01*
X0052661Y0196614D01*
X0050783Y0196614D01*
X0050401Y0196512D01*
X0050059Y0196314D01*
X0049780Y0196035D01*
X0049587Y0195701D01*
X0049074Y0196214D01*
X0043832Y0196214D01*
X0043187Y0195570D01*
X0043187Y0195416D01*
X0034035Y0186264D01*
X0034035Y0179957D01*
X0030980Y0179957D01*
X0030980Y0190323D01*
X0046607Y0204093D01*
X0049231Y0204093D01*
X0049745Y0204606D01*
X0049937Y0204272D01*
X0050217Y0203993D01*
X0050559Y0203795D01*
X0050940Y0203693D01*
X0052819Y0203693D01*
X0052819Y0206677D01*
X0053787Y0206677D01*
X0053787Y0203693D01*
X0055666Y0203693D01*
X0056047Y0203795D01*
X0056390Y0203993D01*
X0056669Y0204272D01*
X0056866Y0204614D01*
X0056968Y0204995D01*
X0056968Y0206677D01*
X0053787Y0206677D01*
X0053787Y0207646D01*
X0052819Y0207646D01*
X0052819Y0210630D01*
X0050940Y0210630D01*
X0050559Y0210528D01*
X0050217Y0210330D01*
X0049937Y0210051D01*
X0049745Y0209717D01*
X0049231Y0210230D01*
X0043989Y0210230D01*
X0043345Y0209586D01*
X0043345Y0207350D01*
X0030980Y0196454D01*
X0030980Y0294287D01*
X0107395Y0294287D01*
X0107395Y0291058D01*
X0109680Y0288773D01*
X0112911Y0288773D01*
X0115195Y0291058D01*
X0115195Y0294287D01*
X0116295Y0294287D01*
X0116295Y0179957D01*
X0087293Y0179957D01*
X0087293Y0184753D01*
X0087750Y0185210D01*
X0087750Y0190452D01*
X0087105Y0191096D01*
X0082257Y0191096D01*
X0081613Y0190452D01*
X0081613Y0185210D01*
X0082257Y0184565D01*
X0083093Y0184565D01*
X0083093Y0179957D01*
X0073065Y0179957D01*
X0067293Y0185729D01*
X0067293Y0221102D01*
X0066063Y0222332D01*
X0054554Y0233841D01*
X0054554Y0233976D01*
X0054159Y0234927D01*
X0053431Y0235655D01*
X0052480Y0236050D01*
X0051450Y0236050D01*
X0052918Y0235868D02*
X0108975Y0235868D01*
X0107976Y0234869D02*
X0054183Y0234869D01*
X0054554Y0233871D02*
X0107395Y0233871D01*
X0107395Y0232872D02*
X0055523Y0232872D01*
X0056521Y0231874D02*
X0107395Y0231874D01*
X0107578Y0230875D02*
X0057520Y0230875D01*
X0058518Y0229877D02*
X0108576Y0229877D01*
X0109575Y0228878D02*
X0059517Y0228878D01*
X0060515Y0227880D02*
X0116295Y0227880D01*
X0116295Y0226881D02*
X0061514Y0226881D01*
X0062512Y0225883D02*
X0116295Y0225883D01*
X0116295Y0224884D02*
X0063511Y0224884D01*
X0064509Y0223886D02*
X0116295Y0223886D01*
X0116295Y0222887D02*
X0065508Y0222887D01*
X0066506Y0221889D02*
X0116295Y0221889D01*
X0116295Y0220890D02*
X0067293Y0220890D01*
X0067293Y0219892D02*
X0116295Y0219892D01*
X0116295Y0218893D02*
X0067293Y0218893D01*
X0067293Y0217895D02*
X0071811Y0217895D01*
X0071955Y0218039D02*
X0071226Y0217311D01*
X0070832Y0216359D01*
X0070832Y0215329D01*
X0071226Y0214378D01*
X0071321Y0214283D01*
X0071321Y0197828D01*
X0070918Y0197828D01*
X0070274Y0197184D01*
X0070274Y0191942D01*
X0070787Y0191429D01*
X0070453Y0191236D01*
X0070174Y0190956D01*
X0069976Y0190614D01*
X0069874Y0190233D01*
X0069874Y0188354D01*
X0072858Y0188354D01*
X0072858Y0187386D01*
X0069874Y0187386D01*
X0069874Y0185507D01*
X0069976Y0185126D01*
X0070174Y0184784D01*
X0070453Y0184504D01*
X0070795Y0184307D01*
X0071177Y0184205D01*
X0072858Y0184205D01*
X0072858Y0187386D01*
X0073827Y0187386D01*
X0073827Y0188354D01*
X0076811Y0188354D01*
X0076811Y0190233D01*
X0076709Y0190614D01*
X0076511Y0190956D01*
X0076232Y0191236D01*
X0075898Y0191429D01*
X0076411Y0191942D01*
X0076411Y0197184D01*
X0075767Y0197828D01*
X0075521Y0197828D01*
X0075521Y0200714D01*
X0081613Y0194622D01*
X0081613Y0191903D01*
X0082257Y0191258D01*
X0087105Y0191258D01*
X0087750Y0191903D01*
X0087750Y0197145D01*
X0087105Y0197789D01*
X0084386Y0197789D01*
X0075521Y0206653D01*
X0075521Y0214283D01*
X0075616Y0214378D01*
X0076010Y0215329D01*
X0076010Y0216359D01*
X0075616Y0217311D01*
X0074888Y0218039D01*
X0073936Y0218433D01*
X0072906Y0218433D01*
X0071955Y0218039D01*
X0071055Y0216896D02*
X0067293Y0216896D01*
X0067293Y0215898D02*
X0070832Y0215898D01*
X0071010Y0214899D02*
X0067293Y0214899D01*
X0067293Y0213901D02*
X0071321Y0213901D01*
X0071321Y0212902D02*
X0067293Y0212902D01*
X0067293Y0211904D02*
X0071321Y0211904D01*
X0071321Y0210905D02*
X0067293Y0210905D01*
X0067293Y0209907D02*
X0071321Y0209907D01*
X0071321Y0208908D02*
X0067293Y0208908D01*
X0067293Y0207910D02*
X0071321Y0207910D01*
X0071321Y0206911D02*
X0067293Y0206911D01*
X0067293Y0205913D02*
X0071321Y0205913D01*
X0071321Y0204914D02*
X0067293Y0204914D01*
X0067293Y0203916D02*
X0071321Y0203916D01*
X0071321Y0202917D02*
X0067293Y0202917D01*
X0067293Y0201919D02*
X0071321Y0201919D01*
X0071321Y0200920D02*
X0067293Y0200920D01*
X0067293Y0199922D02*
X0071321Y0199922D01*
X0071321Y0198923D02*
X0067293Y0198923D01*
X0067293Y0197925D02*
X0071321Y0197925D01*
X0070274Y0196926D02*
X0067293Y0196926D01*
X0067293Y0195927D02*
X0070274Y0195927D01*
X0070274Y0194929D02*
X0067293Y0194929D01*
X0067293Y0193930D02*
X0070274Y0193930D01*
X0070274Y0192932D02*
X0067293Y0192932D01*
X0067293Y0191933D02*
X0070283Y0191933D01*
X0070161Y0190935D02*
X0067293Y0190935D01*
X0067293Y0189936D02*
X0069874Y0189936D01*
X0069874Y0188938D02*
X0067293Y0188938D01*
X0067293Y0187939D02*
X0072858Y0187939D01*
X0073827Y0187939D02*
X0081613Y0187939D01*
X0081613Y0186941D02*
X0076811Y0186941D01*
X0076811Y0187386D02*
X0076811Y0185507D01*
X0076709Y0185126D01*
X0076511Y0184784D01*
X0076232Y0184504D01*
X0075890Y0184307D01*
X0075509Y0184205D01*
X0073827Y0184205D01*
X0073827Y0187386D01*
X0076811Y0187386D01*
X0076811Y0185942D02*
X0081613Y0185942D01*
X0081878Y0184944D02*
X0076604Y0184944D01*
X0073827Y0184944D02*
X0072858Y0184944D01*
X0072858Y0185942D02*
X0073827Y0185942D01*
X0073827Y0186941D02*
X0072858Y0186941D01*
X0069874Y0186941D02*
X0067293Y0186941D01*
X0067293Y0185942D02*
X0069874Y0185942D01*
X0070081Y0184944D02*
X0068078Y0184944D01*
X0069077Y0183945D02*
X0083093Y0183945D01*
X0083093Y0182947D02*
X0070075Y0182947D01*
X0071074Y0181948D02*
X0083093Y0181948D01*
X0083093Y0180950D02*
X0072072Y0180950D01*
X0066133Y0180950D02*
X0038635Y0180950D01*
X0038635Y0181948D02*
X0065134Y0181948D01*
X0064136Y0182947D02*
X0038635Y0182947D01*
X0038635Y0183945D02*
X0063137Y0183945D01*
X0063093Y0184944D02*
X0039220Y0184944D01*
X0040219Y0185942D02*
X0063093Y0185942D01*
X0063093Y0186941D02*
X0041217Y0186941D01*
X0042216Y0187939D02*
X0063093Y0187939D01*
X0063093Y0188938D02*
X0043214Y0188938D01*
X0044213Y0189936D02*
X0050129Y0189936D01*
X0052661Y0189936D02*
X0053630Y0189936D01*
X0053630Y0190935D02*
X0052661Y0190935D01*
X0052661Y0191933D02*
X0053630Y0191933D01*
X0053630Y0192932D02*
X0063093Y0192932D01*
X0063093Y0193930D02*
X0056811Y0193930D01*
X0056811Y0193630D02*
X0056811Y0195312D01*
X0056709Y0195693D01*
X0056511Y0196035D01*
X0056232Y0196314D01*
X0055890Y0196512D01*
X0055509Y0196614D01*
X0053630Y0196614D01*
X0053630Y0193630D01*
X0056811Y0193630D01*
X0056811Y0194929D02*
X0063093Y0194929D01*
X0063093Y0195927D02*
X0056573Y0195927D01*
X0053630Y0195927D02*
X0052661Y0195927D01*
X0052661Y0194929D02*
X0053630Y0194929D01*
X0053630Y0193930D02*
X0052661Y0193930D01*
X0049718Y0195927D02*
X0049360Y0195927D01*
X0043545Y0195927D02*
X0037341Y0195927D01*
X0038474Y0196926D02*
X0063093Y0196926D01*
X0063093Y0197925D02*
X0039607Y0197925D01*
X0040740Y0198923D02*
X0063093Y0198923D01*
X0063093Y0199922D02*
X0041873Y0199922D01*
X0043006Y0200920D02*
X0063093Y0200920D01*
X0063093Y0201919D02*
X0044139Y0201919D01*
X0045273Y0202917D02*
X0063093Y0202917D01*
X0063093Y0203916D02*
X0056256Y0203916D01*
X0056947Y0204914D02*
X0063093Y0204914D01*
X0063093Y0205913D02*
X0056968Y0205913D01*
X0056968Y0207646D02*
X0056968Y0209327D01*
X0056866Y0209709D01*
X0056669Y0210051D01*
X0056390Y0210330D01*
X0056047Y0210528D01*
X0055666Y0210630D01*
X0053787Y0210630D01*
X0053787Y0207646D01*
X0056968Y0207646D01*
X0056968Y0207910D02*
X0063093Y0207910D01*
X0063093Y0208908D02*
X0056968Y0208908D01*
X0056752Y0209907D02*
X0063093Y0209907D01*
X0063093Y0210905D02*
X0030980Y0210905D01*
X0030980Y0209907D02*
X0043666Y0209907D01*
X0043345Y0208908D02*
X0030980Y0208908D01*
X0030980Y0207910D02*
X0043345Y0207910D01*
X0042847Y0206911D02*
X0030980Y0206911D01*
X0030980Y0205913D02*
X0041714Y0205913D01*
X0040581Y0204914D02*
X0030980Y0204914D01*
X0030980Y0203916D02*
X0039448Y0203916D01*
X0038315Y0202917D02*
X0030980Y0202917D01*
X0030980Y0201919D02*
X0037182Y0201919D01*
X0036048Y0200920D02*
X0030980Y0200920D01*
X0030980Y0199922D02*
X0034915Y0199922D01*
X0033782Y0198923D02*
X0030980Y0198923D01*
X0030980Y0197925D02*
X0032649Y0197925D01*
X0031516Y0196926D02*
X0030980Y0196926D01*
X0033941Y0192932D02*
X0040703Y0192932D01*
X0041701Y0193930D02*
X0035074Y0193930D01*
X0036207Y0194929D02*
X0042700Y0194929D01*
X0039704Y0191933D02*
X0032808Y0191933D01*
X0031675Y0190935D02*
X0038706Y0190935D01*
X0037707Y0189936D02*
X0030980Y0189936D01*
X0030980Y0188938D02*
X0036709Y0188938D01*
X0035710Y0187939D02*
X0030980Y0187939D01*
X0030980Y0186941D02*
X0034712Y0186941D01*
X0034035Y0185942D02*
X0030980Y0185942D01*
X0030980Y0184944D02*
X0034035Y0184944D01*
X0034035Y0183945D02*
X0030980Y0183945D01*
X0030980Y0182947D02*
X0034035Y0182947D01*
X0034035Y0181948D02*
X0030980Y0181948D01*
X0030980Y0180950D02*
X0034035Y0180950D01*
X0056162Y0189936D02*
X0063093Y0189936D01*
X0063093Y0190935D02*
X0056799Y0190935D01*
X0056811Y0191933D02*
X0063093Y0191933D01*
X0053787Y0203916D02*
X0052819Y0203916D01*
X0052819Y0204914D02*
X0053787Y0204914D01*
X0053787Y0205913D02*
X0052819Y0205913D01*
X0053787Y0206911D02*
X0063093Y0206911D01*
X0063093Y0211904D02*
X0030980Y0211904D01*
X0030980Y0212902D02*
X0063093Y0212902D01*
X0063093Y0213901D02*
X0030980Y0213901D01*
X0030980Y0214899D02*
X0063093Y0214899D01*
X0063093Y0215898D02*
X0030980Y0215898D01*
X0030980Y0216896D02*
X0063093Y0216896D01*
X0063093Y0217895D02*
X0030980Y0217895D01*
X0030980Y0218893D02*
X0063093Y0218893D01*
X0062564Y0219892D02*
X0030980Y0219892D01*
X0030980Y0220890D02*
X0061565Y0220890D01*
X0060567Y0221889D02*
X0030980Y0221889D01*
X0030980Y0222887D02*
X0059568Y0222887D01*
X0058570Y0223886D02*
X0030980Y0223886D01*
X0030980Y0224884D02*
X0057571Y0224884D01*
X0056573Y0225883D02*
X0030980Y0225883D01*
X0030980Y0226881D02*
X0055574Y0226881D01*
X0054575Y0227880D02*
X0030980Y0227880D01*
X0030980Y0228878D02*
X0053577Y0228878D01*
X0052578Y0229877D02*
X0030980Y0229877D01*
X0030980Y0230875D02*
X0051441Y0230875D01*
X0049890Y0231874D02*
X0030980Y0231874D01*
X0030980Y0232872D02*
X0049406Y0232872D01*
X0049376Y0233871D02*
X0030980Y0233871D01*
X0030980Y0234869D02*
X0049746Y0234869D01*
X0030980Y0237865D02*
X0086576Y0237865D01*
X0086797Y0237644D02*
X0087749Y0237250D01*
X0088779Y0237250D01*
X0089730Y0237644D01*
X0090459Y0238372D01*
X0090748Y0239070D01*
X0110451Y0258773D01*
X0112911Y0258773D01*
X0115195Y0261058D01*
X0115195Y0264289D01*
X0112911Y0266573D01*
X0109680Y0266573D01*
X0107395Y0264289D01*
X0107395Y0262223D01*
X0087495Y0242322D01*
X0086797Y0242033D01*
X0086069Y0241305D01*
X0085675Y0240354D01*
X0085675Y0239324D01*
X0086069Y0238372D01*
X0086797Y0237644D01*
X0085865Y0238863D02*
X0030980Y0238863D01*
X0030980Y0239862D02*
X0085675Y0239862D01*
X0085885Y0240861D02*
X0030980Y0240861D01*
X0030980Y0241859D02*
X0086623Y0241859D01*
X0088030Y0242858D02*
X0030980Y0242858D01*
X0030980Y0243856D02*
X0089029Y0243856D01*
X0090027Y0244855D02*
X0030980Y0244855D01*
X0030980Y0245853D02*
X0091026Y0245853D01*
X0092024Y0246852D02*
X0030980Y0246852D01*
X0030980Y0247850D02*
X0093023Y0247850D01*
X0094021Y0248849D02*
X0030980Y0248849D01*
X0030980Y0249847D02*
X0095020Y0249847D01*
X0096018Y0250846D02*
X0030980Y0250846D01*
X0030980Y0251844D02*
X0097017Y0251844D01*
X0098015Y0252843D02*
X0030980Y0252843D01*
X0030980Y0253841D02*
X0099014Y0253841D01*
X0100012Y0254840D02*
X0030980Y0254840D01*
X0030980Y0255838D02*
X0101011Y0255838D01*
X0102009Y0256837D02*
X0030980Y0256837D01*
X0030980Y0257835D02*
X0103008Y0257835D01*
X0104006Y0258834D02*
X0030980Y0258834D01*
X0030980Y0259832D02*
X0105005Y0259832D01*
X0106003Y0260831D02*
X0030980Y0260831D01*
X0030980Y0261829D02*
X0107002Y0261829D01*
X0107395Y0262828D02*
X0030980Y0262828D01*
X0030980Y0263826D02*
X0107395Y0263826D01*
X0107931Y0264825D02*
X0030980Y0264825D01*
X0030980Y0265823D02*
X0108930Y0265823D01*
X0109514Y0268373D02*
X0106995Y0270892D01*
X0106995Y0272273D01*
X0110895Y0272273D01*
X0110895Y0273073D01*
X0106995Y0273073D01*
X0106995Y0274454D01*
X0109514Y0276973D01*
X0110895Y0276973D01*
X0110895Y0273073D01*
X0111695Y0273073D01*
X0111695Y0276973D01*
X0113076Y0276973D01*
X0115595Y0274454D01*
X0115595Y0273073D01*
X0111695Y0273073D01*
X0111695Y0272273D01*
X0111695Y0268373D01*
X0113076Y0268373D01*
X0115595Y0270892D01*
X0115595Y0272273D01*
X0111695Y0272273D01*
X0110895Y0272273D01*
X0110895Y0268373D01*
X0109514Y0268373D01*
X0109069Y0268819D02*
X0030980Y0268819D01*
X0030980Y0269817D02*
X0108070Y0269817D01*
X0107072Y0270816D02*
X0030980Y0270816D01*
X0030980Y0271814D02*
X0106995Y0271814D01*
X0106995Y0273811D02*
X0030980Y0273811D01*
X0030980Y0272813D02*
X0110895Y0272813D01*
X0111695Y0272813D02*
X0116295Y0272813D01*
X0116295Y0273811D02*
X0115595Y0273811D01*
X0115240Y0274810D02*
X0116295Y0274810D01*
X0116295Y0275808D02*
X0114241Y0275808D01*
X0113243Y0276807D02*
X0116295Y0276807D01*
X0116295Y0277805D02*
X0030980Y0277805D01*
X0030980Y0276807D02*
X0109348Y0276807D01*
X0108349Y0275808D02*
X0030980Y0275808D01*
X0030980Y0274810D02*
X0107351Y0274810D01*
X0110895Y0274810D02*
X0111695Y0274810D01*
X0111695Y0275808D02*
X0110895Y0275808D01*
X0110895Y0276807D02*
X0111695Y0276807D01*
X0112911Y0278773D02*
X0109680Y0278773D01*
X0107395Y0281058D01*
X0107395Y0284289D01*
X0109680Y0286573D01*
X0112911Y0286573D01*
X0115195Y0284289D01*
X0115195Y0281058D01*
X0112911Y0278773D01*
X0112941Y0278804D02*
X0116295Y0278804D01*
X0116295Y0279802D02*
X0113940Y0279802D01*
X0114938Y0280801D02*
X0116295Y0280801D01*
X0116295Y0281799D02*
X0115195Y0281799D01*
X0115195Y0282798D02*
X0116295Y0282798D01*
X0116295Y0283796D02*
X0115195Y0283796D01*
X0114689Y0284795D02*
X0116295Y0284795D01*
X0116295Y0285794D02*
X0113690Y0285794D01*
X0116295Y0286792D02*
X0030980Y0286792D01*
X0030980Y0285794D02*
X0108900Y0285794D01*
X0107902Y0284795D02*
X0030980Y0284795D01*
X0030980Y0283796D02*
X0107395Y0283796D01*
X0107395Y0282798D02*
X0030980Y0282798D01*
X0030980Y0281799D02*
X0107395Y0281799D01*
X0107652Y0280801D02*
X0030980Y0280801D01*
X0030980Y0279802D02*
X0108651Y0279802D01*
X0109649Y0278804D02*
X0030980Y0278804D01*
X0030980Y0287791D02*
X0116295Y0287791D01*
X0116295Y0288789D02*
X0112927Y0288789D01*
X0113925Y0289788D02*
X0116295Y0289788D01*
X0116295Y0290786D02*
X0114924Y0290786D01*
X0115195Y0291785D02*
X0116295Y0291785D01*
X0116295Y0292783D02*
X0115195Y0292783D01*
X0115195Y0293782D02*
X0116295Y0293782D01*
X0109664Y0288789D02*
X0030980Y0288789D01*
X0030980Y0289788D02*
X0108666Y0289788D01*
X0107667Y0290786D02*
X0030980Y0290786D01*
X0030980Y0291785D02*
X0107395Y0291785D01*
X0107395Y0292783D02*
X0030980Y0292783D01*
X0030980Y0293782D02*
X0107395Y0293782D01*
X0110895Y0273811D02*
X0111695Y0273811D01*
X0111695Y0271814D02*
X0110895Y0271814D01*
X0110895Y0270816D02*
X0111695Y0270816D01*
X0111695Y0269817D02*
X0110895Y0269817D01*
X0110895Y0268819D02*
X0111695Y0268819D01*
X0113522Y0268819D02*
X0116295Y0268819D01*
X0116295Y0269817D02*
X0114520Y0269817D01*
X0115519Y0270816D02*
X0116295Y0270816D01*
X0116295Y0271814D02*
X0115595Y0271814D01*
X0116295Y0267820D02*
X0030980Y0267820D01*
X0030980Y0266822D02*
X0116295Y0266822D01*
X0116295Y0265823D02*
X0113661Y0265823D01*
X0114659Y0264825D02*
X0116295Y0264825D01*
X0116295Y0263826D02*
X0115195Y0263826D01*
X0115195Y0262828D02*
X0116295Y0262828D01*
X0116295Y0261829D02*
X0115195Y0261829D01*
X0114968Y0260831D02*
X0116295Y0260831D01*
X0116295Y0259832D02*
X0113970Y0259832D01*
X0112971Y0258834D02*
X0116295Y0258834D01*
X0116295Y0257835D02*
X0109513Y0257835D01*
X0109680Y0256573D02*
X0107395Y0254289D01*
X0107395Y0251058D01*
X0109680Y0248773D01*
X0112911Y0248773D01*
X0115195Y0251058D01*
X0115195Y0254289D01*
X0112911Y0256573D01*
X0109680Y0256573D01*
X0108945Y0255838D02*
X0107516Y0255838D01*
X0107946Y0254840D02*
X0106518Y0254840D01*
X0107395Y0253841D02*
X0105519Y0253841D01*
X0104521Y0252843D02*
X0107395Y0252843D01*
X0107395Y0251844D02*
X0103522Y0251844D01*
X0102523Y0250846D02*
X0107607Y0250846D01*
X0108606Y0249847D02*
X0101525Y0249847D01*
X0100526Y0248849D02*
X0109604Y0248849D01*
X0109680Y0246573D02*
X0107395Y0244289D01*
X0107395Y0241058D01*
X0109680Y0238773D01*
X0112911Y0238773D01*
X0115195Y0241058D01*
X0115195Y0244289D01*
X0112911Y0246573D01*
X0109680Y0246573D01*
X0108960Y0245853D02*
X0097531Y0245853D01*
X0096532Y0244855D02*
X0107961Y0244855D01*
X0107395Y0243856D02*
X0095534Y0243856D01*
X0094535Y0242858D02*
X0107395Y0242858D01*
X0107395Y0241859D02*
X0093537Y0241859D01*
X0092538Y0240861D02*
X0107593Y0240861D01*
X0108591Y0239862D02*
X0091540Y0239862D01*
X0090662Y0238863D02*
X0109590Y0238863D01*
X0113001Y0238863D02*
X0116295Y0238863D01*
X0116295Y0237865D02*
X0089952Y0237865D01*
X0098529Y0246852D02*
X0116295Y0246852D01*
X0116295Y0247850D02*
X0099528Y0247850D01*
X0108515Y0256837D02*
X0116295Y0256837D01*
X0116295Y0255838D02*
X0113646Y0255838D01*
X0114644Y0254840D02*
X0116295Y0254840D01*
X0116295Y0253841D02*
X0115195Y0253841D01*
X0115195Y0252843D02*
X0116295Y0252843D01*
X0116295Y0251844D02*
X0115195Y0251844D01*
X0114983Y0250846D02*
X0116295Y0250846D01*
X0116295Y0249847D02*
X0113985Y0249847D01*
X0112986Y0248849D02*
X0116295Y0248849D01*
X0116295Y0245853D02*
X0113631Y0245853D01*
X0114629Y0244855D02*
X0116295Y0244855D01*
X0116295Y0243856D02*
X0115195Y0243856D01*
X0115195Y0242858D02*
X0116295Y0242858D01*
X0116295Y0241859D02*
X0115195Y0241859D01*
X0114998Y0240861D02*
X0116295Y0240861D01*
X0116295Y0239862D02*
X0113999Y0239862D01*
X0116295Y0217895D02*
X0075032Y0217895D01*
X0075788Y0216896D02*
X0116295Y0216896D01*
X0116295Y0215898D02*
X0076010Y0215898D01*
X0075832Y0214899D02*
X0116295Y0214899D01*
X0116295Y0213901D02*
X0075521Y0213901D01*
X0075521Y0212902D02*
X0116295Y0212902D01*
X0116295Y0211904D02*
X0075521Y0211904D01*
X0075521Y0210905D02*
X0116295Y0210905D01*
X0116295Y0209907D02*
X0075521Y0209907D01*
X0075521Y0208908D02*
X0116295Y0208908D01*
X0116295Y0207910D02*
X0075521Y0207910D01*
X0075521Y0206911D02*
X0116295Y0206911D01*
X0116295Y0205913D02*
X0076262Y0205913D01*
X0077260Y0204914D02*
X0116295Y0204914D01*
X0116295Y0203916D02*
X0078259Y0203916D01*
X0079257Y0202917D02*
X0116295Y0202917D01*
X0116295Y0201919D02*
X0080256Y0201919D01*
X0081254Y0200920D02*
X0116295Y0200920D01*
X0116295Y0199922D02*
X0082253Y0199922D01*
X0083252Y0198923D02*
X0116295Y0198923D01*
X0116295Y0197925D02*
X0084250Y0197925D01*
X0087750Y0196926D02*
X0116295Y0196926D01*
X0116295Y0195927D02*
X0087750Y0195927D01*
X0087750Y0194929D02*
X0116295Y0194929D01*
X0116295Y0193930D02*
X0087750Y0193930D01*
X0087750Y0192932D02*
X0116295Y0192932D01*
X0116295Y0191933D02*
X0087750Y0191933D01*
X0087266Y0190935D02*
X0116295Y0190935D01*
X0116295Y0189936D02*
X0087750Y0189936D01*
X0087750Y0188938D02*
X0116295Y0188938D01*
X0116295Y0187939D02*
X0087750Y0187939D01*
X0087750Y0186941D02*
X0116295Y0186941D01*
X0116295Y0185942D02*
X0087750Y0185942D01*
X0087484Y0184944D02*
X0116295Y0184944D01*
X0116295Y0183945D02*
X0087293Y0183945D01*
X0087293Y0182947D02*
X0116295Y0182947D01*
X0116295Y0181948D02*
X0087293Y0181948D01*
X0087293Y0180950D02*
X0116295Y0180950D01*
X0081613Y0188938D02*
X0076811Y0188938D01*
X0076811Y0189936D02*
X0081613Y0189936D01*
X0082096Y0190935D02*
X0076524Y0190935D01*
X0076402Y0191933D02*
X0081613Y0191933D01*
X0081613Y0192932D02*
X0076411Y0192932D01*
X0076411Y0193930D02*
X0081613Y0193930D01*
X0081306Y0194929D02*
X0076411Y0194929D01*
X0076411Y0195927D02*
X0080307Y0195927D01*
X0079309Y0196926D02*
X0076411Y0196926D01*
X0075521Y0197925D02*
X0078310Y0197925D01*
X0077312Y0198923D02*
X0075521Y0198923D01*
X0075521Y0199922D02*
X0076313Y0199922D01*
X0053787Y0207910D02*
X0052819Y0207910D01*
X0052819Y0208908D02*
X0053787Y0208908D01*
X0053787Y0209907D02*
X0052819Y0209907D01*
X0049854Y0209907D02*
X0049554Y0209907D01*
X0050350Y0203916D02*
X0046406Y0203916D01*
M02*
